<?xml version="1.0" encoding="UTF-8"?>
<svg id="rosenberg-maintenance-svg" xmlns="http://www.w3.org/2000/svg" viewBox="0 0 320 320">
  <defs>
    <style>
      .cls-1 {
        fill: #053245;
      }
    </style>
  </defs>
  <g id="logo-group">
    <path class="cls-1" d="M287.99,255.81c11.53-15.52,20.02-32.61,25.64-51.15,3.15-10.39,5.24-21.01,5.89-31.84.36-6.08.7-12.19.3-18.33-.37-5.64-.55-11.29-1.49-16.87-.78-4.66-1.51-9.34-2.54-13.95-2.17-9.71-5.43-19.05-9.46-28.14-7.17-16.21-16.85-30.72-28.75-43.72-5.64-6.16-11.69-11.9-18.26-17.08-15.53-12.24-32.7-21.29-51.51-27.19-6.55-2.05-13.19-3.7-19.96-4.9-4.19-.74-8.37-1.44-12.62-1.74-3.43-.24-6.84-.77-10.27-.81-5.31-.06-10.61-.22-15.93.29-4.38.42-8.76.79-13.12,1.4-6.14.86-12.18,2.17-18.14,3.81-16.83,4.65-32.55,11.8-47,21.72-7.44,5.11-14.4,10.82-20.97,17.01-5.81,5.48-11,11.52-15.98,17.78-10.76,13.54-18.72,28.64-24.62,44.89-3.94,10.84-6.82,21.94-8.04,33.43-.48,4.57-1.05,9.15-1.15,13.73-.12,5.73.21,11.47.35,17.21,0,.15.01.3.03.45.56,4.4,1.03,8.82,1.72,13.2.69,4.37,1.47,8.74,2.48,13.04,2.53,10.72,6.35,20.99,11.11,30.9,7.61,15.82,17.6,29.95,29.82,42.48,5.52,5.66,11.47,10.84,17.77,15.6,13.96,10.54,28.93,19.2,45.62,24.62,7.88,2.56,15.84,4.77,24.02,6.08,3.23.52,6.48.97,9.73,1.38,2.81.35,5.63.69,8.46.83,2.99.14,5.99.03,8.99.03,7.18.12,14.35-.09,21.45-1.32,4.62-.8,9.3-1.37,13.85-2.46,14.87-3.54,29.1-8.84,42.45-16.43,12.78-7.26,24.48-15.95,34.83-26.47,5.44-5.53,10.66-11.24,15.29-17.47ZM286.34,227.03c.43,1.51.52,6.85.15,9.34-5.7,1.99-13.31-2.2-16.66-9.34h16.52ZM267.19,220.4c-1.12-3.22-1.98-6.58-2.77-9.99,3.1-.41,19.93-.29,21.74.2.02,1.57.05,3.2.06,4.84.01,1.58,0,3.16,0,4.71-1.81.43-13,.57-19.04.24ZM286.48,198.14h-2.7c-.04-.55-.1-1.05-.1-1.54,0-4.46,0-8.92.01-13.38,0-.53.03-1.06-.02-1.59-.2-2.28-1.7-3.74-3.96-3.79-2.17-.05-4.35-.02-6.52-.02-4.42,0-8.84,0-13.26,0-.66,0-1.33,0-2.12,0-1.62-6.4-4.39-12.09-9.06-16.9.32-.5.65-1.06,1.03-1.58.75-1.03.89-2.21.87-3.43-.04-1.89-.08-3.77-.21-5.66-.17-2.55-.43-5.09-.68-8.04,1.35-2.59.46-5.8.71-9.06-.75-.51-1.46-1-2.33-1.6.14-1.9.3-3.92.46-6.05h44.41v68.55c-3.19-.1-5.59.91-6.52,4.09ZM201.15,76.81c.5,2.72.94,5.45,1.45,8.4-2.08-1.91-4.01-3.69-6.16-5.67-.05.69-.13,1.13-.1,1.55.23,3.42-.49,6.76-1.05,10.09-1.38,8.22-3.43,16.3-5.71,24.31-.66,2.31-1.43,4.58-2.15,6.87-.1.33-.15.69-.05,1.11,3.7-3.04,6.63-6.72,9.44-10.49,2.82-3.8,5.54-7.68,8.58-11.91-.18.84-.24,1.24-.36,1.61-2.6,8.03-6.68,15.28-11.6,22.07-2.21,3.04-4.5,6.02-6.75,9.03-.2.27-.38.56-.46.95,7.97-3.82,16.48-6.24,24.14-10.64-.79,2.27-4.36,6.87-7.61,9.33-3.27,2.48-6.72,4.72-10.2,7.15,4.14.83,8.33.7,12.85.67-2.27,1.24-4.41,1.71-6.57,2.12-4.06.76-8.15.98-12.27.92-3.29-.05-6.59.03-9.89-.04-2.16-.04-4.31-.24-6.62-.38-.36-2.39.17-4.38.61-6.33,1.22-5.42,2.62-10.79,3.89-16.2.62-2.63,1.12-5.29,1.64-7.94.09-.48-.03-1-.08-1.92-2.24,3.85-2.71,8.1-5.46,11.33-.94-2.29-1.81-4.5-2.75-6.68-3.4-7.9-7.68-15.32-11.89-22.79-2.65-4.71-5.26-9.45-7.28-14.49-.38-.96-.67-1.96-1-2.97,1.92-1.14,4.3-.36,5.63-2.28.62.25,1.11.4,1.57.63,4.73,2.31,8.97,1.31,12.93-1.86,4.47-3.59,7.2-8.39,9.3-13.61,1.92-4.75,3.07-9.71,3.72-14.93,6.54.47,13.04.9,19.31,2.85-2.93,3.16-3.75,4.82-4.03,8.61,1.29-2.12,2.51-3.84,4.32-4.96.76-.47,1.6-.79,2.57-1.27.7.68,1.51,1.26,2.05,2.03,6.08,8.68,12.11,17.4,18.15,26.11.77,1.11,1.47,2.26,2.18,3.36-2.61,2.34-5.17,4.65-7.83,7.04-5.58-6.34-11.12-12.65-16.75-19.05-.67,1.84-.58,3.56.28,8.29ZM208.93,195.65c.06,1.88-.53,3.42-1.77,4.7-.94.97-1.99,1.82-3.03,2.68-.57.47-1.22.84-1.94,1.33,1.71,1.93,4.36,2.79,5.44,5.28-2.35,1.62-5.15,1.03-7.61,1.96,2.73,3.1,5.4,6.14,7.97,9.06.16,5.91-.88,11.35-2.75,16.62-1.2,3.38-3.56,5.9-6.49,7.88-.92.63-1.88,1.2-2.79,1.79.86,3.06,4.71,6.11,10.95,8.63-3.87,1.17-7.52.73-11.34.29.34,1.07,1.05,1.62,1.74,2.1,2.56,1.75,5.31,3.04,8.42,3.48.86.12,1.7.34,2.53.63-5.56-.2-10.95-1.04-15.61-4.35-.68-2.96,0-5.77.39-8.6.55-4.02,1.18-8.03,1.64-12.05.5-4.34.84-8.69,1.24-13.04.02-.23.04-.45.05-.68.15-4.38.36-8.75.45-13.13.08-3.93-.54-7.8-1.14-11.67-.37-2.38-.83-4.76-.91-7.15-.07-2.24.3-4.5.49-6.74.23-2.7.48-5.4.74-8.1.16-1.65.31-3.3.57-4.93.51-3.31,2.32-5.85,4.88-7.85,1.46-1.15,3.04-2.15,4.59-3.23-1.73-.53-5.49.28-12.47,2.68-1.33-1.58-1.39-3.48-1.53-5.22-.22-2.77-.06-5.57-.06-8.53,5.43-.15,10.78-.31,16.2-.03.87,3.57,1.82,6.94,2.09,10.49.35,4.53-.1,9.01-.38,13.51-.26,4.14-.43,8.29-.55,12.44-.09,3.25-.11,6.5,0,9.75ZM179.37,267.12c-1.5.32-3.03.52-4.71.8-.23-1.79.08-2.54,1.55-3.22,2.04-.96,4.17-.95,6.28-.26.84.27,1.62.72,2.81,1.27-2.24.54-4.08,1.02-5.93,1.41ZM181.8,272.08v1.2c-2.72,1.24-5.34.67-8.15-.5v-2.21c2.75.51,5.39,1,8.15,1.51ZM198.86,272.92c-.4.95-1.33,1.14-2.1,1.39-1.76.57-3.56,1.11-5.38,1.42-2.32.4-4.49,1.04-6.28,2.63-.73-.6-.87-1.23-.52-2.03,1.01-2.33,3.33-4.91,6.86-4.94,2.6-.02,5,.59,7.43,1.53ZM192.08,266.38c.2-.5.43-1.08.71-1.78.58.1,1.13.06,1.56.28,1.78.92,3.53,1.91,5.28,2.88.03.01.04.04.06.07-2.66-.5-5.07-.96-7.61-1.44ZM183.51,281.33c2.01.62,4.01,1.38,6.08,1.84,2.1.47,4.26.78,6.41.89,2.14.11,4.3-.12,6.45-.2-2.1,1.54-4.61,1.9-7.23,2.35-.77-.32-1.46-.6-2.26-.93-.3.27-.61.55-1.07.96-2.78-.05-5.53-.91-8.26-1.97-.68-.86-.77-1.75-.11-2.93ZM182.36,179.74c-1.29,2.65-2.58,4.98-3.59,7.44-1.42,3.47-2.68,7.01-3.91,10.55-1.16,3.35-.67,6.55,1.28,9.48.91,1.38,1.94,2.68,3.06,4.21-2.09-.62-3.63-2.07-5.55-2.71,0,2.06.63,4.18,3.74,10.8,1.58,3.37,3.54,6.56,5.23,9.94-.78-.95-1.58-1.87-2.33-2.84-4.07-5.25-7.58-10.82-9.55-17.25-.99-3.24-1.58-6.52-1.8-9.94-.54-8.46-.25-16.91-.25-25.36,0-3.45.48-6.91.76-10.36.15-1.88.31-3.75.51-5.62.29-2.76.62-5.51.92-8.22,2.01-1.11,3.82-.94,5.6-.84,1.56.09,3.12.24,4.68.4.71.08,1.41.26,2.25.42v13.37c-2.36.34-4.96-.21-7.89.38,3.23,1.97,6.13,3.74,9.19,5.61-2.87,4.41-5.72,8.79-7.8,14.07,1.97-1.28,3.61-2.34,5.46-3.54ZM135.27,179.89c-.44.29-.94.59-1.41.93-1.27.92-2.59,1.79-3.77,2.81-4.04,3.51-4.62,9.55-1.56,13.69.08.11.12.25.21.44h-32.9c.97-1.92,1.88-3.71,2.77-5.46,3.24-.89,5.02-3.38,4.6-6.51,1.77.12,3.52.28,5.27.34,1.72.06,3.45.09,5.17,0,1.75-.08,3.56.39,5.38-.39.05-.75.1-1.41.14-1.98-.25-.27-.38-.53-.56-.58-.63-.17-1.28-.33-1.94-.37-3.43-.19-6.86-.34-10.51-.52.96-1.44,1.82-2.73,2.74-4.12.51.68,1,1.34,1.52,2.03.61-.05,1.12-.06,1.63-.13.51-.07,1.06-.35,1.53-.25,2.99.66,5.72-.57,8.56-1.05,2.91-.49,5-2.15,6.53-4.66.62-1.02,1.54-1.85,2.24-2.83.69-.96.59-1.33-.43-2.51-1.66-.08-2.87,1.03-4.31,1.67.61-.88,1.29-1.68,2.21-2.22,1.05-.62,1.63-1.48,1.72-2.73.05-.82.23-1.64.38-2.45.23-1.2.81-2.03,2.08-2.36,2.69-.71,5.3-.56,7.89.46,2.76,1.08,5.13,2.78,7.32,4.74,4.29,3.83,7.72,8.4,10.96,13.13,1.61,2.36,3.06,4.83,4.74,7.14,1.23,1.7,1.72,3.46,1.28,5.61-3.35-5.81-7.19-11.19-11.24-16.42-3.29-4.25-6.9-8.16-11.52-10.98-.64-.39-1.28-.76-2.1-1.24-4.46,4.77-5.03,10.55-4.6,16.78ZM92.72,189.83c.37,1.04.24,2.04-.15,3.08-.67,1.78-1.53,3.42-2.91,4.93-.91,0-1.88,0-2.84,0-5.77-.01-11.53,0-17.3-.05-2.55-.02-3.81-1.18-3.8-3.7.02-4.37.21-8.75.34-13.12,0-.3.09-.59.18-1.2.81-.65,1.81-1.45,2.99-2.39,3.48,1.51,7.42,1.6,11.32,0,3.84-1.58,6.46-4.53,8.26-8.08,9.62-4.42,11.38-12.24,8.36-19.1,3.87-2.56,5.02-6.46,4.74-10.9-.28-4.52-2.61-7.75-6.77-9.87.95-2.71,1.61-5.25.62-8.02h31.98c-2.75,6.76-5.5,13.54-8.3,20.44-.28.04-.64.13-.99.13-1.37,0-2.25.73-2.78,1.92-.55,1.23-.97,2.53-1.55,3.75-1.01,2.1-1.98,4.22-3.18,6.21-1.1,1.82-2.1,3.63-2.33,5.8-.06.58-.35,1.14-.55,1.77-1.37-.75-2.71-1.48-3.82-2.1-1.24.22-1.67.92-2.05,1.67-2.34,4.56-4.12,9.34-5.5,14.26-.27.95.02,2.08.16,3.1.15,1.09.45,2.16.72,3.4-.66.04-1.09.11-1.52.09-1.49-.07-2.4.67-2.87,2.03-.67,1.94-1.17,3.89-.44,5.95ZM68,167.21c.88-2.28,2.47-4.06,4.15-5.77-1.19,2.07-2.33,4.16-4.15,5.77ZM135.55,32.61c.68,1.41,1.52,2.75,2.28,4.1-.14,1.01-.71,1.66-1.52,2.13-1.04.59-2.06,1.22-3.15,1.7-1.15.5-2.36.84-3.65,1.28-5.8-12.14,4.45-22.95,14.09-22.94-2.65.73-4.67,2.12-6.46,3.94-2.64,2.7-3.15,6.57-1.59,9.79ZM129.09,43.97c1.05-.97,2.53-.87,3.82-1.09,1.83-.32,3.71-.32,5.56-.53.65-.07,1.3-.3,1.92-.53.6-.23,1.16-.55,1.89-.55-1.03.69-2.01,1.46-3.09,2.04-2.97,1.57-5.94,3.18-9.01,4.53-1.53.67-3.28.84-5.39,1.34,1.15-2.44,2.77-3.79,4.3-5.21ZM140.52,68.32c-2.26-1.9-3.01-4.54-3.3-7.27-.18-1.68-.53-3.53.77-5.06-.56,4.42.55,8.45,2.53,12.33ZM139.25,53.25c-.41-.11-.9-.25-1.41-.39-.08-.24-.19-.44-.21-.65-.14-1.06.41-1.68,1.36-2.14.22.4.42.76.66,1.2.92.21,1.85.42,2.8-.56v-5.02c2.48-.82,3.2-3.29,5.02-4.67,1.37,1.01,1.33,2.37,1.12,3.7-.4,2.52-.9,5.02-1.35,7.52-.22,1.24-.43,2.47-.73,4.2-.31-.88-.46-1.31-.67-1.91-1.72.14-3.46.29-5.23.43-.47-.6-.89-1.12-1.37-1.73ZM166.86,38.25c.71,1.11.71,2.12.54,3.2-.88,5.34-3.51,9.84-6.56,14.15-.43.61-.84,1.28-1.4,1.75-.52.45-1.18,1.06-2.13.06,3.89-6.03,7.69-12.05,9.55-19.17ZM155.66,45.82c-.31-1.84-.37-3.72-.53-5.58-.1-1.15.32-2.05,1.39-2.78,2.56-.07,3.5.45,4.05,2.64.69,2.77.12,5.36-1.67,7.6-.34.42-.92.65-1.35.94-1.35-.63-1.72-1.77-1.9-2.83ZM148.2,36.17c4.26-2.58,8.52-5.15,12.9-7.8.24.2.57.48,1.06.89-4.44,3.01-9.09,5.26-13.96,6.91ZM148.92,71.46c-2.42-2.57-2.58-6.51-.4-9.46,1.14-1.54,2.1-1.97,3.13-1.42-3.43,2.5-5.19,5.95-2.73,10.88ZM151.2,55.28v-6c1.15,2.21,2.19,4.35,2.49,7.03-.98-.4-1.69-.7-2.49-1.02ZM150.85,89.63c-1.4-1.18-2.71-2.28-4.37-3.68.05,1.03,0,1.61.13,2.15.41,1.75.83,3.5,1.35,5.22.23.76.21,1.41.02,2.18-.56,2.33-1.03,4.68-1.47,7.04-.12.65-.02,1.34-.02,2.04,1.75,1.83,3.49,3.65,5.23,5.47-4.12-3.17-8.72-5.37-13.73-7.17,1.07-4.21,2.1-8.33,3.18-12.43,1.06-4.04,2.17-8.07,3.34-12.43,2.2,4.03,4.23,7.75,6.33,11.61ZM138.21,109.85c1.88,1.65,3.55,3.12,5.31,4.65-.8,2.47-1.66,5.16-2.57,7.99-.5-.63-.93-1.17-1.46-1.83-2.29,4.32-4.37,8.57-6.76,12.62-2.36,4.01-5.05,7.82-7.65,11.83-.88-.5-1.78-1.01-2.87-1.63,1.23-3.12,2.38-6.2,3.65-9.23,1.79-4.3,3.69-8.54,5.48-12.84.83-1.99,2.11-3.65,3.51-5.2,1.29-1.44,2.1-3.08,2.75-4.86.15-.42.34-.82.62-1.51ZM121.68,152.34c-.54-.05-1-.09-1.65-.15-.15,1.01-.37,2.03-.42,3.06-.08,1.59-.62,2.97-1.72,4.06-1.18,1.18-1.67,2.64-2.03,4.19-.35,1.52-.73,3.04-1.12,4.71-1.16-.25-1.96-.91-2.76-1.52-.7-.54-.97-1.32-.89-2.21.16-1.88.29-3.76.53-5.63.07-.57.33-1.19.68-1.65,2.11-2.79,3.35-6.04,4.84-9.15.45-.93.96-1.82,1.45-2.76,2.5.57,4.14,2.06,5.49,3.93-.95-.57-1.9-1.15-2.84-1.72q-1,1.12.43,4.84ZM105.32,162.82c-1.76,5.11-3.5,10.13-5.24,15.14-.04.1-.24.14-.45.26-.19-.15-.41-.33-.74-.6.55-1.55,1.11-3.09,1.64-4.64.85-2.48,1.65-4.98,2.54-7.45.42-1.16.47-2.55,1.78-3.33.19.25.36.48.46.61ZM161.92,151.45c-1.76-1.41-3.77-2.34-6.05-2.71-3.39-.55-6.03.7-8.08,3.27-1.16,1.45-2.03,3.13-3.08,4.8-1.44-.43-3.02-1.13-4.67-1.32-2.12-.25-4.3-.12-6.45-.1-.87.01-1.74.18-3.07.33,1.71-2.36,3.05-4.41,4.59-6.3,3.32-4.08,6.76-8.04,10.1-12.1,2.72-3.31,5.14-6.83,7.2-10.61.97-1.77,1.98-3.52,2.98-5.31h10.13c.35,1.65.91,3.3,1.02,4.98.22,3.28.87,6.53.22,9.9-.52,2.71-.42,5.54-.58,8.32-.09,1.67-.07,3.33.87,4.55-.37,2.25-.71,4.25-1.02,6.14-1.31-1.23-2.64-2.63-4.13-3.82ZM157.27,115.97c1.29-1.71,2.52-3.32,3.84-5.07.96,1.89,1.87,3.67,2.85,5.6-2.27.06-4.39.36-6.69-.54ZM168.41,65.23c1.48-4.02,2.95-8.02,4.43-12,.04-.11.24-.15.63-.39-.78,4.35-1.15,8.58-3.41,12.3-.41.06-.7.12-.99.14-.22.01-.44-.03-.66-.05ZM255.1,188.65h-17.93c-.48-2.11-.06-4.2-.25-6.35.42-.13.76-.33,1.1-.33,5.29-.02,10.59-.01,15.84-.01.97,1.86,1.41,4.21,1.24,6.7ZM255.82,192.37c.84,4.58,1.65,8.97,2.5,13.59h-21.26v-13.59h18.76ZM251.22,177.81c-4.57,0-9.14.02-13.71-.02-1.74-.02-3.09.6-3.86,2.18-.31.64-.44,1.43-.44,2.16-.04,4.53-.02,9.07-.02,13.6,0,.6,0,1.2,0,2.03-2.6.24-5.12.03-7.8.15,0-1.23-.04-2.34.01-3.44.04-.98.25-1.95.26-2.93.05-4.31.67-8.51,1.77-12.69,1.37-5.21,2.4-10.51,3.61-15.89,1.63.12,3.37,1.11,5,.05,2.85,1.07,5.59,2.09,8.48.37,4.35,4.03,7.41,9.25,8.41,14.29-.58.05-1.15.15-1.71.15ZM233.64,138.9c-.79,1.12-1.63,2.33-2.8,3.99.1-2.79.32-5.04.23-7.27-.09-2.4-.45-4.78-.71-7.17-.18-1.64-.39-3.28-.6-4.92-.37-2.83-.73-5.66-1.12-8.48-.36-2.52-.76-5.03-.88-7.61.79,2.65,1.65,5.28,2.37,7.95,1.44,5.28,2.81,10.57,4.21,15.86.28,1.06.27,2.03-.28,3.05-.3.56-.35,1.29-.41,1.95-.07.82-.02,1.66-.02,2.66ZM239.34,137.5c-.56,2.79.79,3.93,4.97,4.47-1.92.71-4,.58-6.07,1.11-.78.92-.53,2.12-.35,3.16.28,1.64,0,3.11-.58,4.61-1.12,2.84-2.16,5.72-3.27,8.65-.84-.25-.73-.96-.65-1.57.2-1.49.48-2.96.68-4.45.26-1.91-.02-3.68-1.24-5.13-1.03.16-1.29.72-1.44,1.44-.48,2.42-1.36,4.77-1.39,7.28,0,.34-.21.67-.33,1.03-.16-.08-.24-.1-.26-.14q-1.24-3.55-.02-7.12c.22-.64.52-1.25.72-1.89.45-1.46,1.1-2.76,2.37-3.72.64-.49,1.11-1.21,1.67-1.83,1.56-1.73,2.67-3.63,2.38-6.09-.03-.28.06-.57.1-.91,2.96-.43,5.75-.05,8.88,1.1h-6.16ZM238.19,131.44c-.37-1.3-.75-2.58-1.1-3.87-1.6-5.78-3.31-11.53-4.75-17.35-.79-3.19-1.31-6.48-1.6-9.76-.18-2.06.3-4.17.51-6.49-1.49.04-2.09,1.34-3.31,1.81-1.23-.71-1.63-2.18-2.5-3.26-.84-1.05-1.6-2.17-2.52-3.41,1.47-1.82,3.05-3.48,5.06-4.88,2.8,3.27,5.51,6.56,9.1,9.07,2.47,12.35,3.72,24.9,4.53,37.61-.96.85-2.14.66-3.43.53ZM223.69,210.47c1.95-.38,28.87-.53,35.87-.19,1.17,3.2,1.85,6.62,2.9,10.08h-39.74c.33-3.38.65-6.65.97-9.89ZM261.61,199.4c-.42-2.26-.78-4.53-1.19-6.91h3.14c.39,1.82.4,11.8-.03,13.96-1.06-2.41-1.49-4.73-1.92-7.04ZM263.76,188.6h-3.71c-.41-2.13-1.04-4.19-1.01-6.52h4.68c.24,2.14.15,4.28.04,6.52ZM309.33,150.79c-.01-1.81.87-2.94,2.45-3.71.88.54.96,1.2.96,1.9-.02,5.35-.03,10.71-.05,16.06,0,.13-.12.27-.21.48-.47-.17-.97-.3-1.42-.53-1.17-.59-1.76-1.52-1.75-2.89.04-3.77.05-7.54.02-11.31ZM302.87,201.4c-1.4.24-2.81.39-4.22.52-.89.08-1.58.45-2.08,1.16-1.3,1.87-2.28,3.8-2.25,6.23.09,6.87.02,13.74.02,20.61,0,.83,0,1.66,0,2.61-1.21.81-2.42,1.62-3.89,2.6,0-1.01,0-1.68,0-2.35.01-10.42.02-20.84.04-31.25,0-.96.15-1.91.25-3.13h18.52c-1.91,1.97-4.1,2.62-6.39,3.01ZM307.81,119.28h-59.04c-.09-2.44-.19-4.89-.29-7.51,1.89,0,3.83,0,5.77,0,4.12.01,8.21-.31,12.29-.85,3.39-.45,6.47-1.71,9.43-3.36,1.5-.83,2.99-1.77,4.8-1.67.88.05,1.79.15,2.62.43,2.34.77,4.68,1.55,6.95,2.49,4.74,1.95,9.67,3,14.94,3.51.82,2.25,1.65,4.54,2.53,6.97ZM19,101.66c5.59-13.09,12.74-25.23,21.71-36.27,3.85-4.73,7.84-9.34,12.2-13.6,11.91-11.63,25.17-21.32,40.13-28.62,10.25-5,20.87-8.89,31.96-11.42,4.71-1.08,9.51-1.81,14.3-2.5,4.13-.59,8.3-1.03,12.47-1.28,3.51-.22,7.04-.05,10.56-.09,4.49-.05,8.95.45,13.42.83,6.55.55,12.99,1.72,19.39,3.2,11.9,2.74,23.31,6.88,34.23,12.38,10.14,5.1,19.55,11.37,28.34,18.56,6.76,5.53,12.87,11.75,18.51,18.44,8.13,9.65,14.98,20.14,20.58,31.46,1.69,3.42,3.21,6.92,4.81,10.38-.12.09-.24.17-.36.26-5.29-2.61-10.57-5.26-15.89-7.83-2.89-1.4-5.83-2.71-8.78-3.99-.94-.41-1.98-.64-2.99-.85-1.6-.33-3.09-.02-4.53.79-3.98,2.24-7.99,4.43-11.99,6.63-3.15,1.73-6.31,3.43-9.66,5.24-2.24-9.37-5.12-18.34-9.59-26.91,1.78-2.42.72-4.61-.91-6.66-1.68-2.12-3.41-4.21-5.16-6.27-3.5-4.13-7.05-8.22-10.55-12.36-4.74-5.6-10.6-9.17-17.86-10.37-3.77-.62-7.55-.89-11.38-.93-6.43-.08-12.86-.37-19.43-.58-1.77-1.19-3.69-2.49-6.02-4.05-1.05-1.34-2.06-3.22-2.22-5.51-.09-1.33-.7-2.42-1.7-3.33-.55-.5-.98-1.13-1.42-1.73-3.13-4.26-7.05-7.52-12.27-8.51-4.69-.89-9.37-.34-13.81,1.64-5.4,2.41-9.08,6.37-10.33,12.25-.87,4.12-.75,8.25,1.55,12.26-2.67,3.28-5.36,6.58-8.12,9.98.37,1.24,1.23,1.8,2.59,1.9,2.15.15,4.16-.35,6.12-1.11,2.23-.86,4.41-1.82,6.71-2.78.56,1.2.67,2.48.7,3.82.07,2.33.32,4.66.37,6.99.02.95-.24,1.92-.49,2.85-.51,1.87-.61,3.73.15,5.53,1.05,2.49,2.83,4.03,5.62,4.16.44.02.88.07,1.32.1.38.82.13,1.51-.06,2.24-2.21,8.73-4.4,17.47-6.59,26.21-.13.51-.27,1.02-.33,1.53-.1.98-.19,1.98.93,2.45-.86,2.57-1.67,4.98-2.5,7.43-1.46.42-2.88.35-4.27.13-3.24-.51-6.48-1.03-9.68-1.76-2.72-.62-5.3-.46-7.93.38-3.29,1.05-6.66,1.73-10.13,1.48-1.93-.14-3.86-.38-5.79-.61-.89-.11-1.76-.29-2.88-.48-2.35-3.59-6.05-5.39-10.35-6.29-1.08-3.57-3.06-6.54-5.92-8.88-2.22-1.82-4.7-2.92-7.64-2.32-.72.14-1.4.49-2.08.77-1.42.6-2.82.72-4.36.32-2.23-.58-4.51-1.03-6.79-1.33-2.42-.31-4.74.31-6.94,1.36-3.29,1.57-5.65,4.18-7.57,7.21-1.12,1.77-2.1,3.64-3.08,5.36-1.72.42-3.36.97-5.03,1.18-1.07.13-2.21-.18-3.3-.37-3.75-.63-7.46-1.44-11.08-2.62-.27-.09-.51-.23-.9-.4.69-1.76,1.3-3.45,2-5.09ZM61.2,179.33c-1.68-3.1-3.25-5.99-4.82-8.88-1.54-2.83-3.07-5.66-4.52-8.56,2.86,3.05,5.01,6.72,8.14,9.82.74-5.87,1.45-11.45,2.16-17.11.48,3.53-.19,21.99-.96,24.72ZM13.68,197.86c-.52,0-1.04,0-1.79,0-.96-4.86-1.97-9.48-2.77-14.12-.51-2.96-.67-5.97-1.05-8.95-.8-6.23-.9-12.48-.85-18.74.03-4.15.44-8.27.82-12.4.45-4.95,1.25-9.83,2.34-14.67.57-2.55,1.27-5.07,1.94-7.72h15.2c1.2-3.58,3.35-6.31,6.31-8.38.54-.38,1.08-.86,1.96-.46-2.19,1.62-3.72,3.69-4.84,6.13-1.14,2.5-.93,5.14-.94,7.73-6.58.67-12.95,10.06-9.12,17.43-.09.12-.15.3-.27.35-4.94,1.86-7.58,9.29-4.41,15.34,2.23,4.26,5.45,7.56,10,9.29,1.24.47,2.57.69,4.05,1.07,1.65,5.36,5.37,8.86,10.92,9.97,5.14,1.03,9.76-.29,13.56-4.45,1.53,2.57,3.05,5.07,4.51,7.59.25.43.4.99.4,1.5.03,1.89.02,3.78-.06,5.66-.06,1.35-.26,2.7-.37,4.05-.17,2.09-1.45,3.48-3.52,3.74-.52.06-1.05.05-1.57.05-13.48,0-26.96,0-40.44,0ZM23.47,227.6c.65-.51,1.42-.28,2.12-.28,11.31-.02,22.63-.06,33.94,0,1.7,0,3.01-.38,4.15-1.7,1.31-1.52,2.78-2.89,4.5-4.65H20.01c-1.33-3.52-2.62-6.94-4.04-10.68,4.49-.07,8.66-.05,12.82-.05,4.27,0,8.54,0,12.81,0,4.2,0,8.39,0,12.59,0,4.27,0,8.54,0,12.81,0,4.19,0,8.39,0,12.63,0,2.72-2.48,5.08-5.36,8.3-7.31,1.48.63,2.75,1.5,3.85,2.68,1.2,1.28.52,2.89.85,4.53,3.07.18,6.12.06,9.16.08,3.15.02,6.29,0,9.44,0,3.07,0,6.14,0,9.21,0s6.14,0,9.22,0c3.07,0,6.14,0,9.21,0,3.15,0,6.29,0,9.44,0,3.07,0,6.14,0,9.22,0,3.06,0,6.12,0,9.03,0,1.4,3.62,2.72,7.02,4.13,10.66h-78.93c-.4,2.18-.76,4.13-1.15,6.22h84.71c.95,1.44,1.98,2.99,3.01,4.55,2.75,4.14,5,8.56,7.24,12.99.4.79.54,1.55.23,2.39-.1.28-.17.58-.25.87-.59,2.2-1.03,4.4.1,6.59-.82,1.32-1.9,2.26-3.04,3.09-2.12,1.54-4.37,2.89-6.89,3.7-1.29.42-2.46.99-3.51,1.91-1.75,1.51-2.11,3.56-2.52,5.72-1.47.9-3.18,1.09-4.84,1.47-2.69.61-5.38,1.18-8.06,1.8-.57.13-1.1.41-1.72.65v1.85c1.31,1.58,3.23,1.49,4.94,1.72,4.06.55,8.15.97,12.24,1.27,2.38.18,4.78.03,7.38.03-.15.96-.29,1.66-.36,2.37-.07.68-.09,1.36-.08,2.04,0,1.28-.06,2.57.1,3.83.23,1.8,1.38,3,3,3.65,1.1.44,2.27.71,3.43.98,2.41.56,4.84.89,7.32.87,3.15-.03,6.3.1,9.44-.04,3.88-.17,7.75-.47,11.61-.85,2.89-.28,5.77-.71,8.62-1.2,3.4-.59,6.53-2.05,9.76-3.19,1.59-.57,3.32-.82,5-1.07,3.02-.45,6.06-.79,9.1-1.18.66-.08,1.32-.17,2.5-.33-79.17,57.23-185.12,25.76-225.58-55.94ZM269.43,265.82h-1.87c-16.25,0-32.5,0-48.75-.01-.86,0-1.83.33-2.55-.72.1-.19.2-.47.37-.68,2.33-2.88,3.05-6.29,3.26-9.89.1-1.8.31-3.6.44-5.4.13-1.9,0-3.77-.94-5.52,2.17-5.43,2.59-11,3.46-16.53h42.1c3.79,9.71,10.95,14.52,21.69,13.95.02.87.04,1.68.05,2.49,0,.83,0,1.66,0,2.41-6.46,8.77-14.26,17.79-17.26,19.91Z"/>
    <path class="cls-1" d="M89.14,206.36s-.17-.17-.33-.32c-.31.37-.62.76-.94,1.14-.17-.14-.34-.28-.51-.41-4.97,4.08-8.82,9.21-12.86,14.13-4.06,4.94-7.88,10.08-11.4,15.48.88-.69,1.77-1.39,2.65-2.08.08.08.17.16.25.24l-3.96,6.45.24.27c.24-.17.51-.31.71-.52,8.24-8.47,14.15-18.75,21.43-28.37-2.22,4.66-4.37,9.01-6.37,13.43-3.26,7.19-4.83,11.68-4.89,13.59.28-.39.51-.68.7-1,4.87-7.87,8.96-16.15,12.61-24.64,1.03-2.4,1.81-4.92,2.69-7.39Z"/>
    <path class="cls-1" d="M144.68,271.17c-.44-.17-.64-.31-.85-.32-5.74-.32-11.49-.66-17.23-.93-2.39-.11-4.79-.03-7.19-.08-1.64-.04-3.28-.24-4.92-.22-3.89.05-7.78.19-11.66.29-1.42.04-2.85.05-4.27.12-4.85.25-9.7.51-14.54.79-2.6.15-5.19.37-7.78.55,1.58.53,3.17.8,4.76.88,4.33.23,8.66.39,12.99.57.3.01.6.02.9.04,4.1.25,8.2.69,12.3.71,6.66.02,13.31-.24,19.97-.39.3,0,.6-.05.89-.08,2.9-.25,5.8-.49,8.69-.76,2.58-.24,5.18-.38,7.93-1.17Z"/>
    <path class="cls-1" d="M121.2,241.43c3.51.21,7.02.35,10.54.43,8.23.19,16.46.13,24.66-.77,3.86-.42,7.74-.64,11.6-.99.87-.08,1.72-.36,2.59-.55-.04-.17-.08-.34-.12-.5-4.84-.29-9.68-.73-14.53-.84-6.29-.15-12.59-.04-18.88-.03-1.42,0-2.85.05-4.27.14-3.8.23-7.61.5-11.41.75-2.68.18-5.37.33-8.05.56-1.32.11-2.62.37-4.21.6.49.18.69.31.89.33,3.72.31,7.44.66,11.17.88Z"/>
    <path class="cls-1" d="M78.57,249.73c-.04.28.07.57.17,1.22,3.63-9.23,6.27-18.29,8.51-27.47,1.17-4.8,2.25-9.63,3.37-14.44.21-.9.43-1.79-.03-2.83-1.8,2.61-2.86,5.32-3.76,8.11-3.73,11.57-6.68,23.33-8.26,35.41Z"/>
    <path class="cls-1" d="M132.63,290.19c9.42,1.4,23.34,1.92,28.29-.12-4.6-1.58-23.7-1.58-28.29.12Z"/>
    <path class="cls-1" d="M102.73,258.82c.96-.43,1.96-.74,2.82-1.29,1.07-.67,1.19-1.8.5-2.96-.61-1.02-1.53-1.26-2.68-.68-.4.2-.78.44-1.14.7-1.72,1.26-1.63,2.72.5,4.22Z"/>
    <path class="cls-1" d="M50.45,240.41c-.95.42-1.08.74-.96,2.25,1.01.97,1.96,1.88,2.91,2.79,2.07.08,2.38-.24,2.33-2.34-.58-.66-1.16-1.33-1.74-1.99-.81-.92-1.58-1.14-2.54-.71Z"/>
    <path class="cls-1" d="M89.71,250.35c-.58.75-.54,1.53.12,2.25,1.48.86,2.54-.96,3.95-.66.26.05.65-.31.91-.56.26-.25.43-.6.79-1.13-.51-.65-.91-1.16-1.22-1.56-1.99-.35-3.45.22-4.56,1.65Z"/>
    <path class="cls-1" d="M51.24,252.22c-1.31-.08-2.15.7-2.65,1.74-.54,1.09.27,1.84,1.02,2.49.22.19.49.32.9.57.75-.3,1.55-.62,2.22-.88q.53-2.13-.3-3.81c-.46-.04-.82-.09-1.19-.11Z"/>
    <path class="cls-1" d="M70.03,253.58c.59,1.09-.02,2.63,1.18,3.61,1.75-.97,2.1-2.23,1.36-4.71q-1.53-.57-2.54,1.1Z"/>
    <path class="cls-1" d="M97.57,237.3c.16-.83-.05-1.47-1.11-1.74-1.89,1.29-2.13,2.09-1.22,4.07,1.19-.36,2.07-1.02,2.33-2.33Z"/>
    <path class="cls-1" d="M62.36,249.96c-.91.04-1.82,1.06-1.77,1.99.04.76.73,1.36,1.52,1.32.97-.05,1.83-1.01,1.75-1.96-.07-.82-.69-1.38-1.49-1.34Z"/>
    <path class="cls-1" d="M66.49,242.34c-.97-.25-1.45.45-1.84,1.45.39.43.81.89,1.22,1.33,1.21-.31,1.74-.83,1.53-1.7-.1-.42-.53-.98-.92-1.08Z"/>
    <path class="cls-1" d="M40.8,80.4c10.11,0,20.22-.02,30.33-.02,8.91,0,17.82.02,26.74,0,.76,0,1.63.29,2.41-.48-2.11-4.22-6.08-5.31-9.95-6.29-4.07-6.09-6.94-7.15-13.44-5.08-4.76-8.49-16.96-9.04-22.77.35-4.19.06-7.6,1.73-9.89,5.37-3.79,1.47-5.42,3.06-6.01,5.9.82.44,1.73.25,2.6.25Z"/>
    <path class="cls-1" d="M110.37,44.66c-1.73-4-4.9-4.76-8.17-5.35-4.16-4.8-9.43-4.69-13.59-.35-5.47.83-7.86,2.35-8.84,5.74,10.1-.05,20.14.04,30.59-.05Z"/>
    <path class="cls-1" d="M270.07,63.59c-1.55-1.72-3.5-2.49-5.89-2.36-2.01-3.46-7.45-4.36-10.26-1.51-1.1,1.12-2.24,1.87-3.8,2.08-.71.1-1.41.49-2.05.86-1.3.77-2.37,1.77-2.67,3.66,8.59.03,17.06,0,25.46.04.56-1.35-.14-2.06-.8-2.78Z"/>
    <path class="cls-1" d="M231.23,240.06c-.46,0-.92.27-1.39.42,6.89,1.38,17.54,1.14,19.53-.17-.35-.11-.61-.26-.88-.27-5.76-.01-11.51-.02-17.27.02Z"/>
    <path class="cls-1" d="M284.61,150.24c0-2.27.04-4.53,0-6.8-.05-2.65-1.4-4.2-3.95-4.67-.59-.11-1.18-.24-1.78-.25-4.04-.02-8.09-.13-12.13.02-4.1.16-5.54,2.03-5.53,5.82.01,3.4-.02,6.8.02,10.2.01,1.13.15,2.25.26,3.38.19,1.94,1.24,3.19,3.08,3.73.71.21,1.46.39,2.19.39,3.97.03,7.94.02,11.91,0,.66,0,1.34-.13,1.99-.28,2.68-.64,3.91-2.19,3.95-4.97.03-2.19,0-4.38,0-6.57h0ZM271.74,158.51c-1.7.08-3.26.22-4.81.22-1.38,0-1.98-.68-2.09-2.11-.03-.45,0-.9,0-1.36,0-3.54-.02-7.09.01-10.63,0-.79.22-1.57.36-2.52h6.53v16.4ZM279.32,158.42c-1.59.18-3.22.01-5,0v-16.03c1.53-.93,3.19-.73,4.8-.63,1.06.06,1.75.8,2.03,1.84.11.43.12.89.12,1.34.02,3.69.03,7.38.02,11.07,0,1.74-.28,2.22-1.96,2.41Z"/>
  </g>
</svg>