<?xml version="1.0" encoding="UTF-8"?>
<svg xmlns="http://www.w3.org/2000/svg" version="1.1" viewBox="0 0 320 350">
  <defs>
    <style>
      .cls-1 {
        fill: #053245;
      }
    </style>
  </defs>
  <!-- Generator: Adobe Illustrator 28.6.0, SVG Export Plug-In . SVG Version: 1.2.0 Build 709)  -->
  <g>
    <g id="Layer_1">
      <g>
        <path class="cls-1" d="M309.4,170.4c-.2-4-.5-8.2-1.2-12.3l-.4-2.1c-.6-3.4-1.2-7-2-10.5-1.9-8.3-4.7-16.6-8.6-25.4-6.4-14.3-15.2-27.5-26.2-39.5-5.3-5.8-10.9-11-16.6-15.4-14-11-29.8-19.2-46.9-24.5-6.1-1.9-12.2-3.4-18.2-4.4-3.7-.6-7.6-1.3-11.5-1.6-1.2,0-2.3-.2-3.5-.3-1.9-.2-3.9-.4-5.9-.4h-1.9c-1.5,0-3,0-4.5,0-3.3,0-5.8.1-8.2.3l-2.3.2c-3.2.3-6.5.6-9.7,1.1-5.3.7-10.9,1.9-16.5,3.4-15.5,4.3-29.9,10.8-42.8,19.6-6.5,4.4-13,9.6-19.1,15.4-4.6,4.3-9.1,9.3-14.6,16-9.4,11.7-16.7,24.9-22.4,40.5-3.9,10.6-6.3,20.5-7.3,30.2l-.2,1.8c-.4,3.5-.8,7-.8,10.6,0,3.6,0,7.3.2,10.9,0,1.6.1,3.1.1,4.7,0,.1,0,.2,0,.4.2,1.2.3,2.4.4,3.6.3,2.7.7,5.6,1.1,8.3.5,3.3,1.3,7.6,2.3,11.8,2.2,9.2,5.6,18.6,10.1,27.9,6.8,14.1,16,27,27.2,38.3,4.9,5,10.3,9.7,16.2,14.1,14,10.5,27.6,17.7,41.5,22.2,8.4,2.7,15.4,4.5,21.9,5.5,2.8.5,5.7.9,8.9,1.2,2.5.3,5.1.6,7.7.7.9,0,2,0,3.2,0s1.7,0,2.5,0,1.7,0,2.5,0h0c1,0,2,0,3,0,6.4,0,11.7-.4,16.5-1.2,1.3-.2,2.6-.4,4-.6,2.9-.4,5.8-.9,8.7-1.6,14.1-3.3,27.1-8.3,38.7-14.8,12.2-6.9,22.6-14.7,31.7-23.9,6-6,10.3-10.9,13.9-15.8,10.3-13.8,18.2-29.3,23.4-46.2,3-9.8,4.8-19.5,5.4-28.7.3-5.1.7-10.8.3-16.5,0-1-.1-2-.2-3ZM297.2,135l2.3,6.3c0,.1,0,.3,0,.4,0,.1-.2.2-.4.2h-53.9c-.2,0-.4-.2-.5-.4l-.3-6.8c0-.1,0-.2.1-.3,0,0,.2-.1.3-.1h3.3s2.2,0,2.2,0c3.4,0,7-.3,11-.8,2.7-.4,5.4-1.3,8.5-3l.3-.2c1.2-.7,2.5-1.4,4-1.4s.2,0,.3,0c.6,0,1.6.1,2.5.4,2.3.7,4.3,1.4,6.4,2.3,4,1.6,8.4,2.7,13.5,3.1.2,0,.3.1.4.3ZM33,129.9c.2-.5.4-1,.6-1.5.4-1.1.8-2.1,1.2-3.1,5.2-12.2,11.9-23.2,19.9-32.9,4.2-5.2,7.7-9,11.2-12.4,11.3-10.9,23.6-19.6,36.8-26,9.7-4.7,19.5-8.2,29.3-10.4,4.5-1,9.1-1.7,13.1-2.3,3.8-.5,7.7-.9,11.4-1.2,1.2,0,2.4-.1,4.1-.1s1.5,0,2.2,0c.7,0,1.5,0,2.2,0s1.7,0,1.7,0c3.2,0,6.3.3,9.4.6.8,0,1.5.1,2.3.2,5.4.4,11.1,1.4,17.8,2.9,10.8,2.5,21.4,6.2,31.4,11.2,8.9,4.4,17.7,10.1,26,16.9,5.9,4.8,11.4,10.2,17,16.8,7.4,8.7,13.7,18.3,18.9,28.6,1.1,2.1,2.1,4.3,3,6.4.5,1,.9,2,1.4,3,0,.2,0,.4-.1.6l-.3.2c0,0-.2,0-.3,0s-.1,0-.2,0l-4.3-2.1c-3.4-1.7-6.8-3.3-10.2-5-2.3-1.1-4.8-2.2-8-3.6-.8-.3-1.7-.5-2.6-.7-.3,0-.7-.1-1-.1-.9,0-1.8.3-2.8.8-3.7,2-7.4,4.1-11,6-2,1.1-4,2.2-6,3.3l-2.8,1.5c0,0-.1,0-.2,0s-.1,0-.2,0c-.1,0-.2-.2-.3-.3-2.3-9.7-5.1-17.4-8.7-24.3,0-.2,0-.3,0-.5,1.2-1.6,1-3.2-.8-5.5-1.4-1.7-2.9-3.5-4.7-5.7-1.5-1.8-3-3.5-4.5-5.2-1.7-2-3.4-4-5.1-5.9-4.4-5.2-9.7-8.2-16-9.2-3.2-.5-6.6-.8-10.3-.8-4.1,0-8.4-.2-12.4-.3-1.8,0-3.5-.1-5.3-.2,0,0-.2,0-.2,0l-5.5-3.7s0,0-.1,0c-.9-1.1-2-2.9-2.1-5.2,0-1-.5-1.9-1.4-2.7-.5-.4-.8-.9-1.2-1.4l-.2-.2c-3.2-4.3-6.7-6.7-10.9-7.5-1.3-.2-2.6-.4-3.9-.4-2.9,0-5.7.6-8.5,1.8-5,2.2-8.1,5.8-9.2,10.8-.9,4.2-.5,7.6,1.4,10.8,0,.2,0,.4,0,.5l-7.3,8.8c.3.7.9,1.1,1.9,1.2.2,0,.5,0,.7,0,1.4,0,2.9-.3,4.7-1,1.4-.5,2.8-1.1,4.2-1.7.6-.3,1.3-.5,1.9-.8,0,0,.1,0,.2,0,.2,0,.3,0,.4.3.6,1.2.7,2.5.7,3.6,0,1,0,2,.2,3,0,1.1.2,2.2.2,3.4,0,.9-.3,1.9-.5,2.7-.5,1.8-.5,3.3.1,4.7,1,2.2,2.5,3.4,4.7,3.5.3,0,.6,0,.8,0h.4c.2,0,.3.1.4.3.4.8.2,1.5,0,2.1v.2c-1.8,7-3.6,13.9-5.4,20.9l-.8,3.1c0,.4-.2.7-.2,1.1-.1,1,0,1.5.6,1.8s.3.3.3.6l-2.3,6.7c0,.1-.2.2-.3.3-.7.2-1.4.3-2.2.3s-1.2,0-1.9-.2c-2.9-.5-5.9-.9-8.9-1.6-1-.2-1.9-.3-2.9-.3-1.4,0-2.7.2-4.1.7-3,1-5.6,1.4-8.1,1.4s-.9,0-1.3,0c-1.6-.1-3.2-.3-4.7-.5h-.6c-.6-.1-1.1-.2-1.7-.3-.3,0-.6-.1-.9-.2-.1,0-.2,0-.3-.2-1.9-2.8-4.9-4.6-9.2-5.5-.2,0-.3-.2-.3-.3-1-3.1-2.7-5.8-5.3-7.8-1.8-1.4-3.5-2.1-5.2-2.1s-.9,0-1.4.1c-.5,0-.9.3-1.4.5l-.4.2c-.9.4-1.7.5-2.6.5s-1.1,0-1.7-.2c-2-.5-4.1-.9-6.1-1.2-.4,0-.7,0-1.1,0-1.6,0-3.2.4-5,1.3-2.6,1.2-4.7,3.3-6.7,6.4-.7,1.1-1.3,2.2-2,3.4-.3.5-.6,1-.8,1.5,0,.1-.2.2-.3.2-.5.1-.9.2-1.4.4-1.1.3-2.2.6-3.3.7-.2,0-.4,0-.5,0-.7,0-1.3-.1-1.9-.2-.2,0-.4,0-.7-.1-4-.7-7.2-1.4-10.2-2.4-.2,0-.3-.1-.5-.2h-.3c-.2-.2-.3-.5-.2-.7ZM202.1,102.9c.3,1.7.6,3.4.9,5.1l.4,2.5c0,.2,0,.4-.2.5,0,0-.1,0-.2,0-.1,0-.2,0-.3-.1l-5-4.5c0,.2,0,.3,0,.4.2,2.7-.3,5.4-.7,8l-.2,1.3c-1.1,6.5-2.7,13.3-5.2,22.1-.4,1.4-.8,2.7-1.3,4-.2.7-.4,1.3-.6,2,3.1-2.7,5.6-5.9,7.7-8.7,1.8-2.4,3.5-4.7,5.3-7.3.8-1.1,1.7-2.3,2.5-3.5,0-.1.2-.2.4-.2s.1,0,.2,0c.2,0,.3.3.3.5,0,.3-.1.5-.1.7,0,.3-.1.6-.2.8-2.2,6.7-5.7,13.3-10.7,20.1-1.4,1.9-2.8,3.7-4.1,5.5-.6.7-1.1,1.5-1.7,2.2,2.6-1.2,5.3-2.2,7.9-3.2,4.3-1.7,8.8-3.4,12.9-5.8,0,0,.1,0,.2,0s.2,0,.3.1c.1.1.2.3.1.5-.7,2.1-4,6.3-7.1,8.7-2.1,1.6-4.2,3-6.4,4.5-.7.4-1.3.9-2,1.4,2.4.4,4.8.4,7.1.4s1.5,0,2.3,0c0,0,1.1,0,1.1,0,.2,0,.4.1.4.3,0,.2,0,.4-.2.5-2.2,1.2-4.2,1.6-6.1,2-3.1.6-6.4.8-10.1.8s-.8,0-1.2,0c-.8,0-1.7,0-2.5,0h-3.6c-1,0-1.9,0-2.9,0-1.4,0-2.7-.1-4.1-.2-.6,0-1.3,0-1.9-.1-.2,0-.4-.2-.4-.4-.3-2.1,0-3.8.5-5.5v-.4c.7-2.8,1.4-5.7,2.1-8.5.5-2.1,1-4.1,1.5-6.2.5-2.2,1-4.6,1.4-6.8v-.3c-.4,1-.8,2-1.1,2.9-.8,2.1-1.6,4.2-3.1,5.9,0,.1-.2.2-.3.2s0,0,0,0c-.2,0-.3-.1-.3-.3-.3-.7-.5-1.3-.8-2-.6-1.4-1.1-2.7-1.7-4.1-2.8-6.5-6.4-12.8-9.9-18.9l-1-1.7c-2.5-4.3-4.8-8.6-6.7-13.2-.2-.6-.4-1.2-.6-1.8,0-.3-.2-.6-.3-.9,0-.2,0-.4.2-.5.8-.5,1.6-.6,2.4-.7,1.1-.2,2-.3,2.6-1.2,0-.1.2-.2.4-.2s.1,0,.2,0c.2,0,.4.1.5.2.3.1.6.2.9.4,1.5.7,3,1.1,4.5,1.1,2.3,0,4.6-.9,6.9-2.7,3.5-2.8,6.1-6.5,8.4-12.1,1.6-4,2.7-8.4,3.4-13.4,0-.2.2-.4.4-.4s.5,0,.5,0c5.7.4,11.6.8,17.3,2.6.1,0,.3.2.3.3,0,.2,0,.3-.1.4-2.1,2.2-2.9,3.5-3.3,5.6.9-1.3,1.8-2.3,3-3,.5-.3,1-.5,1.6-.8.3-.1.5-.2.8-.4,0,0,.1,0,.2,0,.1,0,.2,0,.3.1.2.2.4.4.6.6.5.4.9.8,1.3,1.3,5.3,7.6,10.5,14.9,16.6,23.6.5.7.9,1.4,1.4,2.1.2.3.4.6.6.9.1.2,0,.4,0,.6l-7.2,6.4c0,0-.2.1-.3.1s0,0,0,0c-.1,0-.2,0-.3-.2l-14.8-16.6c-.3,1.3-.2,2.9.5,6.5ZM209.2,210.6c0,1.8-.5,3.3-1.7,4.6-.8.9-1.8,1.6-2.7,2.4h-.1c-.4.4-.8.7-1.2.9,0,0,0,0-.2,0,.5.5,1,.9,1.6,1.3,1.2.9,2.4,1.7,3,3.2,0,.2,0,.4-.2.6-1.4.9-2.8,1.1-4.3,1.3-.7,0-1.4.2-2.1.3l6.8,7.7c0,0,.1.2.1.3.1,5.1-.7,10.1-2.5,15.2-1,2.9-3,5.3-6.1,7.4-.6.4-1.2.8-1.8,1.1l-.5.3c.9,2.5,4.3,5.1,9.6,7.2.2,0,.3.2.3.4,0,.2-.1.4-.3.4-1.6.5-3.2.7-5.1.7s-3-.1-4.6-.3c.3.4.7.7,1.1,1,2.5,1.7,5,2.7,7.5,3.1.8.1,1.6.3,2.4.6.2,0,.3.3.3.5,0,.2-.2.4-.4.4h0c-4.6-.2-9.9-.8-14.5-4,0,0-.2-.2-.2-.3-.5-2.3-.2-4.5.1-6.6,0-.4.1-.9.2-1.3.2-1.1.3-2.2.5-3.4.4-2.5.7-5,1-7.5.3-2.7.6-5.5.8-8.2.1-1.2.2-2.4.3-3.6,0-.2,0-.4,0-.6,0-1.2,0-2.3.1-3.5.1-2.7.2-5.6.3-8.4,0-3.4-.5-6.9-1-10.2,0,0-.2-1.1-.3-1.6-.3-1.7-.6-3.5-.6-5.3,0-1.5.1-3,.3-4.4,0-.6.1-1.2.2-1.7.2-2.4.4-4.9.7-7.3v-.3c.2-1.4.3-2.8.5-4.2.5-2.9,2-5.4,4.6-7.4.9-.7,1.9-1.4,2.9-2,.1,0,.2-.1.3-.2-1.8,0-5,.8-10,2.5,0,0,0,0-.1,0-.1,0-.3,0-.3-.2-1.2-1.4-1.4-3.1-1.5-4.7v-.3c-.2-1.8-.1-3.5-.1-5.4,0-.8,0-1.6,0-2.4s.2-.4.4-.5h.5c2.8,0,5.6-.2,8.4-.2s4.1,0,5.9.1c.2,0,.4.1.4.3l.4,1.4c.7,2.8,1.4,5.4,1.6,8.2.3,3.4,0,6.8-.2,10.2,0,.7,0,1.4-.1,2.1-.2,3.6-.4,7.2-.5,11.3,0,3.2,0,6.1,0,8.8ZM181.8,275.7c-1,.2-1.9.3-2.9.5-.5,0-.9.1-1.4.2,0,0,0,0,0,0,0,0-.2,0-.3,0,0,0-.2-.2-.2-.3-.2-1.8.2-2.7,1.7-3.4,1-.5,2.1-.7,3.3-.7s1.8.2,2.8.5c.5.2,1,.4,1.6.7.3.1.6.3,1,.5.2,0,.3.3.3.5s-.2.4-.3.4c-.7.2-1.3.3-1.9.5-1.2.3-2.4.6-3.6.8ZM184.4,279.8v1.1c0,.2-.1.3-.3.4-1,.5-2,.7-3.1.7s-2.8-.3-4.7-1.1c-.2,0-.3-.2-.3-.4v-2c0-.1,0-.3.2-.3,0,0,.2-.1.3-.1s0,0,0,0l7.4,1.4c.2,0,.4.2.4.4ZM199.7,280.1c.1,0,.2.1.3.2,0,.1,0,.2,0,.4-.4,1-1.3,1.2-2,1.4h-.2c-1.8.7-3.4,1.1-5,1.4-1.8.3-3.9.8-5.5,2.3,0,0-.2.1-.3.1s-.2,0-.3-.1c-.8-.7-1-1.4-.6-2.4,1-2.3,3.3-4.7,6.7-4.7h.1c2.1,0,4.3.5,6.8,1.4ZM192.9,274.4l.6-1.6c0-.2.2-.3.4-.3s0,0,0,0c.2,0,.3,0,.5,0,.4,0,.7,0,1.1.2,1.3.6,2.5,1.3,3.7,2l1.1.6c0,0,.2.2.2.2,0,.2,0,.3,0,.5,0,.1-.2.2-.4.2s0,0,0,0l-7-1.3c-.1,0-.2-.1-.3-.2,0-.1,0-.3,0-.4ZM185.1,287.9c0-.1.2-.2.4-.2s0,0,.1,0c.6.2,1.1.4,1.7.5,1.3.4,2.5.8,3.8,1.1,2,.4,3.9.7,5.8.8.4,0,.7,0,1.1,0,1,0,2,0,3-.1.6,0,1.2,0,1.8,0h0c.2,0,.4.1.4.3,0,.2,0,.4-.2.5-1.9,1.4-4.1,1.7-6.4,2.1h-.4c0,0,0,0,0,0,0,0-.1,0-.2,0l-1.8-.7-.8.7c0,0-.2.1-.3.1h0c-2.8,0-5.4-.9-7.7-1.8,0,0-.1,0-.2-.1-.8-1-.8-2-.1-3.2ZM184.2,195.8c0,0,.2,0,.2,0s.2,0,.3.1c.2.1.2.4.1.5-.4.8-.7,1.5-1.1,2.2-.8,1.5-1.5,3-2.2,4.5-1.3,3.2-2.5,6.5-3.6,9.5-1,2.8-.6,5.6,1.1,8.2.6.8,1.2,1.6,1.8,2.5.3.4.6.8,1,1.3.1.2.1.4,0,.5,0,.1-.2.2-.4.2s0,0-.1,0c-1.1-.3-2-.8-2.8-1.3-.6-.3-1.1-.6-1.6-.9.1,1.6.8,3.6,3.3,8.9.8,1.7,1.7,3.4,2.6,5,.7,1.3,1.5,2.6,2.2,4,.1.2,0,.5-.2.6,0,0-.2,0-.2,0-.1,0-.3,0-.3-.2l-.6-.8c-.5-.6-1-1.2-1.5-1.8-4.5-5.8-7.2-10.6-8.8-15.8-.9-3-1.5-5.9-1.7-9.1-.4-5.7-.3-11.4-.3-17,0-2,0-4,0-6,0-2.2.2-4.5.4-6.6,0-.9.2-1.8.3-2.8.1-1.4.3-3.2.5-5.1.2-1.8.4-3.6.6-5.3l.2-2.1c0-.1.1-.3.2-.3,1.4-.8,2.7-.9,3.7-.9s1,0,1.5,0h.2c1.3,0,2.7.2,4.3.4.5,0,.9.1,1.4.2.2,0,.5,0,.7.1.2,0,.4.2.4.4v12.1c0,.2-.2.4-.4.4-.6,0-1.2.1-2,.1h0c-.3,0-.7,0-1.1,0-.4,0-.7,0-1.1,0s-1.1,0-1.8,0l7.3,4.4c.1,0,.2.2.2.3,0,.1,0,.2,0,.3-2.3,3.5-4.7,7.1-6.5,11.3l3.8-2.4ZM141.9,196.3c0,.2,0,.3-.2.4l-.4.3c-.3.2-.6.4-.9.6-.3.2-.6.5-1,.7-.8.6-1.7,1.2-2.4,1.8-3.5,3-4.1,8.2-1.4,11.8,0,.1.1.2.2.3h0c0,.3,0,.4,0,.6,0,.1-.2.2-.4.2h-30.1c-.2,0-.3,0-.4-.2s0-.3,0-.4l2.5-4.9c0-.1.2-.2.3-.2,2.7-.7,4.2-2.8,3.9-5.4,0-.1,0-.3.1-.4,0,0,.2-.1.3-.1s1,0,1.5.1c1.1,0,2.2.2,3.3.2.9,0,1.7,0,2.6,0s1.4,0,2.1,0c.1,0,.3,0,.4,0,.4,0,.7,0,1.1,0,.4,0,.7,0,1.1,0,.8,0,1.4,0,1.9-.3v-1.3c0,0,0,0,0-.1,0,0,0-.1,0-.1s0,0,0,0c-.5-.1-1.1-.3-1.7-.3-2.3-.1-4.7-.2-7.1-.4h-2.5c-.2-.1-.3-.2-.4-.4s0-.3,0-.5l2.5-3.7c0-.1.2-.2.4-.2h0c.1,0,.3,0,.4.2l1.2,1.6h.3c.3,0,.6,0,.9,0,.1,0,.3,0,.5-.1.3,0,.5-.1.8-.1s.2,0,.3,0c.5.1,1,.2,1.5.2,1.3,0,2.5-.3,3.9-.6.7-.2,1.5-.4,2.2-.5,2.4-.4,4.2-1.7,5.7-4,.3-.6.8-1.1,1.2-1.5.3-.4.6-.7.9-1,.4-.6.5-.7-.2-1.6-.9,0-1.6.4-2.4.9-.4.2-.8.4-1.2.6,0,0-.1,0-.2,0-.1,0-.3,0-.4-.2-.1-.2-.1-.4,0-.5.5-.7,1.2-1.6,2.2-2.1.9-.5,1.3-1.2,1.3-2.1,0-.7.2-1.3.3-2v-.3c.3-1.4,1-2.2,2.3-2.5,1-.3,2.1-.4,3.1-.4,1.5,0,2.9.3,4.4.8,2.3.9,4.5,2.3,6.8,4.4,4.1,3.6,7.4,8.1,10.1,12,.6.9,1.2,1.8,1.8,2.7.8,1.2,1.6,2.5,2.5,3.7,1.3,1.7,1.7,3.5,1.2,5.4,0,.2-.2.3-.4.4,0,0,0,0,0,0-.2,0-.3,0-.4-.2-2.7-4.6-5.9-9.3-10.2-14.8-2.4-3.1-5.8-7.1-10.4-9.8-.4-.2-.8-.5-1.2-.7l-.4-.2c-4,4.4-4.2,9.8-3.8,14.6ZM103,205.2c.3,1,.3,2-.1,3.1-.7,1.9-1.6,3.3-2.7,4.6,0,0-.2.1-.3.1h-7c-3.8,0-7.6,0-11.4,0-2.6,0-3.9-1.3-3.9-3.8,0-2.9.1-5.8.2-8.7,0-1.1,0-2.1.1-3.2,0-.2,0-.4,0-.7s0-.3,0-.5c0-.1,0-.2.2-.3l2.7-2.2c0,0,.2,0,.3,0s.1,0,.2,0c1.6.7,3.2,1,4.9,1s3.4-.3,5.1-1c3.1-1.3,5.5-3.6,7.3-7.1,0,0,.1-.2.2-.2,9.1-4.1,9.8-11.3,7.4-16.7,0-.2,0-.4.2-.6,3.1-2,4.4-5.1,4.1-9.5-.2-3.9-2.2-6.7-5.9-8.6-.2-.1-.3-.3-.2-.6.8-2.3,1.5-4.5.6-7,0-.1,0-.3,0-.4,0-.1.2-.2.4-.2h29.2c.2,0,.3,0,.4.2,0,.1.1.3,0,.4l-7.6,18.5c0,.1-.2.3-.4.3,0,0-.1,0-.2,0-.2,0-.5,0-.7,0-1,0-1.7.5-2.1,1.5-.2.5-.4,1-.6,1.5-.2.6-.5,1.3-.8,1.9l-.3.7c-.8,1.6-1.6,3.4-2.6,4.9-1,1.6-1.9,3.2-2.1,5.1,0,.4-.2.8-.3,1.2,0,.2-.1.3-.2.5,0,.1-.1.2-.3.3,0,0-.1,0-.2,0s-.1,0-.2,0l-3.3-1.8c-.8.2-1.1.6-1.4,1.2-2,3.9-3.6,8.1-5,12.8-.2.6,0,1.3,0,2.1,0,.2,0,.4,0,.5,0,.7.2,1.3.4,2,0,.3.2.7.2,1,0,.1,0,.3,0,.4s-.2.2-.3.2c-.2,0-.4,0-.5,0-.3,0-.5,0-.7,0h-.3c-1,0-1.6.5-2,1.5-.6,1.6-1,3.3-.4,5.1ZM79.6,184.7c.9-2.2,2.5-3.9,3.9-5.4,0,0,.2-.1.3-.1s.2,0,.3,0c.2.1.2.4.1.6l-.2.3c-1,1.8-2.1,3.6-3.7,5,0,0-.2.1-.3.1s-.2,0-.3,0c-.2-.1-.2-.3-.2-.5ZM142.1,62.8c.4.9.9,1.7,1.4,2.5.2.4.4.8.7,1.2,0,0,0,.2,0,.3-.1,1-.7,1.7-1.6,2.3l-.6.3c-.7.4-1.5.9-2.3,1.2-.7.3-1.5.6-2.3.8-.4.1-.7.2-1.1.4,0,0,0,0-.1,0-.2,0-.3,0-.4-.3-2.3-4.8-2.1-9.8.6-14.1,2.8-4.4,7.8-7.3,12.7-7.3h0c.2,0,.4.2.4.4s-.1.4-.3.5c-2.1.6-3.9,1.7-5.7,3.4-2.2,2.2-2.8,5.5-1.4,8.3ZM135.1,73.2l.4-.3c.8-.8,1.9-.9,2.9-1,.3,0,.6,0,.8-.1,1-.2,2.1-.3,3.1-.3.7,0,1.3,0,2-.2.6,0,1.1-.3,1.6-.5.1,0,.2,0,.4-.1.4-.2.9-.4,1.5-.4h0c.2,0,.4.1.4.3,0,.2,0,.4-.2.5-.3.2-.6.4-.9.6-.6.4-1.3.9-2,1.3l-.8.4c-2.4,1.3-4.9,2.6-7.5,3.7-1,.4-2,.6-3.2.9-.6.1-1.2.2-1.8.4,0,0,0,0-.1,0-.1,0-.3,0-.4-.2-.1-.1-.1-.3,0-.5,1-2.1,2.4-3.3,3.7-4.5ZM146.6,95.1c0,.2,0,.4-.1.6,0,0-.2,0-.3,0s-.2,0-.3-.1c-2.4-2-2.9-4.7-3.2-6.9v-.4c-.2-1.5-.4-3.1.8-4.5,0-.1.2-.2.3-.2s.1,0,.2,0c.2,0,.3.3.3.5-.5,3.6.3,7,2.3,10.9ZM146.3,83.7c-.1,0-.3,0-.4-.2l-1.2-1.4-1.1-.3c-.1,0-.3-.1-.3-.3,0,0,0-.1,0-.2,0-.2-.1-.3-.1-.5-.1-1.1.4-1.9,1.5-2.4,0,0,.1,0,.2,0,.2,0,.3,0,.4.2l.5.9c.3,0,.5.1.8.1.4,0,.7-.1,1-.4v-4.4c0-.2.1-.4.3-.4,1.2-.4,2-1.3,2.7-2.3.5-.7,1-1.3,1.7-1.9,0,0,.2,0,.3,0s.2,0,.3,0c1.4,1,1.4,2.4,1.2,3.8-.2,1.5-.5,3.1-.8,4.6-.1.7-.3,1.5-.4,2.2-.1.7-.3,1.5-.4,2.4l-.2,1.4c0,.2-.2.4-.4.4,0,0,0,0,0,0-.2,0-.4-.1-.4-.3l-.5-1.4s-4.5.4-4.5.4ZM171.2,71c-.9,5.2-3.5,9.5-6.1,13l-.2.3c-.3.5-.7,1-1.2,1.4-.3.3-.7.6-1.3.6s-.8-.2-1.2-.6c-.1-.2-.2-.4,0-.6,3.2-5,6.9-10.6,8.7-17.2,0-.2.2-.3.4-.3,0,0,0,0,0,0,.2,0,.3,0,.4.2.8,1.2.7,2.2.6,3.2ZM171.9,90.7c1.1-3.1,2.3-6.1,3.4-9.2,0-.2.3-.3.5-.4,0,0,.2,0,.3-.2,0,0,.2,0,.2,0s.2,0,.3,0c.1.1.2.3.2.5-.1.6-.2,1.3-.3,1.9-.6,3.3-1.1,6.5-2.8,9.4,0,.1-.2.2-.3.2h-.3c-.2,0-.4.1-.6.1,0,0,0,0-.1,0-.1,0-.3,0-.4,0h-.2c-.1,0-.3-.1-.3-.2,0-.1,0-.3,0-.4l.6-1.7ZM159.6,75c-.2-1.2-.3-2.5-.4-3.7,0-.5,0-.9-.1-1.4-.1-1.2.4-2.2,1.5-2.9,0,0,.2,0,.2,0,.1,0,.3,0,.4,0,2.3,0,3.2.7,3.8,2.7.7,2.6.1,5.1-1.6,7.3-.3.3-.6.5-1,.7-.1,0-.3.1-.4.2,0,0-.2,0-.3,0s-.1,0-.2,0c-1.4-.7-1.8-1.9-2-2.9ZM166.3,60.3c-4,2.7-8.2,4.7-12.9,6.3,0,0,0,0-.1,0-.2,0-.3,0-.4-.3,0-.2,0-.5.2-.6l11.8-7.1c0,0,.2,0,.2,0s.2,0,.3.1l1,.8c.1,0,.2.2.2.4,0,.1,0,.3-.2.4ZM154.3,97.9c.1.2,0,.4-.1.6,0,0-.2,0-.3,0s-.2,0-.3-.1c-2.3-2.5-2.5-6.3-.4-9.2.9-1.1,1.6-1.7,2.5-1.7s.7,0,1,.3c.1,0,.2.2.2.4s0,.3-.2.4c-3.5,2.5-4.2,5.5-2.4,9.3ZM155.8,83.9c-.2,0-.3-.2-.3-.4v-5.4c0-.2.1-.4.3-.4,0,0,0,0,.1,0,.2,0,.3,0,.4.2,1.1,2.1,2,4,2.3,6.5,0,.2,0,.3-.2.4,0,0-.2,0-.3,0s-.1,0-.2,0l-2.3-.9ZM149.4,103.9c0-.2.2-.3.4-.3,0,0,0,0,0,0,.2,0,.3,0,.4.2l5.8,10.5c.1.2,0,.4-.1.6,0,0-.2.1-.3.1s-.2,0-.3-.1l-3.2-2.7c0,.4,0,.6,0,.9.4,1.5.7,3.1,1.2,4.7.2.7.2,1.4,0,2.2-.5,2.2-1,4.5-1.3,6.3,0,.4,0,.7,0,1.1,0,.1,0,.3,0,.4l4.7,4.8c.2.2.2.4,0,.6,0,0-.2.2-.3.2s-.2,0-.3,0c-3.4-2.6-7.3-4.6-12.4-6.4-.2,0-.3-.3-.3-.5l.9-3.5c.7-2.6,1.3-5.2,2-7.8.7-2.5,1.4-5.1,2.1-7.7l1-3.6ZM143.7,132.7c0-.1.2-.2.3-.3,0,0,0,0,.1,0,.1,0,.2,0,.3.1l4.8,4.2c.1.1.2.3.1.5l-2.4,7.2c0,.2-.2.3-.3.3,0,0,0,0,0,0-.1,0-.3,0-.4-.2l-.9-1.1c-.5,1-1,2-1.6,3-1.4,2.7-2.8,5.3-4.3,7.9-1.5,2.5-3.2,5-4.8,7.4-.7,1.1-1.5,2.2-2.2,3.3,0,.1-.2.2-.4.2s-.2,0-.2,0l-2.6-1.5c-.2-.1-.3-.4-.2-.6.3-.9.7-1.8,1-2.6.7-1.9,1.5-3.8,2.3-5.7.8-1.9,1.6-3.8,2.5-5.7.9-2,1.7-3.9,2.6-5.9.8-2,2.2-3.6,3.3-4.8,1-1.1,1.7-2.4,2.4-4.2,0-.3.2-.5.3-.8l.2-.6ZM129.5,171.2c0,.1,0,.3,0,.4,0,.1-.2.2-.4.2s-1.1,0-1.1,0c0,.1,0,.3,0,.4-.1.6-.2,1.3-.2,1.9,0,1.6-.7,2.9-1.7,4-1,1-1.4,2.1-1.7,3.6-.2.9-.5,1.9-.7,2.9l-.3,1.4c0,.2-.2.3-.4.3s0,0,0,0c-1.1-.2-1.9-.8-2.6-1.4h-.1c-.7-.7-1.1-1.5-1-2.5v-1.2c.2-1.3.3-2.6.5-3.9,0-.6.3-1.2.7-1.7,1.5-1.9,2.5-4.1,3.5-6.2.3-.7.6-1.3.9-2,.3-.6.6-1.2.9-1.7l.4-.8c0-.1.2-.2.4-.2s0,0,.1,0c2.1.5,3.8,1.7,5.3,3.7.1.2.1.4,0,.6,0,0-.2.1-.3.1s-.2,0-.2,0l-2.3-1.4c-.5.6-.3.9.7,3.6ZM114.5,181l-.4,1.1c-1.5,4.2-2.9,8.4-4.4,12.6,0,.2-.3.3-.5.4,0,0,0,0-.2,0,0,0-.1,0-.2,0s-.2,0-.3,0l-.7-.5c-.2-.1-.2-.3-.1-.5l.5-1.3c.3-1,.7-1.9,1-2.9.3-.8.6-1.7.9-2.5.5-1.4,1-2.8,1.5-4.3,0-.2.2-.5.2-.7.2-.9.5-1.9,1.6-2.5,0,0,.1,0,.2,0,.1,0,.3,0,.4.2l.4.6c0,.1.1.3,0,.4ZM168.2,173.3c-.8-.8-1.7-1.7-2.6-2.4-1.6-1.3-3.4-2.1-5.3-2.4-.5,0-.9-.1-1.3-.1-2.2,0-4.1.9-5.6,2.9-.7.9-1.3,1.8-1.9,2.9-.3.5-.6,1-.9,1.4,0,.1-.2.2-.4.2s0,0-.1,0c-.4-.1-.8-.3-1.2-.4-1-.3-2-.7-3-.8-.8,0-1.7-.1-2.7-.1s-1.2,0-1.8,0c-.4,0-.8,0-1.3,0-.5,0-1,0-1.6.2-.3,0-.7,0-1.1.1,0,0,0,0,0,0-.2,0-.3,0-.4-.2,0-.2,0-.3,0-.5.5-.7,1-1.4,1.4-2,.9-1.3,1.8-2.6,2.8-3.7,1.7-2,3.4-4,5-6,1.4-1.7,2.8-3.3,4.2-5,2.5-3,4.7-6.2,6.5-9.5.6-1.1,1.2-2.2,1.9-3.3l.9-1.5c0-.1.2-.2.4-.2h9.3c.2,0,.4.1.4.4,0,.5.2.9.3,1.4.3,1,.5,2.1.6,3.2,0,.7.1,1.5.2,2.2.2,2.2.5,4.5,0,6.9-.3,1.7-.4,3.5-.4,5.3,0,.7,0,1.5,0,2.2,0,1.3,0,2.8.7,3.8,0,0,.1.2,0,.4l-.9,5.6c0,.2-.1.3-.3.4,0,0,0,0-.1,0-.1,0-.2,0-.3-.1-.4-.3-.7-.7-1.1-1ZM161.2,138.2l3.5-4.6c0-.1.2-.2.4-.2s0,0,0,0c.2,0,.3.1.4.2l2.6,5.1c0,.1,0,.3,0,.4s-.2.2-.4.2c-.4,0-.7,0-1.1,0-.5,0-1.1,0-1.6,0-1,0-2.2,0-3.6-.6-.1,0-.2-.2-.3-.3,0-.1,0-.3,0-.4ZM237.2,160.1c.5.7,1.7,1.2,3.9,1.5.2,0,.4.2.4.4,0,.2,0,.4-.3.5-1,.4-2.1.5-3.2.6-.7,0-1.5.2-2.3.4-.4.6-.3,1.5-.2,2.3h0c.2,1.6,0,3-.6,4.6-.7,1.8-1.4,3.7-2.1,5.5l-.9,2.3c0,.2-.2.3-.4.3s0,0-.1,0c-1.1-.3-1-1.3-.9-1.9,0-.7.2-1.4.3-2.1.1-.6.2-1.3.3-1.9.2-1.7,0-3-.9-4.1-.5.1-.6.4-.7.9-.1.7-.3,1.4-.5,2.1-.4,1.5-.7,2.9-.8,4.4,0,.3-.1.6-.2.8,0,0,0,.2-.1.3,0,.1-.1.2-.3.3,0,0-.1,0-.2,0s-.1,0-.2,0h-.1c0,0-.3-.2-.3-.4-1.2-3.3-1.2-3.4,0-6.7,0-.3.2-.5.3-.8.1-.3.2-.6.3-.9.4-1.1.9-2.6,2.3-3.6.4-.3.7-.6,1-1,.2-.2.3-.4.5-.6,1.7-1.8,2.3-3.4,2.1-5.2,0-.2,0-.5,0-.7,0,0,0-.2,0-.3,0-.2.2-.4.4-.4.7-.1,1.5-.2,2.2-.2,2,0,3.9.4,6.1,1.2.2,0,.3.3.3.5s-.2.4-.4.4h-5.2c-.1.7,0,1.3.3,1.7ZM231.8,158.4c0,.3,0,.5,0,.8s0,.2,0,.3l-2.6,3.6c0,.1-.2.2-.4.2s0,0-.1,0c-.2,0-.3-.2-.3-.4,0-.8,0-1.6.1-2.3,0-1.6.2-2.9.1-4.3,0-1.6-.3-3.2-.4-4.8,0-.6-.1-1.1-.2-1.7-.2-1.5-.4-3-.5-4.4l-.2-1.2c-.3-2.1-.6-4.3-.9-6.4v-1c-.4-1.9-.7-3.9-.8-5.9,0-.2.1-.4.4-.5,0,0,0,0,0,0,.2,0,.4.1.4.3.2.8.5,1.5.7,2.2.5,1.6,1,3.3,1.5,5,.8,3.1,1.7,6.2,2.5,9.2.5,1.7.9,3.4,1.4,5.1.3,1.2.2,2.2-.3,3.1-.2.4-.3,1-.3,1.6,0,.5,0,1,0,1.5ZM238.9,152.3c-.7.6-1.5.7-2.1.7s-.8,0-1.2,0h-.2c-.2,0-.3-.2-.4-.3l-.3-1.2c-.2-.8-.4-1.5-.7-2.3-.4-1.5-.8-3-1.3-4.5-1-3.7-2.1-7.5-3.1-11.2-.7-2.8-1.2-5.8-1.5-8.9-.1-1.3,0-2.6.2-4,0-.4.1-.9.2-1.3-.4.1-.7.4-1.1.7-.4.3-.8.6-1.3.8,0,0-.1,0-.2,0,0,0-.2,0-.2,0-.8-.5-1.3-1.3-1.7-2-.2-.4-.4-.7-.7-1.1-.5-.7-1-1.4-1.6-2.1-.2-.3-.5-.7-.7-1-.1-.2-.1-.4,0-.6,1.6-2,3.1-3.4,4.7-4.5,0,0,.2,0,.3,0,.1,0,.3,0,.3.2l.5.5c2.4,2.8,4.7,5.5,7.8,7.6,0,0,.2.2.2.3,2,9.8,3.3,20.6,4.1,34.1,0,.1,0,.3-.2.4ZM221.8,223.9c0-.2.2-.4.4-.4,1.1-.2,10.8-.4,19.6-.4s11,0,13.3.2c.2,0,.3.1.4.3.7,1.8,1.1,3.6,1.6,5.5.3,1.2.6,2.4,1,3.7,0,.1,0,.3,0,.4,0,.1-.2.2-.4.2h-36.3c-.1,0-.2,0-.3-.1,0,0-.1-.2-.1-.3l.9-9ZM256.4,214.1c-.3-1.4-.5-2.8-.7-4.3l-.3-2c0-.1,0-.3,0-.4,0-.1.2-.2.3-.2h2.9c.2,0,.4.1.4.4.4,1.8.4,10.9,0,12.8,0,.2-.2.3-.4.4,0,0,0,0,0,0-.2,0-.3-.1-.4-.3-1-2.2-1.4-4.3-1.8-6.5ZM259.1,223.7c0-.1.2-.2.3-.2,1.1-.1,4.1-.2,8.1-.2s10.8.1,11.9.4c.2,0,.3.2.3.4v1.4c0,1,0,2,0,3,0,1,0,2,0,3v1.3c0,.2-.1.4-.4.4-1.2.3-5.8.4-10,.4s-5.6,0-7.6-.2c-.2,0-.3-.1-.4-.3-1.1-3.1-1.9-6.3-2.5-9.1,0-.1,0-.3,0-.4ZM259.3,204.2c0,.2-.2.4-.5.4h-3.4c-.2,0-.4-.2-.4-.4,0-.5-.2-.9-.3-1.4-.3-1.5-.7-3-.6-4.6,0-.2.2-.4.5-.4h4.3c.2,0,.4.2.5.4.2,1.9.1,3.9,0,6ZM254.3,219.8c0,.1,0,.3,0,.4,0,.1-.2.2-.3.2h-19.4c-.3,0-.5-.2-.5-.5v-12.3c0-.3.2-.5.5-.5h17.1c.2,0,.4.2.4.4l2.3,12.3ZM251.4,204.3c0,.2-.2.4-.5.4h-16.4c-.2,0-.4-.1-.4-.4-.3-1.2-.2-2.4-.2-3.5,0-.8,0-1.5,0-2.3,0-.2.1-.4.3-.5.1,0,.2,0,.3-.1.3,0,.5-.2.8-.2,3,0,5.9,0,8.9,0h5.6c.2,0,.3,0,.4.2.9,1.8,1.3,4,1.2,6.3ZM249.3,194.6c0,.1-.2.2-.3.2-.2,0-.3,0-.5,0-.4,0-.7,0-1.1,0h-5.9c-2.2,0-4.4,0-6.6,0-1.5,0-2.5.6-3.1,1.7-.2.5-.4,1.1-.4,1.8,0,3.1,0,6.2,0,9.3v4.8c0,.2-.2.4-.4.5-1.1,0-2.1.1-3,.1,0,0-1.9,0-2.3,0-.6,0-1.3,0-1.9,0,0,0,0,0,0,0-.1,0-.2,0-.3-.1,0,0-.1-.2-.1-.3,0-.3,0-.7,0-1,0-.7,0-1.4,0-2.1,0-.4,0-.8.1-1.3,0-.5.1-.9.1-1.4,0-3.9.6-7.6,1.6-11.6.9-3.3,1.6-6.5,2.3-10,.3-1.5.6-2.9,1-4.4,0-.2.2-.4.4-.4s0,0,0,0c.5,0,.9.1,1.4.2.6.1,1.1.2,1.6.2s.9-.1,1.3-.4c0,0,.2,0,.2,0s.1,0,.2,0c1.6.6,3.1,1.1,4.6,1.1s1.9-.3,2.8-.8c0,0,.2,0,.2,0s.2,0,.3.1c4,3.7,6.9,8.5,7.8,13.2,0,.1,0,.3,0,.4ZM74.2,195.9c0,.2-.2.3-.4.3,0,0,0,0,0,0-.2,0-.3,0-.4-.2l-4.4-8c-1.3-2.4-2.8-5.1-4.1-7.8-.1-.2,0-.4.1-.6,0,0,.2,0,.3,0s.2,0,.3.1c1.2,1.3,2.3,2.7,3.3,4,1.1,1.4,2.2,2.8,3.5,4.2l1.9-14.6c0-.2.2-.4.4-.4h0c.2,0,.4.2.4.4.4,3.1-.1,19.9-.9,22.6ZM28.3,212.7c-.3-1.3-.5-2.6-.8-3.9-.6-3.1-1.2-5.9-1.7-8.9-.3-1.7-.5-3.3-.6-5-.1-1-.2-2.1-.3-3.1-.8-5.8-.8-11.6-.8-17,0-3.4.3-6.9.7-10.3v-1c.5-4.4,1.2-8.8,2.2-13.3.4-1.6.8-3.1,1.2-4.8.2-.7.4-1.5.6-2.2,0-.2.2-.3.4-.3h13.6c1.1-3.1,3-5.6,5.8-7.5h.1c.3-.3.8-.6,1.3-.6s.5,0,.8.2c.1,0,.2.2.3.4s0,.3-.2.4c-1.8,1.3-3.2,3.1-4.3,5.4-.9,1.9-.8,3.8-.8,5.8,0,.3,0,.7,0,1,0,.2-.2.4-.4.4-2.9.3-5.9,2.6-7.6,5.8-1.7,3.2-1.8,6.6-.4,9.3,0,.2,0,.4,0,.6,0,.1-.2.3-.4.4-1.9.7-3.5,2.4-4.3,4.7-1.1,2.8-.9,5.9.5,8.6,2.1,4,5.1,6.8,8.9,8.2.7.3,1.5.5,2.4.7.4,0,.8.2,1.3.3.2,0,.3.2.3.3,1.5,4.7,4.8,7.8,9.6,8.7,1,.2,1.9.3,2.9.3,3.5,0,6.5-1.4,9.1-4.2,0,0,.2-.1.3-.1s0,0,0,0c.1,0,.3,0,.3.2l1.1,1.8c1,1.7,2.1,3.4,3.1,5.1.3.5.4,1,.4,1.6,0,1.9,0,3.6,0,5.2,0,.8-.1,1.5-.2,2.3,0,.5-.1.9-.1,1.4-.2,2.1-1.5,3.5-3.6,3.8-.4,0-.8,0-1.2,0h-.3s-38.6,0-38.6,0c-.2,0-.4-.2-.4-.4ZM245.7,290.5c-24.2,17.3-52.3,26.5-81.3,26.5-52.7,0-101.9-30.3-125.4-77.3,0-.2,0-.4.1-.6.5-.4,1-.4,1.3-.4s.3,0,.5,0c.1,0,.3,0,.4,0h3.6c5.2,0,10.5,0,15.7,0s7.8,0,11.7,0c1.6,0,2.5-.4,3.4-1.4.8-1,1.7-1.9,2.7-2.8.2-.2.4-.4.7-.6h-42.9c-.2,0-.4-.1-.4-.3l-3.7-9.7c0-.1,0-.3,0-.4s.2-.2.4-.2c2.5,0,4.9,0,7.2,0h50.8c.7-.6,1.4-1.3,2-1.9,1.7-1.6,3.4-3.4,5.5-4.6,0,0,.2,0,.2,0s.1,0,.2,0c1.4.6,2.6,1.4,3.7,2.5.8.9.8,1.9.8,2.9,0,.4,0,.7,0,1.1,1,0,2.1,0,3.4,0s1.3,0,1.9,0c.6,0,1.3,0,1.9,0h.7c1.1,0,2.2,0,3.3,0h2.8s53.1,0,53.1,0c.2,0,.4.1.4.3l3.8,9.6c0,.1,0,.3,0,.4,0,.1-.2.2-.4.2h-71.7l-.9,4.7h76.8c.2,0,.3,0,.4.2l2.8,4.1c2.6,3.9,4.7,8.1,6.6,11.8.5.9.5,1.7.2,2.5,0,.2-.1.4-.2.6v.2c-.6,1.9-1,3.8,0,5.6,0,.1,0,.3,0,.4-.8,1.3-1.9,2.2-2.9,2.9-2.3,1.7-4.4,2.8-6.4,3.4-1.2.4-2.2.9-3.1,1.6-1.4,1.2-1.8,3-2.1,4.8h0c0,.2-.1.3-.2.4-1.1.7-2.4.9-3.6,1.2-.3,0-.6.1-.9.2-1,.2-2,.5-3.1.7-1.4.3-2.9.6-4.3,1-.3,0-.6.2-1,.3,0,0-.2,0-.3.1v1.2c.9.9,2.1,1.1,3.3,1.2.3,0,.5,0,.8,0,3.6.5,7.4.9,11.2,1.1.7,0,1.5,0,2.5,0s1.4,0,2,0c.7,0,1.5,0,2.2,0s.3,0,.3.2.1.2.1.4c0,.3,0,.5-.1.8,0,.5-.2.9-.2,1.3,0,.5,0,1.1,0,1.8,0,.3,0,.6,0,.9,0,.8,0,1.7,0,2.5.2,1.7,1.5,2.5,2.5,2.9.9.4,2,.6,3,.8h.1c2.2.5,4.3.8,6.3.8h1.2c.8,0,1.5,0,2.3,0,.8,0,1.5,0,2.3,0,1.2,0,2.2,0,3.1,0,3.3-.1,6.7-.4,10.6-.8,2.4-.2,4.9-.6,7.8-1.1,2.2-.4,4.4-1.2,6.5-2,.8-.3,1.6-.6,2.3-.9,1.5-.5,3-.7,4.6-1h.1c1.9-.3,3.9-.5,5.8-.8.8-.1,1.7-.2,2.5-.3l2.3-.3s0,0,0,0c.2,0,.4.1.4.3,0,.2,0,.4-.2.5ZM280.2,256.1c0,0,0,.2,0,.3-6,8.1-13.1,16.2-15.9,18.1,0,0-.2,0-.3,0h-16.6c-9.9,0-19.8,0-29.7,0-.1,0-.3,0-.4,0-.2,0-.3,0-.5,0-.5,0-1.2,0-1.8-.9,0-.1-.1-.3,0-.5v-.2c.2-.2.2-.4.4-.5,2.3-2.8,2.7-6.1,2.9-8.7,0-.9.1-1.8.2-2.7,0-.7.1-1.4.2-2.2.1-2-.1-3.5-.8-4.7,0-.1,0-.3,0-.4,1.6-3.9,2.1-7.9,2.7-11.8.1-1,.3-2,.5-3.1,0-.2.2-.4.4-.4h38.5c.2,0,.4.1.4.3,3.2,8.2,9.3,12.4,17.9,12.4s1,0,1.5,0c0,0,0,0,0,0,.1,0,.2,0,.3.1,0,0,.1.2.1.3v.7c0,.5,0,1,0,1.5,0,.5,0,1.1,0,1.6v.6ZM280,247.5c0,.2-.1.3-.3.4-.9.3-1.9.5-2.9.5-5,0-10.3-3.8-12.9-9.2,0-.1,0-.3,0-.4,0-.1.2-.2.4-.2h15.1c.2,0,.4.1.4.3.4,1.4.5,6.3.1,8.6ZM280,212.9c0,.2-.2.3-.4.3h-2.5c-.2,0-.4-.2-.5-.4v-.5c0-.3,0-.6,0-1,0-2.8,0-5.5,0-8.3v-3.8s0-.4,0-.4c0-.3,0-.7,0-1-.2-1.9-1.4-3-3.2-3-.8,0-1.6,0-2.5,0h-3.5s-14,0-14,0c-.2,0-.4-.1-.4-.3-1.6-6.2-4.2-11.1-8.2-15.1-.1-.2-.2-.4,0-.6l.3-.4c.2-.3.4-.7.7-1,.5-.7.7-1.6.7-2.8h0c0-1.8,0-3.4-.2-5.1-.1-1.6-.3-3.2-.4-4.9,0-.8-.1-1.6-.2-2.4,0,0,0-.2,0-.2.8-1.4.7-3.2.6-5,0-.9,0-1.8,0-2.8l-1.9-1.3c-.1,0-.2-.2-.2-.4l.4-5.5c0-.2.2-.4.5-.4h40.6c.3,0,.5.2.5.5v62.1c0,.1,0,.2-.1.3,0,0-.2.1-.3.1s-.3,0-.4,0c-2.8,0-4.5,1.1-5.2,3.4ZM300.7,213.4c-1.9,1.9-4,2.5-6.1,2.9-1.4.2-2.7.4-3.9.5-.7,0-1.2.3-1.6.9-1,1.4-2,3.2-2,5.4,0,4.5,0,9,0,13.4,0,1.8,0,3.5,0,5.3v2.4c0,.2,0,.3-.2.4l-3.5,2.3c0,0-.2,0-.3,0s-.1,0-.2,0c-.1,0-.2-.2-.2-.4v-8.2c0-7.4,0-14.8,0-22.3,0-.6,0-1.2.1-1.8,0-.3,0-.7,0-1,0-.2.2-.4.5-.4h16.9c.2,0,.3.1.4.3,0,.2,0,.4,0,.5ZM304,170.7c0,4,0,8.1,0,12.1,0,.2,0,.3-.2.5,0,0,0,0,0,.1,0,.2-.2.3-.4.3s-.1,0-.2,0c-.1,0-.3,0-.4-.1-.3-.1-.6-.2-1-.4-1.2-.6-1.9-1.6-1.8-3,0-3.3,0-6.7,0-10.2,0-1.7.8-3,2.5-3.8,0,0,.1,0,.2,0s.2,0,.2,0c1,.6,1.1,1.4,1.1,2.1v2.4Z"/>
        <path class="cls-1" d="M99.3,220.3s-.2-.2-.3-.3c-.3.3-.6.7-.9,1-.2-.1-.3-.3-.5-.4-4.5,3.7-8.1,8.3-11.8,12.8-3.7,4.5-7.2,9.1-10.4,14,.8-.6,1.6-1.3,2.4-1.9,0,0,.2.1.2.2l-3.6,5.8.2.2c.2-.2.5-.3.6-.5,7.5-7.7,12.9-17,19.6-25.7-2,4.2-4,8.2-5.8,12.2-3,6.5-4.4,10.6-4.5,12.3.3-.4.5-.6.6-.9,4.5-7.1,8.2-14.6,11.5-22.3.9-2.2,1.7-4.5,2.5-6.7Z"/>
        <path class="cls-1" d="M150,278.9c-.4-.2-.6-.3-.8-.3-5.2-.3-10.5-.6-15.7-.8-2.2,0-4.4,0-6.6,0-1.5,0-3-.2-4.5-.2-3.6,0-7.1.2-10.7.3-1.3,0-2.6,0-3.9.1-4.4.2-8.9.5-13.3.7-2.4.1-4.7.3-7.1.5,1.4.5,2.9.7,4.4.8,4,.2,7.9.3,11.9.5.3,0,.5,0,.8,0,3.7.2,7.5.6,11.2.6,6.1,0,12.2-.2,18.2-.3.3,0,.5,0,.8,0,2.6-.2,5.3-.4,7.9-.7,2.4-.2,4.7-.3,7.2-1.1Z"/>
        <path class="cls-1" d="M128.6,252c3.2.2,6.4.3,9.6.4,7.5.2,15,.1,22.5-.7,3.5-.4,7.1-.6,10.6-.9.8,0,1.6-.3,2.4-.5,0-.2,0-.3-.1-.5-4.4-.3-8.8-.7-13.3-.8-5.7-.1-11.5,0-17.2,0-1.3,0-2.6,0-3.9.1-3.5.2-6.9.5-10.4.7-2.5.2-4.9.3-7.4.5-1.2.1-2.4.3-3.8.5.4.2.6.3.8.3,3.4.3,6.8.6,10.2.8Z"/>
        <path class="cls-1" d="M89.6,259.5c0,.2,0,.5.2,1.1,3.3-8.4,5.7-16.6,7.8-24.9,1.1-4.3,2.1-8.7,3.1-13.1.2-.8.4-1.6,0-2.6-1.6,2.4-2.6,4.8-3.4,7.3-3.4,10.5-6.1,21.1-7.5,32.1Z"/>
        <path class="cls-1" d="M139,296.2c8.6,1.3,21.3,1.7,25.8-.1-4.2-1.4-21.6-1.4-25.8.1Z"/>
        <path class="cls-1" d="M111.7,267.8c.9-.4,1.8-.7,2.6-1.2,1-.6,1.1-1.6.5-2.7-.6-.9-1.4-1.1-2.4-.6-.4.2-.7.4-1,.6-1.6,1.1-1.5,2.5.5,3.8Z"/>
        <path class="cls-1" d="M64,251.1c-.9.4-1,.7-.9,2,.9.9,1.8,1.7,2.7,2.5,1.9,0,2.2-.2,2.1-2.1-.5-.6-1.1-1.2-1.6-1.8-.7-.8-1.4-1-2.3-.6Z"/>
        <path class="cls-1" d="M99.8,260.1c-.5.7-.5,1.4.1,2,1.4.8,2.3-.9,3.6-.6.2,0,.6-.3.8-.5.2-.2.4-.5.7-1-.5-.6-.8-1.1-1.1-1.4-1.8-.3-3.2.2-4.2,1.5Z"/>
        <path class="cls-1" d="M64.7,261.8c-1.2,0-2,.6-2.4,1.6-.5,1,.2,1.7.9,2.3.2.2.5.3.8.5.7-.3,1.4-.6,2-.8q.5-1.9-.3-3.4c-.4,0-.8,0-1.1,0Z"/>
        <path class="cls-1" d="M81.8,263c.5,1,0,2.4,1.1,3.3,1.6-.9,1.9-2,1.2-4.3q-1.4-.5-2.3,1Z"/>
        <path class="cls-1" d="M107,248.3c.2-.8,0-1.3-1-1.6-1.7,1.2-1.9,1.9-1.1,3.7,1.1-.3,1.9-.9,2.1-2.1Z"/>
        <path class="cls-1" d="M74.8,259.7c-.8,0-1.7,1-1.6,1.8,0,.7.7,1.2,1.4,1.2.9,0,1.7-.9,1.6-1.8,0-.7-.6-1.2-1.4-1.2Z"/>
        <path class="cls-1" d="M78.6,252.8c-.9-.2-1.3.4-1.7,1.3.4.4.7.8,1.1,1.2,1.1-.3,1.6-.8,1.4-1.5,0-.4-.5-.9-.8-1Z"/>
        <path class="cls-1" d="M55.1,106.2c9.2,0,18.5,0,27.7,0,8.1,0,16.3,0,24.4,0,.7,0,1.5.3,2.2-.4-1.9-3.8-5.6-4.8-9.1-5.7-3.7-5.5-6.3-6.5-12.3-4.6-4.4-7.7-15.5-8.2-20.8.3-3.8,0-6.9,1.6-9,4.9-3.5,1.3-5,2.8-5.5,5.3.7.4,1.6.2,2.4.2Z"/>
        <path class="cls-1" d="M118.7,73.9c-1.6-3.6-4.5-4.3-7.5-4.8-3.8-4.3-8.6-4.3-12.4-.3-5,.8-7.2,2.1-8.1,5.2,9.2,0,18.4,0,27.9,0Z"/>
        <path class="cls-1" d="M264.6,91c-1.4-1.6-3.2-2.3-5.4-2.1-1.8-3.1-6.8-3.9-9.4-1.4-1,1-2,1.7-3.5,1.9-.6,0-1.3.4-1.9.8-1.2.7-2.2,1.6-2.4,3.3,7.8,0,15.6,0,23.3,0,.5-1.2-.1-1.9-.7-2.5Z"/>
        <path class="cls-1" d="M229.1,250.8c-.4,0-.8.2-1.3.4,6.3,1.2,16,1,17.8-.2-.3,0-.6-.2-.8-.2-5.3,0-10.5,0-15.8,0Z"/>
        <path class="cls-1" d="M277.9,169.5c0-2.1,0-4.1,0-6.2,0-2.4-1.3-3.8-3.6-4.2-.5,0-1.1-.2-1.6-.2-3.7,0-7.4-.1-11.1,0-3.7.1-5.1,1.8-5.1,5.3,0,3.1,0,6.2,0,9.2,0,1,.1,2,.2,3.1.2,1.8,1.1,2.9,2.8,3.4.6.2,1.3.4,2,.4,3.6,0,7.3,0,10.9,0,.6,0,1.2-.1,1.8-.3,2.4-.6,3.6-2,3.6-4.5,0-2,0-4,0-6h0ZM266.1,177c-1.6,0-3,.2-4.4.2-1.3,0-1.8-.6-1.9-1.9,0-.4,0-.8,0-1.2,0-3.2,0-6.4,0-9.6,0-.7.2-1.4.3-2.3h6v14.8ZM273,176.9c-1.5.2-2.9,0-4.6,0v-14.5c1.4-.8,2.9-.7,4.4-.6,1,0,1.6.7,1.9,1.7.1.4.1.8.1,1.2,0,3.3,0,6.7,0,10,0,1.6-.3,2-1.8,2.2Z"/>
        <path class="cls-1" d="M24.5,117.2l-8.2-3.6.8-1.9,10.3-1.2,2.7-6.2-12.4,2.1c-.1-1.3-.5-2.5-1.1-3.6-.7-1.2-1.8-2.1-3.2-2.8-2.2-1-4.2-.9-6,.1-1.7,1-3.2,3-4.4,5.8l-3,6.8,22.1,9.7,2.3-5.3ZM6.6,109.4l.6-1.4c.6-1.3,1.2-2.1,1.8-2.5.6-.4,1.3-.4,2.2,0,1.1.5,1.7,1.1,1.8,1.9.2.8,0,1.8-.4,2.7l-.7,1.6-5.4-2.4Z"/>
        <path class="cls-1" d="M21.7,100.5c1.7,1,3.4,1.6,5,1.7.2,0,.4,0,.6,0,1.4,0,2.7-.3,3.9-1,1.4-.8,2.5-1.9,3.4-3.4,1.5-2.4,1.9-4.8,1.2-7.1-.7-2.2-2.3-4.2-4.9-5.7-1.7-1-3.3-1.6-4.9-1.7-1.6-.1-3.1.2-4.5.9-1.4.7-2.5,1.9-3.5,3.5-1.5,2.4-1.9,4.8-1.3,7.1.6,2.3,2.2,4.2,4.8,5.8ZM22.1,90.1c.6-.9,1.3-1.4,2.2-1.4s0,0,.1,0c1,0,2.3.5,3.7,1.3,1.4.9,2.4,1.8,2.9,2.7.5.8.4,1.7-.2,2.7-.6,1-1.3,1.4-2.3,1.4-1.1,0-2.3-.5-3.8-1.3-1.4-.9-2.4-1.8-2.9-2.7-.4-.9-.4-1.7.2-2.7Z"/>
        <path class="cls-1" d="M29,80.9c.9.7,1.7,1.1,2.5,1.2.8.1,1.7,0,2.5-.3.8-.3,1.7-.7,2.6-1.3,1.4-.8,2.4-1.4,3-1.7.7-.3,1-.1,1.3,0,.3.2.4.5.4.9,0,.5-.4,1.1-.9,1.8-.5.6-1.1,1.3-1.9,2-.8.7-1.7,1.4-2.8,1.9l-.6.3,4,3,.3-.2c1.7-1,3.3-2.5,4.8-4.5,1.6-2.1,2.4-4.1,2.3-5.7-.1-1.7-.9-3.1-2.3-4.1-.9-.7-1.8-1.1-2.7-1.2-.8,0-1.7,0-2.6.3-.8.3-1.7.8-2.7,1.4-.9.5-1.6,1-2.1,1.3-.6.4-1,.5-1.2.5-.2,0-.4,0-.6-.2-.2-.2-.3-.4-.3-.7,0-.4.3-.9.7-1.4.3-.5.9-1,1.6-1.5.7-.6,1.5-1.1,2.2-1.5l.4-.2-2.2-3.8-.4.2c-1,.5-1.9,1.1-2.7,1.8-.8.7-1.6,1.5-2.3,2.4-1.3,1.8-2.1,3.5-2.2,5.1-.1,1.7.6,3.1,2,4.2Z"/>
        <path class="cls-1" d="M46.8,73.6c.7.2,1.4.3,2,.3s1.8-.2,2.6-.5c1.5-.5,2.9-1.5,4.2-2.8,1-1.1,1.8-2,2.3-2.9.5-.9,1-1.8,1.3-2.8v-.3c0,0-3.2-3.2-3.2-3.2l-.2.7c-.3,1-.7,1.9-1.2,2.7-.4.8-1,1.5-1.8,2.3-1,1-1.9,1.5-2.9,1.5-.9,0-1.7-.3-2.5-1l8-8.3-2-1.9c-2-1.9-4-2.8-6.1-2.8-2.1,0-4.1,1-5.9,2.9-1.9,2-2.8,4.2-2.7,6.5.1,2.3,1.3,4.6,3.6,6.8,1.5,1.5,3.1,2.4,4.7,2.8ZM43.7,62.5c0-.8.3-1.5.9-2.2.6-.6,1.2-.9,1.9-.9s.2,0,.3,0c.7,0,1.4.4,2,.9l-4.2,4.3c-.6-.8-.9-1.5-.9-2.2Z"/>
        <path class="cls-1" d="M66.7,59.8l-5.6-6.9c-1.2-1.4-1.8-2.7-2-3.8-.1-1,.2-1.8,1.1-2.6.8-.7,2.1-1.3,4.2,1.3l6.7,8.3,4.5-3.6-7.6-9.4c-1.5-1.9-3.1-2.8-4.8-2.9-1.6,0-3.3.5-4.8,1.7-1.2.9-1.9,2-2.3,3.1-.3.8-.4,1.7-.4,2.5l-1.9-1.4-3.5,2.8,11.8,14.6,4.5-3.6Z"/>
        <path class="cls-1" d="M81.6,48.7l-.4-2c.6.2,1.3.4,2.1.4,1,0,2.1-.3,3.3-1,1.9-1.2,3-2.9,3.2-5.1.2-2.1-.5-4.5-2.1-7.1-1.6-2.6-3.4-4.3-5.3-5.1-2-.8-3.9-.6-5.7.5-1.2.7-2,1.6-2.5,2.7-.2.5-.4,1.1-.5,1.7,0,0,0-.2-.1-.2-.3-.6-.6-1.1-.9-1.6l-3.5-5.6-4.9,3,13.5,21.9,3.9-2.4ZM77.7,34.4c.8-.5,1.6-.5,2.4-.2.8.4,1.7,1.3,2.6,2.8.9,1.4,1.3,2.6,1.3,3.6,0,.9-.4,1.6-1.2,2.1-.9.6-1.7.6-2.4.3-.8-.4-1.6-1.3-2.5-2.7l-.4-.6c-2.3-3.7-.4-4.9.2-5.3Z"/>
        <path class="cls-1" d="M92.9,37.5c1.3,1,2.8,1.5,4.4,1.5.1,0,.2,0,.3,0,1.5,0,3-.4,4.6-1.1,1.3-.6,2.4-1.2,3.2-1.8.8-.6,1.6-1.3,2.2-2.1l.2-.2-1.9-4.2-.5.6c-.7.8-1.4,1.5-2.1,2-.7.5-1.5,1-2.5,1.5-1.3.6-2.4.7-3.3.3-.8-.3-1.5-.9-2-1.8l10.5-4.8-1.1-2.5c-1.1-2.5-2.7-4.1-4.7-4.9-2-.8-4.2-.6-6.6.5-2.5,1.1-4.2,2.8-4.9,5-.8,2.2-.5,4.8.8,7.6.9,1.9,2,3.4,3.3,4.3ZM97.9,24.3c.6.3,1.1.9,1.5,1.6l-5.5,2.5c-.3-.9-.3-1.7,0-2.4.3-.8.8-1.3,1.6-1.7.9-.4,1.6-.4,2.3,0Z"/>
        <path class="cls-1" d="M116.4,32.1l-3-9c-.3-1-.4-1.9-.3-2.5.2-.7.5-1.2.9-1.5.5-.4,1-.7,1.7-.9.5-.2.9-.3,1.2-.3.3,0,.6,0,.8-.1h.5s-1.2-5.5-1.2-5.5h-.4c-.2,0-.5.1-.9.2-.4,0-.8.2-1.2.3-1.2.4-2.1,1.1-2.8,2-.5.7-.9,1.4-1.1,2.2l-1.4-2.2-4.3,1.4,6,17.8,5.5-1.8Z"/>
        <path class="cls-1" d="M123.6,27.4c1.6,1.3,3.5,1.8,5.6,1.3,1.4-.3,2.5-.9,3.2-1.6.4-.4.7-.8.9-1.3,0,.4.1.7.2,1v.6c.3,1,.2,1.7-.3,2.4-.5.7-1.4,1.2-2.8,1.5-1.3.3-2.5.4-3.4.4-1,0-2-.1-3.1-.3h-.7c0-.1,1.1,4.9,1.1,4.9h.3c.7.2,1.5.2,2.3.2s.7,0,1,0c1.1,0,2.4-.3,3.8-.6,3.1-.7,5.3-1.9,6.5-3.6,1.2-1.7,1.5-3.8,1-6.3l-4-18.1-4.9,1.1v1.9c-.4-.4-1-.7-1.6-1-1-.4-2.2-.4-3.5,0-2.2.5-3.7,1.7-4.6,3.7-.9,1.9-1,4.4-.3,7.4.7,3,1.8,5.2,3.4,6.5ZM126,15.7c.3-.9,1-1.5,2-1.7,1.2-.3,2,0,2.6.6.6.7,1.1,1.8,1.4,3.3l.2.9c.3,1.3.3,2.4,0,3.3-.2.8-.9,1.3-2.1,1.6-1,.2-1.8,0-2.5-.6-.7-.6-1.2-1.8-1.6-3.5-.4-1.6-.4-3,0-4Z"/>
        <path class="cls-1" d="M154.9,24.5l-.2-12.9c0-.8,0-1.7-.1-2.6l5.2,15.4h5.3c0,0,4.7-15.7,4.7-15.7,0,.2,0,.4,0,.5,0,.7,0,1.4,0,2l.2,13h5.4c0,0-.4-24.3-.4-24.3h-7.4c0,.1-5.2,17.2-5.2,17.2L156.6.3h-7.4c0,.1.4,24.3.4,24.3h5.3Z"/>
        <path class="cls-1" d="M183.3,25.9c1.6.2,3,.2,4-.2.8-.3,1.6-.8,2.3-1.4l.5,2.3,4.1.6,1.8-12.1c.3-2.2,0-4-1.2-5.3-1.1-1.3-2.8-2.2-5-2.5-1.5-.2-2.9-.3-4.1-.2-1.3,0-2.5.3-3.6.7h-.4c0,.1,1.2,4.5,1.2,4.5h.4c.9-.4,1.8-.6,2.7-.7.8-.1,1.6-.1,2.3,0,.7.1,1.3.4,1.6.8.3.4.4,1.1.3,2.1h0c0,.1-2.7-.2-2.7-.2-2.6-.3-4.7,0-6.3.7-1.6.8-2.6,2.2-2.9,4.2-.3,1.9,0,3.5,1,4.6.9,1.1,2.3,1.9,4,2.1ZM184.2,19.7c0-.5.3-1.8,3-1.8s.7,0,1,0h1.4c0,.1-.2,1.1-.2,1.1-.1.9-.5,1.6-1.2,2.1-.6.5-1.4.7-2.4.5-.6,0-1.1-.3-1.4-.7-.3-.3-.4-.8-.3-1.4Z"/>
        <rect class="cls-1" x="192" y="16.5" width="18.7" height="5.8" transform="translate(135.9 210.8) rotate(-76.6)"/>
        <path class="cls-1" d="M203.9,8.8c.4,0,.8.1,1.1.1s.8,0,1.1-.2c.7-.2,1.2-.9,1.5-1.9.2-1,0-1.8-.5-2.4-.5-.5-1.2-.8-2-1-.8-.2-1.6-.2-2.2,0-.7.3-1.2.9-1.5,1.9-.2,1,0,1.8.4,2.4.5.5,1.1.8,2,1Z"/>
        <path class="cls-1" d="M209.9,31.4l2.8-8.4c.6-1.7,1.3-3,2.1-3.7.8-.7,1.7-.8,2.8-.4,1,.3,2.2,1.1,1.2,4.2l-3.4,10.1,5.5,1.9,3.9-11.4c.8-2.3.7-4.1,0-5.6-.8-1.5-2.2-2.5-4-3.1-1.4-.5-2.7-.6-3.8-.3-.9.2-1.6.5-2.3,1l.2-2.3-4.3-1.4-6,17.7,5.5,1.9Z"/>
        <path class="cls-1" d="M225.6,36.2c.5,1.3,1.6,2.3,3.3,3.1,1,.4,1.8.7,2.5.9.7.1,1.4.2,2.1.2h.3s1.9-4.1,1.9-4.1h-.6c-.5,0-.9-.2-1.4-.3-.4,0-.9-.3-1.3-.5-.7-.3-1.4-.9-.7-2.4l3.3-7,4.3,2,1.9-4.2-4.3-2,1.6-3.4-3.6-1.7-2.9,3.1-3.2.2-1.2,2.5,2.1,1-3.4,7.3c-1,2.1-1.2,3.9-.7,5.2Z"/>
        <path class="cls-1" d="M238.5,33.1c-1.1,1.8-1.6,3.6-1.7,5.2,0,1.6.4,3.1,1.2,4.5.8,1.3,2.1,2.5,3.7,3.4,1.3.7,2.4,1.3,3.4,1.6,1,.3,2,.5,3,.6h.3s2.3-3.9,2.3-3.9h-.7c-1.1-.2-2-.3-2.9-.6-.8-.3-1.7-.7-2.6-1.2-1.2-.7-1.9-1.6-2.1-2.5-.2-.8,0-1.7.4-2.7l9.9,5.9,1.4-2.4c1.4-2.4,1.9-4.6,1.4-6.6-.5-2-1.9-3.8-4.2-5.1-2.4-1.4-4.7-1.8-7-1.2-2.2.6-4.2,2.3-5.8,5ZM249.2,33.1c.8.5,1.3,1.1,1.3,1.9,0,.7,0,1.4-.4,2.2l-5.2-3.1c.6-.8,1.3-1.2,2-1.4.8-.2,1.5,0,2.3.4Z"/>
        <path class="cls-1" d="M254.7,54.5l5.4-7c1.1-1.5,2.2-2.4,3.2-2.8.9-.4,1.8-.2,2.8.5.6.5.9,1.1.9,1.8,0,.7-.4,1.6-1.2,2.6l-6.6,8.4,4.6,3.6,7.4-9.5c1.5-1.9,2.1-3.7,1.8-5.3-.3-1.6-1.2-3.1-2.8-4.3-1.2-.9-2.4-1.4-3.5-1.6-.9,0-1.7,0-2.5.2l.9-2.1-3.5-2.8-11.5,14.8,4.6,3.6Z"/>
        <path class="cls-1" d="M281.1,61.9l-2-1.8c-1.9-1.8-3.8-2.8-5.5-3.2-1.8-.3-3.4.2-4.8,1.6-1.4,1.4-2.1,2.8-2,4.3,0,1.5.7,2.8,1.9,4.1,1.2,1.2,2.3,1.9,3.3,2.2.8.2,1.7.3,2.7.2l-1,2.2,2.9,2.9,8.6-8.6c1.6-1.6,2.3-3.2,2.3-5,0-1.7-.9-3.4-2.5-5-1-1-2.1-1.9-3.2-2.6-1.1-.7-2.2-1.2-3.3-1.6h-.4c0-.1-1.6,4-1.6,4l.4.2c.9.3,1.7.7,2.5,1.1.7.4,1.4.9,1.9,1.4.5.5.8,1.1.8,1.6,0,.5-.3,1.2-1,1.8h0ZM278.5,64.5l-.7.7c-.7.7-1.4,1-2.2,1h0c-.8,0-1.5-.3-2.2-1-.5-.5-.7-.9-.7-1.4,0-.4.2-.9.6-1.3.2-.2.6-.6,1.3-.6s1.6.4,3,1.6l1.1,1Z"/>
        <path class="cls-1" d="M281.9,80.8l7-5.4c1.5-1.1,2.7-1.8,3.8-1.9,1-.1,1.8.3,2.5,1.2.5.6.6,1.3.5,1.9-.2.7-.8,1.4-1.8,2.2l-8.4,6.5,3.5,4.6,9.6-7.4c1.9-1.5,2.9-3,3-4.7.1-1.6-.4-3.3-1.6-4.8-.9-1.2-1.9-2-3-2.4-.8-.3-1.6-.5-2.5-.5l1.4-1.8-2.7-3.5-14.8,11.5,3.5,4.6Z"/>
        <path class="cls-1" d="M292.9,92.3c-.5,2.2,0,4.6,1.4,7,.6,1,1.3,1.9,2,2.5.7.7,1.4,1.2,2.2,1.6h.2c0,.1,4.3-2.5,4.3-2.5l-.7-.4c-.7-.4-1.4-.9-2.1-1.5-.6-.6-1.2-1.2-1.6-1.9-.6-1-.7-2-.4-2.9.4-1,1.2-1.9,2.6-2.7,1.4-.8,2.6-1.2,3.7-1,1.1.2,1.9.7,2.5,1.7.3.5.6,1.1.7,1.7.2.6.3,1.3.4,2.1v.5c0,0,4.8-.8,4.8-.8v-.4c-.1-.9-.3-1.8-.6-2.7-.3-.9-.7-1.8-1.3-2.7-1-1.6-2.1-2.8-3.5-3.7-1.4-.9-2.9-1.3-4.6-1.3-1.7,0-3.4.6-5.3,1.7-2.7,1.6-4.3,3.6-4.9,5.8Z"/>
        <path class="cls-1" d="M319,105c-1.1-2.5-2.8-4.1-5.1-4.9-2.2-.8-4.8-.5-7.6.8-1.9.9-3.4,2-4.3,3.3-1,1.3-1.5,2.8-1.5,4.4,0,1.6.3,3.2,1.1,5,.6,1.3,1.2,2.4,1.8,3.2.6.8,1.3,1.6,2.1,2.2l.2.2,4.2-1.9-.6-.5c-.8-.7-1.5-1.4-2-2.1-.5-.7-1-1.5-1.5-2.5-.6-1.3-.7-2.4-.3-3.3.3-.8.9-1.5,1.8-2l4.8,10.5,2.5-1.1c2.5-1.1,4.1-2.7,4.9-4.7.8-2,.6-4.2-.5-6.6ZM315.2,109.3c-.3.6-.9,1.1-1.6,1.5l-2.5-5.5c.9-.3,1.7-.3,2.4,0,.8.3,1.3.8,1.7,1.6.4.9.4,1.6,0,2.3Z"/>
        <path class="cls-1" d="M40.6,282.1c1-.2,1.9-.7,2.7-1.4,1.4-1.1,2.1-2.4,2.1-3.8s-.6-2.9-2-4.6l-3.5-4.3-13.6,10.9,2.3,2.9,4.8-3.9,1.1,1.4c1,1.2,2,2,3,2.5,1,.4,2,.5,3,.3ZM38.7,278.5c-.7-.2-1.3-.7-1.9-1.4l-.9-1.1,4.1-3.3,1.1,1.4c.6.8.9,1.5.9,2.1,0,.6-.4,1.2-1,1.7-.8.7-1.6.9-2.3.6Z"/>
        <path class="cls-1" d="M52.3,292.5c.4-1.1.4-2.2.2-3.2-.3-1.1-.9-2.1-1.8-3-1.4-1.5-3-2.2-4.6-2.2-1.7,0-3.3.8-4.9,2.3-1,1-1.7,2.1-2.1,3.2-.4,1.1-.4,2.2-.1,3.3s.9,2.1,1.8,3c1.4,1.5,3,2.2,4.7,2.1,1.7,0,3.3-.8,4.9-2.4,1-1,1.7-2,2.1-3.1ZM49.4,290.4c-.2.8-.8,1.7-1.7,2.5-.9.9-1.8,1.5-2.7,1.7-.8.2-1.6,0-2.2-.7-.7-.7-.9-1.4-.7-2.3.2-.8.8-1.7,1.8-2.6,1-.9,1.8-1.5,2.7-1.7.8-.2,1.6,0,2.2.8.7.7.9,1.5.7,2.3Z"/>
        <rect class="cls-1" x="46.9" y="295.6" width="18.6" height="3.7" transform="translate(-203.7 142.3) rotate(-48.5)"/>
        <path class="cls-1" d="M69.8,303.3l-7,4.8c-.3.2-.5.4-.8.6-.3.2-.5.4-.8.6h0c.1-.3.3-.6.4-.9s.3-.6.4-1l2.8-7.9-3.1-2.4-3.9,13.6-.7.4c-.6.4-1.3.6-1.8.8-.6.1-1.1,0-1.7-.5-.2-.2-.4-.3-.6-.5-.2-.2-.3-.3-.4-.5l-1.8,2.3c.1.2.3.4.5.6.2.2.5.4.7.7,1.2.9,2.4,1.4,3.5,1.3,1.1,0,2.4-.6,3.7-1.4l13.4-8.3-3-2.3Z"/>
        <path class="cls-1" d="M81.8,311.3l-3.3,5.3c-.8,1.2-1.5,2-2.3,2.4-.8.4-1.6.3-2.4-.2-1.2-.8-1.3-2-.2-3.7l4.1-6.5-3.1-2-4.6,7.4c-.9,1.4-1.2,2.7-.9,3.8.3,1.1,1,2.1,2.2,2.8.8.5,1.6.8,2.5.9s1.6,0,2.3-.5h.2c0,.1-.6,2-.6,2l2.3,1.5,7.1-11.3-3.1-1.9Z"/>
        <path class="cls-1" d="M96.2,319.1c-.1-.1-.3-.2-.6-.4-.2-.2-.5-.3-.7-.4-.8-.4-1.5-.5-2.4-.4-.8.1-1.5.4-2.1.8h-.2c0,0,.5-2.3.5-2.3l-2.5-1.3-6.1,11.9,3.3,1.7,3.1-6c.4-.8.9-1.3,1.4-1.6.5-.3,1-.4,1.5-.4.5,0,1,.2,1.5.4.4.2.6.3.8.5.2.1.4.3.5.4l1.9-2.9Z"/>
        <path class="cls-1" d="M103.4,322c-1.8-.8-3.5-.8-5-.1s-2.7,2.1-3.6,4.1c-.6,1.4-.8,2.7-.7,3.8s.6,2.2,1.3,3c.7.9,1.7,1.5,3,2.1,1,.4,1.9.7,2.6.8s1.5.2,2.2.1l1-2.5c-.8,0-1.6,0-2.3-.1-.7-.1-1.4-.3-2.2-.6-1.1-.4-1.7-1-2-1.8-.3-.8-.3-1.7.1-2.6l8,3.3.7-1.6c.8-1.8.9-3.4.3-4.8-.6-1.4-1.7-2.4-3.4-3.2ZM103.7,328.1l-4.8-2c.5-.9,1-1.5,1.7-1.7.6-.3,1.3-.2,2,0,.8.3,1.2.8,1.4,1.5.2.7,0,1.4-.2,2.2Z"/>
        <path class="cls-1" d="M117.7,327.1c-1-.3-2-.5-3-.6-.9,0-1.8,0-2.6,0l.3,2.7c.7,0,1.4-.1,2.1-.1.7,0,1.3.1,1.8.3.6.2,1.1.5,1.3,1,.2.4.3,1.1,0,1.8v.4c-.1,0-2.4-.6-2.4-.6-1.8-.5-3.4-.5-4.5-.2-1.2.4-2,1.2-2.4,2.5-.4,1.3-.3,2.4.2,3.3.5.9,1.3,1.5,2.5,1.9,1.1.3,2.1.4,2.8.3.7-.2,1.5-.5,2.2-1.1h0s0,2.1,0,2.1l2.4.7,2.6-8.4c.5-1.5.4-2.8-.2-3.8-.6-1-1.7-1.8-3.2-2.3ZM116.6,335.7c-.2.8-.7,1.3-1.3,1.6-.6.3-1.3.4-2.1.1-.5-.2-.9-.4-1.1-.8-.2-.4-.2-.8,0-1.3.4-1.2,1.6-1.6,3.6-1l1.4.3-.3,1.1Z"/>
        <path class="cls-1" d="M148.3,339.4c-.1.3-.3.7-.4,1.2-.2.5-.3,1-.5,1.5-.2.5-.3,1-.4,1.3,0-.6,0-1.2,0-2,0-.7-.1-1.5-.2-2.2,0-.7-.1-1.3-.2-1.7l-1-8.5-3.4-.4-3.1,7.9c-.2.4-.4,1-.6,1.7-.2.7-.5,1.4-.7,2.1s-.4,1.3-.6,1.9c0-.4,0-.8,0-1.4,0-.5,0-1.1-.1-1.6,0-.5,0-1-.1-1.3l-1-10.1-3.5-.5,2.1,17.9,4.3.6,3.5-9c0-.2.2-.5.3-.9.1-.4.3-.9.5-1.4s.3-.9.4-1.3c0,.4,0,.8,0,1.3,0,.5,0,1,.1,1.5,0,.5,0,.8,0,1l1,9.5,4.3.6,6.7-16.7-3.5-.5-3.7,9.5Z"/>
        <path class="cls-1" d="M163,334c-1.1,0-2.1,0-3,.3-.9.2-1.8.5-2.5.8l1,2.5c.7-.3,1.3-.5,2-.7.6-.2,1.3-.2,1.8-.2.7,0,1.2.2,1.5.5.4.4.5.9.5,1.8v.4s-2.3,0-2.3,0c-1.9,0-3.4.4-4.4,1.1-1,.7-1.6,1.7-1.6,3.1,0,1.4.3,2.4,1.1,3.1.7.7,1.7,1.1,2.9,1.1,1.2,0,2.1-.2,2.8-.5.7-.4,1.3-.9,1.8-1.6h0s.7,2,.7,2h2.5s.1-8.8.1-8.8c0-1.6-.4-2.8-1.3-3.6-.9-.8-2.1-1.3-3.7-1.3ZM164.3,342.5c0,.8-.3,1.4-.8,1.9-.5.5-1.2.7-2,.7-.6,0-1-.2-1.3-.4s-.5-.7-.5-1.3c0-1.3,1.1-1.9,3.1-2h1.4c0,0,0,1.1,0,1.1Z"/>
        <path class="cls-1" d="M179.4,344.1c-.3,0-.7.2-1.1.2-1,0-1.6-.5-1.7-1.6l-.4-6.1,3.5-.2-.2-2.8-3.5.2-.2-2.8-2.4.2-.7,3-2,1.3v1.6c.1,0,1.8-.1,1.8-.1l.4,6.4c.1,1.7.6,2.8,1.3,3.4.8.6,1.8.9,3.1.8.8,0,1.4-.2,1.9-.3.5-.2,1-.3,1.4-.6l-.2-2.7c-.3.2-.7.3-1,.4Z"/>
        <path class="cls-1" d="M195.1,337.3c-.3-1.9-1-3.4-2.2-4.3-1.2-.9-2.7-1.2-4.6-.9-1.9.3-3.4,1.1-4.4,2.5s-1.3,3.2-.9,5.4c.2,1.5.7,2.7,1.4,3.6.7.9,1.6,1.5,2.7,1.9,1.1.3,2.3.4,3.6.2,1.1-.2,1.9-.4,2.6-.6.7-.3,1.4-.6,1.9-1l-.4-2.7c-.7.5-1.3.8-2,1.1s-1.4.4-2.2.6c-1.1.2-2,0-2.7-.5-.7-.5-1.1-1.3-1.3-2.3l8.6-1.3-.3-1.7ZM186.5,338c0-1,.1-1.8.5-2.3s1-.9,1.7-1c.8-.1,1.5,0,2,.6.5.5.8,1.2.9,2l-5.2.8Z"/>
        <path class="cls-1" d="M205.3,328.7c-.3,0-.6,0-.8.1-.8.2-1.5.6-2.1,1.2s-.9,1.3-1.1,2h-.2s-1.1-2-1.1-2l-2.7.6,3.1,13,3.6-.9-1.6-6.6c-.2-.9-.2-1.6,0-2.1.2-.5.5-1,.9-1.3.4-.3.9-.5,1.4-.6.4,0,.7-.2,1-.2.2,0,.5,0,.7,0l-.5-3.4c-.2,0-.4,0-.7,0Z"/>
        <path class="cls-1" d="M219.4,326c-1.2-.8-2.5-1-4-.5-1,.3-1.7.8-2.1,1.4s-.7,1.3-.8,2h-.2c0,0-1.1-1.7-1.1-1.7l-2.8.9,6,18.2,3.5-1.2-1.6-4.8c-.2-.5-.3-.9-.5-1.3-.1-.4-.3-.7-.4-1.1h.1c.4.3,1,.6,1.7.8.7.2,1.5.1,2.5-.2,1.4-.5,2.4-1.4,2.9-2.8.5-1.4.4-3.2-.3-5.4-.7-2.1-1.6-3.6-2.8-4.4ZM219.1,334.7c-.2.7-.7,1.2-1.5,1.5-.9.3-1.6.2-2.2-.3-.6-.5-1.1-1.4-1.5-2.7v-.3c-.5-1.1-.5-2.1-.4-2.8.2-.7.7-1.2,1.5-1.5.8-.3,1.5-.2,2.1.3.6.4,1.1,1.3,1.6,2.7.4,1.3.6,2.4.3,3.1Z"/>
        <path class="cls-1" d="M229.5,324c.4-.4.8-.7,1.3-.9.4-.2.7-.3.9-.3s.5-.1.7-.1l-1-3.3c-.2,0-.4,0-.7.2s-.6.2-.8.3c-.8.3-1.4.9-1.8,1.6-.4.7-.7,1.4-.7,2.2h-.2c0,0-1.4-1.8-1.4-1.8l-2.5,1.1,5.3,12.3,3.4-1.4-2.7-6.2c-.3-.8-.5-1.5-.4-2.1,0-.6.3-1,.7-1.4Z"/>
        <path class="cls-1" d="M244.6,315.8c-.9-.7-2-1-3.1-1.1s-2.2.2-3.4.9c-1.8,1-2.9,2.2-3.4,3.8-.5,1.6-.2,3.4.8,5.3.7,1.3,1.5,2.3,2.5,2.9s2,1,3.1,1.1c1.1,0,2.2-.2,3.4-.8,1.8-1,2.9-2.3,3.4-3.9.4-1.6.1-3.4-.9-5.3-.7-1.3-1.5-2.2-2.4-2.9ZM243.3,325.4c-.8.5-1.6.4-2.4,0-.7-.5-1.4-1.3-2-2.4-.6-1.2-.9-2.2-.8-3,0-.8.5-1.5,1.3-1.9.9-.5,1.6-.5,2.4,0s1.4,1.3,2,2.4c.6,1.2.9,2.2.9,3,0,.9-.5,1.5-1.3,2Z"/>
        <path class="cls-1" d="M258,307.2c-1-.6-2.1-.8-3.2-.8s-2.2.5-3.3,1.2c-1.7,1.1-2.7,2.5-3,4.2-.3,1.6.2,3.4,1.4,5.2.8,1.2,1.7,2.1,2.7,2.7s2.1.8,3.2.8,2.2-.5,3.3-1.2c1.7-1.1,2.7-2.5,3-4.2.3-1.7-.2-3.4-1.4-5.2-.8-1.2-1.7-2.1-2.7-2.6ZM257.6,316.9c-.8.5-1.6.6-2.4.2-.8-.4-1.5-1.1-2.2-2.2-.7-1.1-1.1-2.1-1.1-2.9s.4-1.5,1.2-2c.8-.5,1.6-.6,2.3-.2.7.4,1.5,1.1,2.2,2.2.7,1.1,1.1,2.1,1.2,2.9,0,.9-.3,1.5-1.1,2.1Z"/>
        <path class="cls-1" d="M267,300l-1.7-2.2-2.3,1.8-.5-.6c-.4-.5-.6-1-.6-1.4,0-.4.2-.7.6-1,.3-.2.5-.4.8-.5.3-.1.5-.3.8-.4l-.9-2.4c-.5.2-1,.4-1.5.7-.5.2-.9.5-1.4.9-1.2,1-1.9,1.9-1.9,3,0,1,.4,2.2,1.4,3.4l.4.5-1.1,2,1.1,1.5,1.6-1.2,6.5,8.3,2.9-2.2-6.5-8.3,2.3-1.8Z"/>
        <path class="cls-1" d="M267.3,293.6c.4-.4.7-.8.8-1.2.1-.4,0-.9-.5-1.4-.4-.5-.9-.7-1.3-.6-.5,0-.9.3-1.3.7-.4.4-.7.8-.8,1.2-.1.4,0,.9.5,1.4.4.5.9.7,1.3.7.4,0,.9-.3,1.3-.7Z"/>
        <rect class="cls-1" x="271.1" y="293.3" width="3.7" height="13.4" transform="translate(-130 254.2) rotate(-41.2)"/>
        <path class="cls-1" d="M281.3,283.9c-1.2,0-2.2.6-3.2,1.6-.7.8-1.2,1.5-1.4,2.3-.2.8-.2,1.6,0,2.3h-.1c0,.1-1.8-1-1.8-1l-1.9,2,9.5,9.4,2.6-2.6-4.5-4.4c-1-1-1.7-1.9-1.9-2.8-.2-.8,0-1.6.7-2.3,1-1,2.3-.8,3.7.6l5.5,5.4,2.6-2.6-6.2-6.1c-1.2-1.2-2.4-1.8-3.5-1.7Z"/>
        <path class="cls-1" d="M302,278.8l-10.6-8.5-2,2.5,1.2,1.4h0c-.7,0-1.3,0-2,.3-.7.2-1.3.7-2,1.5-1,1.2-1.3,2.6-.9,4,.4,1.5,1.4,2.9,3.2,4.3s3.4,2.1,4.8,2.2c1.5,0,2.7-.5,3.6-1.7.6-.8,1-1.5,1-2.3,0-.7,0-1.5-.4-2.1h0c.5.4,1,.8,1.4,1.2l.3.3c.6.5,1,1.1,1,1.8s-.3,1.5-1,2.4c-.6.8-1.3,1.4-1.9,1.9-.6.5-1.3.9-2,1.3l2.4,1.9c.7-.4,1.3-.9,1.9-1.4.6-.5,1.2-1.2,1.9-2.1,1.5-1.8,2.1-3.4,2-4.9,0-1.5-.8-2.8-2.3-3.9ZM296,281.8c-.6.7-1.2,1-2,1s-1.7-.5-2.8-1.4c-1-.8-1.7-1.7-2-2.5-.3-.8-.1-1.6.4-2.3.6-.8,1.4-1.1,2.1-1,.8.1,1.6.6,2.5,1.3l.6.4c.8.7,1.4,1.4,1.7,2.1s0,1.5-.6,2.3Z"/>
      </g>
    </g>
  </g>
</svg>