<?xml version="1.0" encoding="UTF-8"?>
<svg id="Layer_2" xmlns="http://www.w3.org/2000/svg" viewBox="0 0 324.05 382.59">
  <defs>
    <style>
      .cls-1 {
        fill: #053245;
      }
    </style>
  </defs>
  <g id="Layer_1-2" data-name="Layer_1">
    <path class="cls-1" d="M156.08,354.03c-1.36,0-2.48-.02-3.52-.07-2.86-.14-5.73-.49-8.5-.83-3.47-.43-6.68-.88-9.8-1.38-7.17-1.15-14.85-3.07-24.16-6.07-15.44-4.97-30.45-12.99-45.88-24.54-6.47-4.84-12.48-10.08-17.87-15.55-12.37-12.57-22.46-26.82-29.99-42.35-5-10.31-8.76-20.67-11.17-30.8-1.11-4.67-1.92-9.4-2.5-13.01-.49-3.05-.87-6.17-1.24-9.19-.16-1.33-.32-2.66-.5-3.99-.02-.13-.02-.27-.03-.4-.04-1.73-.1-3.45-.16-5.18-.14-3.94-.28-8.01-.19-12.01.08-3.88.51-7.83.93-11.66l.22-2.03c1.15-10.71,3.79-21.61,8.08-33.32,6.31-17.2,14.41-31.84,24.76-44.75,6-7.49,10.96-12.95,16.07-17.73,6.8-6.35,13.89-12.05,21.1-16.96,14.21-9.67,30.12-16.96,47.27-21.65,6.22-1.7,12.36-2.98,18.24-3.8,3.56-.49,7.2-.83,10.71-1.16l2.51-.24c2.62-.25,5.4-.36,9.02-.36,1.65,0,3.29.02,4.94.05l2.06.03c2.17.02,4.37.25,6.51.46,1.27.13,2.54.26,3.82.35,4.3.3,8.62,1.02,12.68,1.73,6.63,1.16,13.39,2.8,20.07,4.88,18.87,5.86,36.3,14.98,51.82,27.11,6.3,4.92,12.48,10.65,18.37,17.03,12.15,13.16,21.88,27.82,28.92,43.59,4.33,9.71,7.45,18.88,9.51,28.05.86,3.81,1.52,7.75,2.15,11.56l.4,2.37c.76,4.48,1.03,9.08,1.29,13.54.06,1.09.13,2.19.2,3.28.41,6.3.03,12.66-.31,18.27-.61,10.2-2.6,20.88-5.92,31.73-5.69,18.59-14.36,35.75-25.79,51-4.05,5.41-8.8,10.79-15.38,17.42-10.08,10.16-21.54,18.79-35.03,26.39-12.79,7.2-27.16,12.71-42.7,16.38-3.15.74-6.42,1.25-9.58,1.75-1.46.23-2.92.46-4.37.71-5.33.92-11.12,1.35-18.22,1.35-1.11,0-2.22-.01-3.33-.03h-.01c-.93,0-1.85.01-2.77.02s-1.84.02-2.76.02ZM24.86,261.31c-.37,0-.91.04-1.42.43-.19.15-.25.41-.14.62,25.91,51.86,80.28,85.36,138.5,85.36,32.08,0,63.15-10.11,89.85-29.24.19-.13.26-.38.17-.59-.08-.19-.26-.32-.46-.32-.02,0-.04,0-.06,0l-2.52.33c-.91.12-1.83.23-2.74.34-2.11.26-4.3.53-6.44.84l-.11.02c-1.68.25-3.41.5-5.03,1.07-.87.31-1.73.63-2.59.96-2.31.88-4.7,1.79-7.17,2.21-3.21.55-6.04.94-8.67,1.2-4.27.42-8.09.69-11.69.85-.99.04-2.07.06-3.37.06-.85,0-1.69,0-2.54-.02-.85,0-1.7-.02-2.55-.02h-1.3c-2.24,0-4.54-.27-7.01-.85l-.12-.03c-1.1-.25-2.23-.52-3.27-.93-1.1-.44-2.47-1.35-2.71-3.25-.12-.92-.11-1.88-.1-2.81,0-.32,0-.64,0-.95,0-.74.02-1.39.08-1.98.05-.47.13-.93.22-1.47.05-.27.09-.56.14-.88.02-.14-.02-.29-.11-.4s-.23-.17-.38-.17c-.83,0-1.64.01-2.44.03-.76.01-1.51.03-2.25.03-1.05,0-1.91-.03-2.71-.09-4.18-.31-8.33-.73-12.32-1.27-.29-.04-.58-.07-.88-.1-1.39-.14-2.71-.27-3.67-1.32v-1.32c.1-.04.19-.08.28-.12.37-.16.72-.3,1.06-.38,1.58-.36,3.16-.71,4.75-1.05,1.13-.25,2.26-.49,3.38-.74.33-.08.67-.14,1-.21,1.36-.27,2.77-.56,4.03-1.32.12-.07.21-.19.23-.33l.02-.11c.39-2.03.76-3.95,2.36-5.32.93-.8,2-1.37,3.37-1.81,2.28-.73,4.54-1.93,7.09-3.77,1.06-.76,2.27-1.74,3.2-3.23.09-.15.1-.34.02-.5-1.06-2.04-.64-4.11-.06-6.23l.06-.21c.05-.21.11-.41.18-.61.34-.9.25-1.79-.25-2.79-2.1-4.12-4.48-8.78-7.33-13.04l-3.04-4.55c-.09-.14-.25-.22-.42-.22h-84.87l.97-5.22h79.22c.17,0,.32-.08.41-.22.09-.14.11-.31.05-.46l-4.17-10.66c-.08-.19-.26-.32-.47-.32h-58.6s-3.1.01-3.1.01c-1.21,0-2.43,0-3.65,0h-.74c-.71,0-1.42,0-2.14,0-.71,0-1.42.01-2.14.01-1.5,0-2.7-.03-3.8-.08-.04-.4-.04-.82-.03-1.22.02-1.08.03-2.2-.89-3.18-1.14-1.21-2.47-2.12-4.06-2.79-.06-.03-.13-.04-.19-.04-.09,0-.18.02-.26.07-2.34,1.4-4.25,3.29-6.1,5.11-.72.71-1.46,1.44-2.21,2.13H24.14c-2.59,0-5.22.01-7.98.06-.16,0-.31.08-.41.22s-.11.31-.05.46l4.07,10.68c.07.19.26.32.47.32h47.4c-.25.24-.48.48-.72.71-1.07,1.06-2.08,2.05-2.99,3.11-.94,1.09-2.03,1.53-3.76,1.53-4.36-.02-8.66-.03-12.97-.03-5.78,0-11.56.01-17.34.03h-3.99c-.16,0-.31,0-.47-.01-.18-.01-.37-.03-.55-.03ZM185.22,315.36c-.18,0-.34.09-.44.25-.75,1.32-.7,2.43.16,3.49.06.07.13.12.21.15,2.5.96,5.47,1.95,8.51,2.01h0c.12,0,.24-.04.33-.13l.85-.75,1.99.81c.06.02.12.04.19.04.03,0,.06,0,.08,0l.47-.08c2.55-.43,4.95-.84,7.04-2.36.18-.13.25-.36.18-.57-.07-.2-.26-.34-.47-.34h-.02c-.66.03-1.33.06-1.99.1-1.08.06-2.2.13-3.3.13-.39,0-.78,0-1.17-.03-2.06-.1-4.21-.4-6.39-.88-1.43-.31-2.86-.78-4.24-1.23-.62-.2-1.24-.41-1.85-.59-.05-.01-.1-.02-.15-.02ZM193.21,305.42c-3.76.03-6.28,2.73-7.38,5.24-.45,1.03-.23,1.89.67,2.62.09.07.2.11.32.11.12,0,.24-.04.33-.12,1.83-1.6,4.11-2.17,6.09-2.51,1.77-.3,3.47-.79,5.5-1.44l.24-.08c.77-.24,1.74-.53,2.19-1.59.05-.12.05-.26,0-.39-.05-.12-.15-.22-.28-.27-2.77-1.07-5.16-1.57-7.53-1.57h-.15ZM175.27,304.61c-.12,0-.23.04-.32.12-.11.09-.18.24-.18.38v2.21c0,.2.12.38.31.46,2.06.85,3.66,1.23,5.19,1.23,1.2,0,2.33-.24,3.43-.74.18-.08.29-.26.29-.46v-1.2c0-.24-.17-.45-.41-.49l-8.22-1.51s-.06,0-.09,0ZM181.24,297.99c-1.25,0-2.46.27-3.6.8-1.65.76-2.12,1.71-1.85,3.74.02.13.09.26.2.34.09.06.19.1.3.1.03,0,.05,0,.08,0,.53-.09,1.05-.17,1.55-.25,1.12-.17,2.17-.34,3.23-.56,1.28-.27,2.58-.58,3.95-.92.65-.16,1.33-.33,2.05-.5.21-.05.36-.23.38-.44s-.1-.42-.29-.5c-.41-.18-.76-.36-1.09-.52-.65-.31-1.21-.59-1.8-.78-1.06-.34-2.1-.51-3.1-.51ZM194.58,298.63c-.2,0-.39.12-.46.31l-.72,1.78c-.06.14-.05.3.03.43.07.13.2.22.35.25l7.68,1.44s.06,0,.09,0c.16,0,.32-.08.41-.22.11-.16.12-.38.01-.55-.05-.07-.17-.2-.25-.24l-1.22-.67c-1.34-.74-2.73-1.5-4.11-2.21-.37-.19-.79-.23-1.19-.27-.17-.02-.35-.03-.53-.06-.03,0-.05,0-.08,0ZM224.91,261.1c-.25,0-.46.18-.49.42-.18,1.13-.34,2.26-.5,3.39-.61,4.31-1.24,8.76-2.96,13.03-.06.14-.05.29.02.42.77,1.42,1.04,3.04.89,5.25-.06.8-.13,1.59-.2,2.39-.09,1.01-.18,2.01-.24,3.02-.17,2.87-.68,6.54-3.18,9.6-.16.2-.27.42-.35.59l-.08.17c-.09.17-.08.37.03.52.61.88,1.41.98,1.96.98.19,0,.37-.01.56-.03.16-.01.31-.02.47-.02,10.93.01,21.85.01,32.77.01h18.32c.1,0,.2-.03.29-.09,3.05-2.13,10.91-11.11,17.53-20.02.06-.09.1-.19.1-.3v-.68c0-.56,0-1.15,0-1.74,0-.56-.02-1.12-.03-1.69l-.02-.8c0-.14-.06-.26-.16-.36-.09-.09-.21-.13-.34-.13,0,0-.02,0-.03,0-.56.03-1.11.04-1.65.04-9.52,0-16.17-4.6-19.74-13.68-.08-.19-.26-.32-.46-.32h-42.48ZM205.81,195.67c-1.07.72-2.17,1.46-3.2,2.26-2.89,2.24-4.61,4.99-5.11,8.17-.24,1.53-.39,3.09-.54,4.6l-.04.36c-.27,2.7-.51,5.4-.75,8.1-.06.64-.12,1.27-.2,1.91-.18,1.6-.36,3.26-.3,4.89.06,1.96.39,3.93.7,5.83.08.46.28,1.71.28,1.71.58,3.68,1.17,7.48,1.09,11.25-.06,3.08-.19,6.2-.3,9.23-.05,1.3-.1,2.59-.15,3.89,0,.22-.03.43-.05.65-.12,1.32-.24,2.64-.36,3.97-.27,2.97-.54,6.05-.89,9.06-.32,2.78-.73,5.61-1.12,8.34-.18,1.24-.36,2.47-.53,3.71-.07.49-.15.99-.22,1.48-.37,2.34-.75,4.76-.16,7.29.03.12.1.22.2.3,5.11,3.6,10.96,4.27,16.02,4.44h.02c.24,0,.45-.17.49-.41.05-.24-.09-.48-.33-.56-.91-.31-1.8-.53-2.64-.65-2.78-.39-5.48-1.5-8.28-3.4-.45-.31-.88-.62-1.2-1.08,1.78.2,3.43.37,5.12.37,2.05,0,3.89-.25,5.62-.77.2-.06.35-.24.36-.46,0-.21-.12-.41-.31-.49-5.86-2.35-9.62-5.16-10.64-7.95l.54-.34c.65-.41,1.32-.82,1.96-1.25,3.39-2.27,5.59-4.93,6.74-8.12,2.04-5.7,2.96-11.2,2.81-16.81,0-.12-.05-.23-.13-.32l-7.53-8.49c.75-.2,1.52-.29,2.33-.39,1.59-.19,3.23-.39,4.74-1.41.2-.14.27-.39.18-.61-.72-1.65-2.07-2.63-3.37-3.57-.64-.46-1.25-.91-1.8-1.43.06-.04.11-.07.17-.11.47-.3.91-.58,1.32-.92l.14-.12c1-.82,2.03-1.66,2.95-2.6,1.37-1.39,2-3.05,1.93-5.07-.1-2.95-.09-6.13,0-9.72.12-4.43.3-8.49.55-12.43.05-.79.1-1.57.16-2.36.26-3.66.52-7.45.23-11.22-.24-3.07-.97-5.96-1.74-9.02l-.39-1.55c-.05-.21-.24-.37-.46-.38-2.02-.1-4.15-.15-6.53-.15-3.1,0-6.25.08-9.3.17h-.55c-.27.02-.49.24-.49.51,0,.89-.01,1.77-.03,2.63-.04,2.05-.07,3.98.09,5.94l.03.36c.13,1.66.27,3.55,1.63,5.14.1.11.24.18.38.18.05,0,.11,0,.16-.03,5.5-1.88,9.01-2.78,11.03-2.81-.12.08-.23.16-.34.23ZM272.3,261.06c-.17,0-.33.09-.42.23-.09.15-.1.33-.03.48,2.83,5.96,8.68,10.11,14.23,10.11,1.12,0,2.2-.18,3.2-.52.18-.06.3-.21.33-.4.38-2.55.29-7.99-.16-9.55-.06-.21-.26-.36-.48-.36h-16.67ZM293.42,232.43c-.26,0-.48.2-.5.46-.03.41-.07.78-.11,1.14-.08.74-.14,1.37-.14,2.03-.02,8.19-.03,16.38-.04,24.58v9.03c0,.18.09.35.26.44.07.04.16.06.24.06.1,0,.19-.03.28-.08l3.92-2.59c.14-.09.22-.25.22-.42v-2.61c0-1.94,0-3.87.01-5.81.01-4.85.03-9.87-.03-14.81-.03-2.45,1.08-4.38,2.18-5.94.41-.58.96-.88,1.74-.95,1.28-.12,2.79-.27,4.29-.52,2.26-.38,4.65-1.03,6.72-3.15.14-.14.18-.36.1-.54-.08-.19-.26-.31-.46-.31h-18.68ZM176.32,182.98c-1.07,0-2.51.11-4.1.97-.14.08-.24.22-.26.38l-.27,2.34c-.23,1.95-.45,3.91-.66,5.88-.22,2.06-.39,4.1-.51,5.63-.08,1.02-.18,2.04-.28,3.06-.24,2.4-.48,4.89-.48,7.34,0,2.2-.02,4.4-.04,6.59-.06,6.16-.11,12.53.29,18.8.23,3.5.83,6.79,1.83,10.05,1.75,5.68,4.75,11.05,9.72,17.42.53.68,1.09,1.34,1.64,2l.72.85c.1.12.24.18.38.18.09,0,.19-.03.27-.08.21-.14.29-.42.17-.64-.76-1.51-1.58-2.99-2.38-4.43-.99-1.79-2.01-3.64-2.89-5.5-2.78-5.86-3.54-8.12-3.69-9.85.61.27,1.19.61,1.8.97.96.56,1.96,1.14,3.13,1.49.05.01.09.02.14.02.16,0,.31-.08.41-.21.12-.18.12-.41,0-.58-.37-.5-.72-.97-1.07-1.43-.71-.95-1.39-1.84-2-2.76-1.92-2.86-2.33-5.9-1.23-9.04,1.19-3.39,2.48-7.01,3.93-10.53.69-1.66,1.51-3.27,2.38-4.98.4-.79.81-1.59,1.23-2.43.1-.2.05-.44-.12-.59-.09-.08-.21-.13-.33-.13-.09,0-.19.03-.27.08l-4.15,2.67c2.02-4.61,4.65-8.62,7.2-12.51.07-.11.1-.25.07-.38-.03-.13-.11-.25-.23-.32l-8.08-4.88c.75-.07,1.44-.09,2.01-.09.42,0,.83,0,1.24.02.4,0,.79.01,1.17.01h0c.88,0,1.54-.04,2.15-.12.25-.04.43-.25.43-.5v-13.37c0-.24-.17-.45-.41-.49-.27-.05-.53-.1-.77-.16-.53-.11-1.03-.22-1.54-.27-1.75-.19-3.31-.32-4.75-.4h-.22c-.53-.05-1.06-.08-1.6-.08ZM275.74,244.2c-4.4,0-7.75.09-8.95.25-.14.02-.27.1-.35.21s-.11.26-.08.4c.71,3.05,1.61,6.63,2.81,10.04.07.19.24.32.45.33,2.18.12,5.15.18,8.36.18,4.55,0,9.71-.13,10.99-.44.23-.05.38-.25.38-.49v-1.45c0-1.08,0-2.17,0-3.27,0-1.11-.02-2.23-.04-3.32l-.02-1.52c0-.22-.16-.42-.37-.48-1.28-.34-8.59-.46-13.19-.46ZM247.3,244.13c-9.65,0-20.38.15-21.63.39-.22.04-.38.22-.4.44l-.98,9.89c-.01.14.03.28.13.39.09.1.23.16.37.16h40.1c.16,0,.31-.08.4-.2.09-.13.12-.29.08-.44-.41-1.35-.77-2.72-1.12-4.04-.56-2.12-1.09-4.11-1.81-6.08-.07-.19-.24-.32-.44-.33-2.53-.12-7.88-.19-14.68-.19ZM262.82,226.52c-.15,0-.29.07-.38.18-.09.11-.13.26-.11.41l.38,2.21c.27,1.6.54,3.16.83,4.71.45,2.37.89,4.72,1.97,7.15.08.18.26.3.46.3.02,0,.04,0,.06,0,.22-.02.39-.19.43-.4.42-2.15.44-12.2.02-14.16-.05-.23-.25-.4-.49-.4h-3.17ZM239.25,226.41c-.28,0-.5.22-.5.5v13.59c0,.28.22.5.5.5h21.45c.15,0,.29-.07.38-.18.09-.11.13-.26.11-.41l-2.52-13.59c-.04-.24-.25-.41-.49-.41h-18.93ZM279.54,212.84c.91,0,1.82,0,2.73.03,2.02.05,3.33,1.29,3.51,3.34.03.36.03.73.02,1.09v.45s0,4.24,0,4.24c0,3.05,0,6.09,0,9.14,0,.35.03.7.06,1.06l.04.51c.02.26.24.46.5.46h2.72c.22,0,.42-.15.48-.36.75-2.55,2.56-3.73,5.69-3.73.13,0,.4,0,.41,0,.13,0,.25-.05.35-.14.1-.09.15-.22.15-.36v-68.55c0-.28-.22-.5-.5-.5h-44.81c-.26,0-.48.2-.5.46l-.46,6.05c-.01.18.07.35.22.45l2.11,1.44c-.06,1.04-.02,2.07.03,3.07.09,2.02.17,3.92-.66,5.51-.04.08-.06.18-.06.28.08.92.16,1.79.24,2.64.17,1.88.33,3.63.45,5.39.12,1.83.17,3.7.21,5.51v.13c.04,1.4-.2,2.34-.77,3.12-.27.37-.51.75-.75,1.13l-.3.48c-.13.2-.1.46.06.62,4.32,4.41,7.27,9.87,9.01,16.67.06.22.26.38.48.38h19.35ZM233.19,196.99c-.23,0-.44.16-.49.39-.37,1.64-.72,3.26-1.08,4.88-.82,3.79-1.6,7.38-2.56,10.99-1.16,4.37-1.75,8.56-1.81,12.81,0,.5-.07,1-.13,1.53-.06.46-.11.92-.13,1.38-.03.77-.03,1.54-.02,2.36,0,.36,0,.73,0,1.11,0,.14.06.27.15.36.09.09.22.14.35.14,0,0,.02,0,.02,0,.71-.03,1.41-.04,2.09-.04.43,0,2.53.01,2.53.01.95,0,2.08-.01,3.26-.12.26-.02.46-.24.46-.5v-5.34c0-3.43,0-6.86.02-10.29,0-.74.15-1.43.4-1.94.63-1.28,1.73-1.9,3.38-1.9,2.49.02,4.91.03,7.34.03h6.56c.42,0,.83-.06,1.22-.1.18-.02.36-.04.55-.06.14-.01.27-.08.36-.2s.12-.26.09-.4c-1.03-5.16-4.18-10.47-8.63-14.56-.09-.09-.22-.13-.34-.13-.09,0-.18.02-.25.07-.97.58-1.98.86-3.08.86-1.65,0-3.3-.61-5.04-1.26-.06-.02-.12-.03-.17-.03-.09,0-.19.03-.27.08-.43.27-.89.4-1.45.4s-1.14-.13-1.75-.27c-.5-.11-1.02-.23-1.54-.27-.01,0-.03,0-.04,0ZM55.04,232.9c.39,0,.84,0,1.28-.06,2.3-.29,3.79-1.85,3.99-4.2.04-.51.1-1.02.15-1.54.09-.83.18-1.68.22-2.54.07-1.71.09-3.58.06-5.69,0-.6-.18-1.24-.47-1.74-1.1-1.89-2.23-3.76-3.38-5.66l-1.17-1.94c-.08-.13-.22-.22-.38-.24-.02,0-.03,0-.05,0-.14,0-.27.06-.37.16-2.83,3.07-6.21,4.62-10.05,4.62-1.02,0-2.08-.11-3.16-.33-5.33-1.06-9.01-4.4-10.64-9.63-.05-.17-.19-.29-.35-.34-.48-.12-.95-.23-1.41-.34-.93-.21-1.8-.41-2.62-.72-4.17-1.57-7.48-4.62-9.83-9.05-1.55-2.94-1.77-6.4-.59-9.5.95-2.49,2.68-4.36,4.77-5.14.25-.09.37-.3.45-.44.12-.15.18-.44.09-.61-1.61-3.07-1.46-6.83.42-10.32,1.91-3.55,5.21-6.06,8.39-6.38.25-.03.45-.24.45-.5,0-.37,0-.74,0-1.1-.02-2.25-.04-4.38.91-6.42,1.16-2.51,2.71-4.45,4.73-5.94.14-.11.22-.28.2-.46s-.13-.33-.29-.4c-.28-.13-.57-.19-.84-.19-.63,0-1.11.34-1.49.61l-.13.09c-3.09,2.15-5.2,4.86-6.44,8.29h-14.98c-.23,0-.43.15-.48.38-.21.83-.43,1.65-.64,2.46-.47,1.81-.92,3.52-1.32,5.28-1.12,4.97-1.92,9.93-2.37,14.74l-.1,1.1c-.35,3.7-.7,7.53-.73,11.34-.04,5.97.04,12.38.87,18.81.15,1.15.26,2.31.38,3.47.18,1.81.37,3.68.69,5.51.56,3.26,1.22,6.45,1.92,9.82.29,1.42.59,2.86.88,4.31.05.23.25.4.49.4h42.61s.37,0,.37,0ZM69.91,211.42c-.11,0-.22.04-.31.11l-3.01,2.39c-.1.08-.16.19-.18.31-.03.21-.06.39-.09.54-.05.3-.09.51-.1.72-.03,1.18-.07,2.35-.11,3.53-.1,3.15-.21,6.4-.23,9.6-.02,2.76,1.44,4.18,4.33,4.2,4.2.03,8.4.04,12.6.05h7.73c.14,0,.27-.05.37-.15,1.28-1.39,2.24-3.01,3.03-5.09.48-1.27.53-2.36.15-3.43-.7-1.97-.16-3.85.45-5.62.4-1.16,1.11-1.7,2.23-1.7h.38c.24,0,.5-.01.8-.04.18-.01.37-.03.59-.04.15,0,.28-.08.37-.2s.12-.27.09-.41c-.09-.39-.17-.77-.26-1.13-.18-.78-.35-1.51-.46-2.24-.03-.2-.06-.4-.1-.6-.13-.8-.27-1.63-.08-2.29,1.49-5.26,3.3-9.89,5.52-14.17.35-.67.67-1.17,1.55-1.38l3.7,2.01c.07.04.16.06.24.06.06,0,.13-.01.19-.04.14-.05.24-.17.29-.31.06-.19.13-.38.2-.56.16-.42.32-.85.37-1.31.22-2.06,1.2-3.82,2.28-5.59,1.07-1.76,1.98-3.64,2.85-5.47l.38-.78c.34-.7.62-1.42.9-2.12.22-.55.43-1.1.67-1.64.49-1.09,1.26-1.63,2.35-1.63.3,0,.58-.05.82-.09.09-.02.17-.03.25-.04.18-.02.33-.14.39-.31l8.37-20.44c.06-.15.05-.33-.05-.47-.09-.14-.25-.22-.42-.22h-32.27c-.16,0-.32.08-.41.21-.09.13-.12.3-.06.46.97,2.7.26,5.17-.63,7.68-.08.24.02.5.25.61,4.15,2.09,6.29,5.19,6.56,9.46.3,4.83-1.19,8.25-4.56,10.45-.21.13-.28.4-.18.62,2.63,5.92,1.86,13.87-8.18,18.44-.1.05-.19.13-.24.23-1.95,3.82-4.67,6.46-8.08,7.85-1.85.75-3.73,1.13-5.6,1.13s-3.69-.38-5.43-1.12c-.06-.03-.13-.04-.2-.04ZM104.19,219.83c-.14,0-.27.06-.37.16-.1.11-.15.26-.13.41.38,2.85-1.26,5.13-4.28,5.96-.14.04-.25.13-.31.25l-2.79,5.46c-.08.16-.07.34.02.49s.25.24.43.24h33.2c.17,0,.33-.09.42-.23.09-.15.1-.33.03-.48l-.07-.16c-.05-.12-.1-.25-.19-.37-2.99-4-2.33-9.71,1.5-13.01.84-.73,1.79-1.39,2.7-2.03.36-.25.72-.5,1.07-.76.32-.23.65-.44.97-.64l.43-.28c.15-.1.24-.27.23-.45-.37-5.24-.14-11.24,4.24-16.11l.4.23c.49.29.93.54,1.36.8,5.06,3.06,8.8,7.41,11.49,10.86,4.74,6.07,8.33,11.27,11.3,16.37.09.16.26.25.43.25.03,0,.05,0,.08,0,.2-.03.37-.19.41-.39.46-2.19.02-4.09-1.38-6-.97-1.33-1.88-2.74-2.76-4.1-.66-1.02-1.32-2.04-2.01-3.04-2.96-4.28-6.59-9.19-11.14-13.22-2.6-2.31-4.99-3.84-7.53-4.83-1.58-.62-3.2-.93-4.82-.93-1.13,0-2.29.15-3.45.45-1.37.36-2.18,1.26-2.47,2.75l-.06.31c-.14.71-.28,1.45-.33,2.2-.07,1.04-.53,1.76-1.49,2.33-1.11.65-1.86,1.61-2.39,2.37-.13.18-.12.43.02.6.1.12.24.18.39.18.07,0,.14-.01.2-.04.45-.2.88-.44,1.29-.67.87-.48,1.68-.94,2.63-.96.81.96.72,1.09.26,1.72-.29.4-.61.77-.95,1.16-.46.53-.94,1.08-1.33,1.7-1.56,2.54-3.61,3.99-6.24,4.43-.83.14-1.67.34-2.47.54-1.46.36-2.83.69-4.27.69-.6,0-1.16-.06-1.71-.18-.1-.02-.21-.03-.33-.03-.31,0-.6.08-.88.16-.17.05-.34.1-.5.12-.34.04-.68.07-1.05.09l-.3.02-1.37-1.81c-.09-.13-.24-.2-.4-.2h-.01c-.16,0-.31.09-.4.22l-2.77,4.12c-.1.15-.11.34-.03.5s.24.27.42.27l2.73.13c2.69.12,5.28.25,7.87.39.63.04,1.28.2,1.85.35,0,0,0,0,0,0-.03,0,.03.08.08.14.03.04.07.09.11.13l-.11,1.45c-.61.21-1.28.31-2.12.31-.39,0-.78-.02-1.17-.04-.4-.02-.8-.04-1.19-.04-.16,0-.33,0-.49.01-.77.04-1.54.05-2.31.05-.95,0-1.91-.02-2.86-.06-1.21-.04-2.45-.13-3.65-.22-.55-.04-1.67-.12-1.68-.12ZM250.02,215.99c-3.26,0-6.53,0-9.8.01-.32,0-.61.11-.89.22-.12.04-.24.09-.37.13-.23.07-.37.29-.35.52.08.85.06,1.71.03,2.55-.03,1.26-.07,2.56.23,3.87.05.23.25.39.49.39h18.09c.26,0,.48-.2.5-.47.18-2.55-.29-5.02-1.31-6.96-.09-.17-.26-.27-.44-.27h-6.18ZM261.43,216.11c-.27,0-.5.22-.5.49-.02,1.82.34,3.48.7,5.09.11.51.23,1.02.33,1.54.05.23.25.4.49.4h3.74c.27,0,.49-.21.5-.47.12-2.35.2-4.46-.04-6.61-.03-.25-.24-.44-.5-.44h-4.72ZM52.39,195.93c-.1,0-.2.03-.29.09-.2.14-.27.41-.16.63,1.51,2.98,3.13,5.95,4.57,8.58l4.86,8.88c.09.16.26.26.44.26.02,0,.04,0,.06,0,.2-.02.37-.17.42-.36.85-2.98,1.45-21.5.99-24.93-.03-.25-.25-.43-.5-.43h0c-.25,0-.46.19-.49.44l-2.05,16.08c-1.4-1.48-2.62-3.07-3.81-4.62-1.15-1.5-2.35-3.06-3.67-4.46-.1-.1-.23-.16-.36-.16ZM105.86,196.25c-.09,0-.17.02-.25.07-1.19.69-1.5,1.81-1.78,2.79-.07.27-.15.54-.24.79-.57,1.56-1.1,3.13-1.63,4.7-.31.92-.62,1.84-.94,2.75-.37,1.06-.75,2.11-1.13,3.17l-.53,1.46c-.07.2,0,.43.16.56l.75.6c.09.07.2.11.31.11.08,0,.17-.02.24-.06.06-.03.12-.06.17-.08.17-.08.41-.18.51-.45,1.62-4.6,3.22-9.2,4.85-13.88l.44-1.27c.06-.16.03-.33-.08-.47l-.47-.61c-.1-.13-.25-.2-.4-.2ZM119.72,179.33c-.18,0-.35.1-.44.26l-.47.87c-.35.64-.69,1.27-1.01,1.91-.35.72-.68,1.44-1.02,2.16-1.09,2.36-2.21,4.79-3.82,6.9-.41.54-.71,1.25-.79,1.89-.18,1.43-.3,2.89-.42,4.3l-.11,1.35c-.1,1.1.29,2.04,1.1,2.65l.15.11c.76.58,1.63,1.24,2.84,1.5.04,0,.07.01.1.01.23,0,.43-.15.49-.38l.37-1.53c.27-1.09.52-2.14.76-3.18.38-1.61.84-2.9,1.91-3.95,1.16-1.14,1.79-2.62,1.88-4.39.04-.68.15-1.39.27-2.07.03-.16.05-.32.08-.48,0,0,1.23.11,1.24.11.16,0,.3-.07.4-.2.1-.14.13-.32.07-.48-1.16-2.99-1.31-3.38-.8-4.02l2.51,1.5c.08.05.17.07.26.07.14,0,.27-.06.37-.16.16-.18.17-.44.03-.63-1.67-2.29-3.52-3.59-5.84-4.12-.04,0-.07-.01-.11-.01ZM72.86,195.47c-.13,0-.26.05-.35.15-1.58,1.59-3.34,3.48-4.3,5.94-.08.21,0,.46.18.59.09.06.19.09.29.09.12,0,.23-.04.33-.12,1.79-1.56,2.95-3.57,4.07-5.51l.22-.38c.13-.22.07-.5-.13-.65-.09-.07-.2-.1-.3-.1ZM314.64,181.12c-.07,0-.15.02-.22.05-1.87.91-2.77,2.27-2.76,4.17.03,3.86.02,7.66-.02,11.3-.02,1.53.67,2.66,2.04,3.35.35.17.71.29,1.05.4.15.05.29.09.43.15.06.02.11.03.17.03.19,0,.37-.11.45-.29.03-.06.06-.12.09-.16.08-.14.17-.31.18-.53.02-4.46.03-8.93.04-13.39v-2.68c0-.82-.13-1.67-1.2-2.33-.08-.05-.17-.07-.26-.07ZM234.78,183.44c.9,1.18,1.21,2.66.96,4.51-.1.71-.21,1.42-.33,2.12-.13.78-.25,1.55-.36,2.33-.08.63-.23,1.76,1.01,2.12.05.01.09.02.14.02.2,0,.39-.12.47-.32l.97-2.56c.77-2.05,1.53-4.07,2.33-6.08.69-1.74.89-3.3.62-4.88l-.03-.15c-.15-.89-.31-1.8.17-2.49.83-.2,1.67-.29,2.49-.39,1.17-.13,2.37-.27,3.52-.69.22-.08.35-.3.33-.53-.03-.23-.21-.41-.43-.44-2.43-.31-3.77-.81-4.34-1.61-.33-.45-.43-1.05-.32-1.87h5.79c.24,0,.45-.17.49-.41s-.09-.47-.32-.56c-2.45-.89-4.59-1.3-6.76-1.3-.8,0-1.62.06-2.44.18-.22.03-.4.21-.42.43-.01.1-.03.2-.05.29-.04.24-.09.48-.05.74.24,1.98-.44,3.68-2.27,5.7-.18.2-.36.42-.54.63-.35.43-.68.83-1.07,1.13-1.53,1.15-2.18,2.73-2.57,3.98-.11.34-.24.67-.38,1-.12.29-.24.58-.34.87-1.26,3.66-1.26,3.79.02,7.44.08.24.28.33.38.37l.12.06c.07.04.15.05.23.05.06,0,.13-.01.19-.04.13-.05.24-.17.28-.3.03-.1.08-.2.12-.3.11-.26.24-.56.24-.89.02-1.64.42-3.18.83-4.82.2-.77.4-1.57.56-2.37.11-.55.26-.85.76-.99ZM138.3,190.36c1.18,0,2.14.05,3.01.15,1.11.13,2.21.5,3.26.86.47.16.92.31,1.36.44.05.01.09.02.14.02.17,0,.33-.08.42-.23.34-.53.66-1.06.97-1.58.68-1.13,1.33-2.21,2.11-3.17,1.73-2.16,3.77-3.21,6.21-3.21.47,0,.97.04,1.47.12,2.14.34,4.12,1.22,5.88,2.61,1.03.82,1.99,1.74,2.92,2.64.41.4.81.78,1.22,1.16.09.09.22.13.34.13.05,0,.11,0,.16-.03.17-.06.3-.21.33-.39l1.03-6.15c.02-.14-.01-.28-.1-.39-.87-1.13-.85-2.77-.77-4.22.05-.81.07-1.63.09-2.45.06-1.93.12-3.92.48-5.8.5-2.6.25-5.14,0-7.59-.08-.81-.16-1.62-.22-2.43-.08-1.21-.38-2.39-.68-3.54-.13-.51-.26-1.01-.37-1.51-.05-.23-.25-.39-.49-.39h-10.22c-.18,0-.35.1-.44.25l-.96,1.68c-.69,1.21-1.38,2.42-2.05,3.63-2,3.63-4.43,7.17-7.22,10.53-1.53,1.84-3.08,3.67-4.63,5.49-1.83,2.16-3.73,4.39-5.56,6.61-1.06,1.29-2.04,2.67-3.08,4.13-.5.7-1.02,1.43-1.57,2.19-.12.16-.13.37-.03.55.09.16.26.25.43.25.02,0,.04,0,.05,0,.46-.05.87-.1,1.24-.15.7-.09,1.26-.16,1.81-.17.46,0,.93-.02,1.4-.03.68-.01,1.36-.03,2.04-.03ZM139.51,143.89s-.08,0-.11.01c-.16.04-.29.15-.35.29l-.26.62c-.15.35-.27.63-.37.91-.75,2.03-1.57,3.48-2.68,4.69-1.2,1.32-2.7,3.13-3.63,5.34-.92,2.19-1.87,4.37-2.82,6.55-.91,2.09-1.82,4.19-2.71,6.29-.88,2.1-1.73,4.25-2.54,6.34-.38.96-.75,1.93-1.14,2.9-.09.23,0,.5.22.62l2.89,1.62c.08.04.16.06.24.06.16,0,.32-.08.42-.23.81-1.23,1.62-2.44,2.43-3.64,1.79-2.66,3.65-5.42,5.3-8.2,1.68-2.82,3.17-5.67,4.75-8.69.57-1.09,1.14-2.18,1.73-3.28l.99,1.24c.1.12.24.19.39.19.03,0,.06,0,.09,0,.18-.03.33-.16.39-.34l2.6-7.99c.06-.19,0-.4-.15-.53l-5.35-4.65c-.09-.08-.21-.12-.33-.12ZM185.52,179.29c.92,0,1.84,0,2.76.02.46,0,.92.01,1.37.01,4.07,0,7.7-.31,11.11-.94,2.12-.39,4.4-.88,6.78-2.17.2-.11.3-.34.25-.56-.06-.22-.26-.38-.48-.38,0,0-1.26.01-1.26.01-.86,0-1.7.01-2.54.01-2.53,0-5.21-.06-7.88-.48.74-.5,1.47-1,2.2-1.49,2.47-1.67,4.8-3.25,7.1-4.98,3.42-2.57,7.03-7.25,7.85-9.56.07-.2,0-.42-.15-.55-.09-.08-.21-.12-.32-.12-.08,0-.17.02-.25.07-4.52,2.58-9.44,4.51-14.2,6.38-2.86,1.12-5.81,2.28-8.68,3.58.63-.83,1.26-1.66,1.89-2.48,1.51-1.98,3.08-4.03,4.57-6.08,5.5-7.52,9.36-14.79,11.78-22.21.08-.25.14-.51.21-.9.04-.21.09-.45.16-.76.05-.23-.07-.47-.28-.56-.07-.03-.14-.04-.21-.04-.16,0-.31.07-.4.21-.96,1.32-1.89,2.61-2.79,3.87-2.01,2.79-3.91,5.43-5.86,8.04-2.34,3.12-5.1,6.65-8.53,9.64.23-.75.48-1.49.72-2.24.47-1.45.96-2.96,1.39-4.46,2.78-9.67,4.56-17.19,5.78-24.36l.25-1.42c.5-2.85,1.02-5.79.82-8.79,0-.14,0-.3.01-.47l5.47,4.99c.09.09.21.13.34.13.08,0,.17-.02.24-.06.19-.1.29-.31.25-.52l-.47-2.74c-.33-1.94-.65-3.8-.99-5.66-.73-3.98-.89-5.73-.56-7.2l16.31,18.38c.09.1.21.16.34.17,0,0,.02,0,.03,0,.12,0,.24-.04.33-.13l7.9-7.04c.18-.17.22-.44.08-.65-.22-.34-.45-.69-.67-1.04-.5-.78-1-1.56-1.54-2.33-6.77-9.68-12.42-17.76-18.32-26.11-.4-.57-.94-1.04-1.45-1.49-.23-.2-.46-.4-.68-.61-.1-.09-.22-.14-.35-.14-.07,0-.15.02-.22.05-.32.15-.62.29-.91.42-.61.28-1.19.54-1.73.87-1.32.81-2.34,1.9-3.33,3.3.44-2.26,1.39-3.74,3.67-6.18.12-.13.16-.3.12-.47-.04-.17-.17-.3-.34-.35-6.22-1.91-12.75-2.38-19.07-2.83,0,0-.55-.04-.56-.04-.25,0-.46.19-.5.44-.7,5.53-1.92,10.37-3.72,14.8-2.52,6.2-5.37,10.33-9.24,13.41-2.55,2.03-5.04,3.02-7.59,3.02-1.61,0-3.26-.41-4.92-1.21-.32-.15-.66-.28-1.03-.42-.18-.07-.38-.14-.58-.22-.06-.02-.12-.03-.18-.03-.16,0-.31.08-.41.21-.67.96-1.68,1.12-2.84,1.31-.89.15-1.82.3-2.69.82-.2.12-.29.37-.22.59.11.32.21.64.31.95.22.67.44,1.37.71,2.04,2.04,5.05,4.65,9.77,7.37,14.55l1.05,1.85c3.83,6.72,7.79,13.68,10.92,20.9.64,1.48,1.26,2.98,1.88,4.51.29.71.59,1.44.89,2.16.07.16.21.28.38.3.03,0,.05,0,.08,0,.14,0,.28-.06.38-.17,1.67-1.94,2.51-4.17,3.4-6.53.4-1.06.81-2.15,1.3-3.22l-.07.34c-.48,2.47-.97,5.02-1.56,7.5-.54,2.27-1.1,4.54-1.67,6.81-.76,3.07-1.55,6.25-2.26,9.39l-.1.42c-.43,1.86-.88,3.79-.53,6.1.04.23.23.41.46.42.73.04,1.44.09,2.15.14,1.57.11,3.05.21,4.56.24,1.07.02,2.14.03,3.21.03h4.01ZM229.77,141.49c-.25.04-.43.26-.41.52.11,2.22.43,4.41.73,6.52l.16,1.13c.34,2.36.65,4.73.95,7.09l.18,1.38c.21,1.63.42,3.27.6,4.91.07.63.15,1.25.22,1.88.21,1.72.43,3.51.49,5.26.06,1.5-.02,2.98-.11,4.7-.04.8-.09,1.64-.12,2.53,0,.22.13.42.34.49.05.02.11.03.16.03.16,0,.31-.08.41-.21l2.82-3.99c.06-.08.09-.19.09-.29,0-.32,0-.62,0-.9-.01-.63-.02-1.17.02-1.71.05-.67.1-1.3.35-1.75.57-1.04.67-2.12.33-3.42-.51-1.89-1.01-3.77-1.51-5.66-.9-3.4-1.81-6.81-2.74-10.2-.51-1.84-1.08-3.69-1.63-5.48-.26-.83-.51-1.65-.76-2.48-.06-.21-.26-.35-.48-.35-.03,0-.06,0-.08,0ZM232.82,129.11c-.05.5-.12.99-.18,1.47-.2,1.54-.39,2.99-.26,4.46.3,3.41.85,6.72,1.62,9.84,1.04,4.17,2.24,8.36,3.39,12.42.47,1.65.94,3.3,1.4,4.95.24.85.49,1.7.73,2.56l.38,1.31c.06.2.23.34.43.36l.24.02c.46.05.89.09,1.32.09.6,0,1.49-.08,2.28-.77.12-.1.18-.25.17-.41-.95-14.93-2.41-26.9-4.58-37.68-.03-.13-.1-.24-.21-.31-3.35-2.33-5.9-5.28-8.59-8.41l-.5-.58c-.1-.11-.24-.17-.38-.17-.1,0-.2.03-.28.09-1.8,1.25-3.41,2.78-5.2,4.98-.15.18-.15.43-.02.61.29.39.56.76.82,1.13.58.81,1.14,1.57,1.73,2.3.28.35.51.75.76,1.17.48.83.98,1.68,1.9,2.21.08.04.16.07.25.07.06,0,.12-.01.18-.03.57-.22,1-.57,1.41-.91.39-.32.75-.61,1.18-.76ZM250.77,145.8c-.14,0-.27.06-.36.15-.09.1-.14.23-.14.37l.29,7.51c.01.27.23.48.5.48h59.57c.16,0,.32-.08.41-.21.09-.13.12-.31.06-.46l-2.55-6.97c-.07-.18-.23-.31-.42-.33-5.67-.55-10.55-1.69-14.94-3.48-2.26-.92-4.53-1.68-7.05-2.5-.99-.32-2.06-.41-2.77-.45-.1,0-.2,0-.3,0-1.68,0-3.08.78-4.43,1.53l-.38.21c-3.38,1.86-6.35,2.91-9.34,3.3-4.38.57-8.33.85-12.1.85h-2.42s-3.63,0-3.63,0ZM162.61,144.94c-.16,0-.3.07-.4.2l-3.87,5.07c-.1.12-.13.29-.08.44.04.15.15.27.3.33,1.52.59,2.94.67,4.01.67.58,0,1.16-.03,1.75-.05.39-.02.78-.03,1.18-.04.17,0,.33-.1.42-.24s.09-.33.02-.48l-2.88-5.6c-.08-.15-.23-.25-.4-.27-.02,0-.03,0-.04,0ZM116.6,146.65c1.05,0,2.13.12,3.19.36,3.27.74,6.59,1.26,9.8,1.76.77.12,1.45.18,2.08.18.87,0,1.66-.11,2.43-.33.16-.04.28-.16.34-.32l2.52-7.43c.08-.25-.04-.52-.28-.62-.73-.3-.75-.82-.63-1.93.04-.4.15-.8.26-1.22l.86-3.4c1.94-7.69,3.89-15.37,5.85-23.05l.06-.24c.18-.68.39-1.45-.03-2.34-.08-.16-.23-.27-.41-.29l-.41-.03c-.31-.03-.62-.05-.93-.07-2.47-.11-4.18-1.37-5.23-3.85-.65-1.53-.69-3.18-.13-5.2.24-.87.54-1.95.52-3-.02-1.24-.11-2.49-.19-3.7-.07-1.1-.15-2.19-.18-3.29-.04-1.31-.13-2.7-.76-4.02-.08-.18-.26-.28-.45-.28-.06,0-.13.01-.19.04-.71.29-1.4.58-2.1.88-1.6.67-3.11,1.3-4.66,1.9-1.97.75-3.62,1.1-5.21,1.1-.25,0-.5,0-.75-.03-1.12-.08-1.76-.47-2.09-1.3l8.02-9.76c.13-.16.15-.39.05-.57-2.02-3.49-2.5-7.27-1.51-11.91,1.16-5.44,4.57-9.44,10.13-11.9,3.02-1.33,6.16-2.01,9.35-2.01,1.42,0,2.87.14,4.29.4,4.62.87,8.57,3.59,12.07,8.32l.18.25c.39.54.8,1.1,1.32,1.56.97.87,1.48,1.85,1.55,3,.17,2.53,1.37,4.54,2.34,5.78.03.04.07.08.12.11l6.07,4.05c.08.05.17.08.26.08,1.97.06,3.93.13,5.88.2,4.51.16,9.17.33,13.74.38,4.15.05,7.88.35,11.4.93,7.05,1.15,12.85,4.49,17.72,10.2,1.87,2.2,3.76,4.38,5.65,6.56,1.67,1.93,3.34,3.86,4.99,5.8,2.03,2.38,3.68,4.36,5.2,6.26,1.99,2.49,2.25,4.24.91,6.05-.11.15-.13.36-.04.53,3.99,7.59,7.05,16.1,9.63,26.8.04.15.14.28.28.34.07.03.13.04.2.04.08,0,.16-.02.24-.06l3.07-1.65c2.27-1.22,4.48-2.4,6.68-3.6,3.89-2.12,8.04-4.37,12.1-6.63,1.04-.58,2.04-.86,3.07-.86.38,0,.77.04,1.16.12,1.03.21,2.03.43,2.92.81,3.51,1.51,6.32,2.77,8.84,3.98,3.78,1.81,7.54,3.66,11.3,5.51l4.73,2.32c.07.03.14.05.22.05.1,0,.2-.03.29-.09l.36-.26c.2-.14.27-.4.17-.62-.51-1.09-1.01-2.18-1.51-3.27-1.07-2.35-2.18-4.77-3.35-7.12-5.66-11.35-12.67-21.97-20.83-31.56-6.12-7.19-12.25-13.25-18.75-18.51-9.19-7.45-18.84-13.71-28.69-18.62-11.06-5.52-22.72-9.69-34.65-12.42-7.41-1.69-13.65-2.71-19.63-3.21-.85-.07-1.7-.15-2.55-.22-3.4-.3-6.92-.61-10.41-.61,0,0-1.45,0-1.86,0-.82,0-1.65,0-2.47-.01-.83,0-1.65-.01-2.48-.01-1.81,0-3.19.04-4.5.11-4.12.25-8.37.68-12.62,1.29-4.42.63-9.55,1.39-14.46,2.51-10.81,2.45-21.69,6.31-32.35,11.46-14.51,7.02-28.18,16.67-40.62,28.71-3.87,3.74-7.67,7.95-12.35,13.64-8.79,10.71-16.19,22.95-21.98,36.39-.49,1.13-.92,2.25-1.38,3.45-.21.55-.42,1.1-.64,1.66-.1.25.02.53.26.64l.35.16c.23.11.41.19.61.25,3.29,1.06,6.86,1.9,11.25,2.63.24.04.48.09.73.13.7.13,1.42.27,2.14.27.2,0,.41-.01.61-.04,1.22-.15,2.37-.46,3.6-.79.5-.14,1.02-.27,1.53-.4.13-.03.25-.12.32-.24.31-.53.61-1.08.92-1.63.69-1.23,1.4-2.5,2.17-3.71,2.2-3.43,4.56-5.66,7.43-7.02,1.97-.94,3.77-1.39,5.5-1.39.41,0,.82.03,1.22.08,2.25.29,4.54.73,6.79,1.32.65.17,1.27.25,1.89.25.95,0,1.87-.19,2.83-.59l.46-.19c.53-.23,1.04-.45,1.55-.55.51-.1,1.01-.15,1.51-.15,1.93,0,3.82.78,5.79,2.37,2.79,2.27,4.75,5.18,5.81,8.64.05.17.2.31.38.34,4.76.98,8.08,2.97,10.13,6.07.08.12.2.19.33.22.37.06.71.12,1.03.18.68.12,1.29.23,1.9.3l.66.08c1.7.2,3.46.41,5.2.53.5.04.99.05,1.49.05,2.72,0,5.55-.49,8.92-1.56,1.55-.49,3.04-.73,4.54-.73ZM145.81,112.06c-.2.02-.37.17-.42.37l-1.07,3.94c-.79,2.9-1.56,5.7-2.3,8.5-.75,2.84-1.48,5.69-2.21,8.56l-.99,3.87c-.06.25.07.51.32.6,5.65,2.01,10.01,4.27,13.71,7.09.09.07.2.1.3.1.14,0,.28-.06.37-.17.17-.2.17-.49-.01-.68l-5.14-5.32c0-.16-.01-.32-.02-.47-.02-.45-.04-.88.03-1.26.39-2.08.87-4.53,1.48-7.01.22-.92.22-1.65-.03-2.45-.53-1.74-.96-3.52-1.35-5.19-.06-.26-.07-.56-.08-.94l3.56,2.97c.09.08.21.12.32.12s.23-.04.32-.11c.19-.15.24-.42.12-.63l-6.39-11.61c-.09-.16-.26-.26-.44-.26-.02,0-.04,0-.06,0ZM152.22,94.38c-.91,0-1.77.59-2.71,1.85-2.33,3.13-2.15,7.38.44,10.11.1.1.23.16.36.16.1,0,.2-.03.29-.09.2-.14.27-.41.16-.63-2.08-4.13-1.23-7.48,2.6-10.25.14-.1.22-.27.21-.44s-.11-.33-.26-.41c-.36-.19-.72-.29-1.08-.29ZM139.29,90.03c-.14,0-.28.06-.38.17-1.34,1.56-1.13,3.4-.94,5.01l.05.42c.26,2.4.89,5.42,3.51,7.6.09.08.21.12.32.12s.22-.04.31-.11c.19-.15.24-.41.13-.62-2.21-4.28-3-8.1-2.5-12.04.03-.22-.09-.43-.29-.52-.07-.03-.13-.04-.2-.04ZM175.08,86.88c-.09,0-.17.02-.25.07-.14.08-.25.14-.34.18-.21.1-.42.21-.51.46-1.26,3.37-2.52,6.75-3.78,10.15l-.69,1.86c-.05.15-.04.31.05.44.08.13.23.22.38.23l.19.02c.14.02.29.03.43.03,0,0,.11,0,.12,0,.21-.01.43-.05.69-.09l.35-.05c.15-.02.28-.11.36-.23,1.96-3.19,2.53-6.67,3.14-10.35.12-.7.23-1.41.36-2.13.03-.19-.05-.39-.21-.5-.09-.06-.19-.09-.29-.09ZM168.34,72.29c-.2.03-.35.17-.4.37-1.92,7.28-5.98,13.52-9.57,19.02-.13.2-.1.45.06.62.44.46.9.69,1.37.69.62,0,1.09-.4,1.43-.69.55-.47.93-1.01,1.3-1.55l.23-.33c2.78-3.9,5.75-8.66,6.7-14.36.18-1.08.23-2.25-.62-3.55-.09-.14-.25-.23-.42-.23-.03,0-.05,0-.08,0ZM147.43,91.15c.07.2.26.33.47.33.01,0,.03,0,.04,0,.23-.02.41-.19.45-.41l.28-1.59c.17-.97.31-1.79.46-2.61.15-.81.3-1.63.45-2.44.31-1.67.64-3.39.91-5.09.24-1.5.24-3.05-1.33-4.19-.09-.06-.19-.1-.29-.1s-.21.03-.3.1c-.77.58-1.35,1.32-1.91,2.04-.84,1.08-1.63,2.09-3.01,2.55-.21.07-.34.26-.34.48v4.81c-.35.31-.71.45-1.15.45-.27,0-.56-.05-.85-.12l-.56-1.01c-.09-.16-.26-.26-.44-.26-.07,0-.14.02-.21.05-1.27.6-1.81,1.47-1.66,2.65.03.2.1.38.16.55.03.06.05.13.08.2.05.16.18.28.34.32l1.26.34,1.28,1.6c.1.12.24.19.39.19.01,0,4.93-.4,4.93-.4l.55,1.55ZM152.61,83.31s-.08,0-.12.01c-.22.06-.38.26-.38.49v6c0,.2.12.39.31.46l2.51,1.02c.06.02.12.04.19.04.11,0,.21-.03.3-.1.14-.11.21-.28.19-.46-.31-2.75-1.35-4.89-2.57-7.2-.09-.17-.26-.27-.44-.27ZM143.63,75.29c-.67,0-1.21.23-1.69.43-.13.05-.26.11-.39.16-.59.22-1.21.44-1.82.5-.72.08-1.45.13-2.18.18-1.14.08-2.32.16-3.47.36-.3.05-.61.09-.92.12-1.06.12-2.25.25-3.18,1.1l-.39.36c-1.45,1.32-2.96,2.68-4.06,5-.08.17-.06.38.06.53.1.12.24.19.39.19.04,0,.08,0,.12-.01.69-.16,1.35-.29,1.97-.41,1.33-.26,2.47-.48,3.56-.96,2.81-1.23,5.58-2.69,8.25-4.09l.87-.46c.78-.41,1.51-.92,2.21-1.41.32-.22.63-.44.95-.65.19-.12.27-.35.2-.56-.06-.21-.26-.35-.48-.35h0ZM157.98,71.5c-.09,0-.19.03-.27.09-1.21.81-1.74,1.87-1.62,3.23.04.52.08,1.04.12,1.56.09,1.33.19,2.71.42,4.06.19,1.1.61,2.46,2.2,3.2.07.03.14.05.21.05.1,0,.19-.03.28-.08.12-.08.26-.16.4-.24.36-.2.78-.44,1.07-.8,1.9-2.35,2.51-5.13,1.78-8.04-.57-2.26-1.62-3.03-4.15-3.03-.14,0-.29,0-.44,0ZM144.93,52.91c-5.42,0-10.91,3.17-13.99,8.07-2.98,4.75-3.22,10.29-.67,15.58.08.18.26.28.45.28.05,0,.11,0,.16-.03.4-.14.79-.26,1.18-.39.88-.28,1.72-.55,2.54-.91.89-.38,1.74-.87,2.55-1.34l.67-.38c1.04-.59,1.64-1.43,1.79-2.49.01-.11,0-.22-.06-.31-.24-.42-.49-.85-.74-1.27-.53-.91-1.08-1.85-1.55-2.8-1.53-3.13-.94-6.75,1.51-9.22,1.93-1.95,3.93-3.17,6.29-3.81.24-.07.4-.3.36-.55s-.24-.43-.5-.43h-.01ZM162.61,62.4c-.09,0-.18.02-.26.07l-13.02,7.8c-.22.13-.3.41-.2.64.08.18.26.29.45.29.05,0,.11,0,.16-.03,5.16-1.73,9.81-4.01,14.21-6.97.13-.09.21-.23.22-.39,0-.16-.06-.31-.18-.41l-1.07-.89c-.09-.08-.21-.12-.32-.12Z"/>
    <path class="cls-1" d="M146.04,305.7c-.45-.17-.65-.31-.85-.32-5.79-.32-11.59-.66-17.39-.93-2.41-.11-4.83-.03-7.25-.08-1.66-.04-3.31-.24-4.97-.22-3.92.05-7.85.19-11.77.29-1.43.04-2.87.05-4.3.12-4.89.25-9.78.51-14.67.79-2.62.15-5.23.37-7.85.55,1.6.53,3.2.8,4.81.88,4.37.23,8.74.39,13.11.57.3.01.6.02.91.04,4.14.25,8.28.69,12.42.71,6.72.02,13.43-.24,20.15-.39.3,0,.6-.05.9-.08,2.92-.25,5.85-.49,8.77-.76,2.6-.24,5.23-.38,8-1.17Z"/>
    <path class="cls-1" d="M122.35,275.96c3.54.21,7.09.35,10.63.43,8.31.19,16.61.13,24.88-.77,3.89-.42,7.81-.64,11.71-.99.88-.08,1.74-.36,2.61-.55-.04-.17-.08-.34-.12-.5-4.89-.29-9.77-.73-14.66-.84-6.35-.15-12.7-.04-19.05-.03-1.44,0-2.87.05-4.31.14-3.84.23-7.67.5-11.51.75-2.71.18-5.42.33-8.12.56-1.33.11-2.64.37-4.24.6.49.18.69.31.9.33,3.76.31,7.51.66,11.27.88Z"/>
    <path class="cls-1" d="M133.88,324.73c9.5,1.4,23.55,1.92,28.55-.12-4.64-1.58-23.91-1.58-28.55.12Z"/>
    <path class="cls-1" d="M111.42,79.2c-1.75-4-4.94-4.76-8.24-5.35-4.2-4.8-9.51-4.69-13.71-.35-5.52.83-7.93,2.35-8.92,5.74,10.19-.05,20.32.04,30.87-.05Z"/>
    <path class="cls-1" d="M272.56,98.12c-1.57-1.72-3.53-2.49-5.94-2.36-2.03-3.46-7.52-4.36-10.35-1.51-1.11,1.12-2.26,1.87-3.84,2.08-.72.1-1.43.49-2.07.86-1.31.77-2.39,1.77-2.69,3.66,8.67.03,17.21,0,25.69.04.56-1.35-.15-2.06-.8-2.78Z"/>
    <path class="cls-1" d="M233.37,274.59c-.47,0-.93.27-1.4.42,6.95,1.38,17.69,1.14,19.7-.17-.35-.11-.62-.26-.88-.27-5.81-.01-11.61-.02-17.42.02Z"/>
    <path class="cls-1" d="M287.22,184.77c0-2.27.04-4.53,0-6.8-.05-2.65-1.41-4.2-3.98-4.67-.59-.11-1.19-.24-1.79-.25-4.08-.02-8.16-.13-12.24.02-4.13.16-5.59,2.03-5.58,5.82.01,3.4-.02,6.8.02,10.2.01,1.13.15,2.25.26,3.38.19,1.94,1.25,3.19,3.11,3.73.72.21,1.47.39,2.21.39,4,.03,8.01.02,12.01,0,.67,0,1.35-.13,2.01-.28,2.7-.64,3.95-2.19,3.98-4.97.03-2.19,0-4.38,0-6.57h0ZM274.24,193.05c-1.72.08-3.29.22-4.86.22-1.39,0-2-.68-2.11-2.11-.03-.45,0-.9,0-1.36,0-3.54-.02-7.09.01-10.63,0-.79.22-1.57.36-2.52h6.59v16.4ZM281.89,192.96c-1.6.18-3.25.01-5.05,0v-16.03c1.54-.93,3.22-.73,4.84-.63,1.07.06,1.77.8,2.05,1.84.12.43.12.89.12,1.34.02,3.69.03,7.38.02,11.07,0,1.74-.28,2.22-1.98,2.41Z"/>
    <g>
      <path class="cls-1" d="M22.61,69.61l7.05,6.84c.54.53.68.89.71,1.1.01.1.04.35-.36.76l-1.55,1.6,4.21,5.28,2.97-3.06c1.71-1.76,2.5-3.65,2.37-5.62-.13-1.93-1.16-3.85-3.07-5.71l-6.94-6.74,2.66-2.74c.56-.57,1.07-.87,1.59-.86.52,0,1.1.31,1.72.92l11.23,10.9,5.38-5.54-11.31-10.98c-4.23-4.1-8.79-3.87-13.2.68l-10.13,10.44,4.17,5.32,2.52-2.6Z"/>
      <polygon class="cls-1" points="45.07 48.27 56.25 62.46 62.32 57.68 46.99 38.23 39.1 44.45 42.52 50.27 45.07 48.27"/>
      <polygon class="cls-1" points="58.83 41.23 70.27 60.25 76.67 55.92 65.21 36.86 58.83 41.23"/>
      <polygon class="cls-1" points="69.55 31.37 74.38 49.6 81.06 45.58 75.7 25.34 73.75 21.07 53.73 33.11 56.43 39.26 69.55 31.37"/>
      <path class="cls-1" d="M84.89,23.53c-.06.16-.11.32-.15.49-.3,1.12-.35,2.2-.16,3.22.18.95.45,1.85.81,2.67.34.79.83,1.75,1.44,2.85.61,1.1,1.3,2.26,2.05,3.44.75,1.18,1.5,2.31,2.24,3.38l.46.66,7.27-3.17-.62-.97c-.36-.56-.83-1.29-1.41-2.18-.58-.89-1.19-1.83-1.83-2.82-.64-.99-1.24-1.94-1.79-2.83-.54-.87-.94-1.58-1.21-2.13-.34-.67-.6-1.37-.77-2.07-.15-.6-.1-1.22.14-1.9.24-.69.83-1.45,1.75-2.26l.47-.41-1.83-6.25-12.67,5.53,2.68,6.14,3.14-1.37Z"/>
      <path class="cls-1" d="M101.21,16.73c-.06.42-.09.84-.07,1.26.05.91.22,1.9.51,2.93l3.8,13.38,7.43-2.11-4.28-15.06c-.38-1.32-.44-1.88-.45-2.1,0-.11,0-.2,0-.28l4.37-1.24c1.55-.44,2.37.05,2.84,1.7l4.28,15.06,7.43-2.11-4.31-15.17c-.81-2.83-2.23-4.78-4.24-5.8-1.98-1-4.51-1.07-7.53-.21l-13.42,3.81,1.01,6.68,2.64-.75Z"/>
      <path class="cls-1" d="M152.02,18.51c-1.03-1.2-2.06-2.37-3.07-3.53,1.56-1.07,2.68-2.4,3.36-3.94.78-1.8,1.17-3.71,1.15-5.68V0s-7.64.82-7.64.82l-.09,4.81c0,1.12-.11,2.18-.32,3.17-.11.52-.33.97-.65,1.35-.16-.19-.32-.38-.48-.57-.38-.46-.76-.91-1.16-1.37l-1.79-1.99c-.68-.75-1.35-1.49-2.01-2.22-.67-.73-1.29-1.38-1.84-1.92l-.33-.33-9.56,1.03,1.53,1.47c.45.43,1.06,1.05,1.85,1.86l2.55,2.63c.58.6,1.14,1.17,1.67,1.7-.91.65-1.65,1.38-2.21,2.19-.76,1.1-1.29,2.31-1.59,3.59-.28,1.22-.45,2.51-.52,3.85l-.3,7.29,7.69-.83.29-6.67c.04-1.23.16-2.38.37-3.43.11-.55.34-1.01.69-1.38,1.26,1.39,2.48,2.83,3.66,4.3,1.38,1.73,2.84,3.64,4.34,5.67l.34.46,8.99-.97-1.1-1.4c-1.23-1.56-2.51-3.12-3.81-4.62Z"/>
      <path class="cls-1" d="M175.57,25.05h0c.92-.27,1.77-.78,2.53-1.5.32-.3.63-.66.95-1.06l.43,3.83,7.14-.54-.78-6.95.95-9.33c.24-2.42-.24-4.38-1.43-5.83-1.19-1.45-3.16-2.32-5.85-2.59l-4.02-.41-1.53,6.62,3.33.34c1.12.11,1.49.37,1.59.48.17.16.23.61.17,1.18l-.73,7.17c-.25.27-.59.55-1.02.85-.53.37-1.17.68-1.91.92-.71.23-1.49.31-2.29.25l-1.89-.19-.69,6.78,1.88.19c1.2.12,2.26.05,3.15-.21Z"/>
      <path class="cls-1" d="M202.88,12.18c.27.44.3,1.1.11,1.94l-3.46,15.27,7.53,1.71,3.48-15.38c.65-2.87.33-5.27-.94-7.12-1.26-1.83-3.45-3.1-6.51-3.8l-8.07-1.83-2.32,6.34,8.61,1.95c.78.18,1.3.48,1.56.91Z"/>
      <path class="cls-1" d="M224.23,30.04l-11.01-4.23-2.4,6.25,20.19,7.75,3.2-5.95-2.77-1.06,3.25-8.47c1.05-2.75,1.09-5.16.1-7.18-.98-1.99-2.96-3.56-5.88-4.68l-7.44-2.85-3.25,5.93,8.01,3.07c.73.28,1.2.65,1.39,1.11.2.48.14,1.13-.17,1.94l-3.21,8.36Z"/>
      <path class="cls-1" d="M245.8,47.77l8.13-15.12c1.15-2.14,1.46-4.12.93-5.89-.53-1.77-1.96-3.29-4.23-4.51l-3.46-1.86-3.93,5.49,2.85,1.53c.82.44,1.03.79,1.08.92.03.08.1.4-.31,1.17l-4.69,8.72-5-2.69-3.17,5.9,11.79,6.34Z"/>
      <path class="cls-1" d="M251.98,50.64l-.31.75,6.57,4.44.49-1.04c.28-.6.65-1.39,1.09-2.36.44-.96.91-1.98,1.41-3.06.5-1.07.97-2.08,1.43-3.03.45-.92.83-1.64,1.15-2.16.38-.65.83-1.24,1.34-1.76.43-.44.98-.74,1.68-.9.71-.17,1.67-.08,2.85.26l.6.18,4.3-4.89-11.45-7.74-3.75,5.55,2.83,1.92c-.17.04-.33.08-.49.13-1.1.35-2.05.88-2.81,1.59-.7.65-1.32,1.37-1.83,2.11-.48.71-1.03,1.63-1.64,2.74-.61,1.1-1.21,2.3-1.81,3.57-.59,1.26-1.15,2.5-1.65,3.7Z"/>
      <polygon class="cls-1" points="276.29 46.96 264.83 60.92 270.8 65.82 286.51 46.68 278.74 40.3 273.79 44.9 276.29 46.96"/>
      <path class="cls-1" d="M292.94,65.41l-11.23,10.91,5.38,5.54,11.31-10.99c4.22-4.1,4.12-8.67-.29-13.22l-5.77-5.94-5.4,4.05,6.16,6.33c1.12,1.15,1.08,2.11-.15,3.31Z"/>
      <polygon class="cls-1" points="10.53 286.52 0 293.93 2.86 297.99 13.7 290.37 10.53 286.52"/>
      <path class="cls-1" d="M23.4,290.22l-6.01-8.55-4.01,2.03,6.25,8.89c1.07,1.53.86,2.61-.74,3.73l-11.51,8.09,2.86,4.07,11.59-8.15c3.8-2.67,4.35-6.17,1.58-10.11Z"/>
      <polygon class="cls-1" points="30.24 299.2 26.45 301.62 28.48 303.98 22.2 309.4 25.44 313.16 35.1 304.84 30.24 299.2"/>
      <path class="cls-1" d="M43.11,313.13l-5.31-5.15-3.56,2.74,5.63,5.46c.65.63.98,1.25.98,1.83,0,.6-.35,1.25-1.03,1.96l-9.8,10.1,3.57,3.46,9.87-10.17c3.24-3.34,3.12-6.87-.34-10.23Z"/>
      <polygon class="cls-1" points="51.55 320.89 48.25 323.94 50.67 325.9 40.09 338.98 43.95 342.11 57.34 325.57 51.55 320.89"/>
      <path class="cls-1" d="M72.71,336.29l-2.49,3.1h0c-.79.99-1.64,1.76-2.53,2.29-.59.35-1.23.55-1.93.59-.02-.41-.04-.82-.06-1.22-.04-.69-.07-1.38-.1-2.08-.13-1.54-.24-2.91-.34-4.11-.09-1.21-.2-2.3-.32-3.25l-.06-.45-5.24-3.44.32,2.18c.12.78.24,1.85.36,3.18l.31,3.33h-.06c-1.45,0-2.78.33-3.94.99-1.41.8-2.76,1.93-4,3.36l-4.37,4.94,4.14,2.72,4.14-4.65c.88-1,1.77-1.81,2.65-2.41.55-.37,1.16-.59,1.85-.65.11,1.78.19,3.69.23,5.67.05,2.32.01,4.74-.11,7.19l-.03.56,4.78,3.14.08-1.73c.08-1.67.1-3.39.07-5.1-.02-1.32-.05-2.61-.09-3.88,1.51.03,2.9-.24,4.15-.85,1.51-.73,2.89-1.87,4.11-3.37l2.65-3.32-4.16-2.73Z"/>
      <polygon class="cls-1" points="79.51 340.22 76.88 343.87 79.64 345.31 75.8 352.67 80.2 354.97 86.1 343.67 79.51 340.22"/>
      <polygon class="cls-1" points="93.71 347.21 95.83 342.07 91.01 340.72 87.42 349.43 97.41 353.55 85.73 366.93 90.52 368.91 103.01 354.49 104.74 351.76 93.71 347.21"/>
      <polygon class="cls-1" points="105.34 356.52 108.31 357.44 103.34 373.51 108.08 374.98 114.37 354.66 107.27 352.46 105.34 356.52"/>
      <path class="cls-1" d="M126.84,357.38c-2.65-.54-4.87-.27-6.61.82-1.75,1.09-2.87,2.73-3.3,4.87-.36,1.78-.22,3.39.43,4.79.67,1.45,1.85,2.5,3.51,3.12.83.32,1.47.5,1.96.54l.81.08,1.18-3.94-1.06-.21s-.06-.01-.17-.06c-.13-.06-.28-.12-.51-.23-.66-.25-1.07-.6-1.27-1.08-.23-.57-.27-1.21-.11-1.96.19-.93.63-1.6,1.35-2.06.72-.46,1.7-.56,2.92-.31,1.51.31,2.5,1.03,3.02,2.19.56,1.26.64,2.93.23,4.94-.4,1.95-1.19,3.35-2.43,4.29-1.19.91-2.64,1.17-4.42.81l-6.83-1.4-.89,4.36,6.58,1.35c1.01.21,1.97.31,2.89.31,1.11,0,2.15-.15,3.12-.45,1.8-.55,3.31-1.55,4.5-2.97,1.17-1.4,1.98-3.17,2.42-5.28.66-3.22.36-5.98-.88-8.18-1.27-2.25-3.43-3.71-6.41-4.32Z"/>
      <path class="cls-1" d="M153.89,368.32c.18-2.3-.31-4.13-1.47-5.44-1.15-1.29-2.93-2.04-5.31-2.23l-6.83-.55-.94,4.39,7.19.57c1.86.15,2.55,1,2.4,2.96l-.77,9.59-10.64-.85-.35,4.43,17.51,1.4,1-4.38-2.55-.2.77-9.69Z"/>
      <path class="cls-1" d="M188.69,361.09c-1.37-1.05-3.27-1.45-5.63-1.18l-12.14,1.37-.14,4.49,3.19-.36,1.18,10.47c.1.89-.04,1.33-.17,1.55-.1.16-.28.36-.81.42l-2.01.23-.14,4.49,3.14-.35c1.79-.2,3.14-.91,4-2.1.84-1.16,1.17-2.72.95-4.62l-1.2-10.63,4.42-.5c1.86-.2,2.7.5,2.92,2.45l1.57,13.98,4.94-.56-1.58-14.08c-.26-2.29-1.09-4-2.48-5.06Z"/>
      <polygon class="cls-1" points="194.24 358.15 194.57 362.63 197.61 361.96 201.24 378.39 206.1 377.31 201.5 356.54 194.24 358.15"/>
      <path class="cls-1" d="M217.17,357.84c-.52-1.71-1.4-2.9-2.63-3.52-1.21-.62-2.71-.65-4.47-.12l-3.17.96.73,4.43,3.01-.91c.56-.17,1.01-.19,1.26-.07.3.15.49.6.6.96l2.24,7.4c-.1.44-.29.95-.58,1.51-.34.66-.79,1.28-1.36,1.85-.53.54-1.13.9-1.83,1.11l-1.35.41,1.31,4.32,1.41-.43c1.51-.46,2.7-1.27,3.52-2.4.46-.64.86-1.39,1.19-2.24l1.92,2.98,4.11-2.3-3.2-4.98-2.72-8.96Z"/>
      <path class="cls-1" d="M230.8,352.64c-.66-1.67-1.64-2.77-2.91-3.29-1.25-.51-2.76-.42-4.47.25l-3.07,1.22,1.1,4.35,2.92-1.16c.54-.22.99-.28,1.25-.17.31.12.54.56.67.9l2.86,7.19c-.06.45-.21.97-.45,1.56-.28.68-.68,1.34-1.2,1.96-.48.58-1.05.99-1.73,1.26l-1.31.52,1.67,4.19,1.37-.55c1.47-.58,2.58-1.49,3.3-2.68.41-.67.74-1.46,1-2.33l2.17,2.81,3.9-2.64-3.6-4.69-3.46-8.7Z"/>
      <path class="cls-1" d="M252.72,334.69l-10.56,6.54,1.85,4.09,2-1.24c.16.51.34.93.56,1.29l8.13,13.12,15.49-9.59-7.46-12.04c-2.45-3.95-5.91-4.7-10-2.16ZM258.55,339.56l5.07,8.18-7.04,4.36-6.1-9.84c-.14-.23-.27-.46-.39-.7l4.77-2.96c1.59-.98,2.65-.7,3.68.96Z"/>
      <polygon class="cls-1" points="262.07 328.31 264.29 332.22 266.75 330.31 277.06 343.61 280.98 340.57 267.95 323.75 262.07 328.31"/>
      <path class="cls-1" d="M291.99,315.1c-2.09-2.2-4.14-3.58-6.09-4.07-2.12-.54-4.14.1-6,1.89-.42.4-.82.83-1.17,1.28-.32.41-.65.83-.98,1.27l-.51.67,3.06,3.22,1.48-2.04c.22-.3.48-.59.8-.89.72-.71,1.42-.89,2.25-.58,1.04.38,2.24,1.28,3.56,2.68,1.76,1.85,2.76,3.57,2.99,5.11.21,1.42-.21,2.61-1.28,3.62-.98.93-2.07,1.21-3.45.89-1.49-.34-3.13-1.46-4.9-3.32l-6.71-7.07-3.6,3.42,6.71,7.07c2.61,2.75,5.22,4.32,7.76,4.68.39.05.78.08,1.16.08,2.18,0,4.22-.88,6.07-2.64,2.21-2.1,3.24-4.52,3.06-7.19-.18-2.6-1.59-5.32-4.21-8.07Z"/>
      <polygon class="cls-1" points="287.34 305.47 290.29 308.87 292.32 306.51 298.6 311.93 301.85 308.17 292.2 299.84 287.34 305.47"/>
      <path class="cls-1" d="M322.32,292.3c-1.67-.13-3.38-.21-5.09-.24-1.32-.02-2.61-.03-3.88-.03.09-1.51-.15-2.91-.71-4.17-.68-1.54-1.77-2.95-3.24-4.21l-3.24-2.76-2.86,4.07,3.02,2.58c.96.82,1.71,1.7,2.2,2.61.33.6.51,1.25.53,1.95-.41,0-.82.02-1.22.02-.7.01-1.38.02-2.08.03-1.54.08-2.91.15-4.12.2-1.22.06-2.32.13-3.26.21l-.45.04-3.61,5.13,2.19-.25c.78-.09,1.85-.18,3.19-.26l3.33-.2c-.06,1.47.23,2.83.86,4.03.75,1.44,1.84,2.82,3.23,4.1l4.8,4.53,2.85-4.05-4.51-4.28c-.98-.91-1.76-1.83-2.32-2.72-.35-.56-.55-1.18-.59-1.86,1.79-.05,3.7-.07,5.68-.05,2.33.03,4.74.14,7.19.35l.56.05,3.29-4.67-1.72-.14Z"/>
    </g>
  </g>
</svg>