<?xml version="1.0" encoding="UTF-8"?>
<svg xmlns="http://www.w3.org/2000/svg" version="1.1" viewBox="0 0 320 354.1">
  <defs>
    <style>
      .cls-1 {
        fill: #fffef5;
      }
    </style>
  </defs>
  <!-- Generator: Adobe Illustrator 28.6.0, SVG Export Plug-In . SVG Version: 1.2.0 Build 709)  -->
  <g>
    <g id="Layer_1">
      <g>
        <g>
          <path class="cls-1" d="M257.6,237.3c0,.2.2.3.4.3,1.9.1,4.5.2,7.3.2,4,0,8.5-.1,9.6-.4.2,0,.3-.2.3-.4v-1.3c0-.9,0-1.9,0-2.8,0-1,0-1.9,0-2.9v-1.3c0-.2-.2-.4-.3-.4-1.1-.3-7.5-.4-11.5-.4s-6.7,0-7.8.2c-.1,0-.2,0-.3.2s0,.2,0,.3c.6,2.7,1.4,5.8,2.4,8.7Z"/>
          <path class="cls-1" d="M132.1,175.6c0,0,.1,0,.2,0,.1,0,.2,0,.3-.1.1-.2.2-.4,0-.6-1.5-2-3.1-3.1-5.1-3.6,0,0,0,0,0,0-.2,0-.3,0-.4.2l-.4.8c-.3.6-.6,1.1-.9,1.7-.3.6-.6,1.3-.9,1.9-.9,2.1-1.9,4.2-3.3,6-.4.5-.6,1.1-.7,1.6-.2,1.2-.3,2.5-.4,3.7v1.2c-.2,1,.2,1.8.9,2.3h.1c.7.6,1.4,1.2,2.5,1.4,0,0,0,0,0,0,.2,0,.4-.1.4-.3l.3-1.3c.2-.9.5-1.9.7-2.8.3-1.4.7-2.5,1.7-3.4,1-1,1.6-2.3,1.6-3.8,0-.6.1-1.2.2-1.8,0-.1,0-.3,0-.4,0,0,1.1,0,1.1,0,.1,0,.3,0,.3-.2,0-.1.1-.3,0-.4-1-2.6-1.1-2.9-.7-3.5l2.2,1.3Z"/>
          <path class="cls-1" d="M145,131.4l-.9,3.4c0,.2,0,.4.3.5,4.9,1.8,8.7,3.7,11.9,6.2,0,0,.2,0,.3,0s.2,0,.3-.1c.2-.2.1-.4,0-.6l-4.5-4.6c0-.1,0-.3,0-.4,0-.4,0-.8,0-1.1.3-1.8.8-3.9,1.3-6.1.2-.8.2-1.4,0-2.1-.5-1.5-.8-3.1-1.2-4.5,0-.2,0-.5,0-.8l3.1,2.6c0,0,.2.1.3.1s.2,0,.3,0c.2-.1.2-.4.1-.5l-5.6-10.1c0-.1-.2-.2-.4-.2s0,0,0,0c-.2,0-.3.1-.4.3l-.9,3.4c-.7,2.5-1.4,5-2,7.4-.7,2.5-1.3,4.9-1.9,7.5Z"/>
          <path class="cls-1" d="M115.4,186.1c0,0-.1,0-.2,0-1,.6-1.3,1.6-1.5,2.4,0,.2-.1.5-.2.7-.5,1.4-1,2.7-1.4,4.1-.3.8-.5,1.6-.8,2.4-.3.9-.7,1.8-1,2.8l-.5,1.3c0,.2,0,.4.1.5l.7.5c0,0,.2,0,.3,0s.1,0,.2,0c0,0,.1,0,.1,0,.2,0,.4-.2.4-.4,1.4-4,2.8-8,4.2-12.1l.4-1.1c0-.1,0-.3,0-.4l-.4-.5c0-.1-.2-.2-.3-.2Z"/>
          <path class="cls-1" d="M161.7,88.1c0,0,.2,0,.2,0,.1,0,.2-.1.3-.2.3-.2.7-.4.9-.7,1.7-2,2.2-4.5,1.5-7-.5-2-1.4-2.6-3.6-2.6s-.2,0-.4,0c0,0-.2,0-.2,0-1.1.7-1.5,1.6-1.4,2.8,0,.5,0,.9.1,1.4,0,1.2.2,2.4.4,3.5.2,1,.5,2.1,1.9,2.8,0,0,.1,0,.2,0Z"/>
          <path class="cls-1" d="M156.8,98.4c.1,0,.2-.2.2-.4,0-.1,0-.3-.2-.4-.3-.2-.6-.3-.9-.3-.8,0-1.5.5-2.4,1.6-2,2.7-1.9,6.4.4,8.8,0,0,.2.1.3.1s.2,0,.3,0c.2-.1.2-.4.1-.6-1.8-3.6-1.1-6.5,2.3-8.9Z"/>
          <path class="cls-1" d="M158.3,94.8c0,0,.2,0,.3,0,.1,0,.2-.2.2-.4-.3-2.4-1.2-4.3-2.2-6.3,0-.1-.2-.2-.4-.2s0,0-.1,0c-.2,0-.3.2-.3.4v5.2c0,.2.1.3.3.4l2.2.9c0,0,.1,0,.2,0Z"/>
          <path class="cls-1" d="M165.1,69.7c0,0-.2-.1-.3-.1s-.2,0-.2,0l-11.3,6.8c-.2.1-.3.4-.2.6,0,.2.2.3.4.3s0,0,.1,0c4.5-1.5,8.5-3.5,12.4-6.1.1,0,.2-.2.2-.3,0-.1,0-.3-.2-.4l-.9-.8Z"/>
          <path class="cls-1" d="M219,237.6h34.9c.1,0,.3,0,.3-.2,0-.1.1-.3,0-.4-.4-1.2-.7-2.4-1-3.5-.5-1.8-.9-3.6-1.6-5.3,0-.2-.2-.3-.4-.3-2.2-.1-6.9-.2-12.8-.2-8.4,0-17.7.1-18.8.3-.2,0-.3.2-.3.4l-.9,8.6c0,.1,0,.2.1.3,0,0,.2.1.3.1Z"/>
          <path class="cls-1" d="M231.8,126.2c-2.9-2-5.1-4.6-7.5-7.3l-.4-.5c0,0-.2-.2-.3-.2s-.2,0-.2,0c-1.6,1.1-3,2.4-4.5,4.3-.1.2-.1.4,0,.5.2.3.5.7.7,1,.5.7,1,1.4,1.5,2,.2.3.4.7.7,1,.4.7.9,1.5,1.7,1.9,0,0,.1,0,.2,0s.1,0,.2,0c.5-.2.9-.5,1.2-.8.3-.3.6-.5,1-.7,0,.4-.1.9-.2,1.3-.2,1.3-.3,2.6-.2,3.9.3,3,.7,5.8,1.4,8.6.9,3.6,1.9,7.3,3,10.8.4,1.4.8,2.9,1.2,4.3.2.7.4,1.5.6,2.2l.3,1.1c0,.2.2.3.4.3h.2c.4,0,.8.1,1.2.1s1.3,0,2-.7c.1,0,.2-.2.1-.4-.8-13-2.1-23.4-4-32.8,0-.1,0-.2-.2-.3Z"/>
          <path class="cls-1" d="M254.8,225.5s0,0,0,0c.2,0,.3-.2.4-.3.4-1.9.4-10.6,0-12.3,0-.2-.2-.3-.4-.3h-2.8c-.1,0-.3,0-.3.2,0,0-.1.2,0,.4l.3,1.9c.2,1.4.5,2.7.7,4.1.4,2.1.8,4.1,1.7,6.2,0,.2.2.3.4.3Z"/>
          <path class="cls-1" d="M229.3,162.4c.5-.9.6-1.8.3-3-.4-1.6-.9-3.3-1.3-4.9-.8-3-1.6-5.9-2.4-8.9-.4-1.6-.9-3.2-1.4-4.8-.2-.7-.4-1.4-.7-2.2,0-.2-.2-.3-.4-.3s0,0,0,0c-.2,0-.4.2-.4.5,0,1.9.4,3.8.6,5.7v1c.4,2.1.7,4.1,1,6.2l.2,1.2c.2,1.4.4,2.8.5,4.3,0,.5.1,1.1.2,1.6.2,1.5.4,3.1.4,4.6,0,1.3,0,2.6,0,4.1,0,.7,0,1.4-.1,2.2,0,.2.1.4.3.4,0,0,0,0,.1,0,.1,0,.3,0,.4-.2l2.5-3.5c0,0,0-.2,0-.3,0-.3,0-.5,0-.8,0-.5,0-1,0-1.5,0-.6,0-1.1.3-1.5Z"/>
          <path class="cls-1" d="M169.2,180.9s0,0,.1,0c.2,0,.3-.2.3-.3l.9-5.3c0-.1,0-.2,0-.3-.8-1-.7-2.4-.7-3.7,0-.7,0-1.4,0-2.1,0-1.7.1-3.4.4-5.1.4-2.3.2-4.5,0-6.6,0-.7-.1-1.4-.2-2.1,0-1.1-.3-2.1-.6-3.1-.1-.4-.2-.9-.3-1.3,0-.2-.2-.3-.4-.3h-8.9c-.2,0-.3,0-.4.2l-.8,1.5c-.6,1.1-1.2,2.1-1.8,3.2-1.7,3.2-3.9,6.2-6.3,9.2-1.3,1.6-2.7,3.2-4,4.8-1.6,1.9-3.2,3.8-4.8,5.8-.9,1.1-1.8,2.3-2.7,3.6-.4.6-.9,1.2-1.4,1.9-.1.1-.1.3,0,.5,0,.1.2.2.4.2s0,0,0,0c.4,0,.8,0,1.1-.1.6,0,1.1-.1,1.6-.1.4,0,.8,0,1.2,0,.6,0,1.2,0,1.8,0,1,0,1.9,0,2.6.1,1,.1,1.9.4,2.8.8.4.1.8.3,1.2.4,0,0,0,0,.1,0,.1,0,.3,0,.4-.2.3-.5.6-.9.8-1.4.6-1,1.2-1.9,1.8-2.8,1.5-1.9,3.3-2.8,5.4-2.8s.8,0,1.3.1c1.9.3,3.6,1.1,5.1,2.3.9.7,1.7,1.5,2.5,2.3.4.3.7.7,1.1,1,0,0,.2.1.3.1Z"/>
          <path class="cls-1" d="M161.3,146.7c1.3.5,2.6.6,3.5.6s1,0,1.5,0c.3,0,.7,0,1,0,.1,0,.3,0,.4-.2,0-.1,0-.3,0-.4l-2.5-4.9c0-.1-.2-.2-.3-.2,0,0,0,0,0,0-.1,0-.3,0-.3.2l-3.4,4.4c0,.1-.1.3,0,.4,0,.1.1.2.3.3Z"/>
          <path class="cls-1" d="M207.8,196.3c0-.7,0-1.4.1-2.1.2-3.2.5-6.5.2-9.8-.2-2.7-.8-5.2-1.5-7.9l-.3-1.4c0-.2-.2-.3-.4-.3-1.8,0-3.6-.1-5.7-.1s-5.4,0-8.1.1h-.5c-.2,0-.4.2-.4.4,0,.8,0,1.5,0,2.3,0,1.8,0,3.5,0,5.2v.3c.1,1.4.3,3.1,1.4,4.5,0,0,.2.2.3.2s0,0,.1,0c4.8-1.6,7.8-2.4,9.6-2.4-.1,0-.2.1-.3.2-.9.6-1.9,1.3-2.8,2-2.5,2-4,4.3-4.4,7.1-.2,1.3-.3,2.7-.5,4v.3c-.3,2.4-.5,4.7-.7,7.1,0,.6-.1,1.1-.2,1.7-.2,1.4-.3,2.8-.3,4.3,0,1.7.3,3.4.6,5.1,0,.4.2,1.5.2,1.5.5,3.2,1,6.5,1,9.8,0,2.7-.2,5.4-.3,8,0,1.1,0,2.3-.1,3.4,0,.2,0,.4,0,.6-.1,1.1-.2,2.3-.3,3.5-.2,2.6-.5,5.3-.8,7.9-.3,2.4-.6,4.9-1,7.3-.2,1.1-.3,2.2-.5,3.2s-.1.9-.2,1.3c-.3,2-.7,4.1-.1,6.3,0,.1,0,.2.2.3,4.4,3.1,9.5,3.7,13.9,3.9h0c.2,0,.4-.1.4-.4,0-.2,0-.4-.3-.5-.8-.3-1.6-.5-2.3-.6-2.4-.3-4.8-1.3-7.2-3-.4-.3-.8-.5-1-.9,1.5.2,3,.3,4.5.3s3.4-.2,4.9-.7c.2,0,.3-.2.3-.4,0-.2-.1-.4-.3-.4-5.1-2-8.4-4.5-9.3-6.9l.5-.3c.6-.4,1.1-.7,1.7-1.1,3-2,4.9-4.3,5.9-7.1,1.8-5,2.6-9.7,2.4-14.6,0-.1,0-.2-.1-.3l-6.6-7.4c.6-.2,1.3-.3,2-.3,1.4-.2,2.8-.3,4.1-1.2.2-.1.2-.3.2-.5-.6-1.4-1.8-2.3-2.9-3.1-.6-.4-1.1-.8-1.6-1.2,0,0,0,0,.1,0,.4-.3.8-.5,1.2-.8h.1c.9-.8,1.8-1.5,2.6-2.4,1.2-1.2,1.7-2.7,1.7-4.4,0-2.6,0-5.3,0-8.5.1-3.9.3-7.4.5-10.8Z"/>
          <path class="cls-1" d="M143.8,142.1c-.7,1.8-1.4,3-2.3,4.1-1,1.2-2.4,2.7-3.2,4.7-.8,1.9-1.6,3.8-2.5,5.7-.8,1.8-1.6,3.6-2.4,5.5-.8,1.8-1.5,3.7-2.2,5.5-.3.8-.7,1.7-1,2.5,0,.2,0,.4.2.5l2.5,1.4c0,0,.1,0,.2,0,.1,0,.3,0,.4-.2.7-1.1,1.4-2.1,2.1-3.2,1.6-2.3,3.2-4.7,4.6-7.1,1.5-2.5,2.8-4.9,4.1-7.6.5-.9,1-1.9,1.5-2.9l.9,1.1c0,.1.2.2.3.2s0,0,0,0c.2,0,.3-.1.3-.3l2.3-7c0-.2,0-.3-.1-.5l-4.7-4.1c0,0-.2-.1-.3-.1s0,0,0,0c-.1,0-.2.1-.3.3l-.2.5c-.1.3-.2.5-.3.8Z"/>
          <path class="cls-1" d="M184.5,293.2c2.2.8,4.8,1.7,7.4,1.7h0c.1,0,.2,0,.3-.1l.7-.7,1.7.7c0,0,.1,0,.2,0s0,0,0,0h.4c2.2-.4,4.3-.8,6.1-2.1.2-.1.2-.3.2-.5,0-.2-.2-.3-.4-.3h0c-.6,0-1.2,0-1.7,0-.9,0-1.9.1-2.9.1s-.7,0-1,0c-1.8,0-3.7-.3-5.6-.8-1.2-.3-2.5-.7-3.7-1.1-.5-.2-1.1-.4-1.6-.5,0,0,0,0-.1,0-.2,0-.3,0-.4.2-.6,1.2-.6,2.1.1,3,0,0,.1.1.2.1Z"/>
          <path class="cls-1" d="M192,277.6l6.7,1.3s0,0,0,0c.1,0,.3,0,.4-.2,0-.1.1-.3,0-.5,0,0-.2-.2-.2-.2l-1.1-.6c-1.2-.6-2.4-1.3-3.6-1.9-.3-.2-.7-.2-1-.2-.1,0-.3,0-.5,0,0,0,0,0,0,0-.2,0-.3.1-.4.3l-.6,1.6c0,.1,0,.3,0,.4,0,.1.2.2.3.2Z"/>
          <path class="cls-1" d="M186,192.5c0-.1,0-.2-.2-.3l-7-4.3c.7,0,1.3,0,1.7,0s.7,0,1.1,0c.3,0,.7,0,1,0h0c.8,0,1.3,0,1.9-.1.2,0,.4-.2.4-.4v-11.6c0-.2-.1-.4-.4-.4-.2,0-.5,0-.7-.1-.5,0-.9-.2-1.3-.2-1.5-.2-2.9-.3-4.1-.4h-.2c-.5,0-.9,0-1.4,0-.9,0-2.2,0-3.6.8-.1,0-.2.2-.2.3l-.2,2c-.2,1.7-.4,3.4-.6,5.1-.2,1.8-.3,3.6-.4,4.9,0,.9-.2,1.8-.2,2.7-.2,2.1-.4,4.3-.4,6.4,0,1.9,0,3.8,0,5.7,0,5.4,0,10.9.3,16.4.2,3,.7,5.9,1.6,8.8,1.5,4.9,4.1,9.6,8.5,15.2.5.6.9,1.2,1.4,1.7l.6.7c0,.1.2.2.3.2s.2,0,.2,0c.2-.1.2-.4.2-.6-.7-1.3-1.4-2.6-2.1-3.9-.9-1.6-1.8-3.2-2.5-4.8-2.4-5.1-3.1-7.1-3.2-8.6.5.2,1,.5,1.6.8.8.5,1.7,1,2.7,1.3,0,0,0,0,.1,0,.1,0,.3,0,.4-.2.1-.2.1-.4,0-.5-.3-.4-.6-.8-.9-1.2-.6-.8-1.2-1.6-1.7-2.4-1.7-2.5-2-5.1-1.1-7.9,1-3,2.2-6.1,3.4-9.2.6-1.4,1.3-2.8,2.1-4.3.4-.7.7-1.4,1.1-2.1,0-.2,0-.4-.1-.5,0,0-.2-.1-.3-.1s-.2,0-.2,0l-3.6,2.3c1.8-4,4.1-7.5,6.3-10.9,0,0,0-.2,0-.3Z"/>
          <path class="cls-1" d="M191.5,281.1c-3.3,0-5.5,2.4-6.4,4.6-.4.9-.2,1.6.6,2.3,0,0,.2,0,.3,0s.2,0,.3-.1c1.6-1.4,3.6-1.9,5.3-2.2,1.5-.3,3-.7,4.8-1.3h.2c.7-.3,1.5-.5,1.9-1.5,0-.1,0-.2,0-.3,0-.1-.1-.2-.2-.2-2.4-.9-4.5-1.4-6.6-1.4h-.1Z"/>
          <path class="cls-1" d="M146.6,188.1c.4.2.8.5,1.2.7,4.4,2.7,7.7,6.5,10,9.5,4.1,5.3,7.3,9.8,9.8,14.3,0,.1.2.2.4.2s0,0,0,0c.2,0,.3-.2.4-.3.4-1.9,0-3.6-1.2-5.2-.8-1.2-1.6-2.4-2.4-3.6-.6-.9-1.1-1.8-1.7-2.6-2.6-3.7-5.7-8-9.7-11.5-2.3-2-4.3-3.3-6.6-4.2-1.4-.5-2.8-.8-4.2-.8s-2,.1-3,.4c-1.2.3-1.9,1.1-2.1,2.4v.3c-.2.6-.3,1.3-.3,1.9,0,.9-.5,1.5-1.3,2-1,.6-1.6,1.4-2.1,2.1-.1.2-.1.4,0,.5,0,.1.2.2.3.2s.1,0,.2,0c.4-.2.8-.4,1.1-.6.8-.4,1.5-.8,2.3-.8.7.8.6.9.2,1.5-.3.3-.5.7-.8,1-.4.5-.8.9-1.2,1.5-1.4,2.2-3.1,3.5-5.4,3.9-.7.1-1.5.3-2.2.5-1.3.3-2.5.6-3.7.6s-1,0-1.5-.2c0,0-.2,0-.3,0-.3,0-.5,0-.8.1-.1,0-.3,0-.4.1-.3,0-.6,0-.9,0h-.3s-1.2-1.6-1.2-1.6c0-.1-.2-.2-.3-.2h0c-.1,0-.3,0-.3.2l-2.4,3.6c0,.1,0,.3,0,.4,0,.1.2.2.4.2h2.4c2.3.2,4.6.3,6.9.4.5,0,1.1.2,1.6.3,0,0,0,0,0,0,0,0,0,0,0,.1,0,0,0,0,0,.1v1.3c-.6.2-1.2.3-1.9.3s-.7,0-1,0c-.3,0-.7,0-1,0s-.3,0-.4,0c-.7,0-1.3,0-2,0s-1.7,0-2.5,0c-1.1,0-2.1-.1-3.2-.2-.5,0-1.5-.1-1.5-.1-.1,0-.2,0-.3.1,0,0-.1.2-.1.4.3,2.5-1.1,4.5-3.7,5.2-.1,0-.2.1-.3.2l-2.4,4.8c0,.1,0,.3,0,.4s.2.2.4.2h28.9c.1,0,.3,0,.4-.2,0-.1,0-.3,0-.4h0c0-.2,0-.4-.2-.5-2.6-3.5-2-8.5,1.3-11.3.7-.6,1.6-1.2,2.4-1.8.3-.2.6-.4.9-.7.3-.2.6-.4.8-.6l.4-.2c.1,0,.2-.2.2-.4-.3-4.6-.1-9.8,3.7-14l.3.2Z"/>
          <path class="cls-1" d="M186.2,277.1c.2,0,.3-.2.3-.4s0-.4-.3-.4c-.4-.2-.7-.3-1-.4-.6-.3-1.1-.5-1.6-.7-.9-.3-1.8-.4-2.7-.4s-2.1.2-3.1.7c-1.4.7-1.8,1.5-1.6,3.3,0,.1,0,.2.2.3,0,0,.2,0,.3,0s0,0,0,0c.5,0,.9-.1,1.3-.2,1-.2,1.9-.3,2.8-.5,1.1-.2,2.2-.5,3.4-.8.6-.1,1.2-.3,1.8-.4Z"/>
          <path class="cls-1" d="M176,280.4s0,0,0,0c-.1,0-.2,0-.3.1,0,0-.2.2-.2.3v1.9c0,.2.1.3.3.4,1.8.7,3.2,1.1,4.5,1.1s2-.2,3-.6c.2,0,.3-.2.3-.4v-1c0-.2-.1-.4-.4-.4l-7.2-1.3Z"/>
          <path class="cls-1" d="M132.6,87.9c0,.2,0,.3,0,.5,0,.1.2.2.3.2s0,0,.1,0c.6-.1,1.2-.3,1.7-.4,1.2-.2,2.2-.4,3.1-.8,2.5-1.1,4.9-2.3,7.2-3.6l.8-.4c.7-.4,1.3-.8,1.9-1.2.3-.2.6-.4.8-.6.2-.1.2-.3.2-.5,0-.2-.2-.3-.4-.3h0c-.6,0-1.1.2-1.5.4-.1,0-.2,0-.3.1-.5.2-1.1.4-1.6.4-.6,0-1.3.1-1.9.2-1,0-2,.1-3,.3-.3,0-.5,0-.8.1-.9.1-2,.2-2.8,1l-.3.3c-1.3,1.1-2.6,2.3-3.5,4.4Z"/>
          <path class="cls-1" d="M144.7,93.7c0,0-.1,0-.2,0-.1,0-.2,0-.3.2-1.2,1.4-1,3-.8,4.4v.4c.3,2.1.8,4.7,3.1,6.6,0,0,.2.1.3.1s.2,0,.3,0c.2-.1.2-.4.1-.5-1.9-3.7-2.6-7.1-2.2-10.5,0-.2,0-.4-.3-.5Z"/>
          <path class="cls-1" d="M151.6,94.6c0,.2.2.3.4.3s0,0,0,0c.2,0,.4-.2.4-.4l.2-1.4c.1-.8.3-1.6.4-2.3.1-.7.3-1.4.4-2.1.3-1.5.6-3,.8-4.4.2-1.3.2-2.7-1.2-3.6,0,0-.2,0-.3,0s-.2,0-.3,0c-.7.5-1.2,1.2-1.7,1.8-.7.9-1.4,1.8-2.6,2.2-.2,0-.3.2-.3.4v4.2c-.3.3-.6.4-1,.4s-.5,0-.7-.1l-.5-.9c0-.1-.2-.2-.4-.2s-.1,0-.2,0c-1.1.5-1.6,1.3-1.4,2.3,0,.2,0,.3.1.5,0,0,0,.1,0,.2,0,.1.2.2.3.3l1.1.3,1.1,1.4c0,.1.2.2.3.2s4.3-.4,4.3-.4l.5,1.3Z"/>
          <path class="cls-1" d="M107.5,204.1h.3c.2,0,.4,0,.7,0,.2,0,.3,0,.5,0,.1,0,.2,0,.3-.2s.1-.2,0-.4c0-.3-.2-.7-.2-1-.2-.7-.3-1.3-.4-1.9,0-.2,0-.3,0-.5-.1-.7-.2-1.4,0-2,1.3-4.6,2.9-8.6,4.8-12.3.3-.6.6-1,1.3-1.2l3.2,1.7c0,0,.1,0,.2,0s.1,0,.2,0c.1,0,.2-.1.3-.3,0-.2.1-.3.2-.5.1-.4.3-.7.3-1.1.2-1.8,1-3.3,2-4.9.9-1.5,1.7-3.2,2.5-4.8l.3-.7c.3-.6.5-1.2.8-1.8.2-.5.4-1,.6-1.4.4-1,1.1-1.4,2-1.4s.5,0,.7,0c0,0,.2,0,.2,0,.2,0,.3-.1.3-.3l7.3-17.8c0-.1,0-.3,0-.4,0-.1-.2-.2-.4-.2h-28.1c-.1,0-.3,0-.4.2,0,.1-.1.3,0,.4.8,2.3.2,4.5-.5,6.7,0,.2,0,.4.2.5,3.6,1.8,5.5,4.5,5.7,8.2.3,4.2-1,7.2-4,9.1-.2.1-.2.3-.2.5,2.3,5.2,1.6,12.1-7.1,16.1,0,0-.2.1-.2.2-1.7,3.3-4.1,5.6-7,6.8-1.6.7-3.2,1-4.9,1s-3.2-.3-4.7-1c0,0-.1,0-.2,0,0,0-.2,0-.3,0l-2.6,2.1c0,0-.1.2-.2.3,0,.2,0,.3,0,.5,0,.3,0,.4,0,.6,0,1,0,2,0,3.1,0,2.7-.2,5.6-.2,8.4,0,2.4,1.3,3.6,3.8,3.7,3.7,0,7.3,0,11,0h6.7c.1,0,.2,0,.3-.1,1.1-1.2,2-2.6,2.6-4.4.4-1.1.5-2.1.1-3-.6-1.7-.1-3.4.4-4.9.4-1,1-1.5,1.9-1.5Z"/>
          <path class="cls-1" d="M169.9,78.2s0,0,0,0c-.2,0-.3.2-.4.3-1.7,6.3-5.2,11.8-8.3,16.6-.1.2,0,.4,0,.5.4.4.8.6,1.2.6s.9-.3,1.2-.6c.5-.4.8-.9,1.1-1.3l.2-.3c2.4-3.4,5-7.5,5.8-12.5.2-.9.2-2-.5-3.1,0-.1-.2-.2-.4-.2Z"/>
          <path class="cls-1" d="M83.4,191.2c1.6-1.4,2.6-3.1,3.5-4.8l.2-.3c.1-.2,0-.4-.1-.6,0,0-.2,0-.3,0s-.2,0-.3.1c-1.4,1.4-2.9,3-3.7,5.2,0,.2,0,.4.2.5,0,0,.2,0,.3,0s.2,0,.3-.1Z"/>
          <path class="cls-1" d="M149.6,62.2c.2,0,.3-.3.3-.5,0-.2-.2-.4-.4-.4h0c-4.7,0-9.5,2.8-12.2,7-2.6,4.1-2.8,9-.6,13.6,0,.2.2.2.4.2s0,0,.1,0c.3-.1.7-.2,1-.3.8-.2,1.5-.5,2.2-.8.8-.3,1.5-.8,2.2-1.2l.6-.3c.9-.5,1.4-1.2,1.6-2.2,0,0,0-.2,0-.3-.2-.4-.4-.7-.6-1.1-.5-.8-.9-1.6-1.4-2.4-1.3-2.7-.8-5.9,1.3-8,1.7-1.7,3.4-2.8,5.5-3.3Z"/>
          <path class="cls-1" d="M170.9,102.3c0,.1.2.2.3.2h.2c.1,0,.2,0,.4,0s0,0,.1,0c.2,0,.4,0,.6,0h.3c.1,0,.2-.1.3-.3,1.7-2.8,2.2-5.8,2.7-9,.1-.6.2-1.2.3-1.9,0-.2,0-.3-.2-.4,0,0-.2,0-.2,0s-.2,0-.2,0c-.1,0-.2.1-.3.2-.2,0-.4.2-.4.4-1.1,2.9-2.2,5.9-3.3,8.8l-.6,1.6c0,.1,0,.3,0,.4Z"/>
          <path class="cls-1" d="M239,165.4c.2,0,.4-.2.4-.4s0-.4-.3-.5c-2.1-.8-4-1.1-5.9-1.1s-1.4,0-2.1.2c-.2,0-.3.2-.4.4,0,0,0,.2,0,.3,0,.2,0,.4,0,.6.2,1.7-.4,3.2-2,5-.2.2-.3.4-.5.6-.3.4-.6.7-.9,1-1.3,1-1.9,2.4-2.2,3.5,0,.3-.2.6-.3.9-.1.3-.2.5-.3.8-1.1,3.2-1.1,3.3,0,6.5,0,.2.2.3.3.3h.1c0,0,.1,0,.2,0s.1,0,.2,0c.1,0,.2-.1.2-.3,0,0,0-.2.1-.3,0-.2.2-.5.2-.8,0-1.4.4-2.8.7-4.2.2-.7.3-1.4.5-2.1,0-.5.2-.7.7-.9.8,1,1.1,2.3.8,3.9,0,.6-.2,1.2-.3,1.8-.1.7-.2,1.4-.3,2,0,.6-.2,1.5.9,1.8,0,0,0,0,.1,0,.2,0,.3-.1.4-.3l.8-2.2c.7-1.8,1.3-3.5,2-5.3.6-1.5.8-2.9.5-4.3h0c-.1-.9-.3-1.7.2-2.3.7-.2,1.5-.3,2.2-.3,1-.1,2.1-.2,3.1-.6.2,0,.3-.3.3-.5,0-.2-.2-.4-.4-.4-2.1-.3-3.3-.7-3.8-1.4-.3-.4-.4-.9-.3-1.6h5Z"/>
          <path class="cls-1" d="M275.6,255.8v-.7c0-.1,0-.2-.2-.3,0,0-.2-.1-.3-.1s0,0,0,0c-.5,0-1,0-1.4,0-8.3,0-14.1-4-17.2-11.9,0-.2-.2-.3-.4-.3h-37c-.2,0-.4.2-.4.4-.2,1-.3,2-.4,3-.5,3.8-1.1,7.6-2.6,11.3,0,.1,0,.3,0,.4.7,1.2.9,2.6.8,4.6,0,.7-.1,1.4-.2,2.1,0,.9-.2,1.8-.2,2.6-.1,2.5-.6,5.7-2.8,8.4-.1.2-.2.4-.3.5h0c0,.3,0,.5,0,.6.5.8,1.2.9,1.7.9s.3,0,.5,0c.1,0,.3,0,.4,0,9.5,0,19,0,28.5,0h15.9c0,0,.2,0,.2,0,2.7-1.9,9.5-9.7,15.3-17.4,0,0,0-.2,0-.3v-.6c0-.5,0-1,0-1.5,0-.5,0-1,0-1.5ZM225.2,254.7c.4-.1.8-.4,1.2-.4,5.1,0,10.1,0,15.2,0,.2,0,.5.1.8.2-1.8,1.1-11.1,1.3-17.2.1Z"/>
          <path class="cls-1" d="M242.1,291.7s0,0,0,0l-2.2.3c-.8.1-1.6.2-2.4.3-1.8.2-3.7.5-5.6.7h0c-1.5.2-3,.5-4.4.9-.8.3-1.5.6-2.3.8-2,.8-4.1,1.6-6.2,1.9-2.8.5-5.3.8-7.5,1-3.7.4-7,.6-10.2.7-.9,0-1.8,0-2.9,0s-1.5,0-2.2,0c-.7,0-1.5,0-2.2,0h-1.1c-2,0-3.9-.2-6.1-.7h-.1c-1-.2-1.9-.5-2.8-.8-1-.4-2.1-1.2-2.4-2.8-.1-.8,0-1.6,0-2.4,0-.3,0-.6,0-.8,0-.6,0-1.2,0-1.7,0-.4.1-.8.2-1.3,0-.2,0-.5.1-.8,0-.1,0-.3,0-.4,0,0-.2-.2-.3-.2-.7,0-1.4,0-2.1,0-.7,0-1.3,0-2,0-.9,0-1.7,0-2.4,0-3.6-.3-7.2-.6-10.7-1.1-.3,0-.5,0-.8,0-1.2-.1-2.4-.2-3.2-1.1v-1.1c0,0,.2,0,.2-.1.3-.1.6-.3.9-.3,1.4-.3,2.8-.6,4.1-.9,1-.2,2-.4,2.9-.6.3,0,.6-.1.9-.2,1.2-.2,2.4-.5,3.5-1.1.1,0,.2-.2.2-.3h0c.3-1.9.7-3.5,2.1-4.7.8-.7,1.7-1.2,2.9-1.6,2-.6,3.9-1.7,6.2-3.3.9-.7,2-1.5,2.8-2.8,0-.1,0-.3,0-.4-.9-1.8-.6-3.6,0-5.4v-.2c0-.2.1-.4.2-.5.3-.8.2-1.6-.2-2.4-1.8-3.6-3.9-7.6-6.4-11.4l-2.6-4c0-.1-.2-.2-.4-.2h-73.9l.8-4.5h69c.1,0,.3,0,.4-.2,0-.1,0-.3,0-.4l-3.6-9.3c0-.2-.2-.3-.4-.3h-51s-2.7,0-2.7,0c-1.1,0-2.1,0-3.2,0h-.6c-.6,0-1.2,0-1.9,0-.6,0-1.2,0-1.9,0-1.3,0-2.3,0-3.3,0,0-.4,0-.7,0-1.1,0-.9,0-1.9-.8-2.8-1-1.1-2.1-1.8-3.5-2.4,0,0-.1,0-.2,0s-.2,0-.2,0c-2,1.2-3.7,2.9-5.3,4.4-.6.6-1.3,1.3-1.9,1.9h-48.8c-2.3,0-4.5,0-6.9,0-.1,0-.3,0-.4.2,0,.1,0,.3,0,.4l3.5,9.3c0,.2.2.3.4.3h41.3c-.2.2-.4.4-.6.6-.9.9-1.8,1.8-2.6,2.7-.8.9-1.8,1.3-3.3,1.3-3.8,0-7.5,0-11.3,0s-10.1,0-15.1,0h-3.5c-.1,0-.3,0-.4,0-.2,0-.3,0-.5,0-.3,0-.8,0-1.2.4-.2.1-.2.4-.1.5,22.6,45.1,69.9,74.3,120.6,74.3s55-8.8,78.2-25.5c.2-.1.2-.3.2-.5,0-.2-.2-.3-.4-.3ZM69.7,268.3c-.6.2-1.3.5-2,.8-.4-.2-.6-.3-.8-.5-.7-.6-1.4-1.2-.9-2.2.4-.9,1.2-1.6,2.3-1.5.3,0,.6,0,1,0q.7,1.5.3,3.3ZM69.4,259c-.8-.8-1.7-1.6-2.6-2.4-.1-1.3,0-1.6.8-2,.8-.4,1.5-.2,2.2.6.5.6,1,1.2,1.5,1.7,0,1.8-.2,2.1-2,2ZM122.9,253.9c2.4-.2,4.7-.3,7.1-.5,3.3-.2,6.7-.5,10-.7,1.2,0,2.5-.1,3.7-.1,5.5,0,11.1-.1,16.6,0,4.3,0,8.5.5,12.8.7,0,.1,0,.3.1.4-.8.2-1.5.4-2.3.5-3.4.3-6.8.5-10.2.9-7.2.8-14.4.8-21.7.7-3.1,0-6.2-.2-9.3-.4-3.3-.2-6.5-.5-9.8-.8-.2,0-.4-.1-.8-.3,1.4-.2,2.5-.4,3.7-.5ZM113.1,267c.3-.2.7-.4,1-.6,1-.5,1.8-.3,2.4.6.6,1,.5,2-.4,2.6-.8.5-1.6.7-2.5,1.1-1.9-1.3-1.9-2.6-.4-3.7ZM108.1,250.4c.9.2,1.1.8,1,1.5-.2,1.1-1,1.7-2,2-.8-1.7-.6-2.4,1.1-3.5ZM106.1,261.8c.3.3.6.8,1.1,1.4-.3.5-.5.8-.7,1-.2.2-.6.5-.8.5-1.2-.3-2.2,1.3-3.5.6-.6-.6-.6-1.3-.1-2,1-1.2,2.3-1.7,4-1.4ZM102.9,227.3c-1,4.2-1.9,8.4-3,12.6-2,8-4.3,15.9-7.5,23.9,0-.6-.2-.8-.1-1.1,1.4-10.5,4-20.7,7.3-30.8.8-2.4,1.7-4.8,3.3-7.1.4.9.2,1.7,0,2.5ZM77.9,265.8c-.7,0-1.3-.5-1.3-1.2,0-.8.8-1.7,1.6-1.7.7,0,1.2.5,1.3,1.2,0,.8-.7,1.7-1.5,1.7ZM81.2,258.7c-.4-.4-.7-.8-1.1-1.2.3-.9.8-1.5,1.6-1.3.3,0,.7.6.8.9.2.8-.3,1.2-1.3,1.5ZM85.9,269.2c-1.1-.8-.5-2.2-1-3.1q.9-1.5,2.2-1c.7,2.2.3,3.3-1.2,4.1ZM87.6,253.7c0-1.7,1.4-5.6,4.3-11.8,1.8-3.8,3.6-7.6,5.6-11.7-6.4,8.4-11.6,17.3-18.8,24.7-.2.2-.4.3-.6.4,0,0-.1-.2-.2-.2,1.2-1.9,2.3-3.7,3.5-5.6,0,0-.1-.1-.2-.2-.8.6-1.6,1.2-2.3,1.8,3.1-4.7,6.4-9.2,10-13.5,3.6-4.3,6.9-8.7,11.3-12.3.1.1.3.2.4.4.3-.3.6-.7.8-1,.1.1.3.2.3.3-.8,2.2-1.5,4.3-2.4,6.4-3.2,7.4-6.8,14.6-11.1,21.5-.2.3-.4.5-.6.9ZM135,283.1c-5.8.1-11.7.4-17.5.3-3.6,0-7.2-.4-10.8-.6-.3,0-.5,0-.8,0-3.8-.2-7.6-.3-11.4-.5-1.4,0-2.8-.3-4.2-.8,2.3-.2,4.6-.3,6.8-.5,4.3-.2,8.5-.5,12.8-.7,1.2,0,2.5,0,3.7-.1,3.4,0,6.8-.2,10.2-.3,1.4,0,2.9.2,4.3.2,2.1,0,4.2,0,6.3,0,5,.2,10.1.5,15.1.8.2,0,.4.1.7.3-2.4.7-4.7.8-7,1-2.5.2-5.1.4-7.6.7-.3,0-.5,0-.8,0ZM139.8,297.9c4-1.5,20.8-1.5,24.9-.1-4.3,1.8-16.6,1.3-24.9.1Z"/>
          <path class="cls-1" d="M38.1,138.6h.3c.2.2.4.3.5.4,2.9.9,6,1.7,9.8,2.3.2,0,.4,0,.6.1.6.1,1.2.2,1.9.2s.4,0,.5,0c1.1-.1,2.1-.4,3.1-.7.4-.1.9-.2,1.3-.3.1,0,.2-.1.3-.2.3-.5.5-.9.8-1.4.6-1.1,1.2-2.2,1.9-3.2,1.9-3,4-4.9,6.5-6.1,1.7-.8,3.3-1.2,4.8-1.2s.7,0,1.1,0c2,.3,4,.6,5.9,1.1.6.1,1.1.2,1.6.2.8,0,1.6-.2,2.5-.5l.4-.2c.5-.2.9-.4,1.3-.5.4,0,.9-.1,1.3-.1,1.7,0,3.3.7,5,2.1,2.4,2,4.1,4.5,5.1,7.5,0,.2.2.3.3.3,4.1.9,7,2.6,8.8,5.3,0,.1.2.2.3.2.3,0,.6.1.9.2.6.1,1.1.2,1.7.3h.6c1.5.2,3,.4,4.5.5.4,0,.9,0,1.3,0,2.4,0,4.8-.4,7.8-1.4,1.4-.4,2.6-.6,4-.6s1.9.1,2.8.3c2.8.6,5.7,1.1,8.5,1.5.7.1,1.3.2,1.8.2s1.4,0,2.1-.3c.1,0,.2-.1.3-.3l2.2-6.5c0-.2,0-.5-.2-.5-.6-.3-.7-.7-.6-1.7,0-.3.1-.7.2-1.1l.7-3c1.7-6.7,3.4-13.4,5.1-20.1v-.2c.2-.6.4-1.3,0-2,0-.1-.2-.2-.4-.2h-.4c-.3,0-.5,0-.8,0-2.1,0-3.6-1.2-4.6-3.4-.6-1.3-.6-2.8-.1-4.5.2-.8.5-1.7.4-2.6,0-1.1,0-2.2-.2-3.2,0-1-.1-1.9-.2-2.9,0-1.1-.1-2.4-.7-3.5,0-.2-.2-.2-.4-.2s-.1,0-.2,0c-.6.3-1.2.5-1.8.8-1.4.6-2.7,1.1-4.1,1.7-1.7.7-3.2,1-4.5,1s-.4,0-.7,0c-1,0-1.5-.4-1.8-1.1l7-8.5c.1-.1.1-.3,0-.5-1.8-3-2.2-6.3-1.3-10.4,1-4.7,4-8.2,8.8-10.4,2.6-1.2,5.4-1.7,8.1-1.7s2.5.1,3.7.4c4,.8,7.5,3.1,10.5,7.2l.2.2c.3.5.7,1,1.1,1.4.8.8,1.3,1.6,1.4,2.6.1,2.2,1.2,4,2,5,0,0,0,0,.1,0l5.3,3.5c0,0,.1,0,.2,0,1.7,0,3.4.1,5.1.2,3.9.1,8,.3,12,.3,3.6,0,6.9.3,9.9.8,6.1,1,11.2,3.9,15.4,8.9,1.6,1.9,3.3,3.8,4.9,5.7,1.5,1.7,2.9,3.4,4.3,5,1.8,2.1,3.2,3.8,4.5,5.4,1.7,2.2,2,3.7.8,5.3,0,.1-.1.3,0,.5,3.5,6.6,6.1,14,8.4,23.3,0,.1.1.2.2.3,0,0,.1,0,.2,0s.1,0,.2,0l2.7-1.4c2-1.1,3.9-2.1,5.8-3.1,3.4-1.8,7-3.8,10.5-5.8.9-.5,1.8-.7,2.7-.7s.7,0,1,.1c.9.2,1.8.4,2.5.7,3.1,1.3,5.5,2.4,7.7,3.5,3.3,1.6,6.6,3.2,9.8,4.8l4.1,2c0,0,.1,0,.2,0s.2,0,.3,0l.3-.2c.2-.1.2-.3.1-.5-.4-.9-.9-1.9-1.3-2.9-.9-2-1.9-4.2-2.9-6.2-4.9-9.9-11-19.1-18.1-27.5-5.3-6.3-10.7-11.5-16.3-16.1-8-6.5-16.4-11.9-25-16.2-9.6-4.8-19.8-8.4-30.2-10.8-6.5-1.5-11.9-2.4-17.1-2.8-.7,0-1.5-.1-2.2-.2-3-.3-6-.5-9.1-.5,0,0-1.3,0-1.6,0-.7,0-1.4,0-2.2,0-.7,0-1.4,0-2.2,0-1.6,0-2.8,0-3.9,0-3.6.2-7.3.6-11,1.1-3.8.5-8.3,1.2-12.6,2.2-9.4,2.1-18.9,5.5-28.2,10-12.6,6.1-24.5,14.5-35.4,25-3.4,3.3-6.7,6.9-10.8,11.9-7.7,9.3-14.1,20-19.1,31.7-.4,1-.8,2-1.2,3-.2.5-.4,1-.6,1.4,0,.2,0,.5.2.6ZM241.2,99.9c.6-.3,1.2-.7,1.8-.8,1.4-.2,2.4-.8,3.3-1.8,2.5-2.5,7.2-1.7,9,1.3,2.1-.1,3.8.6,5.2,2.1.6.6,1.2,1.3.7,2.4-7.4,0-14.8,0-22.4,0,.3-1.7,1.2-2.5,2.3-3.2ZM101.2,79.2c3.7-3.8,8.3-3.9,11.9.3,2.9.5,5.7,1.2,7.2,4.7-9.2,0-18,0-26.9,0,.9-3,3-4.3,7.8-5ZM62.2,110c2-3.2,5-4.6,8.7-4.7,5.1-8.2,15.8-7.7,20-.3,5.7-1.8,8.2-.9,11.8,4.4,3.4.9,6.9,1.8,8.7,5.5-.7.7-1.4.4-2.1.4-7.8,0-15.7,0-23.5,0-8.9,0-17.8,0-26.6,0-.8,0-1.6.2-2.3-.2.5-2.5,2-3.9,5.3-5.1Z"/>
          <path class="cls-1" d="M297.4,173c0,0-.1,0-.2,0s-.1,0-.2,0c-1.6.8-2.4,2-2.4,3.6,0,3.4,0,6.7,0,9.8,0,1.3.6,2.3,1.8,2.9.3.2.6.3.9.4.1,0,.3,0,.4.1,0,0,0,0,.1,0,.2,0,.3,0,.4-.3,0,0,0-.1,0-.1,0-.1.2-.3.2-.5,0-3.9,0-7.8,0-11.7v-2.3c0-.7-.1-1.5-1-2Z"/>
          <path class="cls-1" d="M214.2,121.8c0,0,.2.1.3.1,0,0,0,0,0,0,.1,0,.2,0,.3-.1l6.9-6.1c.2-.1.2-.4,0-.6-.2-.3-.4-.6-.6-.9-.4-.7-.9-1.4-1.3-2-5.9-8.4-10.8-15.5-15.9-22.7-.4-.5-.8-.9-1.3-1.3-.2-.2-.4-.4-.6-.5,0,0-.2-.1-.3-.1s-.1,0-.2,0c-.3.1-.5.3-.8.4-.5.2-1,.5-1.5.8-1.2.7-2,1.7-2.9,2.9.4-2,1.2-3.3,3.2-5.4.1-.1.1-.3.1-.4,0-.1-.1-.3-.3-.3-5.4-1.7-11.1-2.1-16.6-2.5,0,0-.5,0-.5,0-.2,0-.4.2-.4.4-.6,4.8-1.7,9-3.2,12.9-2.2,5.4-4.7,9-8,11.7-2.2,1.8-4.4,2.6-6.6,2.6s-2.8-.4-4.3-1.1c-.3-.1-.6-.2-.9-.4-.2,0-.3-.1-.5-.2,0,0-.1,0-.2,0-.1,0-.3,0-.4.2-.6.8-1.5,1-2.5,1.1-.8.1-1.6.3-2.3.7-.2.1-.3.3-.2.5,0,.3.2.6.3.8.2.6.4,1.2.6,1.8,1.8,4.4,4.1,8.5,6.4,12.7l.9,1.6c3.3,5.9,6.8,11.9,9.5,18.2.6,1.3,1.1,2.6,1.6,3.9.3.6.5,1.2.8,1.9,0,.1.2.2.3.3,0,0,0,0,0,0,.1,0,.2,0,.3-.2,1.5-1.7,2.2-3.6,3-5.7.3-.9.7-1.9,1.1-2.8v.3c-.5,2.1-.9,4.4-1.4,6.5-.5,2-1,4-1.4,5.9-.7,2.7-1.3,5.4-2,8.2v.4c-.5,1.6-.8,3.3-.5,5.3,0,.2.2.4.4.4.6,0,1.3,0,1.9.1,1.4,0,2.7.2,4,.2.9,0,1.9,0,2.8,0h3.5c.8,0,1.6,0,2.4,0,.4,0,.8,0,1.2,0,3.5,0,6.7-.3,9.7-.8,1.8-.3,3.8-.8,5.9-1.9.2,0,.3-.3.2-.5,0-.2-.2-.3-.4-.3s-1.1,0-1.1,0c-.7,0-1.5,0-2.2,0-2.2,0-4.5,0-6.9-.4.6-.4,1.3-.9,1.9-1.3,2.1-1.5,4.2-2.8,6.2-4.3,3-2.2,6.1-6.3,6.8-8.3,0-.2,0-.4-.1-.5,0,0-.2-.1-.3-.1s-.1,0-.2,0c-3.9,2.2-8.2,3.9-12.4,5.6-2.5,1-5.1,2-7.6,3.1.5-.7,1.1-1.4,1.6-2.2,1.3-1.7,2.7-3.5,4-5.3,4.8-6.5,8.1-12.9,10.3-19.3,0-.2.1-.4.2-.8,0-.2,0-.4.1-.7,0-.2,0-.4-.2-.5,0,0-.1,0-.2,0-.1,0-.3,0-.4.2-.8,1.2-1.6,2.3-2.4,3.4-1.7,2.4-3.4,4.7-5.1,7-2,2.7-4.4,5.8-7.4,8.4.2-.7.4-1.3.6-1.9.4-1.3.8-2.6,1.2-3.9,2.4-8.4,4-15,5-21.2l.2-1.2c.4-2.5.9-5,.7-7.7,0-.1,0-.3,0-.4l4.8,4.3c0,0,.2.1.3.1s.1,0,.2,0c.2,0,.3-.3.2-.5l-.4-2.4c-.3-1.7-.6-3.3-.9-4.9-.6-3.5-.8-5-.5-6.3l14.2,16Z"/>
          <path class="cls-1" d="M280.7,214.7c.1,0,.2,0,.3-.1,0,0,.1-.2.1-.3v-59.7c0-.2-.2-.4-.4-.4h-39c-.2,0-.4.2-.4.4l-.4,5.3c0,.2,0,.3.2.4l1.8,1.2c0,.9,0,1.8,0,2.7,0,1.8.1,3.4-.6,4.8,0,0,0,.2,0,.2,0,.8.1,1.6.2,2.3.1,1.6.3,3.2.4,4.7.1,1.6.1,3.2.2,4.8h0c0,1.3-.2,2.1-.7,2.8-.2.3-.4.7-.7,1l-.3.4c-.1.2,0,.4,0,.5,3.8,3.8,6.3,8.6,7.8,14.5,0,.2.2.3.4.3h16.8c.8,0,1.6,0,2.4,0,1.8,0,2.9,1.1,3.1,2.9,0,.3,0,.6,0,1v.4s0,3.7,0,3.7c0,2.7,0,5.3,0,8,0,.3,0,.6,0,.9v.4c0,.2.2.4.5.4h2.4c.2,0,.4-.1.4-.3.7-2.2,2.2-3.2,5-3.2s.4,0,.4,0ZM273.3,181.8c0,2.4-1.1,3.8-3.5,4.3-.6.1-1.2.2-1.7.2-3.5,0-7,0-10.5,0-.6,0-1.3-.2-1.9-.3-1.6-.5-2.5-1.6-2.7-3.2,0-1-.2-2-.2-2.9,0-3,0-5.9,0-8.9,0-3.3,1.3-4.9,4.9-5.1,3.5-.1,7.1,0,10.7,0,.5,0,1,.1,1.6.2,2.2.4,3.4,1.8,3.5,4.1,0,2,0,3.9,0,5.9h0c0,1.9,0,3.8,0,5.7Z"/>
          <path class="cls-1" d="M274.9,242.5h-14.5c-.1,0-.3,0-.4.2,0,.1,0,.3,0,.4,2.5,5.2,7.6,8.8,12.4,8.8s1.9-.2,2.8-.5c.2,0,.3-.2.3-.3.3-2.2.3-7-.1-8.3,0-.2-.2-.3-.4-.3Z"/>
          <path class="cls-1" d="M272.4,137.4c-.9-.3-1.8-.4-2.4-.4,0,0-.2,0-.3,0-1.5,0-2.7.7-3.9,1.3l-.3.2c-2.9,1.6-5.5,2.5-8.1,2.9-3.8.5-7.3.7-10.5.7h-2.1s-3.2,0-3.2,0c-.1,0-.2,0-.3.1,0,0-.1.2-.1.3l.3,6.5c0,.2.2.4.4.4h51.9c.1,0,.3,0,.4-.2,0-.1.1-.3,0-.4l-2.2-6.1c0-.2-.2-.3-.4-.3-4.9-.5-9.2-1.5-13-3-2-.8-3.9-1.5-6.1-2.2Z"/>
          <path class="cls-1" d="M255,203.4h-4.1c-.2,0-.4.2-.4.4,0,1.6.3,3,.6,4.4,0,.4.2.9.3,1.3,0,.2.2.4.4.4h3.3c.2,0,.4-.2.4-.4.1-2,.2-3.9,0-5.8,0-.2-.2-.4-.4-.4Z"/>
          <path class="cls-1" d="M270.3,170.3c-.2-.9-.9-1.5-1.8-1.6-1.4,0-2.9-.3-4.2.5v14c1.6,0,3,.2,4.4,0,1.5-.2,1.7-.6,1.7-2.1,0-3.2,0-6.4,0-9.6,0-.4,0-.8-.1-1.2Z"/>
          <path class="cls-1" d="M256,171.2c0,3.1,0,6.2,0,9.3,0,.4,0,.8,0,1.2,0,1.2.6,1.8,1.8,1.8,1.4,0,2.7-.1,4.2-.2v-14.3h-5.7c-.1.8-.3,1.5-.3,2.2Z"/>
          <path class="cls-1" d="M77.9,179.5h0c-.2,0-.4.2-.4.4l-1.8,14c-1.2-1.3-2.3-2.7-3.3-4-1-1.3-2-2.7-3.2-3.9,0,0-.2-.1-.3-.1s-.2,0-.3,0c-.2.1-.2.4-.1.6,1.3,2.6,2.7,5.2,4,7.5l4.2,7.7c0,.1.2.2.4.2s0,0,0,0c.2,0,.3-.1.4-.3.7-2.6,1.3-18.7.9-21.7,0-.2-.2-.4-.4-.4Z"/>
          <path class="cls-1" d="M308.6,179.5c0-.9-.1-1.9-.2-2.8-.2-4-.5-8.1-1.2-12.3l-.3-2.1c-.6-3.4-1.1-6.9-1.9-10.3-1.9-8.3-4.7-16.6-8.6-25.3-6.3-14.2-15.1-27.4-26-39.2-5.3-5.7-10.9-10.9-16.6-15.4-14-10.9-29.7-19.1-46.6-24.4-6-1.9-12.1-3.3-18.1-4.4-3.7-.6-7.6-1.3-11.5-1.6-1.1,0-2.1-.2-3.2-.3-2-.2-4-.4-6.1-.4h-1.8c-1.5,0-2.9,0-4.4,0-3.3,0-5.9.1-8.3.3l-2.2.2c-3.1.3-6.3.6-9.5,1-5.3.7-10.9,1.9-16.5,3.4-15.5,4.2-29.8,10.8-42.6,19.5-6.5,4.4-12.8,9.5-18.9,15.2-4.6,4.3-9.1,9.2-14.5,15.9-9.3,11.7-16.7,24.8-22.3,40.3-3.9,10.6-6.3,20.4-7.3,30.1l-.2,1.8c-.4,3.4-.8,7-.8,10.6,0,3.6,0,7.2.2,10.7,0,1.5.1,3,.1,4.4,0,.3,0,.6,0,.8.1,1.1.3,2.3.4,3.5.3,2.7.7,5.4,1.1,8.1.5,3.2,1.2,7.5,2.2,11.7,2.2,9.2,5.6,18.5,10.1,27.8,6.8,14,15.9,26.8,27,38.1,4.9,4.9,10.3,9.7,16.1,14,13.9,10.4,27.4,17.6,41.4,22.1,8.3,2.7,15.3,4.4,21.7,5.5,2.8.4,5.6.8,8.7,1.2,2.5.3,5.1.6,7.8.7,1,0,2,0,3.3,0s1.5,0,2.2,0h.4c.7,0,1.4,0,2.1,0,1,0,2,0,3,0,6.5,0,11.8-.4,16.7-1.2,1.1-.2,2.3-.4,3.4-.5h.3c2.8-.5,5.8-1,8.7-1.6,14-3.3,26.9-8.3,38.4-14.7,12.1-6.8,22.5-14.6,31.6-23.8,5.9-5.9,10.2-10.8,13.8-15.7,10.3-13.7,18.1-29.2,23.2-45.9,3-9.8,4.8-19.5,5.4-28.7.3-5,.6-10.7.3-16.5ZM303.6,195.7c-.5,8.9-2.3,18.2-5.2,27.6-4.9,16.2-12.5,31.1-22.5,44.4-3.5,4.7-7.7,9.4-13.4,15.2-8.8,8.8-18.8,16.4-30.5,23-11.1,6.3-23.6,11.1-37.2,14.3-2.7.6-5.6,1.1-8.3,1.5-1.3.2-2.5.4-3.8.6-4.6.8-9.7,1.2-15.9,1.2s-1.9,0-2.9,0h0c-.8,0-1.6,0-2.4,0s-1.6,0-2.4,0c-1.2,0-2.2,0-3.1,0-2.5-.1-5-.4-7.4-.7-3-.4-5.8-.8-8.5-1.2-6.2-1-12.9-2.7-21-5.3-13.4-4.3-26.5-11.3-39.9-21.4-5.6-4.2-10.9-8.8-15.6-13.5-10.8-10.9-19.6-23.3-26.1-36.9-4.4-9-7.6-18-9.7-26.8-1-4.1-1.7-8.2-2.2-11.3-.4-2.7-.8-5.4-1.1-8-.1-1.2-.3-2.3-.4-3.5,0-.1,0-.2,0-.3,0-1.5,0-3-.1-4.5-.1-3.4-.2-7-.2-10.5,0-3.4.4-6.8.8-10.1l.2-1.8c1-9.3,3.3-18.8,7-29,5.5-15,12.5-27.7,21.6-39,5.2-6.5,9.5-11.3,14-15.4,5.9-5.5,12.1-10.5,18.4-14.8,12.4-8.4,26.2-14.8,41.2-18.8,5.4-1.5,10.8-2.6,15.9-3.3,3.1-.4,6.3-.7,9.3-1l2.2-.2c2.3-.2,4.7-.3,7.9-.3s2.9,0,4.3,0h1.8c1.9,0,3.8.2,5.7.4,1.1.1,2.2.2,3.3.3,3.7.3,7.5.9,11,1.5,5.8,1,11.7,2.4,17.5,4.2,16.4,5.1,31.6,13,45.1,23.6,5.5,4.3,10.9,9.3,16,14.8,10.6,11.5,19.1,24.2,25.2,37.9,3.8,8.5,6.5,16.4,8.3,24.4.7,3.3,1.3,6.7,1.9,10.1l.3,2.1c.7,3.9.9,7.9,1.1,11.8,0,1,.1,1.9.2,2.9.4,5.5,0,11-.3,15.9Z"/>
          <path class="cls-1" d="M71.2,218c.3,0,.7,0,1.1,0,2-.2,3.3-1.6,3.5-3.7,0-.4,0-.9.1-1.3,0-.7.2-1.5.2-2.2,0-1.5,0-3.1,0-5,0-.5-.2-1.1-.4-1.5-1-1.6-1.9-3.3-2.9-4.9l-1-1.7c0-.1-.2-.2-.3-.2,0,0,0,0,0,0-.1,0-.2,0-.3.1-2.5,2.7-5.4,4-8.8,4s-1.8,0-2.8-.3c-4.6-.9-7.8-3.8-9.3-8.4,0-.1-.2-.3-.3-.3-.4-.1-.8-.2-1.2-.3-.8-.2-1.6-.4-2.3-.6-3.6-1.4-6.5-4-8.6-7.9-1.4-2.6-1.5-5.6-.5-8.3.8-2.2,2.3-3.8,4.2-4.5.2,0,.3-.3.4-.4.1-.1.2-.4,0-.5-1.4-2.7-1.3-5.9.4-9,1.7-3.1,4.5-5.3,7.3-5.6.2,0,.4-.2.4-.4,0-.3,0-.6,0-1,0-2,0-3.8.8-5.6,1-2.2,2.4-3.9,4.1-5.2.1,0,.2-.2.2-.4,0-.2-.1-.3-.3-.4-.2-.1-.5-.2-.7-.2-.6,0-1,.3-1.3.5h-.1c-2.7,2-4.5,4.3-5.6,7.3h-13c-.2,0-.4.1-.4.3-.2.7-.4,1.4-.6,2.1-.4,1.6-.8,3.1-1.1,4.6-1,4.3-1.7,8.6-2.1,12.8v1c-.4,3.2-.7,6.6-.7,9.9,0,5.2,0,10.8.8,16.4.1,1,.2,2,.3,3,.2,1.6.3,3.2.6,4.8.5,2.8,1.1,5.6,1.7,8.6.3,1.2.5,2.5.8,3.8,0,.2.2.4.4.4h37.1s.3,0,.3,0Z"/>
          <path class="cls-1" d="M295,217.6h-16.3c-.2,0-.4.2-.4.4,0,.4,0,.7,0,1,0,.6-.1,1.2-.1,1.8,0,7.1,0,14.3,0,21.4v7.9c0,.2,0,.3.2.4,0,0,.1,0,.2,0s.2,0,.2,0l3.4-2.3c.1,0,.2-.2.2-.4v-2.3c0-1.7,0-3.4,0-5.1,0-4.2,0-8.6,0-12.9,0-2.1.9-3.8,1.9-5.2.4-.5.8-.8,1.5-.8,1.1-.1,2.4-.2,3.7-.5,2-.3,4-.9,5.9-2.7.1-.1.2-.3,0-.5,0-.2-.2-.3-.4-.3Z"/>
          <path class="cls-1" d="M248,212.3h-16.5c-.2,0-.4.2-.4.4v11.8c0,.2.2.4.4.4h18.7c.1,0,.3,0,.3-.2,0,0,.1-.2,0-.4l-2.2-11.8c0-.2-.2-.4-.4-.4Z"/>
          <path class="cls-1" d="M238.4,187.2c0,0-.2-.1-.3-.1s-.2,0-.2,0c-.8.5-1.7.7-2.7.7-1.4,0-2.9-.5-4.4-1.1,0,0-.1,0-.2,0,0,0-.2,0-.2,0-.4.2-.8.4-1.3.4s-1-.1-1.5-.2c-.4,0-.9-.2-1.3-.2,0,0,0,0,0,0-.2,0-.4.1-.4.3-.3,1.4-.6,2.8-.9,4.3-.7,3.3-1.4,6.4-2.2,9.6-1,3.8-1.5,7.4-1.6,11.2,0,.4,0,.9-.1,1.3,0,.4,0,.8-.1,1.2,0,.7,0,1.3,0,2.1,0,.3,0,.6,0,1s0,.2.1.3c0,0,.2.1.3.1s0,0,0,0c.6,0,1.2,0,1.8,0s2.2,0,2.2,0c.8,0,1.8,0,2.8-.1.2,0,.4-.2.4-.4v-4.6c0-3,0-6,0-9,0-.6.1-1.2.3-1.7.5-1.1,1.5-1.7,2.9-1.7,2.2,0,4.3,0,6.4,0h5.7c.4,0,.7,0,1.1,0,.2,0,.3,0,.5,0,.1,0,.2,0,.3-.2,0,0,.1-.2,0-.3-.9-4.5-3.6-9.1-7.5-12.7Z"/>
          <path class="cls-1" d="M246.3,203.3h-5.4c-2.8,0-5.7,0-8.5,0-.3,0-.5,0-.8.2-.1,0-.2,0-.3.1-.2,0-.3.3-.3.5,0,.7,0,1.5,0,2.2,0,1.1,0,2.2.2,3.4,0,.2.2.3.4.3h15.7c.2,0,.4-.2.4-.4.2-2.2-.3-4.4-1.1-6.1,0-.1-.2-.2-.4-.2Z"/>
        </g>
        <path class="cls-1" d="M202.2,21.7c.4,0,.7.1,1.1.1s.7,0,1.1-.2c.7-.2,1.2-.9,1.4-1.8.2-1,0-1.8-.4-2.3-.5-.5-1.1-.8-1.9-1-.8-.2-1.5-.2-2.1,0-.7.2-1.2.9-1.4,1.8-.2,1,0,1.8.4,2.3.5.5,1.1.8,1.9,1Z"/>
        <path class="cls-1" d="M45.2,284.4c.9-.2,1.8-.6,2.6-1.3,1.3-1.1,2-2.3,2-3.6s-.6-2.8-1.9-4.4l-3.3-4.2-13.1,10.5,2.2,2.8,4.7-3.7,1.1,1.3c.9,1.2,1.9,2,2.9,2.4,1,.4,1.9.5,2.9.3ZM43.3,281c-.7-.2-1.3-.7-1.8-1.3l-.9-1.1,3.9-3.1,1.1,1.3c.6.7.9,1.4.8,2,0,.6-.4,1.1-.9,1.6-.8.6-1.5.8-2.2.6Z"/>
        <path class="cls-1" d="M56.5,294.4c.4-1.1.4-2.1.2-3.1-.3-1-.8-2-1.7-2.9-1.4-1.4-2.9-2.1-4.5-2.1-1.6,0-3.2.8-4.7,2.2-1,1-1.7,2-2,3.1-.4,1.1-.4,2.1-.1,3.2s.8,2,1.7,2.9c1.4,1.4,2.9,2.1,4.5,2,1.6,0,3.2-.8,4.7-2.3,1-1,1.6-2,2-3ZM53.6,292.4c-.2.8-.8,1.6-1.7,2.4-.9.9-1.8,1.4-2.6,1.6-.8.2-1.5,0-2.2-.7-.6-.7-.9-1.4-.6-2.2.2-.8.8-1.6,1.7-2.5.9-.9,1.8-1.4,2.6-1.6.8-.2,1.5,0,2.1.7.7.7.9,1.4.6,2.2Z"/>
        <rect class="cls-1" x="51.3" y="297.4" width="17.9" height="3.5" transform="translate(-203.7 145.9) rotate(-48.5)"/>
        <path class="cls-1" d="M73.3,304.8l-6.7,4.6c-.2.2-.5.3-.8.5-.3.2-.5.4-.7.6h0c.1-.3.3-.6.4-.9s.3-.6.4-.9l2.7-7.6-2.9-2.3-3.7,13.1-.7.4c-.6.4-1.2.6-1.7.7-.5.1-1.1,0-1.6-.5-.2-.2-.4-.3-.6-.5-.2-.2-.3-.3-.4-.5l-1.7,2.2c.1.2.3.4.5.6.2.2.4.4.7.6,1.2.9,2.3,1.3,3.4,1.2,1.1,0,2.3-.5,3.6-1.4l12.8-8-2.8-2.2Z"/>
        <path class="cls-1" d="M84.8,312.5l-3.2,5.1c-.7,1.2-1.5,2-2.2,2.3-.7.4-1.5.3-2.4-.2-1.2-.7-1.2-1.9-.2-3.6l3.9-6.2-3-1.9-4.5,7.1c-.9,1.4-1.1,2.6-.8,3.7.3,1.1,1,2,2.1,2.7.8.5,1.6.8,2.4.8s1.5,0,2.2-.5h.2c0,.1-.6,1.9-.6,1.9l2.2,1.4,6.8-10.9-3-1.9Z"/>
        <path class="cls-1" d="M98.7,320c-.1,0-.3-.2-.5-.4-.2-.2-.5-.3-.7-.4-.7-.4-1.5-.5-2.3-.4-.8.1-1.5.4-2,.8h-.1c0,0,.5-2.2.5-2.2l-2.4-1.2-5.9,11.4,3.1,1.6,3-5.8c.4-.8.8-1.3,1.3-1.6.5-.3,1-.4,1.5-.3.5,0,1,.2,1.4.4.3.2.6.3.8.5.2.1.4.3.5.4l1.8-2.8Z"/>
        <path class="cls-1" d="M105.6,322.8c-1.8-.7-3.4-.8-4.8-.1s-2.6,2-3.5,4c-.6,1.4-.8,2.6-.6,3.7s.6,2.1,1.3,2.9c.7.8,1.7,1.5,2.9,2,1,.4,1.8.7,2.5.8s1.4.2,2.1.1l1-2.4c-.8,0-1.5,0-2.2-.1-.7-.1-1.3-.3-2.1-.6-1-.4-1.7-1-2-1.8-.3-.8-.3-1.6.1-2.5l7.7,3.2.6-1.5c.7-1.8.8-3.3.3-4.6-.5-1.3-1.6-2.3-3.3-3ZM105.9,328.6l-4.6-1.9c.4-.9,1-1.4,1.6-1.7.6-.2,1.3-.2,1.9,0,.7.3,1.2.8,1.3,1.4.2.7,0,1.4-.2,2.1Z"/>
        <path class="cls-1" d="M119.3,327.7c-1-.3-2-.5-2.8-.6-.9,0-1.7,0-2.5,0l.3,2.6c.7,0,1.4-.1,2-.1.6,0,1.2.1,1.7.3.6.2,1,.5,1.3.9.2.4.2,1,0,1.8v.4c-.1,0-2.3-.6-2.3-.6-1.8-.5-3.2-.5-4.4-.2-1.1.3-1.9,1.2-2.3,2.4-.4,1.3-.3,2.3.2,3.2.5.8,1.3,1.4,2.4,1.8,1.1.3,2,.4,2.7.3.7-.2,1.4-.5,2.1-1h0s0,2,0,2l2.3.7,2.5-8.1c.4-1.4.4-2.7-.2-3.7-.6-1-1.6-1.7-3.1-2.2ZM118.3,335.9c-.2.7-.6,1.3-1.2,1.6-.6.3-1.3.4-2,.1-.5-.2-.9-.4-1.1-.8-.2-.4-.2-.8,0-1.3.4-1.2,1.5-1.5,3.4-1l1.3.3-.3,1Z"/>
        <path class="cls-1" d="M148.7,339.5c-.1.3-.3.7-.4,1.2-.2.5-.3.9-.5,1.4-.2.5-.3.9-.4,1.3,0-.6,0-1.2,0-1.9,0-.7,0-1.4-.2-2.1,0-.7-.1-1.2-.2-1.7l-.9-8.2-3.3-.4-3,7.6c-.2.4-.4,1-.6,1.6-.2.6-.5,1.3-.7,2s-.4,1.3-.6,1.8c0-.4,0-.8,0-1.3,0-.5,0-1-.1-1.5,0-.5,0-.9-.1-1.2l-1-9.7-3.4-.4,2.1,17.2,4.1.5,3.3-8.7c0-.2.2-.5.3-.9.1-.4.3-.8.4-1.3s.3-.9.4-1.2c0,.4,0,.8,0,1.3,0,.5,0,1,.1,1.4,0,.4,0,.8,0,1l1,9.1,4.1.5,6.4-16.1-3.4-.4-3.5,9.2Z"/>
        <path class="cls-1" d="M162.9,334.3c-1,0-2,0-2.9.2-.9.2-1.7.4-2.4.8l1,2.4c.6-.3,1.3-.5,1.9-.7.6-.2,1.2-.2,1.8-.2.6,0,1.1.2,1.5.5.3.3.5.9.5,1.7v.4s-2.2,0-2.2,0c-1.8,0-3.3.4-4.2,1-1,.7-1.5,1.6-1.5,3,0,1.3.3,2.3,1,3,.7.7,1.6,1,2.8,1,1.1,0,2-.1,2.7-.5.6-.4,1.2-.9,1.7-1.6h0s.7,1.9.7,1.9h2.4s.1-8.4.1-8.4c0-1.5-.4-2.7-1.2-3.5-.8-.8-2-1.2-3.6-1.2ZM164.2,342.5c0,.8-.3,1.4-.7,1.9-.5.5-1.1.7-1.9.7-.5,0-1-.2-1.3-.4s-.4-.7-.4-1.2c0-1.2,1-1.9,3-1.9h1.4s0,1,0,1Z"/>
        <path class="cls-1" d="M178.7,344.1c-.3,0-.7.2-1.1.2-1,0-1.5-.5-1.6-1.6l-.4-5.9,3.4-.2-.2-2.7-3.4.2-.2-2.7-2.3.2-.7,2.9-1.9,1.2v1.5c.1,0,1.8-.1,1.8-.1l.4,6.1c.1,1.6.5,2.7,1.3,3.3.7.6,1.7.8,2.9.7.7,0,1.3-.2,1.8-.3.5-.2.9-.3,1.3-.6l-.2-2.6c-.3.1-.7.3-1,.4Z"/>
        <path class="cls-1" d="M193.7,337.5c-.3-1.9-1-3.2-2.1-4.1-1.1-.9-2.6-1.2-4.4-.9-1.9.3-3.3,1.1-4.2,2.4s-1.2,3-.9,5.2c.2,1.5.7,2.6,1.4,3.5.7.9,1.5,1.5,2.6,1.8,1,.3,2.2.4,3.5.2,1-.2,1.9-.4,2.5-.6.7-.3,1.3-.6,1.9-1l-.4-2.6c-.7.4-1.3.8-1.9,1s-1.3.4-2.1.5c-1.1.2-1.9,0-2.6-.5-.6-.5-1-1.2-1.2-2.2l8.2-1.3-.2-1.6ZM185.5,338.1c0-1,.1-1.7.5-2.2s1-.9,1.7-1c.8-.1,1.4,0,1.9.5.5.5.8,1.1.9,1.9l-5,.8Z"/>
        <path class="cls-1" d="M203.5,329.2c-.3,0-.6,0-.8.1-.8.2-1.5.6-2,1.2s-.9,1.2-1,1.9h-.2s-1-1.9-1-1.9l-2.6.6,3,12.5,3.4-.8-1.5-6.4c-.2-.8-.2-1.5,0-2,.2-.5.5-.9.9-1.2.4-.3.9-.5,1.4-.6.4,0,.7-.1.9-.2.2,0,.5,0,.6,0l-.4-3.3c-.2,0-.4,0-.7,0Z"/>
        <path class="cls-1" d="M217.2,326.6c-1.1-.8-2.4-1-3.8-.5-1,.3-1.6.8-2.1,1.4s-.7,1.2-.8,1.9h-.2c0,0-1.1-1.7-1.1-1.7l-2.7.9,5.8,17.5,3.3-1.1-1.5-4.6c-.1-.4-.3-.8-.4-1.2-.1-.4-.3-.7-.4-1h.1c.4.3.9.6,1.6.8.7.2,1.4.1,2.4-.2,1.4-.5,2.3-1.4,2.8-2.7.5-1.4.4-3.1-.3-5.2-.7-2-1.6-3.4-2.7-4.3ZM216.8,335c-.2.7-.7,1.2-1.4,1.4-.8.3-1.5.2-2.1-.3-.6-.5-1-1.3-1.5-2.6v-.3c-.4-1.1-.5-2-.3-2.7.2-.7.7-1.2,1.5-1.5.7-.2,1.4-.2,2,.3.6.4,1.1,1.3,1.5,2.6.4,1.3.5,2.3.3,3Z"/>
        <path class="cls-1" d="M226.8,324.7c.4-.4.8-.6,1.2-.8.4-.2.7-.3.9-.3s.4-.1.6-.1l-1-3.2c-.2,0-.4,0-.6.2s-.5.2-.8.3c-.7.3-1.3.8-1.7,1.5-.4.7-.6,1.4-.7,2.1h-.2c0,0-1.3-1.7-1.3-1.7l-2.4,1,5.1,11.8,3.2-1.4-2.6-6c-.3-.8-.5-1.4-.4-2,0-.5.3-1,.7-1.4Z"/>
        <path class="cls-1" d="M241.4,316.8c-.9-.6-1.9-1-3-1s-2.1.2-3.3.8c-1.7.9-2.8,2.2-3.3,3.7-.4,1.5-.2,3.2.8,5.1.7,1.2,1.4,2.2,2.4,2.8s1.9,1,3,1c1.1,0,2.1-.2,3.2-.8,1.7-.9,2.8-2.2,3.2-3.7.4-1.6.1-3.3-.9-5.1-.6-1.2-1.4-2.1-2.3-2.8ZM240.1,326.1c-.8.4-1.6.4-2.3,0-.7-.4-1.3-1.2-1.9-2.3-.6-1.1-.9-2.1-.8-2.9,0-.8.5-1.4,1.3-1.8.8-.4,1.6-.4,2.3,0s1.3,1.2,1.9,2.3c.6,1.1.9,2.1.9,2.9,0,.8-.4,1.4-1.3,1.9Z"/>
        <path class="cls-1" d="M254.2,308.6c-1-.6-2-.8-3-.7s-2.1.4-3.2,1.1c-1.6,1.1-2.6,2.4-2.9,4-.3,1.6.2,3.2,1.3,5,.8,1.2,1.6,2,2.6,2.6s2,.8,3.1.7,2.1-.4,3.1-1.1c1.6-1.1,2.6-2.4,2.8-4,.3-1.6-.2-3.3-1.4-5-.8-1.1-1.6-2-2.6-2.5ZM253.9,317.9c-.8.5-1.5.6-2.3.2-.7-.4-1.5-1.1-2.2-2.1-.7-1.1-1.1-2-1.1-2.8s.4-1.5,1.1-2c.8-.5,1.5-.6,2.3-.2.7.4,1.4,1.1,2.1,2.1.7,1.1,1.1,2,1.1,2.8,0,.8-.3,1.5-1.1,2Z"/>
        <path class="cls-1" d="M262.9,301.6l-1.7-2.1-2.2,1.7-.4-.6c-.4-.5-.6-.9-.6-1.3,0-.4.2-.7.6-1,.2-.2.5-.4.7-.5.3-.1.5-.3.7-.3l-.9-2.3c-.5.2-1,.4-1.4.6-.4.2-.9.5-1.4.9-1.2.9-1.8,1.9-1.8,2.8,0,1,.4,2.1,1.4,3.3l.4.5-1,1.9,1.1,1.4,1.5-1.2,6.3,8,2.8-2.2-6.3-8,2.2-1.7Z"/>
        <path class="cls-1" d="M263.2,295.5c.4-.4.7-.8.8-1.2.1-.4,0-.9-.4-1.4-.4-.5-.9-.7-1.3-.6-.4,0-.9.3-1.3.6-.4.4-.7.8-.8,1.2-.1.4,0,.9.5,1.4.4.5.9.7,1.3.6.4,0,.9-.3,1.3-.6Z"/>
        <rect class="cls-1" x="266.8" y="295.2" width="3.5" height="12.9" transform="translate(-132.2 251.7) rotate(-41.2)"/>
        <path class="cls-1" d="M276.6,286.2c-1.1,0-2.1.6-3.1,1.5-.7.7-1.2,1.5-1.3,2.2-.2.8-.2,1.5,0,2.2h0c0,.1-1.7-.9-1.7-.9l-1.9,1.9,9.2,9,2.5-2.5-4.3-4.2c-1-1-1.6-1.9-1.8-2.7-.2-.8,0-1.6.7-2.3,1-1,2.2-.8,3.6.6l5.2,5.2,2.5-2.5-6-5.9c-1.2-1.1-2.3-1.7-3.4-1.6Z"/>
        <path class="cls-1" d="M296.5,281.2l-10.1-8.2-1.9,2.4,1.2,1.3h0c-.6,0-1.3,0-2,.3-.7.2-1.3.7-1.9,1.4-.9,1.2-1.2,2.5-.9,3.9.3,1.4,1.4,2.8,3.1,4.2,1.7,1.4,3.2,2,4.7,2.1,1.4,0,2.6-.5,3.5-1.6.6-.7.9-1.5,1-2.2,0-.7,0-1.4-.4-2h0c.5.4.9.8,1.3,1.1l.3.3c.6.5,1,1.1,1,1.8s-.3,1.4-1,2.3c-.6.8-1.2,1.4-1.8,1.8-.6.4-1.2.9-1.9,1.2l2.3,1.9c.6-.4,1.3-.8,1.8-1.4.6-.5,1.2-1.2,1.8-2,1.4-1.7,2.1-3.3,2-4.7,0-1.4-.8-2.7-2.2-3.8ZM290.8,284.1c-.5.7-1.2,1-1.9.9s-1.6-.5-2.7-1.3c-1-.8-1.6-1.6-1.9-2.4-.3-.8-.1-1.5.4-2.2.6-.8,1.3-1.1,2-.9.7.1,1.5.6,2.4,1.3l.5.4c.8.6,1.3,1.3,1.6,2s0,1.4-.5,2.2Z"/>
        <g>
          <path class="cls-1" d="M24.5,123.7l-8.2-3.6.8-1.9,10.3-1.2,2.7-6.2-12.4,2.1c-.1-1.3-.5-2.5-1.1-3.6-.7-1.2-1.8-2.1-3.2-2.8-2.2-1-4.2-.9-6,.1-1.7,1-3.2,3-4.4,5.8l-3,6.8,22.1,9.7,2.3-5.3ZM6.6,115.9l.6-1.4c.6-1.3,1.2-2.1,1.8-2.5.6-.4,1.3-.4,2.2,0,1.1.5,1.7,1.1,1.8,1.9.2.8,0,1.8-.4,2.7l-.7,1.6-5.4-2.4Z"/>
          <path class="cls-1" d="M21.7,107c1.7,1,3.4,1.6,5,1.7.2,0,.4,0,.6,0,1.4,0,2.7-.3,3.9-1,1.4-.8,2.5-1.9,3.4-3.4,1.5-2.4,1.9-4.8,1.2-7.1-.7-2.2-2.3-4.2-4.9-5.7-1.7-1-3.3-1.6-4.9-1.7-1.6-.1-3.1.2-4.5.9-1.4.7-2.5,1.9-3.5,3.5-1.5,2.4-1.9,4.8-1.3,7.1.6,2.3,2.2,4.2,4.8,5.8ZM22.1,96.6c.6-.9,1.3-1.4,2.2-1.4s0,0,.1,0c1,0,2.3.5,3.7,1.3,1.4.9,2.4,1.8,2.9,2.7.5.8.4,1.7-.2,2.7-.6,1-1.3,1.4-2.3,1.4-1.1,0-2.3-.5-3.8-1.3-1.4-.9-2.4-1.8-2.9-2.7-.4-.9-.4-1.7.2-2.7Z"/>
          <path class="cls-1" d="M29,87.4c.9.7,1.7,1.1,2.5,1.2.8.1,1.7,0,2.5-.3.8-.3,1.7-.7,2.6-1.3,1.4-.8,2.4-1.4,3-1.7.7-.3,1-.1,1.3,0,.3.2.4.5.4.9,0,.5-.4,1.1-.9,1.8-.5.6-1.1,1.3-1.9,2-.8.7-1.7,1.4-2.8,1.9l-.6.3,4,3,.3-.2c1.7-1,3.3-2.5,4.8-4.5,1.6-2.1,2.4-4.1,2.3-5.7-.1-1.7-.9-3.1-2.3-4.1-.9-.7-1.8-1.1-2.7-1.2-.8,0-1.7,0-2.6.3-.8.3-1.7.8-2.7,1.4-.9.5-1.6,1-2.1,1.3-.6.4-1,.5-1.2.5-.2,0-.4,0-.6-.2-.2-.2-.3-.4-.3-.7,0-.4.3-.9.7-1.4.3-.5.9-1,1.6-1.5.7-.6,1.5-1.1,2.2-1.5l.4-.2-2.2-3.8-.4.2c-1,.5-1.9,1.1-2.7,1.8-.8.7-1.6,1.5-2.3,2.4-1.3,1.8-2.1,3.5-2.2,5.1-.1,1.7.6,3.1,2,4.2Z"/>
          <path class="cls-1" d="M46.8,80.1c.7.2,1.4.3,2,.3s1.8-.2,2.6-.5c1.5-.5,2.9-1.5,4.2-2.8,1-1.1,1.8-2,2.3-2.9.5-.9,1-1.8,1.3-2.8v-.3c0,0-3.2-3.2-3.2-3.2l-.2.7c-.3,1-.7,1.9-1.2,2.7-.4.8-1,1.5-1.8,2.3-1,1-1.9,1.5-2.9,1.5-.9,0-1.7-.3-2.5-1l8-8.3-2-1.9c-2-1.9-4-2.8-6.1-2.8-2.1,0-4.1,1-5.9,2.9-1.9,2-2.8,4.2-2.7,6.5.1,2.3,1.3,4.6,3.6,6.8,1.5,1.5,3.1,2.4,4.7,2.8ZM43.7,69c0-.8.3-1.5.9-2.2.6-.6,1.2-.9,1.9-.9s.2,0,.3,0c.7,0,1.4.4,2,.9l-4.2,4.3c-.6-.8-.9-1.5-.9-2.2Z"/>
          <path class="cls-1" d="M66.7,66.3l-5.6-6.9c-1.2-1.4-1.8-2.7-2-3.8-.1-1,.2-1.8,1.1-2.6.8-.7,2.1-1.3,4.2,1.3l6.7,8.3,4.5-3.6-7.6-9.4c-1.5-1.9-3.1-2.8-4.8-2.9-1.6,0-3.3.5-4.8,1.7-1.2.9-1.9,2-2.3,3.1-.3.8-.4,1.7-.4,2.5l-1.9-1.4-3.5,2.8,11.8,14.6,4.5-3.6Z"/>
          <path class="cls-1" d="M81.6,55.2l-.4-2c.6.2,1.3.4,2.1.4,1,0,2.1-.3,3.3-1,1.9-1.2,3-2.9,3.2-5.1.2-2.1-.5-4.5-2.1-7.1-1.6-2.6-3.4-4.3-5.3-5.1-2-.8-3.9-.6-5.7.5-1.2.7-2,1.6-2.5,2.7-.2.5-.4,1.1-.5,1.7,0,0,0-.2-.1-.2-.3-.6-.6-1.1-.9-1.6l-3.5-5.6-4.9,3,13.5,21.9,3.9-2.4ZM77.7,40.8c.8-.5,1.6-.5,2.4-.2.8.4,1.7,1.3,2.6,2.8.9,1.4,1.3,2.6,1.3,3.6,0,.9-.4,1.6-1.2,2.1-.9.6-1.7.6-2.4.3-.8-.4-1.6-1.3-2.5-2.7l-.4-.6c-2.3-3.7-.4-4.9.2-5.3Z"/>
          <path class="cls-1" d="M92.9,44c1.3,1,2.8,1.5,4.4,1.5.1,0,.2,0,.3,0,1.5,0,3-.4,4.6-1.1,1.3-.6,2.4-1.2,3.2-1.8.8-.6,1.6-1.3,2.2-2.1l.2-.2-1.9-4.2-.5.6c-.7.8-1.4,1.5-2.1,2-.7.5-1.5,1-2.5,1.5-1.3.6-2.4.7-3.3.3-.8-.3-1.5-.9-2-1.8l10.5-4.8-1.1-2.5c-1.1-2.5-2.7-4.1-4.7-4.9-2-.8-4.2-.6-6.6.5-2.5,1.1-4.2,2.8-4.9,5-.8,2.2-.5,4.8.8,7.6.9,1.9,2,3.4,3.3,4.3ZM97.9,30.8c.6.3,1.1.9,1.5,1.6l-5.5,2.5c-.3-.9-.3-1.7,0-2.4.3-.8.8-1.3,1.6-1.7.9-.4,1.6-.4,2.3,0Z"/>
          <path class="cls-1" d="M116.4,38.5l-3-9c-.3-1-.4-1.9-.3-2.5.2-.7.5-1.2.9-1.5.5-.4,1-.7,1.7-.9.5-.2.9-.3,1.2-.3.3,0,.6,0,.8-.1h.5s-1.2-5.5-1.2-5.5h-.4c-.2,0-.5.1-.9.2-.4,0-.8.2-1.2.3-1.2.4-2.1,1.1-2.8,2-.5.7-.9,1.4-1.1,2.2l-1.4-2.2-4.3,1.4,6,17.8,5.5-1.8Z"/>
          <path class="cls-1" d="M123.6,33.9c1.6,1.3,3.5,1.8,5.6,1.3,1.4-.3,2.5-.9,3.2-1.6.4-.4.7-.8.9-1.3,0,.4.1.7.2,1v.6c.3,1,.2,1.7-.3,2.4-.5.7-1.4,1.2-2.8,1.5-1.3.3-2.5.4-3.4.4-1,0-2-.1-3.1-.3h-.7c0-.1,1.1,4.9,1.1,4.9h.3c.7.2,1.5.2,2.3.2s.7,0,1,0c1.1,0,2.4-.3,3.8-.6,3.1-.7,5.3-1.9,6.5-3.6,1.2-1.7,1.5-3.8,1-6.3l-4-18.1-4.9,1.1v1.9c-.4-.4-1-.7-1.6-1-1-.4-2.2-.4-3.5,0-2.2.5-3.7,1.7-4.6,3.7-.9,1.9-1,4.4-.3,7.4.7,3,1.8,5.2,3.4,6.5ZM126,22.2c.3-.9,1-1.5,2-1.7,1.2-.3,2,0,2.6.6.6.7,1.1,1.8,1.4,3.3l.2.9c.3,1.3.3,2.4,0,3.3-.2.8-.9,1.3-2.1,1.6-1,.2-1.8,0-2.5-.6-.7-.6-1.2-1.8-1.6-3.5-.4-1.6-.4-3,0-4Z"/>
          <path class="cls-1" d="M154.9,31l-.2-12.9c0-.8,0-1.7-.1-2.6l5.2,15.4h5.3c0,0,4.7-15.7,4.7-15.7,0,.2,0,.4,0,.5,0,.7,0,1.4,0,2l.2,13h5.4c0,0-.4-24.3-.4-24.3h-7.4c0,.1-5.2,17.2-5.2,17.2l-5.9-16.9h-7.4c0,.1.4,24.3.4,24.3h5.3Z"/>
          <path class="cls-1" d="M183.3,32.4c1.6.2,3,.2,4-.2.8-.3,1.6-.8,2.3-1.4l.5,2.3,4.1.6,1.8-12.1c.3-2.2,0-4-1.2-5.3-1.1-1.3-2.8-2.2-5-2.5-1.5-.2-2.9-.3-4.1-.2-1.3,0-2.5.3-3.6.7h-.4c0,.1,1.2,4.5,1.2,4.5h.4c.9-.4,1.8-.6,2.7-.7.8-.1,1.6-.1,2.3,0,.7.1,1.3.4,1.6.8.3.4.4,1.1.3,2.1h0c0,.1-2.7-.2-2.7-.2-2.6-.3-4.7,0-6.3.7-1.6.8-2.6,2.2-2.9,4.2-.3,1.9,0,3.5,1,4.6.9,1.1,2.3,1.9,4,2.1ZM184.2,26.2c0-.5.3-1.8,3-1.8s.7,0,1,0h1.4c0,.1-.2,1.1-.2,1.1-.1.9-.5,1.6-1.2,2.1-.6.5-1.4.7-2.4.5-.6,0-1.1-.3-1.4-.7-.3-.3-.4-.8-.3-1.4Z"/>
          <rect class="cls-1" x="192" y="23" width="18.7" height="5.8" transform="translate(129.6 215.8) rotate(-76.6)"/>
          <path class="cls-1" d="M203.9,15.3c.4,0,.8.1,1.1.1s.8,0,1.1-.2c.7-.2,1.2-.9,1.5-1.9.2-1,0-1.8-.5-2.4-.5-.5-1.2-.8-2-1-.8-.2-1.6-.2-2.2,0-.7.3-1.2.9-1.5,1.9-.2,1,0,1.8.4,2.4.5.5,1.1.8,2,1Z"/>
          <path class="cls-1" d="M209.9,37.9l2.8-8.4c.6-1.7,1.3-3,2.1-3.7.8-.7,1.7-.8,2.8-.4,1,.3,2.2,1.1,1.2,4.2l-3.4,10.1,5.5,1.9,3.9-11.4c.8-2.3.7-4.1,0-5.6-.8-1.5-2.2-2.5-4-3.1-1.4-.5-2.7-.6-3.8-.3-.9.2-1.6.5-2.3,1l.2-2.3-4.3-1.4-6,17.7,5.5,1.9Z"/>
          <path class="cls-1" d="M225.6,42.7c.5,1.3,1.6,2.3,3.3,3.1,1,.4,1.8.7,2.5.9.7.1,1.4.2,2.1.2h.3s1.9-4.1,1.9-4.1h-.6c-.5,0-.9-.2-1.4-.3-.4,0-.9-.3-1.3-.5-.7-.3-1.4-.9-.7-2.4l3.3-7,4.3,2,1.9-4.2-4.3-2,1.6-3.4-3.6-1.7-2.9,3.1-3.2.2-1.2,2.5,2.1,1-3.4,7.3c-1,2.1-1.2,3.9-.7,5.2Z"/>
          <path class="cls-1" d="M238.5,39.6c-1.1,1.8-1.6,3.6-1.7,5.2,0,1.6.4,3.1,1.2,4.5.8,1.3,2.1,2.5,3.7,3.4,1.3.7,2.4,1.3,3.4,1.6,1,.3,2,.5,3,.6h.3s2.3-3.9,2.3-3.9h-.7c-1.1-.2-2-.3-2.9-.6-.8-.3-1.7-.7-2.6-1.2-1.2-.7-1.9-1.6-2.1-2.5-.2-.8,0-1.7.4-2.7l9.9,5.9,1.4-2.4c1.4-2.4,1.9-4.6,1.4-6.6-.5-2-1.9-3.8-4.2-5.1-2.4-1.4-4.7-1.8-7-1.2-2.2.6-4.2,2.3-5.8,5ZM249.2,39.5c.8.5,1.3,1.1,1.3,1.9,0,.7,0,1.4-.4,2.2l-5.2-3.1c.6-.8,1.3-1.2,2-1.4.8-.2,1.5,0,2.3.4Z"/>
          <path class="cls-1" d="M254.7,61l5.4-7c1.1-1.5,2.2-2.4,3.2-2.8.9-.4,1.8-.2,2.8.5.6.5.9,1.1.9,1.8,0,.7-.4,1.6-1.2,2.6l-6.6,8.4,4.6,3.6,7.4-9.5c1.5-1.9,2.1-3.7,1.8-5.3-.3-1.6-1.2-3.1-2.8-4.3-1.2-.9-2.4-1.4-3.5-1.6-.9,0-1.7,0-2.5.2l.9-2.1-3.5-2.8-11.5,14.8,4.6,3.6Z"/>
          <path class="cls-1" d="M281.1,68.4l-2-1.8c-1.9-1.8-3.8-2.8-5.5-3.2-1.8-.3-3.4.2-4.8,1.6-1.4,1.4-2.1,2.8-2,4.3,0,1.5.7,2.8,1.9,4.1,1.2,1.2,2.3,1.9,3.3,2.2.8.2,1.7.3,2.7.2l-1,2.2,2.9,2.9,8.6-8.6c1.6-1.6,2.3-3.2,2.3-5,0-1.7-.9-3.4-2.5-5-1-1-2.1-1.9-3.2-2.6-1.1-.7-2.2-1.2-3.3-1.6h-.4c0-.1-1.6,4-1.6,4l.4.2c.9.3,1.7.7,2.5,1.1.7.4,1.4.9,1.9,1.4.5.5.8,1.1.8,1.6,0,.5-.3,1.2-1,1.8h0ZM278.5,71l-.7.7c-.7.7-1.4,1-2.2,1h0c-.8,0-1.5-.3-2.2-1-.5-.5-.7-.9-.7-1.4,0-.4.2-.9.6-1.3.2-.2.6-.6,1.3-.6s1.6.4,3,1.6l1.1,1Z"/>
          <path class="cls-1" d="M281.9,87.3l7-5.4c1.5-1.1,2.7-1.8,3.8-1.9,1-.1,1.8.3,2.5,1.2.5.6.6,1.3.5,1.9-.2.7-.8,1.4-1.8,2.2l-8.4,6.5,3.5,4.6,9.6-7.4c1.9-1.5,2.9-3,3-4.7.1-1.6-.4-3.3-1.6-4.8-.9-1.2-1.9-2-3-2.4-.8-.3-1.6-.5-2.5-.5l1.4-1.8-2.7-3.5-14.8,11.5,3.5,4.6Z"/>
          <path class="cls-1" d="M292.9,98.8c-.5,2.2,0,4.6,1.4,7,.6,1,1.3,1.9,2,2.5.7.7,1.4,1.2,2.2,1.6h.2c0,.1,4.3-2.5,4.3-2.5l-.7-.4c-.7-.4-1.4-.9-2.1-1.5-.6-.6-1.2-1.2-1.6-1.9-.6-1-.7-2-.4-2.9.4-1,1.2-1.9,2.6-2.7,1.4-.8,2.6-1.2,3.7-1,1.1.2,1.9.7,2.5,1.7.3.5.6,1.1.7,1.7.2.6.3,1.3.4,2.1v.5c0,0,4.8-.8,4.8-.8v-.4c-.1-.9-.3-1.8-.6-2.7-.3-.9-.7-1.8-1.3-2.7-1-1.6-2.1-2.8-3.5-3.7-1.4-.9-2.9-1.3-4.6-1.3-1.7,0-3.4.6-5.3,1.7-2.7,1.6-4.3,3.6-4.9,5.8Z"/>
          <path class="cls-1" d="M319,111.5c-1.1-2.5-2.8-4.1-5.1-4.9-2.2-.8-4.8-.5-7.6.8-1.9.9-3.4,2-4.3,3.3-1,1.3-1.5,2.8-1.5,4.4,0,1.6.3,3.2,1.1,5,.6,1.3,1.2,2.4,1.8,3.2.6.8,1.3,1.6,2.1,2.2l.2.2,4.2-1.9-.6-.5c-.8-.7-1.5-1.4-2-2.1-.5-.7-1-1.5-1.5-2.5-.6-1.3-.7-2.4-.3-3.3.3-.8.9-1.5,1.8-2l4.8,10.5,2.5-1.1c2.5-1.1,4.1-2.7,4.9-4.7.8-2,.6-4.2-.5-6.6ZM315.2,115.8c-.3.6-.9,1.1-1.6,1.5l-2.5-5.5c.9-.3,1.7-.3,2.4,0,.8.3,1.3.8,1.7,1.6.4.9.4,1.6,0,2.3Z"/>
        </g>
      </g>
    </g>
  </g>
</svg>