<?xml version="1.0" encoding="UTF-8"?>
<svg xmlns="http://www.w3.org/2000/svg" version="1.1" viewBox="0 0 320 380">
  <defs>
    <style>
      .cls-1 {
        fill: #053245;
      }
    </style>
  </defs>
  <!-- Generator: Adobe Illustrator 28.6.0, SVG Export Plug-In . SVG Version: 1.2.0 Build 709)  -->
  <g>
    <g id="Layer_1">
      <g>
        <path class="cls-1" d="M286.6,286.6c11.3-15.1,19.9-32,25.5-50.4,3.3-10.7,5.2-21.3,5.8-31.3.3-5.5.7-11.8.3-18,0-1.1-.1-2.2-.2-3.2-.3-4.4-.5-9-1.3-13.4l-.4-2.3c-.6-3.8-1.3-7.6-2.1-11.4-2-9.1-5.1-18.1-9.4-27.7-6.9-15.6-16.6-30-28.6-43-5.8-6.3-11.9-12-18.1-16.8-15.3-12-32.5-21-51.2-26.8-6.6-2.1-13.3-3.7-19.8-4.8-4-.7-8.3-1.4-12.5-1.7-1.3,0-2.5-.2-3.8-.3-2.1-.2-4.3-.4-6.4-.5h-2c-1.6,0-3.3,0-4.9,0-3.6,0-6.3.1-8.9.4l-2.5.2c-3.5.3-7.1.7-10.6,1.1-5.8.8-11.9,2.1-18,3.8-16.9,4.6-32.6,11.8-46.7,21.4-7.1,4.8-14.1,10.5-20.8,16.7-5,4.7-9.9,10.1-15.9,17.5-10.2,12.7-18.2,27.2-24.5,44.2-4.2,11.6-6.8,22.3-8,32.9l-.2,2c-.4,3.8-.8,7.7-.9,11.5,0,3.9,0,8,.2,11.9,0,1.7.1,3.4.2,5.1,0,.1,0,.3,0,.4.2,1.3.3,2.6.5,3.9.4,3,.7,6.1,1.2,9.1.6,3.6,1.4,8.2,2.5,12.8,2.4,10,6.1,20.2,11,30.4,7.4,15.3,17.4,29.4,29.6,41.8,5.3,5.4,11.3,10.6,17.6,15.4,15.2,11.4,30.1,19.3,45.3,24.2,9.2,3,16.8,4.9,23.9,6,3.1.5,6.2.9,9.7,1.4,2.7.3,5.6.7,8.4.8,1,0,2.1,0,3.5,0s1.8,0,2.7,0c.9,0,1.8,0,2.7,0h0c1.1,0,2.2,0,3.3,0,7,0,12.7-.4,18-1.3,1.4-.2,2.9-.5,4.3-.7,3.1-.5,6.3-1,9.5-1.7,15.4-3.6,29.5-9.1,42.2-16.2,13.3-7.5,24.6-16,34.6-26.1,6.5-6.6,11.2-11.9,15.2-17.2ZM201,110.1c.3,1.8.7,3.7,1,5.6l.5,2.7c0,.2,0,.4-.2.5,0,0-.2,0-.2,0-.1,0-.2,0-.3-.1l-5.4-4.9c0,.2,0,.3,0,.5.2,3-.3,5.9-.8,8.7l-.2,1.4c-1.2,7.1-3,14.5-5.7,24.1-.4,1.5-.9,3-1.4,4.4-.2.7-.5,1.5-.7,2.2,3.4-2.9,6.1-6.4,8.4-9.5,1.9-2.6,3.8-5.2,5.8-8,.9-1.2,1.8-2.5,2.7-3.8,0-.1.2-.2.4-.2s.1,0,.2,0c.2,0,.3.3.3.6,0,.3-.1.5-.2.7,0,.4-.1.6-.2.9-2.4,7.3-6.2,14.5-11.6,21.9-1.5,2-3,4.1-4.5,6-.6.8-1.2,1.6-1.9,2.4,2.8-1.3,5.7-2.4,8.6-3.5,4.7-1.8,9.6-3.8,14-6.3,0,0,.2,0,.2,0s.2,0,.3.1c.2.1.2.3.1.5-.8,2.3-4.4,6.9-7.7,9.4-2.3,1.7-4.6,3.3-7,4.9-.7.5-1.4,1-2.2,1.5,2.6.4,5.3.5,7.8.5s1.7,0,2.5,0c0,0,1.3,0,1.3,0,.2,0,.4.2.5.4,0,.2,0,.4-.2.6-2.3,1.3-4.6,1.8-6.7,2.1-3.4.6-6.9.9-11,.9h0c-.4,0-.9,0-1.3,0-.9,0-1.8,0-2.7,0h-4c-1.1,0-2.1,0-3.2,0-1.5,0-2.9-.1-4.5-.2-.7,0-1.4,0-2.1-.1-.2,0-.4-.2-.5-.4-.3-2.3,0-4.2.5-6v-.4c.8-3.1,1.6-6.2,2.3-9.3.6-2.2,1.1-4.5,1.6-6.7.6-2.4,1.1-5,1.5-7.4v-.3c-.4,1.1-.8,2.1-1.2,3.2-.9,2.3-1.7,4.5-3.4,6.5,0,.1-.2.2-.4.2s0,0,0,0c-.2,0-.3-.1-.4-.3-.3-.7-.6-1.4-.9-2.1-.6-1.5-1.2-3-1.9-4.5-3.1-7.1-7-14-10.8-20.6l-1-1.8c-2.7-4.7-5.3-9.4-7.3-14.4-.3-.7-.5-1.4-.7-2-.1-.3-.2-.6-.3-.9,0-.2,0-.5.2-.6.9-.5,1.8-.7,2.7-.8,1.1-.2,2.1-.4,2.8-1.3,0-.1.2-.2.4-.2s.1,0,.2,0c.2,0,.4.2.6.2.4.1.7.3,1,.4,1.6.8,3.3,1.2,4.9,1.2,2.5,0,5-1,7.5-3,3.8-3,6.6-7.1,9.1-13.2,1.8-4.4,3-9.2,3.7-14.6,0-.2.2-.4.5-.4s.6,0,.6,0c6.2.4,12.7.9,18.8,2.8.2,0,.3.2.3.3,0,.2,0,.3-.1.5-2.3,2.4-3.2,3.9-3.6,6.1,1-1.4,2-2.5,3.3-3.3.5-.3,1.1-.6,1.7-.9.3-.1.6-.3.9-.4,0,0,.1,0,.2,0,.1,0,.2,0,.3.1.2.2.4.4.7.6.5.4,1,.9,1.4,1.5,5.8,8.3,11.4,16.2,18.1,25.8.5.8,1,1.5,1.5,2.3.2.3.4.7.7,1,.1.2,0,.5,0,.6l-7.8,7c0,0-.2.1-.3.1s0,0,0,0c-.1,0-.3,0-.3-.2l-16.1-18.1c-.3,1.4-.2,3.2.5,7.1ZM208.7,227.5c0,2-.6,3.6-1.9,5-.9.9-1.9,1.8-2.9,2.6h-.1c-.4.4-.8.7-1.3,1,0,0-.1,0-.2.1.5.5,1.1.9,1.8,1.4,1.3.9,2.6,1.9,3.3,3.5,0,.2,0,.5-.2.6-1.5,1-3.1,1.2-4.7,1.4-.8,0-1.6.2-2.3.4l7.4,8.4c0,0,.1.2.1.3.2,5.5-.8,11-2.8,16.6-1.1,3.2-3.3,5.8-6.7,8-.6.4-1.3.8-1.9,1.2l-.5.3c1,2.8,4.7,5.5,10.5,7.9.2,0,.3.3.3.5,0,.2-.1.4-.4.5-1.7.5-3.5.8-5.6.8s-3.3-.2-5.1-.4c.3.5.7.8,1.2,1.1,2.8,1.9,5.4,3,8.2,3.4.8.1,1.7.3,2.6.6.2,0,.4.3.3.6,0,.2-.2.4-.5.4h0c-5-.2-10.8-.8-15.8-4.4,0,0-.2-.2-.2-.3-.6-2.5-.2-4.9.2-7.2,0-.5.2-1,.2-1.5.2-1.2.3-2.4.5-3.7.4-2.7.8-5.5,1.1-8.2.3-3,.6-6,.9-8.9.1-1.3.2-2.6.4-3.9,0-.2,0-.4,0-.6,0-1.3,0-2.6.1-3.8.1-3,.2-6.1.3-9.1,0-3.7-.5-7.5-1.1-11.1,0,0-.2-1.2-.3-1.7-.3-1.9-.6-3.8-.7-5.8,0-1.6.1-3.3.3-4.8,0-.6.1-1.3.2-1.9.2-2.7.5-5.3.7-8v-.4c.2-1.5.3-3,.6-4.5.5-3.1,2.2-5.9,5-8.1,1-.8,2.1-1.5,3.2-2.2.1,0,.2-.2.3-.2-2,0-5.5.9-10.9,2.8,0,0-.1,0-.2,0-.1,0-.3,0-.4-.2-1.3-1.6-1.5-3.4-1.6-5.1v-.4c-.2-1.9-.2-3.8-.1-5.9,0-.9,0-1.7,0-2.6s.2-.5.5-.5h.5c3,0,6.2-.2,9.2-.2s4.5,0,6.5.1c.2,0,.4.2.5.4l.4,1.5c.8,3,1.5,5.9,1.7,8.9.3,3.7,0,7.5-.2,11.1,0,.8-.1,1.6-.2,2.3-.2,3.9-.4,7.9-.5,12.3,0,3.5,0,6.7,0,9.6ZM178.9,298.6c-1,.2-2.1.4-3.2.6-.5,0-1,.2-1.5.2,0,0,0,0,0,0-.1,0-.2,0-.3,0-.1,0-.2-.2-.2-.3-.3-2,.2-2.9,1.8-3.7,1.1-.5,2.3-.8,3.6-.8s2,.2,3.1.5c.6.2,1.1.5,1.8.8.3.2.7.3,1.1.5.2,0,.3.3.3.5s-.2.4-.4.4c-.7.2-1.4.3-2,.5-1.4.3-2.6.6-3.9.9ZM181.7,303v1.2c0,.2-.1.4-.3.5-1.1.5-2.2.7-3.4.7s-3.1-.4-5.1-1.2c-.2,0-.3-.3-.3-.5v-2.2c0-.1,0-.3.2-.4,0,0,.2-.1.3-.1s0,0,0,0l8.1,1.5c.2,0,.4.2.4.5ZM198.4,303.3c.1,0,.2.1.3.3,0,.1,0,.3,0,.4-.4,1.1-1.4,1.3-2.2,1.6h-.2c-2,.7-3.7,1.2-5.4,1.5-2,.3-4.2.9-6,2.5,0,0-.2.1-.3.1s-.2,0-.3-.1c-.9-.7-1.1-1.6-.7-2.6,1.1-2.5,3.6-5.1,7.3-5.2h.1c2.3,0,4.7.5,7.4,1.5ZM191,297.2l.7-1.8c0-.2.3-.3.5-.3s0,0,0,0c.2,0,.4,0,.5,0,.4,0,.8,0,1.2.3,1.4.7,2.7,1.5,4.1,2.2l1.2.7c0,0,.2.2.2.2.1.2,0,.4,0,.5,0,.1-.2.2-.4.2s0,0,0,0l-7.6-1.4c-.1,0-.3-.1-.3-.2,0-.1,0-.3,0-.4ZM182.5,311.9c0-.2.3-.3.4-.3s0,0,.1,0c.6.2,1.2.4,1.8.6,1.4.4,2.8.9,4.2,1.2,2.1.5,4.3.8,6.3.9.4,0,.8,0,1.2,0,1.1,0,2.2,0,3.3-.1.7,0,1.3,0,2-.1h0c.2,0,.4.1.5.3,0,.2,0,.4-.2.6-2.1,1.5-4.4,1.9-7,2.3h-.5c0,0,0,0,0,0,0,0-.1,0-.2,0l-2-.8-.8.7c0,0-.2.1-.3.1h0c-3,0-5.9-1-8.4-2,0,0-.2,0-.2-.2-.8-1-.9-2.1-.2-3.4ZM181.5,211.4c0,0,.2,0,.3,0s.2,0,.3.1c.2.1.2.4.1.6-.4.8-.8,1.6-1.2,2.4-.9,1.7-1.7,3.3-2.4,4.9-1.4,3.5-2.7,7-3.9,10.4-1.1,3.1-.7,6.1,1.2,8.9.6.9,1.3,1.8,2,2.7.3.5.7.9,1.1,1.4.1.2.1.4,0,.6,0,.1-.2.2-.4.2s0,0-.1,0c-1.2-.3-2.1-.9-3.1-1.5-.6-.4-1.2-.7-1.8-1,.1,1.7.9,3.9,3.6,9.7.9,1.8,1.9,3.7,2.9,5.4.8,1.4,1.6,2.9,2.3,4.4.1.2,0,.5-.2.6,0,0-.2,0-.3,0-.1,0-.3,0-.4-.2l-.7-.8c-.5-.7-1.1-1.3-1.6-2-4.9-6.3-7.9-11.6-9.6-17.2-1-3.2-1.6-6.5-1.8-9.9-.4-6.2-.3-12.5-.3-18.6,0-2.2,0-4.3,0-6.5,0-2.4.2-4.9.5-7.3,0-1,.2-2,.3-3,.1-1.5.3-3.5.5-5.6.2-1.9.4-3.9.7-5.8l.3-2.3c0-.2.1-.3.3-.4,1.6-.9,3-1,4-1s1.1,0,1.6,0h.2c1.4,0,3,.2,4.7.4.5,0,1,.2,1.5.3.2,0,.5.1.8.2.2,0,.4.2.4.5v13.2c0,.2-.2.5-.4.5-.6,0-1.3.1-2.1.1h0c-.4,0-.8,0-1.2,0-.4,0-.8,0-1.2,0s-1.2,0-2,0l8,4.8c.1,0,.2.2.2.3,0,.1,0,.3,0,.4-2.5,3.8-5.1,7.8-7.1,12.3l4.1-2.6ZM135.3,211.9c0,.2,0,.4-.2.4l-.4.3c-.3.2-.6.4-1,.6-.4.3-.7.5-1.1.7-.9.6-1.8,1.3-2.7,2-3.8,3.3-4.4,8.9-1.5,12.8,0,.1.1.2.2.4v.2c.1.2.1.3,0,.5,0,.1-.2.2-.4.2h-32.8c-.2,0-.3,0-.4-.2s0-.3,0-.5l2.8-5.4c0-.1.2-.2.3-.3,3-.8,4.6-3.1,4.2-5.9,0-.1,0-.3.1-.4,0-.1.2-.2.4-.2s1.1,0,1.7.1c1.2,0,2.4.2,3.6.2.9,0,1.9,0,2.8,0s1.5,0,2.3,0c.2,0,.3,0,.5,0,.4,0,.8,0,1.2,0,.4,0,.8,0,1.2,0,.8,0,1.5,0,2.1-.3v-1.4c0,0,0,0,0-.1,0,0-.1-.1,0-.1s0,0,0,0c-.6-.1-1.2-.3-1.8-.3-2.6-.1-5.1-.3-7.8-.4h-2.7c-.2-.1-.3-.2-.4-.4s0-.3,0-.5l2.7-4.1c0-.1.2-.2.4-.2h0c.2,0,.3,0,.4.2l1.3,1.8h.3c.4,0,.7,0,1-.1.2,0,.3,0,.5-.1.3,0,.6-.2.9-.2s.2,0,.3,0c.5.1,1.1.2,1.7.2,1.4,0,2.8-.3,4.2-.7.8-.2,1.6-.4,2.4-.5,2.6-.4,4.6-1.9,6.2-4.4.4-.6.9-1.2,1.3-1.7.3-.4.7-.8.9-1.1.5-.6.5-.8-.3-1.7-.9,0-1.7.5-2.6,1-.4.2-.8.5-1.3.7,0,0-.1,0-.2,0-.1,0-.3,0-.4-.2-.1-.2-.1-.4,0-.6.5-.7,1.3-1.7,2.4-2.3.9-.6,1.4-1.3,1.5-2.3,0-.7.2-1.5.3-2.1v-.3c.3-1.5,1.1-2.4,2.5-2.7,1.1-.3,2.3-.4,3.4-.4,1.6,0,3.2.3,4.8.9,2.5,1,4.9,2.5,7.4,4.8,4.5,4,8.1,8.8,11,13.1.7,1,1.3,2,2,3,.9,1.3,1.8,2.7,2.7,4,1.4,1.9,1.8,3.8,1.4,5.9,0,.2-.2.4-.4.4,0,0,0,0,0,0-.2,0-.3,0-.4-.2-2.9-5-6.5-10.2-11.2-16.2-2.7-3.4-6.4-7.7-11.3-10.7-.4-.3-.8-.5-1.3-.8l-.4-.2c-4.3,4.8-4.5,10.7-4.2,15.9ZM92.9,221.6c.4,1.1.3,2.1-.1,3.4-.8,2.1-1.7,3.6-3,5,0,.1-.2.2-.4.2h-7.6c-4.1,0-8.3,0-12.4,0-2.9,0-4.3-1.4-4.3-4.1,0-3.2.1-6.4.2-9.5,0-1.2,0-2.3.1-3.5,0-.2,0-.4,0-.7s0-.3,0-.5c0-.1,0-.2.2-.3l3-2.4c0,0,.2-.1.3-.1s.1,0,.2,0c1.7.7,3.5,1.1,5.4,1.1s3.7-.4,5.5-1.1c3.4-1.4,6-4,8-7.7,0,0,.1-.2.2-.2,9.9-4.5,10.7-12.4,8.1-18.2,0-.2,0-.5.2-.6,3.3-2.2,4.8-5.6,4.5-10.3-.3-4.2-2.4-7.3-6.5-9.3-.2-.1-.3-.4-.2-.6.9-2.5,1.6-4.9.6-7.6,0-.2,0-.3,0-.5,0-.1.2-.2.4-.2h31.9c.2,0,.3,0,.4.2,0,.1.1.3,0,.5l-8.3,20.2c0,.2-.2.3-.4.3,0,0-.2,0-.2,0-.2,0-.5,0-.8,0-1.1,0-1.8.5-2.3,1.6-.2.5-.5,1.1-.7,1.6-.3.7-.6,1.4-.9,2.1l-.4.8c-.9,1.8-1.8,3.6-2.8,5.4-1.1,1.7-2,3.5-2.2,5.5,0,.5-.2.9-.4,1.3,0,.2-.1.4-.2.6,0,.1-.2.3-.3.3,0,0-.1,0-.2,0s-.2,0-.2,0l-3.7-2c-.9.2-1.2.7-1.5,1.4-2.2,4.2-4,8.8-5.4,14-.2.6,0,1.5,0,2.3,0,.2,0,.4,0,.6.1.7.3,1.4.5,2.2,0,.4.2.7.3,1.1,0,.1,0,.3,0,.4s-.2.2-.4.2c-.2,0-.4,0-.6,0-.3,0-.5,0-.8,0h-.4c-1.1,0-1.8.5-2.2,1.7-.6,1.7-1.1,3.6-.4,5.5ZM67.4,199.2c.9-2.4,2.7-4.3,4.2-5.9,0,0,.2-.1.4-.1s.2,0,.3.1c.2.2.3.4.1.6l-.2.4c-1.1,1.9-2.3,3.9-4,5.4,0,0-.2.1-.3.1s-.2,0-.3,0c-.2-.1-.3-.4-.2-.6ZM135.6,66.3c.5.9,1,1.9,1.5,2.8.2.4.5.8.7,1.3,0,0,0,.2,0,.3-.1,1.1-.7,1.9-1.8,2.5l-.7.4c-.8.5-1.6.9-2.5,1.3-.8.4-1.6.6-2.5.9-.4.1-.8.2-1.2.4,0,0-.1,0-.2,0-.2,0-.4-.1-.4-.3-2.5-5.2-2.3-10.7.7-15.4,3-4.8,8.5-8,13.8-8h0c.2,0,.5.2.5.4s-.1.5-.4.5c-2.3.6-4.3,1.8-6.2,3.8-2.4,2.4-3,6-1.5,9.1ZM128,77.7l.4-.4c.9-.8,2.1-1,3.1-1.1.3,0,.6,0,.9-.1,1.1-.2,2.3-.3,3.4-.4.7,0,1.4,0,2.1-.2.6,0,1.2-.3,1.8-.5.1,0,.3-.1.4-.2.5-.2,1-.4,1.7-.4h0c.2,0,.4.1.5.4,0,.2,0,.4-.2.6-.3.2-.6.4-.9.6-.7.5-1.4,1-2.2,1.4l-.9.5c-2.6,1.4-5.4,2.8-8.1,4-1.1.5-2.2.7-3.5.9-.6.1-1.3.2-1.9.4,0,0,0,0-.1,0-.1,0-.3,0-.4-.2-.1-.1-.1-.4,0-.5,1.1-2.3,2.6-3.6,4-4.9ZM140.5,101.6c.1.2,0,.5-.1.6,0,0-.2.1-.3.1s-.2,0-.3-.1c-2.6-2.1-3.2-5.1-3.5-7.5v-.4c-.2-1.6-.4-3.4.9-4.9,0-.1.2-.2.4-.2s.1,0,.2,0c.2,0,.3.3.3.5-.5,3.9.3,7.7,2.5,11.9ZM140.2,89.1c-.2,0-.4-.1-.5-.3l-1.2-1.5-1.2-.3c-.2,0-.3-.2-.3-.3v-.2c-.1-.2-.2-.3-.2-.5-.2-1.2.4-2,1.6-2.6,0,0,.1,0,.2,0,.2,0,.3,0,.4.3l.6,1c.3,0,.6.1.8.1.4,0,.8-.1,1.1-.4v-4.8c0-.2.1-.4.3-.5,1.4-.4,2.1-1.5,3-2.5.6-.7,1.1-1.4,1.9-2,0,0,.2,0,.3,0s.2,0,.3,0c1.6,1.1,1.5,2.7,1.3,4.1-.3,1.7-.6,3.4-.9,5-.2.8-.3,1.6-.4,2.4-.1.8-.3,1.6-.4,2.5l-.3,1.6c0,.2-.2.4-.4.4,0,0,0,0,0,0-.2,0-.4-.1-.5-.3l-.5-1.5s-4.8.4-4.9.4ZM167.3,75.3c-.9,5.6-3.9,10.3-6.6,14.2l-.2.3c-.4.5-.7,1.1-1.3,1.5-.3.3-.8.7-1.4.7s-.9-.2-1.4-.7c-.2-.2-.2-.4,0-.6,3.5-5.4,7.6-11.6,9.4-18.8,0-.2.2-.3.4-.4,0,0,0,0,0,0,.2,0,.3,0,.4.2.8,1.3.8,2.4.6,3.5ZM168.1,96.7c1.2-3.4,2.5-6.7,3.7-10,0-.2.3-.4.5-.5,0,0,.2-.1.3-.2,0,0,.2,0,.3,0s.2,0,.3,0c.2.1.2.3.2.5-.1.7-.2,1.4-.4,2.1-.6,3.6-1.2,7.1-3.1,10.2,0,.1-.2.2-.4.2h-.4c-.3,0-.5.1-.7.1,0,0-.1,0-.1,0-.1,0-.3,0-.4,0h-.2c-.2,0-.3-.1-.4-.2,0-.1-.1-.3,0-.4l.7-1.8ZM154.7,79.6c-.2-1.3-.3-2.7-.4-4,0-.5,0-1-.1-1.5-.1-1.3.4-2.4,1.6-3.2,0,0,.2,0,.3,0,.1,0,.3,0,.4,0,2.5,0,3.5.8,4.1,3,.7,2.9.1,5.6-1.8,7.9-.3.4-.7.6-1.1.8-.1,0-.3.2-.4.2,0,0-.2,0-.3,0s-.1,0-.2,0c-1.6-.7-2-2.1-2.2-3.2ZM161.9,63.6c-4.3,2.9-8.9,5.2-14,6.9,0,0-.1,0-.2,0-.2,0-.4-.1-.4-.3-.1-.2,0-.5.2-.6l12.9-7.7c0,0,.2,0,.3,0s.2,0,.3.1l1.1.9c.1,0,.2.2.2.4,0,.2,0,.3-.2.4ZM148.9,104.7c.1.2,0,.5-.2.6,0,0-.2,0-.3,0s-.3,0-.4-.2c-2.6-2.7-2.7-6.9-.4-10,.9-1.2,1.8-1.8,2.7-1.8s.7,0,1.1.3c.1,0,.2.2.3.4s0,.3-.2.4c-3.8,2.7-4.6,6-2.6,10.1ZM150.5,89.4c-.2,0-.3-.3-.3-.5v-5.9c0-.2.2-.4.4-.5,0,0,0,0,.1,0,.2,0,.4,0,.4.3,1.2,2.3,2.2,4.4,2.5,7.1,0,.2,0,.3-.2.4,0,0-.2.1-.3.1s-.1,0-.2,0l-2.5-1ZM143.6,111.2c0-.2.2-.3.4-.4,0,0,0,0,0,0,.2,0,.3,0,.4.3l6.3,11.5c.1.2,0,.5-.1.6,0,0-.2.1-.3.1s-.2,0-.3-.1l-3.5-2.9c0,.4,0,.7,0,.9.4,1.6.8,3.4,1.3,5.1.2.8.2,1.5,0,2.4-.6,2.5-1.1,4.9-1.5,6.9,0,.4,0,.8,0,1.2,0,.2,0,.3,0,.5l5.1,5.3c.2.2.2.5,0,.7,0,.1-.2.2-.4.2s-.2,0-.3-.1c-3.7-2.8-8-5-13.5-7-.2,0-.4-.3-.3-.6l1-3.8c.7-2.8,1.4-5.6,2.2-8.4.7-2.7,1.5-5.4,2.2-8.2l1.1-4.1ZM137.3,142.6c0-.1.2-.3.3-.3,0,0,0,0,.1,0,.1,0,.2,0,.3.1l5.3,4.6c.1.1.2.3.1.5l-2.6,7.9c0,.2-.2.3-.4.3,0,0,0,0,0,0-.1,0-.3,0-.4-.2l-1-1.2c-.6,1.1-1.1,2.2-1.7,3.3-1.6,3-3,5.8-4.7,8.6-1.6,2.8-3.5,5.5-5.2,8.1-.8,1.2-1.6,2.4-2.4,3.6,0,.1-.3.2-.4.2s-.2,0-.2,0l-2.9-1.6c-.2-.1-.3-.4-.2-.6.4-1,.8-1.9,1.1-2.9.8-2.1,1.6-4.2,2.5-6.3.9-2.1,1.8-4.1,2.7-6.2.9-2.2,1.9-4.3,2.8-6.5.9-2.2,2.4-4,3.6-5.3,1.1-1.2,1.9-2.6,2.6-4.6.1-.3.2-.5.4-.9l.3-.6ZM121.8,184.6c0,.2,0,.3,0,.5,0,.1-.2.2-.4.2s-1.2-.1-1.2-.1c0,.2,0,.3,0,.5-.1.7-.2,1.4-.3,2,0,1.8-.7,3.2-1.9,4.3-1.1,1-1.5,2.3-1.9,3.9-.2,1-.5,2.1-.8,3.2l-.4,1.5c0,.2-.3.4-.5.4s0,0-.1,0c-1.2-.3-2-.9-2.8-1.5h-.1c-.8-.7-1.2-1.6-1.1-2.7v-1.3c.2-1.4.3-2.8.5-4.3,0-.6.4-1.3.8-1.9,1.6-2.1,2.7-4.5,3.8-6.8.3-.7.7-1.4,1-2.1.3-.6.6-1.3,1-1.9l.5-.9c0-.2.3-.3.4-.3s0,0,.1,0c2.3.5,4.1,1.8,5.8,4.1.1.2.1.5,0,.6,0,.1-.2.2-.4.2s-.2,0-.3,0l-2.5-1.5c-.5.6-.4,1,.8,4ZM105.5,195.2l-.5,1.6c-1.6,4.5-3.1,8.9-4.7,13.4,0,.3-.3.4-.5.4,0,0-.1,0-.2,0,0,0-.2,0-.2,0s-.2,0-.3-.1l-.7-.6c-.2-.1-.2-.4-.2-.6l.5-1.5c.4-1,.7-2.1,1.1-3.1.3-.9.6-1.8.9-2.7.5-1.6,1.1-3.1,1.6-4.7,0-.3.2-.5.2-.8.3-1,.6-2.1,1.8-2.8,0,0,.2,0,.2,0,.1,0,.3,0,.4.2l.5.6c.1.1.1.3,0,.5ZM164,186.9c-.9-.9-1.9-1.8-2.9-2.6-1.7-1.4-3.7-2.2-5.8-2.6-.5,0-1-.1-1.5-.1-2.4,0-4.4,1-6.1,3.2-.8,1-1.4,2-2.1,3.1-.3.5-.6,1-1,1.6,0,.1-.3.2-.4.2s0,0-.1,0c-.4-.1-.9-.3-1.4-.4-1-.4-2.1-.7-3.2-.9-.9-.1-1.8-.1-3-.1s-1.3,0-2,0c-.5,0-.9,0-1.4,0-.5,0-1.1,0-1.8.2-.4,0-.8.1-1.2.2,0,0,0,0,0,0-.2,0-.3,0-.4-.2,0-.2,0-.4,0-.5.5-.7,1.1-1.5,1.5-2.2,1-1.4,2-2.8,3-4.1,1.8-2.2,3.7-4.4,5.5-6.5,1.5-1.8,3.1-3.6,4.6-5.4,2.8-3.3,5.2-6.8,7.1-10.4.7-1.2,1.3-2.4,2-3.6l1-1.7c0-.2.3-.2.4-.2h10.1c.2,0,.4.2.5.4.1.5.2,1,.4,1.5.3,1.1.6,2.3.7,3.5,0,.8.1,1.6.2,2.4.2,2.4.5,4.9,0,7.5-.4,1.9-.4,3.8-.5,5.7,0,.8,0,1.6,0,2.4,0,1.4,0,3.1.8,4.2,0,.1.1.2,0,.4l-1,6.1c0,.2-.2.3-.3.4,0,0-.1,0-.2,0-.1,0-.2,0-.3-.1-.4-.4-.8-.8-1.2-1.1ZM156.4,148.5l3.8-5c0-.1.2-.2.4-.2s0,0,0,0c.2,0,.3.1.4.3l2.8,5.5c0,.2,0,.3,0,.5,0,.1-.2.2-.4.2-.4,0-.8,0-1.2,0-.6,0-1.2,0-1.7,0-1.1,0-2.5,0-4-.7-.1,0-.3-.2-.3-.3,0-.1,0-.3,0-.4ZM257.9,237.6c0,.1,0,.3-.1.4,0,.1-.2.2-.4.2h-21.2c-.3,0-.5-.2-.5-.5v-13.4c0-.3.2-.5.5-.5h18.7c.2,0,.4.2.5.4l2.5,13.4ZM257.7,214.1c0-.3.2-.5.5-.5h4.7c.3,0,.5.2.5.4.2,2.1.2,4.2,0,6.5,0,.3-.2.5-.5.5h-3.7c-.2,0-.4-.2-.5-.4,0-.5-.2-1-.3-1.5-.4-1.6-.7-3.2-.7-5ZM254.7,220.6c0,.3-.2.5-.5.5h-17.9c-.2,0-.4-.2-.5-.4-.3-1.3-.3-2.6-.2-3.8,0-.8,0-1.7,0-2.5,0-.2.1-.4.3-.5.1,0,.2,0,.4-.1.3-.1.6-.2.9-.2,3.2,0,6.5,0,9.7,0h6.1c.2,0,.4.1.4.3,1,1.9,1.5,4.4,1.3,6.9ZM252.5,210c0,.1-.2.2-.4.2-.2,0-.4,0-.5,0-.4,0-.8,0-1.2,0h-6.5c-2.4,0-4.8,0-7.2,0-1.6,0-2.7.6-3.3,1.9-.2.5-.4,1.2-.4,1.9,0,3.4,0,6.8,0,10.2v5.3c0,.3-.2.5-.4.5-1.2.1-2.3.1-3.2.1,0,0-2.1,0-2.5,0-.7,0-1.4,0-2.1,0,0,0,0,0,0,0-.1,0-.2,0-.3-.1,0,0-.2-.2-.2-.4,0-.4,0-.7,0-1.1,0-.8,0-1.6,0-2.3,0-.5,0-.9.1-1.4,0-.5.1-1,.1-1.5,0-4.2.6-8.3,1.8-12.7.9-3.6,1.7-7.1,2.5-10.9.3-1.6.7-3.2,1.1-4.8,0-.2.3-.4.5-.4s0,0,0,0c.5,0,1,.2,1.5.3.6.1,1.2.3,1.7.3s1-.1,1.4-.4c0,0,.2,0,.3,0s.1,0,.2,0c1.7.6,3.3,1.2,5,1.2s2.1-.3,3-.8c0,0,.2,0,.3,0s.2,0,.3.1c4.4,4,7.5,9.3,8.5,14.4,0,.1,0,.3,0,.4ZM233.3,170.6c0,.3,0,.6,0,.9s0,.2,0,.3l-2.8,3.9c0,.1-.2.2-.4.2s-.1,0-.2,0c-.2,0-.3-.3-.3-.5,0-.9,0-1.7.1-2.5,0-1.7.2-3.2.1-4.6,0-1.7-.3-3.5-.5-5.2,0-.6-.2-1.2-.2-1.9-.2-1.6-.4-3.2-.6-4.8l-.2-1.4c-.3-2.3-.6-4.7-.9-7l-.2-1.1c-.3-2.1-.6-4.3-.7-6.4,0-.2.2-.5.4-.5,0,0,0,0,0,0,.2,0,.4.1.5.4.2.8.5,1.6.8,2.4.5,1.8,1.1,3.6,1.6,5.4.9,3.4,1.8,6.7,2.7,10.1.5,1.9,1,3.7,1.5,5.6.3,1.3.2,2.4-.3,3.4-.2.4-.3,1.1-.3,1.7,0,.5,0,1.1,0,1.7ZM244.7,170.6h-5.7c-.1.8,0,1.4.3,1.8.6.8,1.9,1.3,4.3,1.6.2,0,.4.2.4.4,0,.2-.1.4-.3.5-1.1.4-2.3.6-3.5.7-.8,0-1.6.2-2.5.4-.5.7-.3,1.6-.2,2.5h0c.3,1.7,0,3.2-.6,5-.8,2-1.5,4-2.3,6l-1,2.5c0,.2-.3.3-.5.3s0,0-.1,0c-1.2-.4-1.1-1.5-1-2.1.1-.8.2-1.5.4-2.3.1-.7.2-1.4.3-2.1.3-1.8,0-3.3-.9-4.5-.5.1-.6.4-.8,1-.2.8-.4,1.6-.6,2.3-.4,1.6-.8,3.1-.8,4.8,0,.3-.1.6-.2.9,0,0,0,.2-.1.3,0,.1-.1.2-.3.3,0,0-.1,0-.2,0s-.2,0-.2,0h-.1c-.1-.1-.3-.2-.4-.4-1.3-3.6-1.3-3.7,0-7.3.1-.3.2-.6.3-.9.1-.3.3-.7.4-1,.4-1.2,1-2.8,2.5-3.9.4-.3.7-.7,1.1-1.1.2-.2.3-.4.5-.6,1.8-2,2.5-3.7,2.2-5.6,0-.3,0-.5,0-.7,0,0,0-.2,0-.3,0-.2.2-.4.4-.4.8-.1,1.6-.2,2.4-.2,2.1,0,4.3.4,6.7,1.3.2,0,.4.3.3.5,0,.2-.2.4-.5.4ZM241.1,164c-.8.7-1.7.8-2.3.8s-.9,0-1.3,0h-.2c-.2,0-.4-.2-.4-.4l-.4-1.3c-.2-.8-.5-1.7-.7-2.5-.5-1.6-.9-3.3-1.4-4.9-1.1-4-2.3-8.1-3.4-12.3-.8-3.1-1.3-6.3-1.6-9.7-.1-1.4,0-2.9.3-4.4,0-.5.1-1,.2-1.5-.4.1-.8.4-1.2.8-.4.3-.8.7-1.4.9,0,0-.1,0-.2,0,0,0-.2,0-.2,0-.9-.5-1.4-1.4-1.9-2.2-.2-.4-.5-.8-.8-1.2-.6-.7-1.1-1.5-1.7-2.3-.3-.4-.5-.7-.8-1.1-.1-.2-.1-.4,0-.6,1.8-2.2,3.4-3.7,5.1-4.9,0,0,.2,0,.3,0,.1,0,.3,0,.4.2l.5.6c2.7,3.1,5.2,6,8.5,8.3.1,0,.2.2.2.3,2.1,10.6,3.6,22.5,4.5,37.2,0,.2,0,.3-.2.4ZM222.5,242.1c0-.2.2-.4.4-.4,1.2-.2,11.8-.4,21.4-.4s12,0,14.5.2c.2,0,.4.1.4.3.7,1.9,1.2,3.9,1.8,6,.3,1.3.7,2.6,1.1,4,0,.1,0,.3,0,.4,0,.1-.2.2-.4.2h-39.6c-.1,0-.3,0-.4-.2,0-.1-.1-.2-.1-.4l1-9.8ZM260.2,231.3c-.3-1.5-.5-3.1-.8-4.7l-.4-2.2c0-.1,0-.3.1-.4,0-.1.2-.2.4-.2h3.1c.2,0,.4.2.5.4.4,1.9.4,11.9,0,14,0,.2-.2.4-.4.4,0,0,0,0,0,0-.2,0-.4-.1-.5-.3-1.1-2.4-1.5-4.7-1.9-7.1ZM263.1,241.8c0-.1.2-.2.3-.2,1.2-.2,4.5-.2,8.8-.2s11.8.1,13,.5c.2,0,.4.2.4.5v1.5c0,1.1,0,2.2,0,3.3,0,1.1,0,2.2,0,3.2v1.4c0,.2-.2.4-.4.5-1.3.3-6.4.4-10.9.4s-6.1,0-8.3-.2c-.2,0-.4-.1-.4-.3-1.2-3.4-2.1-6.9-2.8-9.9,0-.1,0-.3,0-.4ZM268.5,258.2c0-.1.2-.2.4-.2h16.5c.2,0,.4.1.5.4.4,1.5.5,6.9.2,9.4,0,.2-.2.3-.3.4-1,.3-2.1.5-3.2.5-5.5,0-11.3-4.1-14.1-10,0-.2,0-.3,0-.5ZM286,230.1c0,.2-.3.4-.5.4h-2.7c-.3,0-.5-.2-.5-.5v-.5c0-.4-.1-.7-.1-1.1,0-3,0-6,0-9v-4.2s0-.4,0-.4c0-.4,0-.7,0-1.1-.2-2-1.5-3.2-3.5-3.3-.9,0-1.8,0-2.7,0h-3.8s-15.3,0-15.3,0c-.2,0-.4-.2-.5-.4-1.7-6.7-4.6-12.1-8.9-16.5-.2-.2-.2-.4,0-.6l.3-.5c.2-.4.5-.8.7-1.1.6-.8.8-1.7.8-3.1h0c0-1.9,0-3.8-.2-5.6-.1-1.7-.3-3.5-.4-5.3,0-.8-.2-1.7-.2-2.6,0,0,0-.2,0-.3.8-1.6.7-3.4.7-5.4,0-1,0-2,0-3l-2.1-1.4c-.1-.1-.2-.3-.2-.4l.5-6c0-.3.2-.5.5-.5h44.3c.3,0,.5.2.5.5v67.7c0,.1,0,.3-.1.4,0,0-.2.1-.3.1s-.3,0-.4,0c-3.1,0-4.9,1.2-5.6,3.7ZM308.6,230.6c-2.1,2.1-4.4,2.7-6.6,3.1-1.5.3-3,.4-4.2.5-.8,0-1.3.4-1.7.9-1.1,1.5-2.2,3.4-2.2,5.9,0,4.9,0,9.8,0,14.6,0,1.9,0,3.8,0,5.7v2.6c0,.2,0,.3-.2.4l-3.9,2.6c0,0-.2,0-.3,0s-.2,0-.2,0c-.2,0-.3-.3-.3-.4v-8.9c0-8.1,0-16.2,0-24.3,0-.7,0-1.3.1-2,0-.4,0-.7.1-1.1,0-.3.2-.5.5-.5h18.4c.2,0,.4.1.5.3,0,.2,0,.4-.1.5ZM307.8,183.2c0-1.9.9-3.2,2.7-4.1,0,0,.1,0,.2,0s.2,0,.3,0c1.1.6,1.2,1.5,1.2,2.3v2.6c0,4.4,0,8.8,0,13.2,0,.2,0,.4-.2.5,0,0,0,.1,0,.2,0,.2-.3.3-.4.3s-.1,0-.2,0c-.1,0-.3,0-.4-.1-.3-.1-.7-.2-1-.4-1.4-.7-2-1.8-2-3.3,0-3.6,0-7.4,0-11.2ZM304.7,145l2.5,6.9c0,.2,0,.3,0,.5,0,.1-.2.2-.4.2h-58.8c-.3,0-.5-.2-.5-.5l-.3-7.4c0-.1,0-.3.1-.4,0,0,.2-.2.4-.2h3.6s2.4,0,2.4,0c3.7,0,7.6-.3,12-.8,3-.4,5.9-1.4,9.2-3.3l.4-.2c1.3-.7,2.7-1.5,4.4-1.5s.2,0,.3,0c.7,0,1.8.1,2.7.4,2.5.8,4.7,1.6,7,2.5,4.3,1.8,9.2,2.9,14.8,3.4.2,0,.4.1.4.3ZM16.5,139.5c.2-.6.4-1.1.6-1.6.5-1.2.9-2.3,1.4-3.4,5.7-13.3,13-25.4,21.7-35.9,4.6-5.6,8.4-9.8,12.2-13.5,12.3-11.9,25.8-21.4,40.1-28.3,10.5-5.1,21.3-8.9,31.9-11.3,4.9-1.1,9.9-1.9,14.3-2.5,4.2-.6,8.4-1,12.5-1.3,1.3,0,2.7-.1,4.4-.1s1.6,0,2.4,0c.8,0,1.6,0,2.4,0s1.8,0,1.8,0c3.4,0,6.9.3,10.3.6.8,0,1.7.1,2.5.2,5.9.5,12.1,1.5,19.4,3.2,11.8,2.7,23.3,6.8,34.2,12.3,9.7,4.8,19.3,11,28.3,18.4,6.4,5.2,12.5,11.2,18.5,18.3,8.1,9.5,15,20,20.6,31.2,1.2,2.3,2.3,4.7,3.3,7,.5,1.1,1,2.2,1.5,3.2.1.2,0,.5-.2.6l-.4.3c0,0-.2,0-.3,0s-.1,0-.2,0l-4.7-2.3c-3.7-1.8-7.4-3.6-11.1-5.4-2.5-1.2-5.3-2.4-8.7-3.9-.9-.4-1.9-.6-2.9-.8-.4,0-.8-.1-1.1-.1-1,0-2,.3-3,.8-4,2.2-8.1,4.5-12,6.5-2.2,1.2-4.3,2.3-6.6,3.5l-3,1.6c0,0-.2,0-.2,0s-.1,0-.2,0c-.1,0-.2-.2-.3-.3-2.5-10.6-5.6-19-9.5-26.5,0-.2,0-.4,0-.5,1.3-1.8,1.1-3.5-.9-6-1.5-1.9-3.1-3.8-5.1-6.2-1.6-1.9-3.3-3.8-4.9-5.7-1.9-2.2-3.7-4.3-5.6-6.5-4.8-5.6-10.5-8.9-17.5-10.1-3.5-.6-7.2-.9-11.3-.9-4.5,0-9.1-.2-13.6-.4-1.9,0-3.9-.1-5.8-.2,0,0-.2,0-.3,0l-6-4s0,0-.1-.1c-1-1.2-2.1-3.2-2.3-5.7,0-1.1-.6-2.1-1.5-3-.5-.5-.9-1-1.3-1.5l-.2-.2c-3.5-4.7-7.4-7.4-11.9-8.2-1.4-.3-2.8-.4-4.2-.4-3.1,0-6.3.7-9.2,2-5.5,2.4-8.9,6.4-10,11.7-1,4.6-.5,8.3,1.5,11.8.1.2,0,.4,0,.6l-7.9,9.6c.3.8,1,1.2,2.1,1.3.2,0,.5,0,.7,0,1.6,0,3.2-.3,5.1-1.1,1.5-.6,3-1.2,4.6-1.9.7-.3,1.4-.6,2.1-.9,0,0,.1,0,.2,0,.2,0,.4.1.4.3.6,1.3.7,2.7.7,4,0,1.1.1,2.2.2,3.2,0,1.2.2,2.4.2,3.7,0,1-.3,2.1-.5,3-.6,2-.5,3.6.1,5.1,1,2.4,2.7,3.7,5.2,3.8.3,0,.6,0,.9,0h.4c.2,0,.3.2.4.3.4.9.2,1.6,0,2.3v.2c-2,7.6-3.9,15.1-5.8,22.7l-.9,3.4c-.1.4-.2.8-.3,1.2-.1,1.1,0,1.6.6,1.9.2.1.4.4.3.6l-2.5,7.3c0,.2-.2.3-.3.3-.8.2-1.5.3-2.4.3s-1.3,0-2.1-.2c-3.2-.5-6.4-1-9.7-1.7-1.1-.2-2.1-.4-3.2-.4-1.5,0-3,.2-4.5.7-3.3,1-6.1,1.5-8.8,1.5s-1,0-1.5,0c-1.7-.1-3.4-.3-5.1-.5h-.7c-.6-.2-1.2-.3-1.9-.4-.3,0-.7-.1-1-.2-.1,0-.3-.1-.3-.2-2-3.1-5.3-5-10-6-.2,0-.3-.2-.4-.3-1-3.4-3-6.3-5.7-8.5-1.9-1.6-3.8-2.3-5.7-2.3s-1,0-1.5.2c-.5.1-1,.3-1.5.5l-.5.2c-.9.4-1.9.6-2.8.6s-1.2,0-1.9-.2c-2.2-.6-4.5-1-6.7-1.3-.4,0-.8,0-1.2,0-1.7,0-3.5.4-5.4,1.4-2.8,1.3-5.2,3.5-7.3,6.9-.8,1.2-1.5,2.5-2.2,3.7-.3.5-.6,1.1-.9,1.6,0,.1-.2.2-.3.2-.5.1-1,.3-1.5.4-1.2.3-2.4.6-3.6.8-.2,0-.4,0-.6,0-.7,0-1.4-.1-2.1-.3-.2,0-.5,0-.7-.1-4.3-.7-7.9-1.6-11.1-2.6-.2,0-.4-.1-.6-.3l-.3-.2c-.2-.1-.4-.4-.3-.6ZM61.5,211.5c0,.2-.2.3-.4.4,0,0,0,0,0,0-.2,0-.3,0-.4-.3l-4.8-8.8c-1.4-2.6-3-5.5-4.5-8.5-.1-.2,0-.5.2-.6,0,0,.2,0,.3,0s.3,0,.4.2c1.3,1.4,2.5,2.9,3.6,4.4,1.2,1.5,2.4,3.1,3.8,4.6l2-15.9c0-.2.2-.4.5-.4h0c.2,0,.5.2.5.4.5,3.4-.1,21.7-1,24.6ZM11.4,229.8c-.3-1.4-.6-2.9-.9-4.3-.7-3.3-1.3-6.5-1.9-9.7-.3-1.8-.5-3.7-.7-5.4-.1-1.1-.2-2.3-.4-3.4-.8-6.3-.9-12.7-.9-18.6,0-3.8.4-7.5.7-11.2v-1.1c.5-4.7,1.3-9.6,2.4-14.6.4-1.7.8-3.4,1.3-5.2.2-.8.4-1.6.6-2.4,0-.2.3-.4.5-.4h14.8c1.2-3.4,3.3-6.1,6.4-8.2h.1c.4-.4.8-.7,1.5-.7s.5,0,.8.2c.2,0,.3.2.3.4,0,.2,0,.3-.2.5-2,1.5-3.5,3.4-4.7,5.9-.9,2-.9,4.1-.9,6.3,0,.4,0,.7,0,1.1,0,.3-.2.5-.4.5-3.1.3-6.4,2.8-8.3,6.3-1.9,3.4-2,7.2-.4,10.2,0,.2,0,.5,0,.6,0,.1-.2.3-.4.4-2.1.8-3.8,2.6-4.7,5.1-1.2,3.1-1,6.5.6,9.4,2.3,4.4,5.6,7.4,9.7,8.9.8.3,1.7.5,2.6.7.5.1.9.2,1.4.3.2,0,.3.2.3.3,1.6,5.2,5.2,8.5,10.5,9.5,1.1.2,2.1.3,3.1.3,3.8,0,7.1-1.5,9.9-4.6,0-.1.2-.2.4-.2s0,0,0,0c.2,0,.3.1.4.2l1.2,1.9c1.1,1.9,2.2,3.7,3.3,5.6.3.5.5,1.1.5,1.7,0,2.1,0,3.9,0,5.6,0,.8-.1,1.7-.2,2.5,0,.5-.1,1-.2,1.5-.2,2.3-1.7,3.9-3.9,4.1-.4,0-.9,0-1.3,0h-.4s-42.1,0-42.1,0c-.2,0-.4-.2-.5-.4ZM248.5,314.7c-26.4,18.9-57,28.9-88.7,28.9-57.5,0-111.2-33.1-136.8-84.3-.1-.2,0-.5.1-.6.5-.4,1-.4,1.4-.4s.4,0,.5,0c.2,0,.3,0,.5,0h3.9c5.7,0,11.4,0,17.1,0s8.5,0,12.8,0c1.7,0,2.8-.4,3.7-1.5.9-1,1.9-2,3-3.1.2-.2.5-.5.7-.7H20c-.2,0-.4-.1-.5-.3l-4-10.5c0-.2,0-.3,0-.5s.2-.2.4-.2c2.7,0,5.3,0,7.9,0h55.4c.7-.7,1.5-1.4,2.2-2.1,1.8-1.8,3.7-3.7,6-5,0,0,.2,0,.3,0s.1,0,.2,0c1.6.7,2.9,1.6,4,2.8.9,1,.9,2.1.9,3.1,0,.4,0,.8,0,1.2,1.1,0,2.3,0,3.7,0s1.4,0,2.1,0c.7,0,1.4,0,2.1,0h.7c1.2,0,2.4,0,3.6,0h3.1s57.9,0,57.9,0c.2,0,.4.1.5.3l4.1,10.5c0,.2,0,.3,0,.5,0,.1-.2.2-.4.2h-78.2l-1,5.2h83.8c.2,0,.3,0,.4.2l3,4.5c2.8,4.2,5.2,8.8,7.2,12.9.5,1,.6,1.9.3,2.8,0,.2-.1.4-.2.6v.2c-.6,2.1-1,4.1,0,6.1,0,.2,0,.3,0,.5-.9,1.5-2.1,2.4-3.2,3.2-2.5,1.8-4.7,3-7,3.7-1.4.4-2.4,1-3.3,1.8-1.6,1.4-1.9,3.2-2.3,5.3h0c0,.2-.1.4-.2.4-1.2.8-2.6,1-4,1.3-.3,0-.7.1-1,.2-1.1.2-2.2.5-3.3.7-1.6.3-3.1.7-4.7,1-.3,0-.7.2-1,.4,0,0-.2,0-.3.1v1.3c.9,1,2.3,1.2,3.6,1.3.3,0,.6,0,.9,0,3.9.5,8,.9,12.2,1.3.8,0,1.6,0,2.7,0s1.5,0,2.2,0c.8,0,1.6,0,2.4,0s.3,0,.4.2.1.3.1.4c0,.3,0,.6-.1.9,0,.5-.2,1-.2,1.5,0,.6,0,1.2,0,2,0,.3,0,.6,0,.9,0,.9,0,1.9.1,2.8.2,1.9,1.6,2.8,2.7,3.2,1,.4,2.1.7,3.2.9h.1c2.4.6,4.7.9,6.9.9h1.3c.8,0,1.7,0,2.5,0,.8,0,1.7,0,2.5,0,1.3,0,2.3,0,3.3,0,3.6-.2,7.3-.4,11.5-.8,2.6-.3,5.4-.6,8.6-1.2,2.4-.4,4.8-1.3,7.1-2.2.9-.3,1.7-.6,2.6-.9,1.6-.6,3.3-.8,5-1.1h.1c2.1-.3,4.3-.6,6.4-.8.9-.1,1.8-.2,2.7-.3l2.5-.3s0,0,0,0c.2,0,.4.1.5.3,0,.2,0,.5-.2.6ZM268.5,297.3h-18.1c-10.8,0-21.6,0-32.4,0-.2,0-.3,0-.5,0-.2,0-.4,0-.6,0-.5,0-1.3-.1-1.9-1-.1-.2-.1-.4,0-.5v-.2c.2-.2.3-.4.4-.6,2.5-3,3-6.7,3.1-9.5,0-1,.1-2,.2-3,0-.8.1-1.6.2-2.4.2-2.2-.1-3.8-.9-5.2,0-.1,0-.3,0-.4,1.7-4.2,2.3-8.6,2.9-12.9.2-1.1.3-2.2.5-3.3,0-.2.2-.4.5-.4h41.9c.2,0,.4.1.5.3,3.5,9,10.1,13.5,19.5,13.5s1.1,0,1.6,0c0,0,0,0,0,0,.1,0,.2,0,.3.1,0,0,.2.2.2.4v.8c0,.6,0,1.1,0,1.7,0,.6,0,1.2,0,1.7v.7c0,.1,0,.2,0,.3-6.5,8.8-14.3,17.7-17.3,19.8,0,0-.2,0-.3,0Z"/>
        <path class="cls-1" d="M88.9,238.1s-.2-.2-.3-.3c-.3.4-.6.7-.9,1.1-.2-.1-.3-.3-.5-.4-4.9,4-8.8,9.1-12.8,14-4,4.9-7.9,10-11.4,15.3.9-.7,1.8-1.4,2.6-2.1,0,0,.2.2.2.2l-3.9,6.4.2.3c.2-.2.5-.3.7-.5,8.2-8.4,14.1-18.5,21.3-28-2.2,4.6-4.4,8.9-6.3,13.3-3.2,7.1-4.8,11.5-4.9,13.4.3-.4.5-.7.7-1,4.9-7.8,8.9-15.9,12.6-24.3,1-2.4,1.8-4.9,2.7-7.3Z"/>
        <path class="cls-1" d="M144.2,302.1c-.4-.2-.6-.3-.8-.3-5.7-.3-11.4-.7-17.2-.9-2.4-.1-4.8,0-7.2,0-1.6,0-3.3-.2-4.9-.2-3.9,0-7.7.2-11.6.3-1.4,0-2.8,0-4.3.1-4.8.2-9.7.5-14.5.8-2.6.2-5.2.4-7.8.5,1.6.5,3.2.8,4.7.9,4.3.2,8.6.4,12.9.6.3,0,.6,0,.9,0,4.1.2,8.2.7,12.3.7,6.6,0,13.3-.2,19.9-.4.3,0,.6,0,.9,0,2.9-.3,5.8-.5,8.7-.8,2.6-.2,5.2-.4,7.9-1.2Z"/>
        <path class="cls-1" d="M120.8,272.7c3.5.2,7,.3,10.5.4,8.2.2,16.4.1,24.6-.8,3.8-.4,7.7-.6,11.6-1,.9,0,1.7-.4,2.6-.5,0-.2,0-.3-.1-.5-4.8-.3-9.6-.7-14.5-.8-6.3-.1-12.5,0-18.8,0-1.4,0-2.8,0-4.3.1-3.8.2-7.6.5-11.4.7-2.7.2-5.4.3-8,.6-1.3.1-2.6.4-4.2.6.5.2.7.3.9.3,3.7.3,7.4.6,11.1.9Z"/>
        <path class="cls-1" d="M78.3,280.9c0,.3,0,.6.2,1.2,3.6-9.1,6.2-18.1,8.5-27.1,1.2-4.7,2.2-9.5,3.4-14.3.2-.9.4-1.8,0-2.8-1.8,2.6-2.8,5.2-3.7,8-3.7,11.4-6.7,23-8.2,35Z"/>
        <path class="cls-1" d="M132.2,320.9c9.4,1.4,23.3,1.9,28.2-.1-4.6-1.6-23.6-1.6-28.2.1Z"/>
        <path class="cls-1" d="M102.4,289.9c1-.4,1.9-.7,2.8-1.3,1.1-.7,1.2-1.8.5-2.9-.6-1-1.5-1.2-2.7-.7-.4.2-.8.4-1.1.7-1.7,1.2-1.6,2.7.5,4.2Z"/>
        <path class="cls-1" d="M50.3,271.7c-.9.4-1.1.7-1,2.2,1,1,2,1.9,2.9,2.8,2.1,0,2.4-.2,2.3-2.3-.6-.7-1.2-1.3-1.7-2-.8-.9-1.6-1.1-2.5-.7Z"/>
        <path class="cls-1" d="M89.4,281.5c-.6.7-.5,1.5.1,2.2,1.5.8,2.5-.9,3.9-.6.3,0,.7-.3.9-.6.3-.2.4-.6.8-1.1-.5-.6-.9-1.1-1.2-1.5-2-.3-3.4.2-4.5,1.6Z"/>
        <path class="cls-1" d="M51.1,283.4c-1.3,0-2.1.7-2.6,1.7-.5,1.1.3,1.8,1,2.5.2.2.5.3.9.6.7-.3,1.5-.6,2.2-.9q.5-2.1-.3-3.8c-.5,0-.8,0-1.2-.1Z"/>
        <path class="cls-1" d="M69.8,284.7c.6,1.1,0,2.6,1.2,3.6,1.7-1,2.1-2.2,1.4-4.6q-1.5-.6-2.5,1.1Z"/>
        <path class="cls-1" d="M97.3,268.6c.2-.8,0-1.4-1.1-1.7-1.9,1.3-2.1,2.1-1.2,4,1.2-.4,2.1-1,2.3-2.3Z"/>
        <path class="cls-1" d="M62.2,281.1c-.9,0-1.8,1-1.8,2,0,.7.7,1.3,1.5,1.3,1,0,1.8-1,1.7-1.9,0-.8-.7-1.4-1.5-1.3Z"/>
        <path class="cls-1" d="M66.3,273.6c-1-.2-1.4.4-1.8,1.4.4.4.8.9,1.2,1.3,1.2-.3,1.7-.8,1.5-1.7,0-.4-.5-1-.9-1.1Z"/>
        <path class="cls-1" d="M40.7,113.7c10.1,0,20.1,0,30.2,0,8.9,0,17.8,0,26.6,0,.8,0,1.6.3,2.4-.5-2.1-4.2-6.1-5.2-9.9-6.2-4.1-6-6.9-7.1-13.4-5-4.7-8.4-16.9-8.9-22.7.4-4.2,0-7.6,1.7-9.9,5.3-3.8,1.5-5.4,3-6,5.8.8.4,1.7.2,2.6.2Z"/>
        <path class="cls-1" d="M110,78.4c-1.7-3.9-4.9-4.7-8.1-5.3-4.1-4.7-9.4-4.6-13.5-.3-5.4.8-7.8,2.3-8.8,5.7,10.1,0,20.1,0,30.5,0Z"/>
        <path class="cls-1" d="M269.2,97.1c-1.5-1.7-3.5-2.5-5.9-2.3-2-3.4-7.4-4.3-10.2-1.5-1.1,1.1-2.2,1.8-3.8,2.1-.7,0-1.4.5-2,.9-1.3.8-2.4,1.7-2.7,3.6,8.6,0,17,0,25.4,0,.6-1.3-.1-2-.8-2.7Z"/>
        <path class="cls-1" d="M230.5,271.4c-.5,0-.9.3-1.4.4,6.9,1.4,17.5,1.1,19.5-.2-.3-.1-.6-.3-.9-.3-5.7,0-11.5,0-17.2,0Z"/>
        <path class="cls-1" d="M283.6,182.7c0-2.2,0-4.5,0-6.7,0-2.6-1.4-4.1-3.9-4.6-.6-.1-1.2-.2-1.8-.2-4,0-8.1-.1-12.1,0-4.1.2-5.5,2-5.5,5.8,0,3.4,0,6.7,0,10.1,0,1.1.2,2.2.3,3.3.2,1.9,1.2,3.2,3.1,3.7.7.2,1.5.4,2.2.4,4,0,7.9,0,11.9,0,.7,0,1.3-.1,2-.3,2.7-.6,3.9-2.2,3.9-4.9,0-2.2,0-4.3,0-6.5h0ZM270.8,190.8c-1.7,0-3.2.2-4.8.2-1.4,0-2-.7-2.1-2.1,0-.4,0-.9,0-1.3,0-3.5,0-7,0-10.5,0-.8.2-1.6.4-2.5h6.5v16.2ZM278.4,190.7c-1.6.2-3.2,0-5,0v-15.8c1.5-.9,3.2-.7,4.8-.6,1.1,0,1.7.8,2,1.8.1.4.1.9.1,1.3,0,3.6,0,7.3,0,10.9,0,1.7-.3,2.2-2,2.4Z"/>
        <path class="cls-1" d="M22.3,69.2l6.8,6.6c.5.5.6.8.6,1,0,0,0,.3-.3.6l-1.7,1.7,4.4,5.5,3.1-3.2c1.7-1.8,2.5-3.7,2.4-5.7-.1-2-1.2-3.9-3.1-5.8l-6.7-6.5,2.5-2.6c.5-.5,1-.8,1.4-.8.5,0,1,.3,1.6.9l11.2,10.9,5.6-5.7-11.3-11c-3-2.9-7.7-5.1-13.3.7l-10.1,10.4,4.4,5.6,2.5-2.6Z"/>
        <polygon class="cls-1" points="44.5 48.1 55.5 62.2 61.8 57.2 46.4 37.7 38.4 44.1 41.9 50.1 44.5 48.1"/>
        <polygon class="cls-1" points="57.8 40.9 69.3 60 76 55.5 64.5 36.3 57.8 40.9"/>
        <polygon class="cls-1" points="68.6 31.5 73.3 49.5 80.3 45.3 74.9 25.2 72.9 20.7 52.8 32.8 55.6 39.3 68.6 31.5"/>
        <path class="cls-1" d="M83.5,23.8s0,0,0,0c-.3,1.1-.4,2.2-.2,3.3.2.9.4,1.9.8,2.7.3.8.8,1.7,1.4,2.8.6,1.1,1.3,2.2,2,3.4.7,1.2,1.5,2.3,2.2,3.3l.5.8,7.5-3.3-.7-1.1c-.4-.6-.8-1.3-1.4-2.2-.6-.9-1.2-1.8-1.8-2.8-.6-1-1.2-1.9-1.8-2.8-.5-.9-.9-1.5-1.2-2.1-.3-.6-.6-1.3-.7-2-.1-.6,0-1.1.1-1.8.2-.7.8-1.4,1.7-2.2l.6-.5-1.9-6.5-12.9,5.6,2.8,6.4,2.9-1.3Z"/>
        <path class="cls-1" d="M99.7,17c0,.3,0,.7,0,1,0,.9.2,1.9.5,2.9l3.8,13.4,7.7-2.2-4.3-15.1c-.4-1.3-.4-1.8-.4-2,0,0,0,0,0-.1l4.2-1.2c1.2-.3,2.1-.2,2.6,1.6l4.3,15.1,7.7-2.2-4.3-15.2c-.8-2.9-2.3-4.8-4.3-5.8-2-1-4.5-1.1-7.6-.2l-13.4,3.8,1.1,7,2.5-.7Z"/>
        <path class="cls-1" d="M129.2,6.4l2.5,2.6c.5.5,1,1,1.5,1.5-.8.6-1.5,1.3-2,2.1-.8,1.1-1.3,2.3-1.6,3.6-.3,1.2-.5,2.5-.5,3.8l-.3,7.4,8-.9.3-6.8c0-1.2.2-2.3.4-3.4,0-.4.2-.8.5-1.1,1.2,1.3,2.3,2.7,3.5,4.1,1.4,1.7,2.8,3.6,4.3,5.6l.4.5,9.3-1-1.3-1.7c-1.2-1.5-2.5-3.1-3.8-4.6-1-1.1-1.9-2.2-2.9-3.3,1.5-1.1,2.6-2.3,3.2-3.9.8-1.8,1.2-3.7,1.1-5.7V0s-7.9.9-7.9.9v4.9c0,1.1-.2,2.1-.4,3.1,0,.4-.2.8-.5,1.1-.1-.1-.2-.3-.3-.4-.4-.5-.8-.9-1.1-1.4l-1.8-2c-.7-.7-1.3-1.5-2-2.2-.7-.7-1.3-1.4-1.8-1.9l-.4-.4-9.9,1.1,1.8,1.7c.4.4,1,1,1.8,1.8Z"/>
        <path class="cls-1" d="M173.4,25.1c.9-.3,1.8-.8,2.6-1.5.2-.2.4-.5.7-.7l.4,3.5,7.4-.6-.8-7,.9-9.2c.2-2.4-.2-4.4-1.5-5.9-1.2-1.5-3.2-2.4-5.9-2.6l-4.1-.4-1.6,6.9,3.5.4c1.1.1,1.4.4,1.5.4,0,0,.2.4.1,1l-.7,7c-.2.2-.5.5-.9.8-.5.4-1.1.7-1.8.9-.7.2-1.4.3-2.2.2l-2.1-.2-.7,7.1,2.1.2c1.2.1,2.3,0,3.2-.2Z"/>
        <path class="cls-1" d="M200.2,12.3c.2.4.3,1,0,1.8l-3.5,15.3,7.8,1.8,3.5-15.4c.7-2.9.3-5.3-1-7.2-1.3-1.8-3.5-3.1-6.5-3.8l-8.1-1.8-2.4,6.6,8.7,2c.7.2,1.2.4,1.4.8Z"/>
        <path class="cls-1" d="M221.3,29.6l-10.9-4.2-2.5,6.5,20.3,7.8,3.3-6.2-2.8-1.1,3.1-8.2c1.1-2.8,1.1-5.2,0-7.2-1-2-3-3.6-5.9-4.7l-7.5-2.9-3.4,6.2,8.1,3.1c.7.3,1.1.6,1.3,1,.2.4.1,1-.2,1.8l-3.1,8.1Z"/>
        <path class="cls-1" d="M242.8,47.6l8.1-15.1c1.2-2.2,1.5-4.2.9-6-.5-1.8-2-3.3-4.3-4.6l-3.6-1.9-4.1,5.7,3,1.6c.8.4.9.7,1,.8,0,0,0,.4-.3,1l-4.5,8.4-4.9-2.7-3.3,6.2,12,6.4Z"/>
        <path class="cls-1" d="M250.3,46.5c-.6,1.2-1.1,2.5-1.6,3.7l-.4.9,6.8,4.6.6-1.2c.3-.6.6-1.4,1.1-2.3.4-1,.9-2,1.4-3,.5-1.1,1-2.1,1.4-3,.4-.9.8-1.6,1.1-2.1.4-.6.8-1.2,1.3-1.7.4-.4.9-.7,1.6-.8.7-.2,1.6,0,2.7.3l.7.2,4.5-5.1-11.7-7.9-3.9,5.8,2.6,1.8s0,0,0,0c-1.1.4-2.1.9-2.8,1.6-.7.7-1.3,1.4-1.8,2.1-.5.7-1,1.6-1.6,2.7-.6,1.1-1.2,2.3-1.8,3.5Z"/>
        <polygon class="cls-1" points="272.6 46.6 261.3 60.4 267.4 65.5 283.2 46.3 275.3 39.8 270.1 44.6 272.6 46.6"/>
        <path class="cls-1" d="M289.3,61.7c.9.9,1.2,1.7-.1,3l-11.2,10.9,5.6,5.7,11.3-11c3-2.9,5.3-7.5-.3-13.3l-5.8-6-5.6,4.2,6.2,6.4Z"/>
        <path class="cls-1" d="M23.1,286.8l-5.9-8.4-4,2,6.2,8.8c1.1,1.5.8,2.6-.7,3.7l-11.4,8,2.8,4,11.4-8c3.8-2.6,4.3-6.1,1.6-10Z"/>
        <polygon class="cls-1" points="10.4 283.1 0 290.4 2.8 294.5 13.5 286.9 10.4 283.1"/>
        <polygon class="cls-1" points="29.9 295.7 26.1 298 28.1 300.4 21.9 305.7 25.1 309.4 34.7 301.2 29.9 295.7"/>
        <path class="cls-1" d="M42.6,309.4l-5.2-5.1-3.5,2.7,5.6,5.4c.6.6,1,1.2,1,1.8,0,.6-.3,1.2-1,1.9l-9.7,10,3.5,3.4,9.7-10c3.2-3.3,3.1-6.8-.3-10.1Z"/>
        <polygon class="cls-1" points="50.9 317.1 47.7 320.1 50 322 39.6 334.9 43.4 338 56.6 321.7 50.9 317.1"/>
        <path class="cls-1" d="M71.8,332.3l-2.5,3.1c-.8,1-1.6,1.7-2.5,2.3-.6.3-1.2.5-1.9.6,0-.4,0-.8,0-1.2,0-.7,0-1.4,0-2.1-.1-1.5-.2-2.9-.3-4.1,0-1.2-.2-2.3-.3-3.2v-.4c0,0-5.2-3.4-5.2-3.4l.3,2.2c.1.8.2,1.8.4,3.1l.3,3.3c-1.5,0-2.8.3-4,1-1.4.8-2.7,1.9-3.9,3.3l-4.3,4.9,4.1,2.7,4.1-4.6c.9-1,1.7-1.8,2.6-2.4.5-.4,1.1-.6,1.8-.6.1,1.8.2,3.6.2,5.6,0,2.3,0,4.7-.1,7.1v.6s4.7,3.1,4.7,3.1v-1.7c.2-1.7.2-3.3.2-5,0-1.3,0-2.6,0-3.8,1.5,0,2.9-.2,4.1-.8,1.5-.7,2.9-1.8,4.1-3.3l2.6-3.3-4.1-2.7Z"/>
        <polygon class="cls-1" points="78.5 336.2 75.9 339.8 78.6 341.2 74.9 348.4 79.2 350.7 85 339.6 78.5 336.2"/>
        <polygon class="cls-1" points="92.5 343.1 94.6 338 89.9 336.7 86.3 345.2 96.2 349.3 84.7 362.5 89.4 364.5 101.7 350.3 103.4 347.6 92.5 343.1"/>
        <polygon class="cls-1" points="104 352.3 107 353.2 102 369 106.7 370.5 112.9 350.4 105.9 348.2 104 352.3"/>
        <path class="cls-1" d="M125.3,353.1c-2.6-.5-4.8-.3-6.5.8-1.7,1.1-2.8,2.7-3.3,4.8-.4,1.8-.2,3.3.4,4.7.7,1.4,1.8,2.5,3.5,3.1.8.3,1.5.5,1.9.5h.8c0,0,1.2-3.8,1.2-3.8l-1-.2s0,0-.2,0c-.1,0-.3-.1-.5-.2-.7-.2-1.1-.6-1.3-1.1-.2-.6-.3-1.2-.1-1.9.2-.9.6-1.6,1.3-2,.7-.5,1.7-.6,2.9-.3,1.5.3,2.5,1,3,2.2.6,1.2.6,2.9.2,4.9-.4,1.9-1.2,3.3-2.4,4.2-1.2.9-2.6,1.2-4.4.8l-6.7-1.4-.9,4.3,6.5,1.3c1,.2,1.9.3,2.9.3s2.1-.1,3.1-.4c1.8-.5,3.3-1.5,4.4-2.9,1.2-1.4,2-3.1,2.4-5.2.7-3.2.4-5.9-.9-8.1-1.3-2.2-3.4-3.7-6.3-4.3Z"/>
        <path class="cls-1" d="M152,363.9c.2-2.3-.3-4.1-1.5-5.4-1.1-1.3-2.9-2-5.2-2.2l-6.7-.5-.9,4.3,7.1.6c1.8.1,2.5,1,2.4,2.9l-.8,9.5-10.5-.8-.3,4.4,17.3,1.4,1-4.3-2.5-.2.8-9.6Z"/>
        <path class="cls-1" d="M186.3,356.8c-1.4-1-3.2-1.4-5.6-1.2l-12,1.3v4.4c-.1,0,3-.4,3-.4l1.2,10.3c0,.9,0,1.3-.2,1.5,0,.2-.3.4-.8.4l-2,.2v4.4c-.1,0,3-.4,3-.4,1.8-.2,3.1-.9,4-2.1.8-1.1,1.2-2.7.9-4.6l-1.2-10.5,4.4-.5c1.8-.2,2.7.5,2.9,2.4l1.6,13.8,4.9-.5-1.6-13.9c-.3-2.3-1.1-3.9-2.4-5Z"/>
        <polygon class="cls-1" points="191.8 353.9 192.1 358.3 195.1 357.6 198.7 373.8 203.5 372.8 199 352.3 191.8 353.9"/>
        <path class="cls-1" d="M214.5,353.6c-.5-1.7-1.4-2.9-2.6-3.5-1.2-.6-2.7-.6-4.4-.1l-3.1.9.7,4.4,3-.9c.6-.2,1-.2,1.2,0,.3.1.5.6.6.9l2.2,7.3c0,.4-.3.9-.6,1.5-.3.6-.8,1.3-1.3,1.8-.5.5-1.1.9-1.8,1.1l-1.3.4,1.3,4.3,1.4-.4c1.5-.5,2.7-1.3,3.5-2.4.5-.6.8-1.4,1.2-2.2l1.9,2.9,4.1-2.3-3.2-4.9-2.7-8.9Z"/>
        <path class="cls-1" d="M227.9,348.4c-.7-1.6-1.6-2.7-2.9-3.2-1.2-.5-2.7-.4-4.4.3l-3,1.2,1.1,4.3,2.9-1.1c.5-.2,1-.3,1.2-.2.3.1.5.6.7.9l2.8,7.1c0,.4-.2,1-.4,1.5-.3.7-.7,1.3-1.2,1.9-.5.6-1,1-1.7,1.2l-1.3.5,1.6,4.1,1.4-.5c1.5-.6,2.5-1.5,3.3-2.7.4-.7.7-1.4,1-2.3l2.1,2.8,3.9-2.6-3.6-4.6-3.4-8.6Z"/>
        <path class="cls-1" d="M249.6,330.7l-10.4,6.5,1.8,4,2-1.2c.2.5.3.9.6,1.3l8,13,15.3-9.5-7.4-11.9c-2.4-3.9-5.8-4.6-9.9-2.1ZM255.3,335.5l5,8.1-6.9,4.3-6-9.7c-.1-.2-.3-.5-.4-.7l4.7-2.9c1.6-1,2.6-.7,3.6.9Z"/>
        <polygon class="cls-1" points="258.8 324.4 261 328.3 263.4 326.4 273.6 339.5 277.5 336.5 264.6 319.9 258.8 324.4"/>
        <path class="cls-1" d="M288.3,311.4c-2.1-2.2-4.1-3.5-6-4-2.1-.5-4.1,0-5.9,1.9-.4.4-.8.8-1.2,1.3-.3.4-.6.8-1,1.3l-.5.7,3,3.2,1.5-2c.2-.3.5-.6.8-.9.7-.7,1.4-.9,2.2-.6,1,.4,2.2,1.3,3.5,2.6,1.7,1.8,2.7,3.5,2.9,5,.2,1.4-.2,2.6-1.3,3.6-1,.9-2,1.2-3.4.9-1.5-.3-3.1-1.4-4.8-3.3l-6.6-7-3.6,3.4,6.6,7c2.6,2.7,5.2,4.3,7.7,4.6.4,0,.8,0,1.1,0,2.2,0,4.2-.9,6-2.6,2.2-2.1,3.2-4.5,3-7.1-.2-2.6-1.6-5.2-4.2-8Z"/>
        <polygon class="cls-1" points="283.8 301.8 286.7 305.2 288.7 302.9 294.9 308.2 298.1 304.5 288.6 296.3 283.8 301.8"/>
        <path class="cls-1" d="M318.3,288.8c-1.7-.1-3.3-.2-5-.2-1.3,0-2.6,0-3.8,0,0-1.5-.1-2.9-.7-4.1-.7-1.5-1.7-2.9-3.2-4.2l-3.2-2.7-2.8,4,3,2.6c1,.8,1.7,1.7,2.2,2.6.3.6.5,1.2.5,1.9-.4,0-.8,0-1.2,0-.7,0-1.4,0-2.1,0-1.5,0-2.9.1-4.1.2-1.2,0-2.3.1-3.2.2h-.4s-3.6,5.1-3.6,5.1l2.2-.3c.8,0,1.8-.2,3.2-.3l3.3-.2c0,1.5.2,2.8.9,4,.7,1.4,1.8,2.8,3.2,4.1l4.7,4.5,2.8-4-4.5-4.2c-1-.9-1.7-1.8-2.3-2.7-.4-.6-.5-1.2-.6-1.8,1.8,0,3.6,0,5.6,0,2.3,0,4.7.1,7.1.3h.6s3.2-4.6,3.2-4.6h-1.7Z"/>
      </g>
    </g>
  </g>
</svg>