<?xml version="1.0" encoding="UTF-8"?>
<svg xmlns="http://www.w3.org/2000/svg" version="1.1" viewBox="0 0 320 380">
  <defs>
    <style>
      .cls-1 {
        fill: #fffef5;
      }
    </style>
  </defs>
  <!-- Generator: Adobe Illustrator 28.6.0, SVG Export Plug-In . SVG Version: 1.2.0 Build 709)  -->
  <g>
    <g id="Layer_1">
      <g>
        <g>
          <path class="cls-1" d="M160.6,76c-.5-2.1-1.4-2.6-3.9-2.5-1,.7-1.4,1.6-1.3,2.6.1,1.8.2,3.6.5,5.3.2,1,.5,2.1,1.8,2.7.4-.3,1-.5,1.3-.9,1.7-2.1,2.3-4.6,1.6-7.2Z"/>
          <path class="cls-1" d="M146.5,89.7c.2.6.3,1,.6,1.8.3-1.6.5-2.8.7-4,.4-2.4.9-4.8,1.3-7.2.2-1.3.2-2.6-1.1-3.5-1.7,1.3-2.4,3.7-4.8,4.4v4.8c-.9.9-1.8.7-2.7.5-.2-.4-.4-.8-.6-1.1-.9.4-1.4,1-1.3,2,0,.2.1.4.2.6.5.1,1,.3,1.3.4.5.6.9,1.1,1.3,1.6,1.7-.1,3.3-.3,5-.4Z"/>
          <path class="cls-1" d="M159.5,92.4c.5-.5.9-1.1,1.3-1.7,2.9-4.1,5.4-8.4,6.3-13.5.2-1,.2-2-.5-3-1.8,6.8-5.4,12.5-9.1,18.2.9.9,1.5.4,2,0Z"/>
          <path class="cls-1" d="M148.7,72.2c4.6-1.6,9.1-3.7,13.3-6.6-.5-.4-.8-.7-1-.9-4.2,2.5-8.2,5-12.3,7.4Z"/>
          <path class="cls-1" d="M138.3,95.9c.3,2.6,1,5.1,3.1,6.9-1.9-3.7-2.9-7.5-2.4-11.7-1.2,1.5-.9,3.2-.7,4.8Z"/>
          <path class="cls-1" d="M152,95.5c-1-.5-1.9-.1-3,1.3-2.1,2.8-1.9,6.6.4,9-2.3-4.7-.7-8,2.6-10.3Z"/>
          <path class="cls-1" d="M126.4,84.6c2-.5,3.7-.6,5.1-1.3,2.9-1.3,5.8-2.8,8.6-4.3,1-.5,2-1.3,3-1.9-.7,0-1.2.3-1.8.5-.6.2-1.2.4-1.8.5-1.8.2-3.6.2-5.3.5-1.2.2-2.6.1-3.6,1-1.5,1.3-3,2.6-4.1,5Z"/>
          <path class="cls-1" d="M144.3,55.8c-9.2,0-19,10.3-13.4,21.8,1.2-.4,2.4-.7,3.5-1.2,1-.5,2-1.1,3-1.6.8-.4,1.3-1.1,1.5-2-.7-1.3-1.5-2.6-2.2-3.9-1.5-3.1-1-6.7,1.5-9.3,1.7-1.7,3.6-3.1,6.2-3.7Z"/>
          <path class="cls-1" d="M172.8,88.1c-.4.2-.6.3-.6.4-1.4,3.8-2.8,7.6-4.2,11.4.2,0,.4,0,.6,0,.3,0,.6,0,.9-.1,2.2-3.5,2.5-7.6,3.3-11.7Z"/>
          <path class="cls-1" d="M105.7,195.3c-.8,2.3-1.6,4.7-2.4,7.1-.5,1.5-1,2.9-1.6,4.4.3.3.5.4.7.6.2-.1.4-.2.4-.2,1.7-4.8,3.3-9.5,5-14.4,0-.1-.3-.3-.4-.6-1.3.7-1.3,2.1-1.7,3.2Z"/>
          <path class="cls-1" d="M151.6,84.7v5.7c.8.3,1.4.6,2.4,1-.3-2.5-1.3-4.6-2.4-6.7Z"/>
          <path class="cls-1" d="M161.1,143.3c-1.3,1.7-2.4,3.2-3.7,4.8,2.2.9,4.2.6,6.4.5-.9-1.8-1.8-3.5-2.7-5.3Z"/>
          <path class="cls-1" d="M241.6,168.6c-3-1.1-5.6-1.5-8.5-1,0,.3-.1.6,0,.9.3,2.3-.8,4.2-2.3,5.8-.5.6-1,1.3-1.6,1.7-1.2.9-1.8,2.1-2.3,3.5-.2.6-.5,1.2-.7,1.8q-1.2,3.4,0,6.8s0,0,.2.1c.1-.3.3-.7.3-1,0-2.4.9-4.6,1.3-6.9.1-.7.4-1.2,1.4-1.4,1.2,1.4,1.4,3.1,1.2,4.9-.2,1.4-.5,2.8-.7,4.2,0,.6-.2,1.3.6,1.5,1.1-2.8,2.1-5.5,3.1-8.2.6-1.4.8-2.8.6-4.4-.2-1-.4-2.1.3-3,2-.5,4-.4,5.8-1.1-4-.5-5.3-1.6-4.7-4.2h5.9Z"/>
          <path class="cls-1" d="M139,135.7c4.8,1.7,9.2,3.8,13.1,6.8-1.7-1.7-3.3-3.5-5-5.2,0-.7,0-1.3,0-1.9.4-2.2.9-4.5,1.4-6.7.2-.7.2-1.3,0-2.1-.5-1.6-.9-3.3-1.3-5-.1-.5,0-1.1-.1-2,1.6,1.3,2.8,2.4,4.2,3.5-2-3.7-3.9-7.2-6-11-1.1,4.2-2.2,8-3.2,11.8-1,3.9-2,7.8-3,11.8Z"/>
          <path class="cls-1" d="M125.7,179.7c-1.3-1.8-2.9-3.2-5.2-3.7-.5.9-1,1.7-1.4,2.6-1.4,3-2.6,6-4.6,8.7-.3.4-.6,1-.7,1.6-.2,1.8-.3,3.6-.5,5.4,0,.8.2,1.6.9,2.1.8.6,1.5,1.2,2.6,1.4.4-1.6.7-3,1.1-4.5.3-1.5.8-2.9,1.9-4,1-1,1.6-2.4,1.6-3.9,0-1,.3-2,.4-2.9.6,0,1.1,0,1.6.1q-1.4-3.5-.4-4.6c.9.5,1.8,1.1,2.7,1.6Z"/>
          <path class="cls-1" d="M136,148.4c-1.3,1.5-2.6,3.1-3.3,4.9-1.7,4.1-3.5,8.1-5.2,12.2-1.2,2.9-2.3,5.8-3.5,8.8,1,.6,1.9,1.1,2.7,1.5,2.5-3.8,5-7.4,7.3-11.2,2.3-3.9,4.3-7.9,6.4-12,.5.6.9,1.1,1.4,1.7.9-2.7,1.7-5.2,2.5-7.6-1.7-1.5-3.3-2.9-5.1-4.4-.3.7-.4,1-.6,1.4-.6,1.7-1.4,3.3-2.6,4.6Z"/>
          <path class="cls-1" d="M166.8,179.7c-.9-1.2-.9-2.7-.8-4.3.1-2.6,0-5.3.6-7.9.6-3.2,0-6.3-.2-9.4-.1-1.6-.6-3.2-1-4.7h-9.7c-1,1.7-1.9,3.4-2.8,5.1-2,3.6-4.3,6.9-6.9,10.1-3.2,3.9-6.5,7.6-9.6,11.5-1.5,1.8-2.8,3.8-4.4,6,1.3-.1,2.1-.3,2.9-.3,2.1,0,4.1-.1,6.2,0,1.6.2,3.1.9,4.5,1.3,1-1.6,1.8-3.2,2.9-4.6,2-2.4,4.5-3.6,7.7-3.1,2.2.4,4.1,1.2,5.8,2.6,1.4,1.1,2.7,2.5,3.9,3.6.3-1.8.6-3.7,1-5.8Z"/>
          <path class="cls-1" d="M220.8,238c-.3,3.1-.6,6.2-.9,9.4h37.9c-1-3.3-1.6-6.5-2.8-9.6-6.7-.3-32.4-.2-34.2.2Z"/>
          <path class="cls-1" d="M207.2,202.8c.3-4.3.7-8.5.4-12.8-.3-3.4-1.2-6.6-2-10-5.2-.3-10.3-.1-15.5,0,0,2.8-.2,5.5,0,8.1.1,1.7.2,3.5,1.5,5,6.7-2.3,10.2-3.1,11.9-2.6-1.5,1-3,2-4.4,3.1-2.4,1.9-4.2,4.3-4.7,7.5-.2,1.6-.4,3.1-.5,4.7-.3,2.6-.5,5.1-.7,7.7-.2,2.1-.5,4.3-.5,6.4,0,2.3.5,4.5.9,6.8.6,3.7,1.2,7.4,1.1,11.1,0,4.2-.3,8.3-.4,12.5,0,.2,0,.4,0,.6-.4,4.1-.7,8.3-1.2,12.4-.4,3.8-1,7.6-1.6,11.5-.4,2.7-1,5.4-.4,8.2,4.4,3.1,9.6,4,14.9,4.1-.8-.3-1.6-.5-2.4-.6-3-.4-5.6-1.6-8-3.3-.7-.5-1.3-1-1.7-2,3.6.4,7.1.8,10.8-.3-6-2.4-9.6-5.3-10.4-8.2.9-.6,1.8-1.1,2.7-1.7,2.8-1.9,5-4.3,6.2-7.5,1.8-5,2.8-10.2,2.6-15.8-2.5-2.8-5-5.7-7.6-8.6,2.3-.9,5-.3,7.3-1.9-1-2.4-3.6-3.2-5.2-5,.7-.5,1.3-.8,1.8-1.3,1-.8,2-1.6,2.9-2.6,1.2-1.2,1.7-2.7,1.7-4.5,0-3.1,0-6.2,0-9.3.1-3.9.3-7.9.5-11.8Z"/>
          <path class="cls-1" d="M72.2,196.9c1.7-1.5,2.8-3.5,4-5.5-1.6,1.6-3.1,3.3-4,5.5Z"/>
          <path class="cls-1" d="M255.8,220.9c.4,2.3.7,4.4,1.1,6.6.4,2.2.8,4.4,1.8,6.7.4-2.1.4-11.5,0-13.3h-3Z"/>
          <path class="cls-1" d="M258.9,211h-4.5c0,2.2.6,4.2,1,6.2h3.5c.1-2.1.2-4.2,0-6.2Z"/>
          <path class="cls-1" d="M277.7,138.9c-.8-.3-1.7-.4-2.5-.4-1.7,0-3.1.8-4.6,1.6-2.8,1.6-5.8,2.8-9,3.2-3.9.5-7.8.8-11.7.8-1.8,0-3.7,0-5.5,0,0,2.5.2,4.8.3,7.1h56.3c-.8-2.3-1.6-4.5-2.4-6.6-5-.5-9.7-1.5-14.3-3.3-2.2-.9-4.4-1.6-6.6-2.4Z"/>
          <path class="cls-1" d="M35,142.2c1,.2,2.1.5,3.1.4,1.6-.2,3.2-.7,4.8-1.1.9-1.6,1.9-3.4,2.9-5.1,1.8-2.9,4.1-5.4,7.2-6.9,2.1-1,4.3-1.6,6.6-1.3,2.2.3,4.4.7,6.5,1.3,1.5.4,2.8.3,4.2-.3.7-.3,1.3-.6,2-.7,2.8-.6,5.2.5,7.3,2.2,2.7,2.2,4.6,5,5.6,8.4,4.1.9,7.6,2.6,9.9,6,1.1.2,1.9.4,2.8.5,1.8.2,3.7.4,5.5.6,3.3.2,6.5-.4,9.7-1.4,2.5-.8,5-.9,7.6-.4,3,.7,6.1,1.2,9.2,1.7,1.3.2,2.7.3,4.1-.1.8-2.3,1.6-4.6,2.4-7.1-1.1-.4-1-1.4-.9-2.3,0-.5.2-1,.3-1.5,2.1-8.3,4.2-16.6,6.3-24.9.2-.7.4-1.4,0-2.1-.4,0-.8,0-1.3,0-2.7-.1-4.4-1.6-5.4-4-.7-1.7-.6-3.5-.1-5.3.2-.9.5-1.8.5-2.7,0-2.2-.3-4.4-.3-6.6,0-1.3-.1-2.5-.7-3.6-2.2.9-4.3,1.8-6.4,2.6-1.9.7-3.8,1.2-5.8,1.1-1.3,0-2.1-.6-2.5-1.8,2.6-3.2,5.2-6.4,7.7-9.5-2.2-3.8-2.3-7.7-1.5-11.7,1.2-5.6,4.7-9.4,9.9-11.6,4.2-1.9,8.7-2.4,13.2-1.6,5,.9,8.7,4,11.7,8.1.4.6.8,1.2,1.4,1.6,1,.9,1.5,1.9,1.6,3.2.1,2.2,1.1,4,2.1,5.2,2.2,1.5,4.1,2.7,5.7,3.9,6.3.2,12.4.5,18.5.6,3.6,0,7.3.3,10.9.9,6.9,1.1,12.5,4.5,17,9.9,3.3,3.9,6.7,7.8,10.1,11.8,1.7,2,3.3,3.9,4.9,6,1.6,2,2.6,4,.9,6.3,4.3,8.2,7,16.7,9.2,25.6,3.2-1.7,6.2-3.3,9.2-5,3.8-2.1,7.6-4.2,11.4-6.3,1.4-.8,2.8-1.1,4.3-.8,1,.2,2,.4,2.9.8,2.8,1.2,5.6,2.5,8.4,3.8,5.1,2.4,10.1,5,15.2,7.4.1,0,.2-.2.3-.2-1.5-3.3-3-6.6-4.6-9.9-5.3-10.8-11.9-20.7-19.6-29.9-5.4-6.4-11.2-12.3-17.7-17.5-8.4-6.8-17.4-12.8-27-17.6-10.4-5.2-21.3-9.2-32.7-11.8-6.1-1.4-12.2-2.5-18.5-3-4.3-.4-8.5-.8-12.8-.8-3.4,0-6.7-.1-10.1,0-4,.2-8,.7-11.9,1.2-4.6.7-9.1,1.4-13.6,2.4-10.6,2.4-20.7,6.1-30.5,10.9-14.3,6.9-26.9,16.2-38.3,27.2-4.2,4.1-8,8.4-11.6,12.9-8.6,10.5-15.4,22-20.7,34.5-.7,1.6-1.3,3.2-1.9,4.8.4.2.6.3.9.4,3.5,1.1,7,1.9,10.6,2.5ZM244,97.4c.6-.4,1.3-.7,2-.8,1.5-.2,2.6-.9,3.6-2,2.7-2.7,7.9-1.9,9.8,1.4,2.3-.1,4.1.6,5.6,2.2.6.7,1.3,1.4.8,2.6-8,0-16.1,0-24.3,0,.3-1.8,1.3-2.7,2.5-3.5ZM91.9,74.9c4-4.1,9-4.2,13,.3,3.1.6,6.1,1.3,7.8,5.1-10,0-19.6,0-29.2,0,.9-3.2,3.2-4.7,8.4-5.5ZM49.5,108.5c2.2-3.5,5.4-5,9.4-5.1,5.5-8.9,17.2-8.4,21.7-.3,6.2-2,8.9-1,12.8,4.8,3.7.9,7.5,2,9.5,6-.7.7-1.6.5-2.3.5-8.5,0-17,0-25.5,0-9.6,0-19.3,0-28.9,0-.8,0-1.7.2-2.5-.2.6-2.7,2.1-4.2,5.7-5.6Z"/>
          <path class="cls-1" d="M215,121.1c2.5-2.3,5-4.5,7.5-6.7-.7-1-1.4-2.1-2.1-3.2-5.8-8.3-11.5-16.6-17.3-24.8-.5-.7-1.3-1.3-2-1.9-.9.5-1.7.8-2.5,1.2-1.7,1.1-2.9,2.7-4.1,4.7.3-3.6,1-5.2,3.8-8.2-6-1.9-12.2-2.3-18.4-2.7-.6,5-1.7,9.7-3.6,14.2-2,5-4.6,9.5-8.9,12.9-3.8,3-7.8,4-12.3,1.8-.4-.2-.9-.4-1.5-.6-1.3,1.8-3.5,1.1-5.4,2.2.3,1,.6,1.9,1,2.8,1.9,4.8,4.4,9.3,6.9,13.8,4,7.1,8.1,14.2,11.3,21.7.9,2.1,1.7,4.2,2.6,6.4,2.6-3.1,3.1-7.1,5.2-10.8,0,.9.2,1.4,0,1.8-.5,2.5-1,5-1.6,7.5-1.2,5.1-2.5,10.3-3.7,15.4-.4,1.9-.9,3.8-.6,6,2.2.1,4.3.3,6.3.4,3.1,0,6.3,0,9.4,0,3.9,0,7.8-.2,11.7-.9,2.1-.4,4.1-.8,6.3-2-4.3,0-8.3.1-12.3-.6,3.3-2.3,6.6-4.4,9.7-6.8,3.1-2.3,6.5-6.7,7.3-8.9-7.3,4.2-15.4,6.5-23,10.1,0-.4.3-.6.4-.9,2.1-2.9,4.3-5.7,6.4-8.6,4.7-6.5,8.6-13.3,11.1-21,.1-.4.2-.7.3-1.5-2.9,4-5.5,7.7-8.2,11.3-2.7,3.6-5.5,7.1-9,10,0-.4,0-.7,0-1.1.7-2.2,1.4-4.3,2-6.5,2.2-7.6,4.1-15.3,5.5-23.1.5-3.2,1.2-6.3,1-9.6,0-.4,0-.8,0-1.5,2,1.9,3.9,3.6,5.9,5.4-.5-2.8-.9-5.4-1.4-8-.8-4.5-.9-6.1-.3-7.9,5.4,6.1,10.7,12.1,16,18.1Z"/>
          <path class="cls-1" d="M190.4,310c.4-.4.7-.7,1-.9.8.3,1.4.6,2.2.9,2.5-.4,4.9-.8,6.9-2.2-2.1,0-4.1.3-6.2.2-2-.1-4.1-.4-6.1-.8-2-.4-3.9-1.2-5.8-1.7-.6,1.1-.5,2,.1,2.8,2.6,1,5.2,1.8,7.9,1.9Z"/>
          <path class="cls-1" d="M174.8,193.4c2.8-.6,5.3,0,7.5-.4v-12.7c-.8-.2-1.5-.3-2.1-.4-1.5-.2-3-.3-4.5-.4-1.7-.1-3.4-.3-5.3.8-.3,2.6-.6,5.2-.9,7.8-.2,1.8-.3,3.6-.5,5.3-.3,3.3-.7,6.6-.7,9.9,0,8-.3,16.1.2,24.1.2,3.3.8,6.4,1.7,9.5,1.9,6.1,5.2,11.4,9.1,16.4.7.9,1.5,1.8,2.2,2.7-1.6-3.2-3.5-6.2-5-9.5-3-6.3-3.6-8.3-3.6-10.3,1.8.6,3.3,2,5.3,2.6-1.1-1.5-2-2.7-2.9-4-1.9-2.8-2.3-5.8-1.2-9,1.2-3.4,2.4-6.7,3.7-10,1-2.3,2.2-4.6,3.4-7.1-1.8,1.1-3.3,2.1-5.2,3.4,2-5,4.7-9.2,7.4-13.4-2.9-1.8-5.7-3.5-8.8-5.3Z"/>
          <path class="cls-1" d="M142.8,194.1c4.4,2.7,7.9,6.4,11,10.4,3.9,5,7.5,10.1,10.7,15.6.4-2,0-3.7-1.2-5.3-1.6-2.2-3-4.6-4.5-6.8-3.1-4.5-6.4-8.8-10.5-12.5-2.1-1.9-4.3-3.5-7-4.5-2.5-1-5-1.1-7.5-.4-1.2.3-1.8,1.1-2,2.2-.1.8-.3,1.5-.4,2.3,0,1.2-.6,2-1.6,2.6-.9.5-1.5,1.3-2.1,2.1,1.4-.6,2.5-1.7,4.1-1.6,1,1.1,1.1,1.5.4,2.4-.7.9-1.5,1.7-2.1,2.7-1.5,2.4-3.4,4-6.2,4.4-2.7.5-5.3,1.6-8.2,1-.4,0-1,.2-1.5.2-.5,0-1,0-1.6.1-.5-.7-1-1.3-1.4-1.9-.9,1.3-1.7,2.5-2.6,3.9,3.5.2,6.8.3,10,.5.6,0,1.2.2,1.8.4.2,0,.3.3.5.6,0,.5,0,1.2-.1,1.9-1.7.7-3.5.3-5.1.4-1.6,0-3.3,0-4.9,0-1.7,0-3.3-.2-5-.3.4,3-1.3,5.3-4.4,6.2-.8,1.7-1.7,3.4-2.6,5.2h31.4c0-.2-.1-.3-.2-.4-2.9-3.9-2.4-9.7,1.5-13,1.1-1,2.4-1.8,3.6-2.7.4-.3.9-.6,1.3-.9-.4-5.9.1-11.4,4.4-16,.8.5,1.4.8,2,1.2Z"/>
          <path class="cls-1" d="M173,297.3c2.7,1.1,5.2,1.6,7.8.5v-1.1c-2.6-.5-5.2-1-7.8-1.4v2.1Z"/>
          <path class="cls-1" d="M181.5,289.3c-2-.6-4-.7-6,.2-1.4.7-1.7,1.4-1.5,3.1,1.6-.3,3.1-.5,4.5-.8,1.8-.4,3.5-.8,5.7-1.3-1.1-.5-1.9-.9-2.7-1.2Z"/>
          <path class="cls-1" d="M197.8,292.5c-1.7-.9-3.3-1.9-5-2.7-.4-.2-.9-.2-1.5-.3-.3.7-.5,1.2-.7,1.7,2.4.5,4.7.9,7.3,1.4,0,0,0,0,0,0Z"/>
          <path class="cls-1" d="M183.4,300.6c-.3.8-.2,1.4.5,1.9,1.7-1.5,3.8-2.1,6-2.5,1.7-.3,3.4-.8,5.1-1.4.7-.2,1.6-.4,2-1.3-2.3-.9-4.6-1.5-7.1-1.5-3.4,0-5.6,2.5-6.5,4.7Z"/>
          <path class="cls-1" d="M99,210.8c.4,0,.8,0,1.5,0-.3-1.2-.5-2.2-.7-3.2-.1-1-.4-2.1-.2-3,1.3-4.7,3-9.2,5.2-13.6.4-.7.8-1.4,2-1.6,1.1.6,2.3,1.3,3.6,2,.2-.6.5-1.1.5-1.7.2-2.1,1.2-3.8,2.2-5.5,1.1-1.9,2.1-3.9,3-5.9.6-1.2,1-2.4,1.5-3.6.5-1.1,1.3-1.8,2.7-1.8.3,0,.7,0,.9-.1,2.7-6.6,5.3-13,7.9-19.4h-30.5c.9,2.6.3,5-.6,7.6,4,2,6.2,5.1,6.5,9.4.3,4.2-.8,7.9-4.5,10.4,2.9,6.5,1.2,14-8,18.2-1.7,3.4-4.2,6.2-7.9,7.7-3.7,1.5-7.5,1.4-10.8,0-1.1.9-2.1,1.7-2.9,2.3,0,.6-.2.9-.2,1.1-.1,4.2-.3,8.3-.3,12.5,0,2.4,1.2,3.5,3.6,3.5,5.5,0,11,0,16.5,0,.9,0,1.8,0,2.7,0,1.3-1.4,2.1-3,2.8-4.7.4-1,.5-1.9.1-2.9-.7-2-.2-3.8.4-5.7.4-1.3,1.3-2,2.7-1.9Z"/>
          <path class="cls-1" d="M264.8,253.7c3.2,6.8,10.5,10.8,15.9,8.9.4-2.4.3-7.4-.1-8.9h-15.8Z"/>
          <path class="cls-1" d="M260,175.4c0,3.4,0,6.7,0,10.1,0,.4,0,.9,0,1.3,0,1.4.7,2,2,2,1.5,0,3-.1,4.6-.2v-15.6h-6.2c-.1.9-.3,1.7-.3,2.4Z"/>
          <path class="cls-1" d="M233.9,308.9c-1.6.2-3.2.5-4.8,1-3.1,1.1-6.1,2.5-9.3,3-2.7.5-5.5.9-8.2,1.1-3.7.4-7.4.6-11.1.8-3,.1-6,0-9,0-2.4,0-4.7-.3-7-.8-1.1-.3-2.2-.5-3.3-.9-1.5-.6-2.6-1.8-2.9-3.5-.2-1.2,0-2.4,0-3.6,0-.6,0-1.3,0-1.9,0-.7.2-1.3.3-2.3-2.5,0-4.8.1-7,0-3.9-.3-7.8-.7-11.7-1.2-1.6-.2-3.5-.1-4.7-1.6v-1.8c.6-.2,1.1-.5,1.6-.6,2.6-.6,5.1-1.1,7.7-1.7,1.6-.4,3.2-.5,4.6-1.4.4-2.1.7-4,2.4-5.4,1-.9,2.1-1.4,3.4-1.8,2.4-.8,4.5-2.1,6.6-3.5,1.1-.8,2.1-1.7,2.9-2.9-1.1-2.1-.7-4.2,0-6.3,0-.3.1-.6.2-.8.3-.8.2-1.5-.2-2.3-2.1-4.2-4.3-8.4-6.9-12.4-1-1.5-2-3-2.9-4.3h-80.8c.4-2,.7-3.8,1.1-5.9h75.3c-1.3-3.5-2.6-6.7-3.9-10.1-2.8,0-5.7,0-8.6,0-2.9,0-5.9,0-8.8,0-3,0-6,0-9,0-2.9,0-5.9,0-8.8,0-2.9,0-5.9,0-8.8,0-2.9,0-5.9,0-8.8,0-3,0-6,0-9,0-2.9,0-5.8,0-8.7,0-.3-1.6.3-3.1-.8-4.3-1.1-1.1-2.3-1.9-3.7-2.5-3.1,1.9-5.3,4.6-7.9,6.9-4,0-8,0-12,0-4.1,0-8.1,0-12.2,0-4,0-8,0-12,0-4.1,0-8.1,0-12.2,0-4,0-8,0-12.2,0,1.3,3.6,2.6,6.8,3.8,10.2h46c-1.6,1.7-3,3-4.3,4.4-1.1,1.3-2.3,1.6-4,1.6-10.8,0-21.6,0-32.4,0-.7,0-1.4-.2-2,.3,38.6,77.7,139.7,107.6,215.2,53.2-1.1.1-1.8.2-2.4.3-2.9.4-5.8.7-8.7,1.1ZM57.7,281.4c-.6.3-1.4.6-2.1.8-.4-.2-.6-.4-.9-.5-.7-.6-1.5-1.3-1-2.4.5-1,1.3-1.7,2.5-1.7.3,0,.7,0,1.1.1q.8,1.6.3,3.6ZM57.4,271.3c-.9-.9-1.8-1.7-2.8-2.7-.1-1.4,0-1.7.9-2.1.9-.4,1.7-.2,2.4.7.6.6,1.1,1.3,1.7,1.9,0,2-.3,2.3-2.2,2.2ZM115.5,265.7c2.6-.2,5.1-.4,7.7-.5,3.6-.2,7.3-.5,10.9-.7,1.4,0,2.7-.1,4.1-.1,6,0,12-.1,18,0,4.6.1,9.2.5,13.9.8,0,.2,0,.3.1.5-.8.2-1.6.5-2.5.5-3.7.3-7.4.5-11.1.9-7.8.9-15.7.9-23.5.7-3.4,0-6.7-.2-10.1-.4-3.6-.2-7.1-.5-10.7-.8-.2,0-.4-.1-.9-.3,1.5-.2,2.8-.5,4-.6ZM104.9,280c.3-.3.7-.5,1.1-.7,1.1-.6,2-.3,2.6.6.7,1.1.5,2.2-.5,2.8-.8.5-1.8.8-2.7,1.2-2-1.4-2.1-2.8-.5-4ZM99.4,261.8c1,.3,1.2.9,1.1,1.7-.2,1.2-1.1,1.9-2.2,2.2-.9-1.9-.6-2.6,1.2-3.9ZM97.3,274.4c.3.4.7.9,1.2,1.5-.3.5-.5.8-.8,1.1-.2.2-.6.6-.9.5-1.4-.3-2.4,1.4-3.8.6-.6-.7-.7-1.4-.1-2.1,1.1-1.4,2.4-1.9,4.4-1.6ZM93.8,236.6c-1.1,4.6-2.1,9.2-3.2,13.7-2.1,8.7-4.7,17.3-8.1,26.1,0-.6-.2-.9-.2-1.2,1.5-11.5,4.3-22.7,7.9-33.7.9-2.7,1.9-5.2,3.6-7.7.4,1,.2,1.8,0,2.7ZM66.6,278.7c-.7,0-1.4-.5-1.4-1.3,0-.9.8-1.8,1.7-1.9.8,0,1.4.5,1.4,1.3,0,.9-.7,1.8-1.7,1.9ZM70.2,270.9c-.4-.4-.8-.9-1.2-1.3.4-1,.8-1.6,1.8-1.4.4,0,.8.6.9,1,.2.8-.3,1.3-1.5,1.6ZM75.3,282.4c-1.1-.9-.6-2.4-1.1-3.4q1-1.6,2.4-1c.7,2.4.4,3.6-1.3,4.5ZM77.1,265.5c0-1.8,1.6-6.1,4.7-12.9,1.9-4.2,4-8.3,6.1-12.8-6.9,9.1-12.6,18.9-20.4,27-.2.2-.4.3-.7.5,0,0-.2-.2-.2-.3,1.3-2,2.5-4.1,3.8-6.1,0,0-.2-.2-.2-.2-.8.7-1.7,1.3-2.5,2,3.4-5.1,7-10,10.9-14.7,3.9-4.7,7.5-9.6,12.3-13.4.2.1.3.3.5.4.3-.4.6-.7.9-1.1.2.1.3.3.3.3-.8,2.3-1.6,4.7-2.6,7-3.5,8.1-7.4,16-12,23.4-.2.3-.4.6-.7.9ZM128.7,297.6c-6.3.1-12.7.4-19,.4-3.9,0-7.8-.4-11.7-.7-.3,0-.6,0-.9,0-4.1-.2-8.3-.3-12.4-.5-1.5,0-3-.3-4.5-.8,2.5-.2,4.9-.4,7.4-.5,4.6-.3,9.2-.5,13.9-.8,1.4,0,2.7,0,4.1-.1,3.7,0,7.4-.2,11.1-.3,1.6,0,3.1.2,4.7.2,2.3,0,4.6,0,6.9,0,5.5.3,11,.6,16.4.9.2,0,.4.1.8.3-2.6.7-5.1.9-7.6,1.1-2.8.3-5.5.5-8.3.7-.3,0-.6,0-.9,0ZM133.9,313.8c4.4-1.6,22.6-1.6,27-.1-4.7,1.9-18,1.4-27,.1Z"/>
          <path class="cls-1" d="M280.4,247.2c0-1.5,0-3,0-4.5,0-1.6,0-3.1,0-4.6-1.7-.5-17.8-.6-20.7-.2.8,3.2,1.6,6.4,2.6,9.5,5.8.3,16.4.2,18.2-.2Z"/>
          <path class="cls-1" d="M275.6,174.4c-.3-1-.9-1.7-1.9-1.7-1.5,0-3.1-.3-4.6.6v15.2c1.7,0,3.3.2,4.8,0,1.6-.2,1.9-.6,1.9-2.3,0-3.5,0-7,0-10.5,0-.4,0-.9-.1-1.3Z"/>
          <path class="cls-1" d="M280.8,267c-10.2.5-17.1-4-20.7-13.3h-40.2c-.8,5.3-1.2,10.6-3.3,15.7.9,1.7,1,3.4.9,5.2-.1,1.7-.3,3.4-.4,5.1-.2,3.4-.9,6.7-3.1,9.4-.2.2-.3.5-.4.6.7,1,1.6.7,2.4.7,15.5,0,31,0,46.5,0h1.8c2.9-2,10.3-10.6,16.5-18.9,0-.7,0-1.5,0-2.3,0-.8,0-1.5,0-2.4ZM226.6,266.5c.4-.1.9-.4,1.3-.4,5.5,0,11,0,16.5,0,.3,0,.5.1.8.3-1.9,1.2-12.1,1.5-18.6.2Z"/>
          <path class="cls-1" d="M286.9,157.2h-42.4c-.2,2-.3,3.9-.4,5.8.8.6,1.5,1,2.2,1.5-.2,3.1.6,6.2-.7,8.6.2,2.8.5,5.2.7,7.6.1,1.8.2,3.6.2,5.4,0,1.2-.1,2.3-.8,3.3-.4.5-.7,1-1,1.5,4.5,4.6,7.1,10,8.6,16.1.7,0,1.4,0,2,0,4.2,0,8.4,0,12.7,0,2.1,0,4.1,0,6.2,0,2.2,0,3.6,1.4,3.8,3.6,0,.5,0,1,0,1.5,0,4.2,0,8.5,0,12.7,0,.5,0,.9,0,1.5h2.6c.9-3,3.2-4,6.2-3.9v-65.2ZM278.9,187c0,2.6-1.2,4.1-3.8,4.7-.6.1-1.3.3-1.9.3-3.8,0-7.6,0-11.4,0-.7,0-1.4-.2-2.1-.4-1.8-.5-2.8-1.7-2.9-3.5-.1-1.1-.2-2.1-.2-3.2,0-3.2,0-6.5,0-9.7,0-3.6,1.4-5.4,5.3-5.5,3.9-.1,7.7,0,11.6,0,.6,0,1.1.1,1.7.2,2.4.4,3.7,1.9,3.8,4.4,0,2.2,0,4.3,0,6.5h0c0,2.1,0,4.2,0,6.3Z"/>
          <path class="cls-1" d="M316.7,184.5c0-1-.1-2.1-.2-3.1-.3-4.4-.5-8.9-1.3-13.4l-.4-2.3c-.6-3.7-1.2-7.5-2.1-11.2-2-9-5.1-18-9.3-27.6-6.9-15.5-16.3-29.8-28.2-42.7-5.7-6.3-11.8-11.9-17.9-16.7-15.1-11.9-32.1-20.8-50.5-26.6-6.5-2-13.1-3.6-19.6-4.8-3.9-.7-8.2-1.4-12.5-1.7-1.1,0-2.3-.2-3.5-.3-2-.2-4.3-.4-6.6-.5h-1.9c-1.6,0-3.2,0-4.7,0-3.6,0-6.4.1-9,.4l-2.4.2c-3.4.3-6.8.6-10.3,1.1-5.8.8-11.8,2.1-17.8,3.7-16.7,4.6-32.2,11.8-46.1,21.2-7,4.8-13.9,10.4-20.5,16.6-5,4.7-9.8,10.1-15.7,17.4-10.1,12.7-18,27-24.2,43.9-4.2,11.5-6.8,22.2-7.9,32.8l-.2,1.9c-.4,3.7-.8,7.6-.9,11.5,0,3.9,0,7.9.2,11.7h0c0,1.7.1,3.3.1,4.9,0,.3,0,.6,0,.9.2,1.2.3,2.4.4,3.6v.2c.4,2.9.7,5.9,1.2,8.9.6,3.5,1.3,8.1,2.4,12.7,2.4,10,6,20.1,10.9,30.3,7.3,15.2,17.2,29.2,29.2,41.5,5.3,5.4,11.1,10.5,17.4,15.3,15,11.3,29.7,19.2,44.8,24.1,9,2.9,16.5,4.8,23.5,5.9,3,.5,6.1.9,9.4,1.3,2.7.3,5.5.7,8.4.8,1.1,0,2.2,0,3.5,0s1.6,0,2.4,0h.4c.8,0,1.6,0,2.3,0,1.1,0,2.2,0,3.2,0,7,0,12.7-.4,18-1.3,1.3-.2,2.7-.4,4.1-.7,3.1-.5,6.2-1,9.4-1.7,15.1-3.6,29.1-9,41.6-16.1,13.1-7.4,24.3-15.9,34.2-25.9,6.4-6.5,11-11.7,15-17.1,11.1-14.9,19.6-31.8,25.1-50,3.2-10.7,5.2-21.2,5.8-31.3.3-5.5.7-11.7.3-18ZM312.2,202.2c-.6,10.3-2.6,20.4-5.6,30.3-5.4,17.6-13.5,33.9-24.5,48.6-4.4,5.9-9.4,11.4-14.6,16.6-9.9,10-21,18.3-33.2,25.2-12.7,7.2-26.3,12.3-40.5,15.6-4.3,1-8.8,1.6-13.2,2.3-6.8,1.2-13.6,1.4-20.5,1.3-2.9,0-5.7.1-8.6,0-2.7-.1-5.4-.5-8.1-.8-3.1-.4-6.2-.8-9.3-1.3-7.8-1.3-15.4-3.4-22.9-5.8-15.9-5.1-30.2-13.4-43.5-23.4-6-4.5-11.7-9.4-16.9-14.8-11.7-11.9-21.2-25.4-28.4-40.4-4.5-9.4-8.2-19.2-10.6-29.4-1-4.1-1.7-8.2-2.4-12.4-.7-4.2-1.1-8.4-1.6-12.6,0-.1,0-.3,0-.4-.1-5.5-.4-10.9-.3-16.4,0-4.4.6-8.7,1.1-13.1,1.2-10.9,3.9-21.5,7.7-31.8,5.6-15.5,13.2-29.8,23.5-42.7,4.7-5.9,9.7-11.7,15.2-16.9,6.3-5.9,12.9-11.3,20-16.2,13.8-9.4,28.8-16.2,44.8-20.7,5.7-1.6,11.4-2.8,17.3-3.6,4.2-.6,8.3-.9,12.5-1.3,5.1-.5,10.1-.3,15.2-.3,3.3,0,6.5.5,9.8.8,4.1.3,8,1,12,1.7,6.5,1.1,12.8,2.7,19,4.7,17.9,5.6,34.3,14.2,49.1,25.9,6.3,4.9,12,10.4,17.4,16.2,11.4,12.4,20.6,26.2,27.4,41.6,3.8,8.6,7,17.5,9,26.8,1,4.4,1.7,8.8,2.4,13.3.9,5.3,1.1,10.7,1.4,16,.4,5.8,0,11.6-.3,17.4Z"/>
          <path class="cls-1" d="M304.8,177.7c-1.5.7-2.4,1.8-2.3,3.5,0,3.6,0,7.2,0,10.8,0,1.3.6,2.2,1.7,2.8.4.2.9.3,1.4.5,0-.2.2-.3.2-.5,0-5.1,0-10.2,0-15.3,0-.7,0-1.3-.9-1.8Z"/>
          <path class="cls-1" d="M284.5,229.5c0,9.9,0,19.8,0,29.7,0,.6,0,1.3,0,2.2,1.4-.9,2.6-1.7,3.7-2.5,0-.9,0-1.7,0-2.5,0-6.5,0-13.1,0-19.6,0-2.3.9-4.1,2.1-5.9.5-.7,1.1-1,2-1.1,1.3-.1,2.7-.3,4-.5,2.2-.4,4.3-1,6.1-2.9h-17.7c0,1.2-.2,2.1-.2,3Z"/>
          <path class="cls-1" d="M240.6,193.2c-2.8,1.6-5.4.7-8.1-.3-1.6,1-3.2,0-4.8,0-1.2,5.1-2.1,10.2-3.4,15.1-1.1,4-1.6,8-1.7,12.1,0,.9-.2,1.9-.2,2.8,0,1,0,2.1,0,3.3,2.6-.1,5,0,7.4-.1,0-.8,0-1.4,0-1.9,0-4.3,0-8.6,0-12.9,0-.7.1-1.4.4-2.1.7-1.5,2-2.1,3.7-2.1,4.4,0,8.7,0,13.1,0,.5,0,1.1,0,1.6-.1-1-4.8-3.9-9.8-8-13.6Z"/>
          <path class="cls-1" d="M224.9,117.9c-1.9,1.3-3.4,2.9-4.8,4.6.9,1.2,1.6,2.2,2.4,3.2.8,1,1.2,2.4,2.4,3.1,1.2-.4,1.7-1.7,3.2-1.7-.2,2.2-.7,4.2-.5,6.2.3,3.1.8,6.2,1.5,9.3,1.4,5.5,3,11,4.5,16.5.3,1.2.7,2.4,1.1,3.7,1.2.1,2.4.3,3.3-.5-.8-12.1-2-24-4.3-35.8-3.4-2.4-6-5.5-8.7-8.6Z"/>
          <path class="cls-1" d="M60.5,226c2-.2,3.2-1.6,3.4-3.6.1-1.3.3-2.6.3-3.9,0-1.8,0-3.6,0-5.4,0-.5-.1-1-.4-1.4-1.4-2.4-2.8-4.8-4.3-7.2-3.6,4-8,5.2-12.9,4.2-5.3-1.1-8.8-4.4-10.4-9.5-1.4-.4-2.7-.6-3.9-1-4.3-1.6-7.4-4.8-9.5-8.8-3-5.8-.5-12.8,4.2-14.6.1,0,.2-.2.3-.3-3.7-7,2.4-15.9,8.7-16.6,0-2.5-.2-5,.9-7.4,1.1-2.3,2.5-4.3,4.6-5.8-.8-.4-1.3,0-1.9.4-2.8,2-4.9,4.6-6,8h-14.5c-.6,2.5-1.3,4.9-1.8,7.3-1,4.6-1.8,9.2-2.2,14-.4,3.9-.8,7.8-.8,11.8,0,6,0,11.9.8,17.8.4,2.8.5,5.7,1,8.5.8,4.4,1.7,8.8,2.6,13.4.7,0,1.2,0,1.7,0,12.9,0,25.7,0,38.6,0,.5,0,1,0,1.5,0Z"/>
          <path class="cls-1" d="M234.4,210.9c-.3,0-.6.2-1,.3.2,2.1-.2,4,.2,6h17.1c.2-2.4-.3-4.6-1.2-6.4-5,0-10.1,0-15.1,0Z"/>
          <path class="cls-1" d="M56.8,191.8c1.4,2.8,2.8,5.5,4.3,8.1,1.5,2.7,3,5.5,4.6,8.4.7-2.6,1.4-20.2.9-23.5-.7,5.4-1.4,10.7-2.1,16.3-3-2.9-5-6.4-7.8-9.3Z"/>
          <path class="cls-1" d="M230.7,165.6c.5-1,.5-1.9.3-2.9-1.3-5-2.6-10.1-4-15.1-.7-2.5-1.5-5-2.3-7.6.1,2.5.5,4.8.8,7.2.4,2.7.7,5.4,1.1,8.1.2,1.6.4,3.1.6,4.7.3,2.3.6,4.5.7,6.8,0,2.1-.1,4.3-.2,6.9,1.1-1.6,1.9-2.7,2.7-3.8,0-.9,0-1.7,0-2.5,0-.6,0-1.3.4-1.9Z"/>
          <path class="cls-1" d="M233.5,220.8v12.9h20.3c-.8-4.4-1.6-8.6-2.4-12.9h-17.9Z"/>
        </g>
        <g>
          <path class="cls-1" d="M22.3,69.1l7,6.8c.5.5.7.9.7,1.1,0,0,0,.3-.4.8l-1.5,1.6,4.2,5.2,2.9-3c1.7-1.7,2.5-3.6,2.3-5.6-.1-1.9-1.1-3.8-3-5.7l-6.9-6.7,2.6-2.7c.5-.6,1.1-.9,1.6-.9.5,0,1.1.3,1.7.9l11.1,10.8,5.3-5.5-11.2-10.9c-4.2-4.1-8.7-3.8-13,.7l-10,10.4,4.1,5.3,2.5-2.6Z"/>
          <polygon class="cls-1" points="44.5 47.9 55.6 62 61.5 57.3 46.4 38 38.6 44.1 42 49.9 44.5 47.9"/>
          <polygon class="cls-1" points="58.1 40.9 69.4 59.8 75.7 55.5 64.4 36.6 58.1 40.9"/>
          <polygon class="cls-1" points="68.7 31.2 73.4 49.3 80 45.3 74.8 25.2 72.8 20.9 53.1 32.9 55.7 39 68.7 31.2"/>
          <path class="cls-1" d="M83.8,23.4c0,.2-.1.3-.2.5-.3,1.1-.3,2.2-.2,3.2.2.9.4,1.8.8,2.7.3.8.8,1.7,1.4,2.8.6,1.1,1.3,2.2,2,3.4.7,1.2,1.5,2.3,2.2,3.4l.5.7,7.2-3.2-.6-1c-.4-.6-.8-1.3-1.4-2.2-.6-.9-1.2-1.8-1.8-2.8-.6-1-1.2-1.9-1.8-2.8-.5-.9-.9-1.6-1.2-2.1-.3-.7-.6-1.4-.8-2.1-.1-.6-.1-1.2.1-1.9.2-.7.8-1.4,1.7-2.2l.5-.4-1.8-6.2-12.5,5.5,2.6,6.1,3.1-1.4Z"/>
          <path class="cls-1" d="M99.9,16.6c0,.4,0,.8,0,1.2,0,.9.2,1.9.5,2.9l3.8,13.3,7.3-2.1-4.2-15c-.4-1.3-.4-1.9-.4-2.1,0-.1,0-.2,0-.3l4.3-1.2c1.5-.4,2.3,0,2.8,1.7l4.2,15,7.3-2.1-4.3-15.1c-.8-2.8-2.2-4.8-4.2-5.8-2-1-4.5-1.1-7.4-.2l-13.2,3.8,1,6.6,2.6-.7Z"/>
          <path class="cls-1" d="M150.1,18.4c-1-1.2-2-2.4-3-3.5,1.5-1.1,2.6-2.4,3.3-3.9.8-1.8,1.2-3.7,1.1-5.6V0s-7.5.8-7.5.8v4.8c0,1.1-.2,2.2-.4,3.2-.1.5-.3,1-.6,1.3-.2-.2-.3-.4-.5-.6-.4-.5-.8-.9-1.1-1.4l-1.8-2c-.7-.7-1.3-1.5-2-2.2-.7-.7-1.3-1.4-1.8-1.9l-.3-.3-9.4,1,1.5,1.5c.4.4,1,1,1.8,1.8l2.5,2.6c.6.6,1.1,1.2,1.7,1.7-.9.6-1.6,1.4-2.2,2.2-.7,1.1-1.3,2.3-1.6,3.6-.3,1.2-.4,2.5-.5,3.8l-.3,7.2,7.6-.8.3-6.6c0-1.2.2-2.4.4-3.4.1-.5.3-1,.7-1.4,1.2,1.4,2.5,2.8,3.6,4.3,1.4,1.7,2.8,3.6,4.3,5.6l.3.5,8.9-1-1.1-1.4c-1.2-1.6-2.5-3.1-3.8-4.6Z"/>
          <path class="cls-1" d="M173.4,24.9h0c.9-.3,1.7-.8,2.5-1.5.3-.3.6-.7.9-1.1l.4,3.8,7-.5-.8-6.9.9-9.3c.2-2.4-.2-4.3-1.4-5.8-1.2-1.4-3.1-2.3-5.8-2.6l-4-.4-1.5,6.6,3.3.3c1.1.1,1.5.4,1.6.5.2.2.2.6.2,1.2l-.7,7.1c-.2.3-.6.5-1,.8-.5.4-1.2.7-1.9.9-.7.2-1.5.3-2.3.3l-1.9-.2-.7,6.7,1.9.2c1.2.1,2.2,0,3.1-.2Z"/>
          <path class="cls-1" d="M200.3,12.1c.3.4.3,1.1.1,1.9l-3.4,15.2,7.4,1.7,3.4-15.3c.6-2.9.3-5.2-.9-7.1-1.2-1.8-3.4-3.1-6.4-3.8l-8-1.8-2.3,6.3,8.5,1.9c.8.2,1.3.5,1.5.9Z"/>
          <path class="cls-1" d="M221.4,29.8l-10.9-4.2-2.4,6.2,19.9,7.7,3.2-5.9-2.7-1.1,3.2-8.4c1-2.7,1.1-5.1,0-7.1-1-2-2.9-3.5-5.8-4.6l-7.3-2.8-3.2,5.9,7.9,3.1c.7.3,1.2.7,1.4,1.1.2.5.1,1.1-.2,1.9l-3.2,8.3Z"/>
          <path class="cls-1" d="M242.7,47.4l8-15c1.1-2.1,1.4-4.1.9-5.9-.5-1.8-1.9-3.3-4.2-4.5l-3.4-1.8-3.9,5.5,2.8,1.5c.8.4,1,.8,1.1.9,0,0,0,.4-.3,1.2l-4.6,8.7-4.9-2.7-3.1,5.9,11.6,6.3Z"/>
          <path class="cls-1" d="M248.8,50.3l-.3.7,6.5,4.4.5-1c.3-.6.6-1.4,1.1-2.3.4-1,.9-2,1.4-3,.5-1.1,1-2.1,1.4-3,.4-.9.8-1.6,1.1-2.1.4-.6.8-1.2,1.3-1.8.4-.4,1-.7,1.7-.9.7-.2,1.6,0,2.8.3l.6.2,4.2-4.9-11.3-7.7-3.7,5.5,2.8,1.9c-.2,0-.3,0-.5.1-1.1.3-2,.9-2.8,1.6-.7.6-1.3,1.4-1.8,2.1-.5.7-1,1.6-1.6,2.7-.6,1.1-1.2,2.3-1.8,3.5-.6,1.3-1.1,2.5-1.6,3.7Z"/>
          <polygon class="cls-1" points="272.8 46.6 261.5 60.5 267.4 65.4 282.9 46.4 275.3 40 270.4 44.6 272.8 46.6"/>
          <path class="cls-1" d="M289.3,65l-11.1,10.8,5.3,5.5,11.2-10.9c4.2-4.1,4.1-8.6-.3-13.1l-5.7-5.9-5.3,4,6.1,6.3c1.1,1.1,1.1,2.1-.2,3.3Z"/>
          <polygon class="cls-1" points="10.4 284.6 0 291.9 2.8 296 13.5 288.4 10.4 284.6"/>
          <path class="cls-1" d="M23.1,288.3l-5.9-8.5-4,2,6.2,8.8c1.1,1.5.8,2.6-.7,3.7l-11.4,8,2.8,4,11.4-8.1c3.8-2.7,4.3-6.1,1.6-10Z"/>
          <polygon class="cls-1" points="29.9 297.2 26.1 299.6 28.1 301.9 21.9 307.3 25.1 311 34.7 302.8 29.9 297.2"/>
          <path class="cls-1" d="M42.6,311l-5.2-5.1-3.5,2.7,5.6,5.4c.6.6,1,1.2,1,1.8,0,.6-.3,1.2-1,1.9l-9.7,10,3.5,3.4,9.7-10.1c3.2-3.3,3.1-6.8-.3-10.2Z"/>
          <polygon class="cls-1" points="50.9 318.7 47.7 321.7 50 323.7 39.6 336.7 43.4 339.8 56.6 323.4 50.9 318.7"/>
          <path class="cls-1" d="M71.8,334l-2.5,3.1h0c-.8,1-1.6,1.8-2.5,2.3-.6.3-1.2.5-1.9.6,0-.4,0-.8,0-1.2,0-.7,0-1.4,0-2.1-.1-1.5-.2-2.9-.3-4.1,0-1.2-.2-2.3-.3-3.2v-.5c0,0-5.2-3.4-5.2-3.4l.3,2.2c.1.8.2,1.8.4,3.2l.3,3.3h0c-1.4,0-2.7.3-3.9,1-1.4.8-2.7,1.9-3.9,3.3l-4.3,4.9,4.1,2.7,4.1-4.6c.9-1,1.7-1.8,2.6-2.4.5-.4,1.1-.6,1.8-.6.1,1.8.2,3.7.2,5.6,0,2.3,0,4.7-.1,7.1v.6s4.7,3.1,4.7,3.1v-1.7c.2-1.7.2-3.4.2-5.1,0-1.3,0-2.6,0-3.9,1.5,0,2.9-.2,4.1-.8,1.5-.7,2.9-1.9,4.1-3.3l2.6-3.3-4.1-2.7Z"/>
          <polygon class="cls-1" points="78.5 337.9 75.9 341.5 78.6 343 74.9 350.3 79.2 352.6 85 341.3 78.5 337.9"/>
          <polygon class="cls-1" points="92.5 344.9 94.6 339.8 89.9 338.4 86.3 347.1 96.2 351.2 84.7 364.4 89.4 366.4 101.7 352.1 103.4 349.4 92.5 344.9"/>
          <polygon class="cls-1" points="104 354.1 107 355 102 371 106.7 372.4 112.9 352.3 105.9 350.1 104 354.1"/>
          <path class="cls-1" d="M125.3,355c-2.6-.5-4.8-.3-6.5.8-1.7,1.1-2.8,2.7-3.3,4.8-.4,1.8-.2,3.4.4,4.8.7,1.4,1.8,2.5,3.5,3.1.8.3,1.5.5,1.9.5h.8c0,0,1.2-3.8,1.2-3.8l-1-.2s0,0-.2,0c-.1,0-.3-.1-.5-.2-.7-.2-1.1-.6-1.3-1.1-.2-.6-.3-1.2-.1-1.9.2-.9.6-1.6,1.3-2,.7-.5,1.7-.6,2.9-.3,1.5.3,2.5,1,3,2.2.6,1.3.6,2.9.2,4.9-.4,1.9-1.2,3.3-2.4,4.3-1.2.9-2.6,1.2-4.4.8l-6.7-1.4-.9,4.3,6.5,1.3c1,.2,1.9.3,2.9.3s2.1-.1,3.1-.4c1.8-.5,3.3-1.5,4.4-3,1.2-1.4,2-3.2,2.4-5.2.7-3.2.4-5.9-.9-8.1-1.3-2.2-3.4-3.7-6.3-4.3Z"/>
          <path class="cls-1" d="M152,365.8c.2-2.3-.3-4.1-1.5-5.4-1.1-1.3-2.9-2-5.2-2.2l-6.7-.5-.9,4.4,7.1.6c1.8.1,2.5,1,2.4,2.9l-.8,9.5-10.5-.8-.3,4.4,17.3,1.4,1-4.4-2.5-.2.8-9.6Z"/>
          <path class="cls-1" d="M186.3,358.6c-1.4-1-3.2-1.4-5.6-1.2l-12,1.4v4.5c-.1,0,3-.4,3-.4l1.2,10.4c0,.9,0,1.3-.2,1.5,0,.2-.3.4-.8.4l-2,.2v4.5c-.1,0,3-.4,3-.4,1.8-.2,3.1-.9,4-2.1.8-1.2,1.2-2.7.9-4.6l-1.2-10.6,4.4-.5c1.8-.2,2.7.5,2.9,2.4l1.6,13.9,4.9-.6-1.6-14c-.3-2.3-1.1-4-2.4-5Z"/>
          <polygon class="cls-1" points="191.8 355.7 192.1 360.2 195.1 359.5 198.7 375.8 203.5 374.8 199 354.1 191.8 355.7"/>
          <path class="cls-1" d="M214.5,355.4c-.5-1.7-1.4-2.9-2.6-3.5-1.2-.6-2.7-.6-4.4-.1l-3.1,1,.7,4.4,3-.9c.6-.2,1-.2,1.2,0,.3.1.5.6.6,1l2.2,7.4c0,.4-.3.9-.6,1.5-.3.7-.8,1.3-1.3,1.8-.5.5-1.1.9-1.8,1.1l-1.3.4,1.3,4.3,1.4-.4c1.5-.5,2.7-1.3,3.5-2.4.5-.6.8-1.4,1.2-2.2l1.9,3,4.1-2.3-3.2-4.9-2.7-8.9Z"/>
          <path class="cls-1" d="M227.9,350.2c-.7-1.7-1.6-2.8-2.9-3.3-1.2-.5-2.7-.4-4.4.3l-3,1.2,1.1,4.3,2.9-1.2c.5-.2,1-.3,1.2-.2.3.1.5.6.7.9l2.8,7.1c0,.4-.2,1-.4,1.5-.3.7-.7,1.3-1.2,1.9-.5.6-1,1-1.7,1.3l-1.3.5,1.6,4.2,1.4-.5c1.5-.6,2.5-1.5,3.3-2.7.4-.7.7-1.4,1-2.3l2.1,2.8,3.9-2.6-3.6-4.7-3.4-8.6Z"/>
          <path class="cls-1" d="M249.6,332.4l-10.4,6.5,1.8,4.1,2-1.2c.2.5.3.9.6,1.3l8,13,15.3-9.5-7.4-12c-2.4-3.9-5.8-4.7-9.9-2.1ZM255.3,337.3l5,8.1-7,4.3-6-9.8c-.1-.2-.3-.5-.4-.7l4.7-2.9c1.6-1,2.6-.7,3.6,1Z"/>
          <polygon class="cls-1" points="258.8 326.1 261 330 263.4 328.1 273.6 341.3 277.5 338.3 264.6 321.6 258.8 326.1"/>
          <path class="cls-1" d="M288.3,313c-2.1-2.2-4.1-3.6-6-4-2.1-.5-4.1,0-5.9,1.9-.4.4-.8.8-1.2,1.3-.3.4-.6.8-1,1.3l-.5.7,3,3.2,1.5-2c.2-.3.5-.6.8-.9.7-.7,1.4-.9,2.2-.6,1,.4,2.2,1.3,3.5,2.7,1.7,1.8,2.7,3.5,3,5.1.2,1.4-.2,2.6-1.3,3.6-1,.9-2,1.2-3.4.9-1.5-.3-3.1-1.5-4.8-3.3l-6.6-7-3.6,3.4,6.6,7c2.6,2.7,5.2,4.3,7.7,4.6.4,0,.8,0,1.1,0,2.2,0,4.2-.9,6-2.6,2.2-2.1,3.2-4.5,3-7.1-.2-2.6-1.6-5.3-4.2-8Z"/>
          <polygon class="cls-1" points="283.8 303.4 286.7 306.8 288.7 304.4 294.9 309.8 298.1 306.1 288.6 297.8 283.8 303.4"/>
          <path class="cls-1" d="M318.3,290.3c-1.7-.1-3.3-.2-5-.2-1.3,0-2.6,0-3.8,0,0-1.5-.1-2.9-.7-4.1-.7-1.5-1.7-2.9-3.2-4.2l-3.2-2.7-2.8,4,3,2.6c1,.8,1.7,1.7,2.2,2.6.3.6.5,1.2.5,1.9-.4,0-.8,0-1.2,0-.7,0-1.4,0-2.1,0-1.5,0-2.9.1-4.1.2-1.2,0-2.3.1-3.2.2h-.4s-3.6,5.1-3.6,5.1l2.2-.3c.8,0,1.8-.2,3.2-.3l3.3-.2c0,1.5.2,2.8.9,4,.7,1.4,1.8,2.8,3.2,4.1l4.7,4.5,2.8-4-4.5-4.3c-1-.9-1.7-1.8-2.3-2.7-.4-.6-.5-1.2-.6-1.9,1.8,0,3.6,0,5.6,0,2.3,0,4.7.1,7.1.3h.6s3.2-4.6,3.2-4.6h-1.7Z"/>
        </g>
      </g>
    </g>
  </g>
</svg>