<?xml version="1.0" encoding="UTF-8"?>
<svg xmlns="http://www.w3.org/2000/svg" version="1.1" viewBox="0 0 300 300">
  <defs>
    <style>
      .cls-1 {
        fill: #fffef5;
      }
    </style>
  </defs>
  <!-- Generator: Adobe Illustrator 28.6.0, SVG Export Plug-In . SVG Version: 1.2.0 Build 709)  -->
  <g>
    <g id="Layer_1">
      <g>
        <path class="cls-1" d="M247,203.3c0,.2.2.3.4.3,2,.1,4.6.2,7.5.2,4.1,0,8.7-.1,9.9-.4.2,0,.3-.2.3-.4v-1.3c0-1,0-2,0-2.9,0-1,0-2,0-3v-1.4c0-.2-.2-.4-.4-.4-1.2-.3-7.7-.4-11.9-.4s-7,0-8.1.2c-.1,0-.2,0-.3.2s0,.2,0,.4c.6,2.7,1.4,6,2.5,9Z"/>
        <path class="cls-1" d="M117.1,139.4c0,0,.2,0,.2,0,.1,0,.2,0,.3-.1.1-.2.2-.4,0-.6-1.5-2.1-3.2-3.2-5.3-3.7,0,0,0,0,0,0-.2,0-.3,0-.4.2l-.4.8c-.3.6-.6,1.1-.9,1.7-.3.6-.6,1.3-.9,2-1,2.1-2,4.3-3.4,6.2-.4.5-.6,1.1-.7,1.7-.2,1.3-.3,2.6-.4,3.9v1.2c-.2,1,.2,1.8.9,2.4h.1c.7.6,1.5,1.2,2.6,1.5,0,0,0,0,0,0,.2,0,.4-.1.4-.3l.3-1.4c.2-1,.5-1.9.7-2.9.3-1.5.8-2.6,1.7-3.6,1-1,1.6-2.4,1.7-4,0-.6.1-1.3.2-1.9,0-.1,0-.3,0-.4,0,0,1.1,0,1.1,0,.1,0,.3,0,.4-.2,0-.1.1-.3,0-.4-1-2.7-1.2-3-.7-3.6l2.3,1.4Z"/>
        <path class="cls-1" d="M130.4,93.6l-.9,3.5c0,.2,0,.5.3.5,5.1,1.8,9,3.8,12.4,6.4,0,0,.2,0,.3,0s.2,0,.3-.2c.2-.2.2-.4,0-.6l-4.6-4.8c0-.1,0-.3,0-.4,0-.4,0-.8,0-1.1.4-1.9.8-4.1,1.3-6.3.2-.8.2-1.5,0-2.2-.5-1.6-.9-3.2-1.2-4.7,0-.2,0-.5,0-.9l3.2,2.7c0,0,.2.1.3.1s.2,0,.3-.1c.2-.1.2-.4.1-.6l-5.8-10.5c0-.1-.2-.2-.4-.2s0,0,0,0c-.2,0-.3.2-.4.3l-1,3.5c-.7,2.6-1.4,5.1-2.1,7.7-.7,2.6-1.3,5.1-2,7.7Z"/>
        <path class="cls-1" d="M99.9,150.2c0,0-.2,0-.2,0-1.1.6-1.4,1.6-1.6,2.5,0,.2-.1.5-.2.7-.5,1.4-1,2.8-1.5,4.2-.3.8-.6,1.7-.8,2.5-.3,1-.7,1.9-1,2.9l-.5,1.3c0,.2,0,.4.1.5l.7.5c0,0,.2,0,.3,0s.2,0,.2,0c0,0,.1,0,.2,0,.2,0,.4-.2.5-.4,1.5-4.1,2.9-8.3,4.4-12.5l.4-1.1c0-.1,0-.3,0-.4l-.4-.5c0-.1-.2-.2-.4-.2Z"/>
        <path class="cls-1" d="M147.8,48.8c0,0,.2,0,.3,0,.1,0,.2-.1.4-.2.3-.2.7-.4,1-.7,1.7-2.1,2.3-4.6,1.6-7.2-.5-2-1.5-2.7-3.7-2.7s-.3,0-.4,0c0,0-.2,0-.2,0-1.1.7-1.6,1.7-1.5,2.9,0,.5,0,.9.1,1.4,0,1.2.2,2.4.4,3.7.2,1,.5,2.2,2,2.9,0,0,.1,0,.2,0Z"/>
        <path class="cls-1" d="M142.7,59.5c.1,0,.2-.2.2-.4,0-.2-.1-.3-.2-.4-.3-.2-.7-.3-1-.3-.8,0-1.6.5-2.4,1.7-2.1,2.8-1.9,6.6.4,9.1,0,0,.2.1.3.1s.2,0,.3,0c.2-.1.2-.4.1-.6-1.9-3.7-1.1-6.7,2.3-9.2Z"/>
        <path class="cls-1" d="M144.3,55.7c0,0,.2,0,.3,0,.1,0,.2-.3.2-.4-.3-2.5-1.2-4.4-2.3-6.5,0-.2-.2-.2-.4-.2s0,0-.1,0c-.2,0-.3.2-.3.4v5.4c0,.2.1.3.3.4l2.3.9c0,0,.1,0,.2,0Z"/>
        <path class="cls-1" d="M151.3,29.7c0,0-.2-.1-.3-.1s-.2,0-.2,0l-11.7,7c-.2.1-.3.4-.2.6,0,.2.2.3.4.3s0,0,.1,0c4.6-1.6,8.8-3.6,12.8-6.3.1,0,.2-.2.2-.4,0-.1,0-.3-.2-.4l-1-.8Z"/>
        <path class="cls-1" d="M207,203.6h36.1c.1,0,.3,0,.4-.2,0-.1.1-.3,0-.4-.4-1.2-.7-2.4-1-3.6-.5-1.9-1-3.7-1.6-5.5,0-.2-.2-.3-.4-.3-2.3-.1-7.1-.2-13.2-.2-8.7,0-18.4.1-19.5.4-.2,0-.3.2-.4.4l-.9,8.9c0,.1,0,.3.1.3,0,0,.2.1.3.1Z"/>
        <path class="cls-1" d="M220.3,88.2c-3-2.1-5.3-4.8-7.7-7.6l-.5-.5c0-.1-.2-.2-.3-.2s-.2,0-.3,0c-1.6,1.1-3.1,2.5-4.7,4.5-.1.2-.1.4,0,.6.3.3.5.7.7,1,.5.7,1,1.4,1.6,2.1.3.3.5.7.7,1.1.4.7.9,1.5,1.7,2,0,0,.1,0,.2,0s.1,0,.2,0c.5-.2.9-.5,1.3-.8.4-.3.7-.6,1.1-.7,0,.5-.1.9-.2,1.3-.2,1.4-.4,2.7-.2,4,.3,3.1.8,6.1,1.5,8.9.9,3.8,2,7.5,3.1,11.2.4,1.5.8,3,1.3,4.5.2.8.4,1.5.7,2.3l.3,1.2c0,.2.2.3.4.3h.2c.4,0,.8.1,1.2.1s1.3,0,2.1-.7c.1,0,.2-.2.2-.4-.9-13.5-2.2-24.2-4.1-34,0-.1,0-.2-.2-.3Z"/>
        <path class="cls-1" d="M244.1,191s0,0,0,0c.2,0,.4-.2.4-.4.4-1.9.4-11,0-12.8,0-.2-.2-.4-.4-.4h-2.9c-.1,0-.3,0-.3.2,0,.1-.1.2,0,.4l.3,2c.2,1.4.5,2.8.7,4.2.4,2.1.8,4.3,1.8,6.4,0,.2.2.3.4.3Z"/>
        <path class="cls-1" d="M217.7,125.8c.5-.9.6-1.9.3-3.1-.5-1.7-.9-3.4-1.4-5.1-.8-3.1-1.6-6.1-2.5-9.2-.5-1.7-1-3.3-1.5-4.9-.2-.7-.5-1.5-.7-2.2,0-.2-.2-.3-.4-.3s0,0,0,0c-.2,0-.4.2-.4.5,0,2,.4,4,.7,5.9v1c.5,2.1.7,4.3,1,6.4l.2,1.2c.2,1.5.4,2.9.5,4.4,0,.6.1,1.1.2,1.7.2,1.6.4,3.2.4,4.7,0,1.3,0,2.7-.1,4.2,0,.7,0,1.5-.1,2.3,0,.2.1.4.3.4,0,0,0,0,.1,0,.1,0,.3,0,.4-.2l2.5-3.6c0,0,0-.2,0-.3,0-.3,0-.6,0-.8,0-.6,0-1.1,0-1.5,0-.6,0-1.2.3-1.6Z"/>
        <path class="cls-1" d="M155.5,144.9s0,0,.1,0c.2,0,.3-.2.3-.4l.9-5.5c0-.1,0-.3,0-.3-.8-1-.8-2.5-.7-3.8,0-.7,0-1.5,0-2.2,0-1.7.1-3.5.4-5.2.5-2.3.2-4.6,0-6.8,0-.7-.1-1.5-.2-2.2,0-1.1-.3-2.2-.6-3.2-.1-.5-.2-.9-.3-1.4,0-.2-.2-.4-.4-.4h-9.2c-.2,0-.3,0-.4.2l-.9,1.5c-.6,1.1-1.2,2.2-1.9,3.3-1.8,3.3-4,6.5-6.5,9.5-1.4,1.7-2.8,3.3-4.2,4.9-1.7,1.9-3.4,4-5,6-1,1.2-1.8,2.4-2.8,3.7-.4.6-.9,1.3-1.4,2-.1.1-.1.3,0,.5,0,.1.2.2.4.2s0,0,0,0c.4,0,.8,0,1.1-.1.6,0,1.1-.1,1.6-.2.4,0,.8,0,1.3,0,.6,0,1.2,0,1.8,0,1.1,0,1.9,0,2.7.1,1,.1,2,.5,2.9.8.4.1.8.3,1.2.4,0,0,0,0,.1,0,.2,0,.3,0,.4-.2.3-.5.6-1,.9-1.4.6-1,1.2-2,1.9-2.9,1.6-1.9,3.4-2.9,5.6-2.9s.9,0,1.3.1c1.9.3,3.7,1.1,5.3,2.4.9.7,1.8,1.6,2.6,2.4.4.4.7.7,1.1,1,0,0,.2.1.3.1Z"/>
        <path class="cls-1" d="M147.4,109.5c1.4.5,2.6.6,3.6.6s1,0,1.6,0c.4,0,.7,0,1.1,0,.2,0,.3,0,.4-.2,0-.1,0-.3,0-.4l-2.6-5c0-.1-.2-.2-.4-.2,0,0,0,0,0,0-.1,0-.3,0-.4.2l-3.5,4.6c0,.1-.1.3,0,.4,0,.1.1.2.3.3Z"/>
        <path class="cls-1" d="M195.4,160.9c0-.7,0-1.4.1-2.1.2-3.3.5-6.7.2-10.1-.2-2.8-.9-5.4-1.6-8.1l-.4-1.4c0-.2-.2-.3-.4-.3-1.8,0-3.7-.1-5.9-.1s-5.6,0-8.4.2h-.5c-.2,0-.4.2-.4.5,0,.8,0,1.6,0,2.4,0,1.8,0,3.6,0,5.4v.3c.1,1.5.3,3.2,1.5,4.6,0,.1.2.2.3.2s0,0,.1,0c5-1.7,8.1-2.5,9.9-2.5-.1,0-.2.1-.3.2-1,.6-2,1.3-2.9,2-2.6,2-4.2,4.5-4.6,7.4-.2,1.4-.4,2.8-.5,4.1v.3c-.3,2.4-.5,4.9-.7,7.3,0,.6-.1,1.1-.2,1.7-.2,1.4-.3,2.9-.3,4.4,0,1.8.3,3.5.6,5.3,0,.4.2,1.5.2,1.5.5,3.3,1.1,6.7,1,10.1,0,2.8-.2,5.6-.3,8.3,0,1.2,0,2.3-.1,3.5,0,.2,0,.4,0,.6-.1,1.2-.2,2.4-.3,3.6-.2,2.7-.5,5.4-.8,8.2-.3,2.5-.7,5.1-1,7.5-.2,1.1-.3,2.2-.5,3.3s-.1.9-.2,1.3c-.3,2.1-.7,4.3-.1,6.6,0,.1,0,.2.2.3,4.6,3.2,9.9,3.8,14.4,4h0c.2,0,.4-.2.4-.4,0-.2,0-.4-.3-.5-.8-.3-1.6-.5-2.4-.6-2.5-.4-4.9-1.4-7.5-3.1-.4-.3-.8-.6-1.1-1,1.6.2,3.1.3,4.6.3s3.5-.2,5.1-.7c.2,0,.3-.2.3-.4,0-.2-.1-.4-.3-.4-5.3-2.1-8.7-4.6-9.6-7.2l.5-.3c.6-.4,1.2-.7,1.8-1.1,3.1-2,5-4.4,6.1-7.3,1.8-5.1,2.7-10.1,2.5-15.1,0-.1,0-.2-.1-.3l-6.8-7.6c.7-.2,1.4-.3,2.1-.3,1.4-.2,2.9-.3,4.3-1.3.2-.1.2-.4.2-.6-.7-1.5-1.9-2.4-3-3.2-.6-.4-1.1-.8-1.6-1.3,0,0,.1,0,.1,0,.4-.3.8-.5,1.2-.8h.1c.9-.8,1.8-1.6,2.7-2.5,1.2-1.3,1.8-2.7,1.7-4.6,0-2.7,0-5.5,0-8.8.1-4,.3-7.7.5-11.2Z"/>
        <path class="cls-1" d="M129.2,104.7c-.7,1.8-1.4,3.1-2.4,4.2-1.1,1.2-2.4,2.8-3.3,4.8-.8,2-1.7,3.9-2.5,5.9-.8,1.9-1.6,3.8-2.4,5.7-.8,1.9-1.6,3.8-2.3,5.7-.3.9-.7,1.7-1,2.6,0,.2,0,.4.2.6l2.6,1.5c0,0,.1,0,.2,0,.1,0,.3,0,.4-.2.7-1.1,1.5-2.2,2.2-3.3,1.6-2.4,3.3-4.9,4.8-7.4,1.5-2.5,2.9-5.1,4.3-7.8.5-1,1-2,1.6-3l.9,1.1c0,.1.2.2.4.2s0,0,0,0c.2,0,.3-.1.3-.3l2.3-7.2c0-.2,0-.4-.1-.5l-4.8-4.2c0,0-.2-.1-.3-.1s0,0-.1,0c-.1,0-.3.1-.3.3l-.2.6c-.1.3-.2.6-.3.8Z"/>
        <path class="cls-1" d="M171.3,261.1c2.3.9,4.9,1.8,7.7,1.8h0c.1,0,.2,0,.3-.1l.8-.7,1.8.7c0,0,.1,0,.2,0s0,0,0,0h.4c2.3-.5,4.5-.8,6.3-2.2.2-.1.2-.3.2-.5,0-.2-.2-.3-.4-.3h0c-.6,0-1.2,0-1.8,0-1,0-2,.1-3,.1s-.7,0-1.1,0c-1.9,0-3.8-.4-5.8-.8-1.3-.3-2.6-.7-3.8-1.1-.6-.2-1.1-.4-1.7-.5,0,0,0,0-.1,0-.2,0-.3,0-.4.2-.7,1.2-.6,2.2.1,3.1,0,0,.1.1.2.1Z"/>
        <path class="cls-1" d="M179.1,245l6.9,1.3s0,0,0,0c.1,0,.3,0,.4-.2.1-.1.1-.3,0-.5,0,0-.2-.2-.2-.2l-1.1-.6c-1.2-.7-2.5-1.4-3.7-2-.3-.2-.7-.2-1.1-.2-.2,0-.3,0-.5,0,0,0,0,0,0,0-.2,0-.3.1-.4.3l-.6,1.6c0,.1,0,.3,0,.4,0,.1.2.2.3.2Z"/>
        <path class="cls-1" d="M172.9,156.9c0-.1-.1-.2-.2-.3l-7.3-4.4c.7,0,1.3,0,1.8,0s.7,0,1.1,0c.4,0,.7,0,1.1,0h0c.8,0,1.4,0,1.9-.1.2,0,.4-.2.4-.4v-12c0-.2-.2-.4-.4-.4-.2,0-.5,0-.7-.1-.5-.1-.9-.2-1.4-.2-1.6-.2-3-.3-4.3-.4h-.2c-.5,0-1,0-1.4,0-1,0-2.3,0-3.7.9-.1,0-.2.2-.2.3l-.2,2.1c-.2,1.8-.4,3.5-.6,5.3-.2,1.9-.4,3.7-.5,5.1,0,.9-.2,1.8-.3,2.8-.2,2.2-.4,4.4-.4,6.6,0,2,0,4,0,5.9,0,5.5-.1,11.3.3,16.9.2,3.2.7,6.1,1.7,9.1,1.6,5.1,4.3,10,8.8,15.7.5.6,1,1.2,1.5,1.8l.6.8c0,.1.2.2.3.2s.2,0,.2,0c.2-.1.3-.4.2-.6-.7-1.4-1.4-2.7-2.1-4-.9-1.6-1.8-3.3-2.6-5-2.5-5.3-3.2-7.3-3.3-8.9.5.2,1.1.6,1.6.9.9.5,1.8,1,2.8,1.3,0,0,0,0,.1,0,.1,0,.3,0,.4-.2.1-.2.1-.4,0-.5-.3-.4-.7-.9-1-1.3-.6-.9-1.3-1.7-1.8-2.5-1.7-2.6-2.1-5.3-1.1-8.1,1.1-3.1,2.2-6.3,3.5-9.5.6-1.5,1.4-2.9,2.1-4.5.4-.7.7-1.4,1.1-2.2,0-.2,0-.4-.1-.5,0,0-.2-.1-.3-.1s-.2,0-.2,0l-3.7,2.4c1.8-4.2,4.2-7.8,6.5-11.3,0-.1,0-.2,0-.3Z"/>
        <path class="cls-1" d="M178.6,248.6c-3.4,0-5.7,2.5-6.6,4.7-.4.9-.2,1.7.6,2.4,0,0,.2.1.3.1s.2,0,.3-.1c1.6-1.4,3.7-2,5.5-2.3,1.6-.3,3.1-.7,5-1.3h.2c.7-.3,1.6-.5,2-1.5,0-.1,0-.2,0-.4,0-.1-.1-.2-.3-.2-2.5-1-4.6-1.4-6.8-1.4h-.1Z"/>
        <path class="cls-1" d="M132.1,152.3c.4.3.8.5,1.2.7,4.6,2.8,7.9,6.7,10.4,9.8,4.3,5.5,7.5,10.2,10.2,14.8,0,.1.2.2.4.2s0,0,0,0c.2,0,.3-.2.4-.4.4-2,0-3.7-1.2-5.4-.9-1.2-1.7-2.5-2.5-3.7-.6-.9-1.2-1.8-1.8-2.7-2.7-3.9-5.9-8.3-10-11.9-2.3-2.1-4.5-3.5-6.8-4.4-1.4-.6-2.9-.8-4.3-.8s-2.1.1-3.1.4c-1.2.3-2,1.1-2.2,2.5v.3c-.2.6-.3,1.3-.4,2,0,.9-.5,1.6-1.3,2.1-1,.6-1.7,1.5-2.1,2.1-.1.2-.1.4,0,.5,0,.1.2.2.3.2s.1,0,.2,0c.4-.2.8-.4,1.2-.6.8-.4,1.5-.8,2.4-.9.7.9.6,1,.2,1.6-.3.4-.5.7-.9,1-.4.5-.9,1-1.2,1.5-1.4,2.3-3.2,3.6-5.6,4-.8.1-1.5.3-2.2.5-1.3.3-2.6.6-3.8.6s-1,0-1.5-.2c0,0-.2,0-.3,0-.3,0-.5,0-.8.1-.2,0-.3,0-.5.1-.3,0-.6,0-.9,0h-.3s-1.2-1.6-1.2-1.6c0-.1-.2-.2-.4-.2h0c-.1,0-.3,0-.4.2l-2.5,3.7c0,.1-.1.3,0,.5,0,.1.2.2.4.2h2.5c2.4.2,4.8.3,7.1.5.6,0,1.2.2,1.7.3,0,0,0,0,0,0,0,0,0,0,0,.1,0,0,0,0,0,.1v1.3c-.6.2-1.2.3-2,.3s-.7,0-1.1,0c-.4,0-.7,0-1.1,0s-.3,0-.4,0c-.7,0-1.4,0-2.1,0s-1.7,0-2.6,0c-1.1,0-2.2-.1-3.3-.2-.5,0-1.5-.1-1.5-.1-.1,0-.2,0-.3.1,0,0-.1.2-.1.4.3,2.6-1.1,4.6-3.9,5.4-.1,0-.2.1-.3.2l-2.5,4.9c0,.1,0,.3,0,.4s.2.2.4.2h29.9c.2,0,.3,0,.4-.2,0-.1,0-.3,0-.4h0c0-.2,0-.4-.2-.5-2.7-3.6-2.1-8.8,1.3-11.7.8-.7,1.6-1.3,2.4-1.8.3-.2.6-.5,1-.7.3-.2.6-.4.9-.6l.4-.3c.1,0,.2-.2.2-.4-.3-4.7-.1-10.1,3.8-14.5l.4.2Z"/>
        <path class="cls-1" d="M173.1,244.4c.2,0,.3-.2.3-.4s0-.4-.3-.5c-.4-.2-.7-.3-1-.5-.6-.3-1.1-.5-1.6-.7-1-.3-1.9-.5-2.8-.5s-2.2.2-3.2.7c-1.5.7-1.9,1.5-1.7,3.4,0,.1,0,.2.2.3,0,0,.2,0,.3,0s0,0,0,0c.5,0,.9-.2,1.4-.2,1-.2,2-.3,2.9-.5,1.2-.2,2.3-.5,3.6-.8.6-.1,1.2-.3,1.8-.4Z"/>
        <path class="cls-1" d="M162.5,247.9s0,0,0,0c-.1,0-.2,0-.3.1-.1,0-.2.2-.2.3v2c0,.2.1.3.3.4,1.9.8,3.3,1.1,4.7,1.1s2.1-.2,3.1-.7c.2,0,.3-.2.3-.4v-1.1c0-.2-.2-.4-.4-.4l-7.4-1.4Z"/>
        <path class="cls-1" d="M117.6,48.6c0,.2,0,.3,0,.5,0,.1.2.2.4.2s0,0,.1,0c.6-.1,1.2-.3,1.8-.4,1.2-.2,2.2-.4,3.2-.9,2.5-1.1,5-2.4,7.4-3.7l.8-.4c.7-.4,1.4-.8,2-1.3.3-.2.6-.4.9-.6.2-.1.2-.3.2-.5,0-.2-.2-.3-.4-.3h0c-.6,0-1.1.2-1.5.4-.1,0-.2,0-.4.1-.5.2-1.1.4-1.6.5-.7,0-1.3.1-2,.2-1,0-2.1.1-3.1.3-.3,0-.6,0-.8.1-1,.1-2,.2-2.9,1l-.4.3c-1.3,1.2-2.7,2.4-3.7,4.5Z"/>
        <path class="cls-1" d="M130.2,54.6c0,0-.1,0-.2,0-.1,0-.3,0-.3.2-1.2,1.4-1,3.1-.8,4.5v.4c.3,2.2.8,4.9,3.2,6.8,0,0,.2.1.3.1s.2,0,.3,0c.2-.1.2-.4.1-.6-2-3.9-2.7-7.3-2.3-10.8,0-.2,0-.4-.3-.5Z"/>
        <path class="cls-1" d="M137.3,55.5c0,.2.2.3.4.3s0,0,0,0c.2,0,.4-.2.4-.4l.2-1.4c.2-.9.3-1.6.4-2.3.1-.7.3-1.5.4-2.2.3-1.5.6-3.1.8-4.6.2-1.4.2-2.7-1.2-3.8,0,0-.2,0-.3,0s-.2,0-.3,0c-.7.5-1.2,1.2-1.7,1.8-.8,1-1.5,1.9-2.7,2.3-.2,0-.3.2-.3.4v4.3c-.3.3-.6.4-1,.4s-.5,0-.8-.1l-.5-.9c0-.1-.2-.2-.4-.2s-.1,0-.2,0c-1.1.5-1.6,1.3-1.5,2.4,0,.2,0,.3.1.5,0,0,0,.1,0,.2,0,.1.2.3.3.3l1.1.3,1.2,1.4c0,.1.2.2.4.2s4.4-.4,4.4-.4l.5,1.4Z"/>
        <path class="cls-1" d="M91.7,168.8h.3c.2,0,.4,0,.7,0,.2,0,.3,0,.5,0,.1,0,.3,0,.3-.2s.1-.2,0-.4c0-.4-.2-.7-.2-1-.2-.7-.3-1.4-.4-2,0-.2,0-.4,0-.5-.1-.7-.2-1.5,0-2.1,1.3-4.7,3-8.9,5-12.8.3-.6.6-1.1,1.4-1.2l3.3,1.8c0,0,.1,0,.2,0s.1,0,.2,0c.1,0,.2-.2.3-.3,0-.2.1-.3.2-.5.1-.4.3-.8.3-1.2.2-1.9,1.1-3.4,2.1-5,1-1.6,1.8-3.3,2.6-4.9l.3-.7c.3-.6.6-1.3.8-1.9.2-.5.4-1,.6-1.5.4-1,1.1-1.5,2.1-1.5s.5,0,.7,0c0,0,.2,0,.2,0,.2,0,.3-.1.4-.3l7.5-18.4c0-.1,0-.3,0-.4,0-.1-.2-.2-.4-.2h-29.1c-.1,0-.3,0-.4.2,0,.1-.1.3,0,.4.9,2.4.2,4.7-.6,6.9,0,.2,0,.5.2.6,3.7,1.9,5.7,4.7,5.9,8.5.3,4.3-1.1,7.4-4.1,9.4-.2.1-.3.4-.2.6,2.4,5.3,1.7,12.5-7.4,16.6,0,0-.2.1-.2.2-1.8,3.4-4.2,5.8-7.3,7.1-1.7.7-3.4,1-5,1s-3.3-.3-4.9-1c0,0-.1,0-.2,0,0,0-.2,0-.3,0l-2.7,2.2c0,0-.1.2-.2.3,0,.2,0,.3,0,.5,0,.3,0,.5,0,.7,0,1.1,0,2.1-.1,3.2,0,2.8-.2,5.8-.2,8.7,0,2.5,1.3,3.8,3.9,3.8,3.8,0,7.6,0,11.4,0h7c.1,0,.2,0,.3-.1,1.2-1.3,2-2.7,2.7-4.6.4-1.1.5-2.1.1-3.1-.6-1.8-.1-3.5.4-5.1.4-1,1-1.5,2-1.5Z"/>
        <path class="cls-1" d="M156.2,38.5s0,0,0,0c-.2,0-.3.2-.4.3-1.7,6.6-5.4,12.2-8.6,17.1-.1.2,0,.4,0,.6.4.4.8.6,1.2.6s1-.4,1.3-.6c.5-.4.8-.9,1.2-1.4l.2-.3c2.5-3.5,5.2-7.8,6-12.9.2-1,.2-2-.6-3.2,0-.1-.2-.2-.4-.2Z"/>
        <path class="cls-1" d="M66.6,155.5c1.6-1.4,2.7-3.2,3.7-5l.2-.3c.1-.2,0-.4-.1-.6,0,0-.2,0-.3,0s-.2,0-.3.1c-1.4,1.4-3,3.1-3.9,5.4,0,.2,0,.4.2.5,0,0,.2,0,.3,0s.2,0,.3-.1Z"/>
        <path class="cls-1" d="M135.2,22c.2,0,.4-.3.3-.5,0-.2-.2-.4-.4-.4h0c-4.9,0-9.8,2.9-12.6,7.3-2.7,4.3-2.9,9.3-.6,14,0,.2.2.3.4.3s0,0,.1,0c.4-.1.7-.2,1.1-.3.8-.3,1.5-.5,2.3-.8.8-.3,1.6-.8,2.3-1.2l.6-.3c.9-.5,1.5-1.3,1.6-2.2,0,0,0-.2,0-.3-.2-.4-.4-.8-.7-1.1-.5-.8-1-1.7-1.4-2.5-1.4-2.8-.8-6.1,1.4-8.3,1.7-1.8,3.5-2.9,5.7-3.4Z"/>
        <path class="cls-1" d="M157.3,63.6c0,.1.2.2.3.2h.2c.1,0,.3,0,.4,0s0,0,.1,0c.2,0,.4,0,.6,0h.3c.1,0,.2-.1.3-.3,1.8-2.9,2.3-6,2.8-9.3.1-.6.2-1.3.3-1.9,0-.2,0-.3-.2-.4,0,0-.2,0-.3,0s-.2,0-.2,0c-.1,0-.2.1-.3.2-.2,0-.4.2-.5.4-1.1,3-2.3,6.1-3.4,9.1l-.6,1.7c0,.1,0,.3,0,.4Z"/>
        <path class="cls-1" d="M227.7,128.9c.2,0,.4-.2.4-.4s0-.4-.3-.5c-2.2-.8-4.1-1.2-6.1-1.2s-1.5,0-2.2.2c-.2,0-.4.2-.4.4,0,0,0,.2,0,.3,0,.2,0,.4,0,.7.2,1.8-.4,3.3-2,5.1-.2.2-.3.4-.5.6-.3.4-.6.8-1,1-1.4,1-2,2.5-2.3,3.6,0,.3-.2.6-.3.9-.1.3-.2.5-.3.8-1.1,3.3-1.1,3.4,0,6.7,0,.2.3.3.3.3h.1c0,0,.1,0,.2,0s.1,0,.2,0c.1,0,.2-.1.3-.3,0,0,0-.2.1-.3,0-.2.2-.5.2-.8,0-1.5.4-2.9.8-4.3.2-.7.4-1.4.5-2.1,0-.5.2-.8.7-.9.8,1.1,1.1,2.4.9,4.1,0,.6-.2,1.3-.3,1.9-.1.7-.2,1.4-.3,2.1,0,.6-.2,1.6.9,1.9,0,0,0,0,.1,0,.2,0,.4-.1.4-.3l.9-2.3c.7-1.8,1.4-3.7,2.1-5.5.6-1.6.8-3,.6-4.4h0c-.1-.9-.3-1.8.2-2.4.7-.2,1.5-.3,2.2-.3,1-.1,2.1-.2,3.2-.6.2,0,.3-.3.3-.5,0-.2-.2-.4-.4-.4-2.2-.3-3.4-.7-3.9-1.4-.3-.4-.4-.9-.3-1.7h5.2Z"/>
        <path class="cls-1" d="M265.6,222.4v-.7c0-.1,0-.2-.2-.3,0,0-.2-.1-.3-.1s0,0,0,0c-.5,0-1,0-1.5,0-8.6,0-14.6-4.1-17.8-12.3,0-.2-.2-.3-.4-.3h-38.3c-.2,0-.4.2-.4.4-.2,1-.3,2-.5,3.1-.6,3.9-1.1,7.9-2.7,11.7,0,.1,0,.3,0,.4.7,1.3.9,2.7.8,4.7,0,.7-.1,1.4-.2,2.2,0,.9-.2,1.8-.2,2.7-.1,2.6-.6,5.9-2.9,8.7-.1.2-.2.4-.3.5v.2c-.2.1-.1.3,0,.5.5.8,1.3.9,1.8.9s.3,0,.5,0c.1,0,.3,0,.4,0,9.8,0,19.7,0,29.5,0h16.5c0,0,.2,0,.3,0,2.7-1.9,9.8-10,15.8-18,0,0,0-.2,0-.3v-.6c0-.5,0-1,0-1.6,0-.5,0-1,0-1.5ZM213.5,221.2c.4-.1.8-.4,1.3-.4,5.2,0,10.5,0,15.7,0,.2,0,.5.1.8.2-1.8,1.2-11.5,1.4-17.8.2Z"/>
        <path class="cls-1" d="M231,259.6s0,0,0,0l-2.3.3c-.8.1-1.6.2-2.5.3-1.9.2-3.9.5-5.8.8h-.1c-1.5.2-3.1.5-4.5,1-.8.3-1.6.6-2.3.9-2.1.8-4.2,1.6-6.5,2-2.9.5-5.4.8-7.8,1.1-3.8.4-7.3.6-10.5.8-.9,0-1.9,0-3,0s-1.5,0-2.3,0c-.8,0-1.5,0-2.3,0h-1.2c-2,0-4.1-.2-6.3-.8h-.1c-1-.3-2-.5-2.9-.9-1-.4-2.2-1.2-2.4-2.9-.1-.8,0-1.7,0-2.5,0-.3,0-.6,0-.9,0-.7,0-1.3,0-1.8,0-.4.1-.8.2-1.3,0-.2,0-.5.1-.8,0-.1,0-.3-.1-.4,0-.1-.2-.2-.3-.2-.7,0-1.5,0-2.2,0-.7,0-1.4,0-2,0-.9,0-1.7,0-2.4,0-3.8-.3-7.5-.7-11.1-1.1-.3,0-.5,0-.8,0-1.3-.1-2.4-.2-3.3-1.2v-1.2c0,0,.2,0,.3-.1.3-.1.6-.3,1-.3,1.4-.3,2.9-.6,4.3-.9,1-.2,2-.4,3-.7.3,0,.6-.1.9-.2,1.2-.2,2.5-.5,3.6-1.2.1,0,.2-.2.2-.3h0c.4-1.9.7-3.7,2.1-4.9.8-.7,1.8-1.2,3-1.6,2.1-.7,4.1-1.7,6.4-3.4,1-.7,2-1.6,2.9-2.9,0-.1,0-.3,0-.4-1-1.8-.6-3.7,0-5.6v-.2c0-.2.1-.4.2-.6.3-.8.2-1.6-.2-2.5-1.9-3.7-4-7.9-6.6-11.8l-2.7-4.1c0-.1-.2-.2-.4-.2h-76.5l.9-4.7h71.4c.1,0,.3,0,.4-.2,0-.1.1-.3,0-.4l-3.8-9.6c0-.2-.2-.3-.4-.3h-52.8s-2.8,0-2.8,0c-1.1,0-2.2,0-3.3,0h-.7c-.6,0-1.3,0-1.9,0-.6,0-1.3,0-1.9,0-1.4,0-2.4,0-3.4,0,0-.4,0-.7,0-1.1,0-1,0-2-.8-2.9-1-1.1-2.2-1.9-3.7-2.5,0,0-.1,0-.2,0s-.2,0-.2,0c-2.1,1.3-3.8,3-5.5,4.6-.6.6-1.3,1.3-2,1.9H26.2c-2.3,0-4.7,0-7.2,0-.1,0-.3,0-.4.2,0,.1-.1.3,0,.4l3.7,9.6c0,.2.2.3.4.3h42.7c-.2.2-.4.4-.6.6-1,1-1.9,1.9-2.7,2.8-.8,1-1.8,1.4-3.4,1.4-3.9,0-7.8,0-11.7,0s-10.4,0-15.6,0h-3.6c-.1,0-.3,0-.4,0-.2,0-.3,0-.5,0-.3,0-.8,0-1.3.4-.2.1-.2.4-.1.6,23.4,46.7,72.3,76.9,124.8,76.9s56.9-9.1,81-26.3c.2-.1.2-.3.2-.5,0-.2-.2-.3-.4-.3ZM52.5,235.3c-.6.2-1.3.5-2,.8-.4-.2-.6-.3-.8-.5-.7-.6-1.4-1.3-.9-2.2.5-.9,1.2-1.6,2.4-1.6.3,0,.7,0,1.1,0q.8,1.5.3,3.4ZM52.2,225.7c-.9-.8-1.7-1.6-2.6-2.5-.1-1.4,0-1.7.9-2,.9-.4,1.6-.2,2.3.6.5.6,1.1,1.2,1.6,1.8,0,1.9-.2,2.2-2.1,2.1ZM107.6,220.5c2.4-.2,4.9-.3,7.3-.5,3.5-.2,6.9-.5,10.4-.7,1.3,0,2.6-.1,3.9-.1,5.7,0,11.4-.1,17.2,0,4.4.1,8.8.5,13.2.8,0,.2,0,.3.1.5-.8.2-1.6.4-2.4.5-3.5.3-7,.5-10.5.9-7.5.8-14.9.9-22.4.7-3.2,0-6.4-.2-9.6-.4-3.4-.2-6.8-.5-10.2-.8-.2,0-.4-.1-.8-.3,1.4-.2,2.6-.4,3.8-.5ZM97.5,233.9c.3-.2.7-.5,1-.6,1-.5,1.9-.3,2.4.6.6,1,.5,2.1-.5,2.7-.8.5-1.7.8-2.6,1.2-1.9-1.4-2-2.7-.5-3.8ZM92.2,216.8c1,.2,1.2.8,1,1.6-.2,1.2-1,1.8-2.1,2.1-.8-1.8-.6-2.5,1.1-3.7ZM90.2,228.6c.3.4.6.8,1.1,1.4-.3.5-.5.8-.7,1-.2.2-.6.6-.8.5-1.3-.3-2.2,1.4-3.6.6-.6-.7-.6-1.4-.1-2,1-1.3,2.3-1.8,4.1-1.5ZM86.9,192.9c-1,4.3-2,8.7-3.1,13-2,8.3-4.4,16.4-7.7,24.8,0-.6-.2-.8-.2-1.1,1.4-10.9,4.1-21.5,7.5-31.9.8-2.5,1.8-5,3.4-7.3.4.9.2,1.7,0,2.5ZM61,232.8c-.7,0-1.3-.5-1.4-1.2,0-.8.8-1.8,1.6-1.8.7,0,1.3.5,1.4,1.2,0,.9-.7,1.7-1.6,1.8ZM64.4,225.4c-.4-.4-.8-.8-1.1-1.2.4-.9.8-1.5,1.7-1.3.3,0,.7.6.8,1,.2.8-.3,1.2-1.4,1.5ZM69.3,236.3c-1.1-.9-.5-2.3-1.1-3.3q.9-1.5,2.3-1c.7,2.2.3,3.4-1.2,4.2ZM71,220.2c0-1.7,1.5-5.8,4.4-12.2,1.8-4,3.8-7.9,5.8-12.1-6.6,8.7-12,17.9-19.5,25.6-.2.2-.4.3-.6.5,0,0-.1-.2-.2-.2,1.2-1.9,2.4-3.9,3.6-5.8,0,0-.2-.1-.2-.2-.8.6-1.6,1.3-2.4,1.9,3.2-4.9,6.7-9.5,10.4-14,3.7-4.4,7.2-9.1,11.7-12.7.2.1.3.2.5.4.3-.3.6-.7.9-1,.1.1.3.2.3.3-.8,2.2-1.5,4.5-2.4,6.7-3.3,7.7-7,15.1-11.5,22.2-.2.3-.4.5-.6.9ZM120.1,250.7c-6.1.1-12.1.4-18.2.3-3.7,0-7.5-.4-11.2-.6-.3,0-.5,0-.8,0-3.9-.2-7.9-.3-11.8-.5-1.5,0-2.9-.3-4.3-.8,2.4-.2,4.7-.4,7.1-.5,4.4-.3,8.8-.5,13.2-.7,1.3,0,2.6,0,3.9-.1,3.5,0,7.1-.2,10.6-.3,1.5,0,3,.2,4.5.2,2.2,0,4.4,0,6.5,0,5.2.2,10.4.5,15.7.8.2,0,.4.1.8.3-2.5.7-4.9.8-7.2,1.1-2.6.2-5.3.5-7.9.7-.3,0-.5,0-.8,0ZM125.1,266c4.2-1.5,21.5-1.5,25.7-.1-4.5,1.8-17.2,1.4-25.7.1Z"/>
        <path class="cls-1" d="M19.8,101.1h.3c.2.2.4.3.5.4,3,1,6.2,1.7,10.1,2.4.2,0,.4,0,.7.1.6.1,1.3.2,1.9.2s.4,0,.5,0c1.1-.1,2.1-.4,3.2-.7.5-.1.9-.2,1.4-.4.1,0,.2-.1.3-.2.3-.5.6-1,.8-1.5.6-1.1,1.3-2.3,2-3.3,2-3.1,4.1-5.1,6.7-6.3,1.8-.8,3.4-1.3,5-1.3s.7,0,1.1,0c2,.3,4.1.7,6.1,1.2.6.2,1.1.2,1.7.2.9,0,1.7-.2,2.6-.5l.4-.2c.5-.2.9-.4,1.4-.5.5,0,.9-.1,1.4-.1,1.7,0,3.4.7,5.2,2.1,2.5,2,4.3,4.7,5.2,7.8,0,.2.2.3.3.3,4.3.9,7.3,2.7,9.1,5.5,0,.1.2.2.3.2.3,0,.6.1.9.2.6.1,1.2.2,1.7.3h.6c1.5.3,3.1.4,4.7.6.4,0,.9,0,1.3,0,2.4,0,5-.4,8-1.4,1.4-.4,2.7-.7,4.1-.7s1.9.1,2.9.3c2.9.7,5.9,1.1,8.8,1.6.7.1,1.3.2,1.9.2s1.5,0,2.2-.3c.1,0,.3-.1.3-.3l2.3-6.7c0-.2,0-.5-.3-.6-.7-.3-.7-.7-.6-1.7,0-.4.1-.7.2-1.1l.8-3.1c1.8-6.9,3.5-13.9,5.3-20.8v-.2c.2-.6.4-1.3,0-2.1,0-.1-.2-.2-.4-.3h-.4c-.3,0-.6,0-.8,0-2.2-.1-3.8-1.2-4.7-3.5-.6-1.4-.6-2.9-.1-4.7.2-.8.5-1.8.5-2.7,0-1.1,0-2.2-.2-3.3,0-1-.1-2-.2-3,0-1.2-.1-2.4-.7-3.6,0-.2-.2-.3-.4-.3s-.1,0-.2,0c-.6.3-1.3.5-1.9.8-1.4.6-2.8,1.2-4.2,1.7-1.8.7-3.3,1-4.7,1s-.4,0-.7,0c-1,0-1.6-.4-1.9-1.2l7.2-8.8c.1-.1.1-.3,0-.5-1.8-3.1-2.3-6.6-1.4-10.7,1-4.9,4.1-8.5,9.1-10.7,2.7-1.2,5.6-1.8,8.4-1.8s2.6.1,3.9.4c4.2.8,7.7,3.2,10.9,7.5l.2.2c.4.5.7,1,1.2,1.4.9.8,1.3,1.7,1.4,2.7.2,2.3,1.2,4.1,2.1,5.2,0,0,0,0,.1,0l5.5,3.7c0,0,.2,0,.2,0,1.8,0,3.5.1,5.3.2,4.1.1,8.3.3,12.4.3,3.7,0,7.1.3,10.3.8,6.4,1,11.6,4,16,9.2,1.7,2,3.4,3.9,5.1,5.9,1.5,1.7,3,3.5,4.5,5.2,1.8,2.1,3.3,3.9,4.7,5.6,1.8,2.2,2,3.8.8,5.5-.1.1-.1.3,0,.5,3.6,6.8,6.4,14.5,8.7,24.1,0,.1.1.2.3.3,0,0,.1,0,.2,0s.1,0,.2,0l2.8-1.5c2-1.1,4-2.2,6-3.2,3.5-1.9,7.2-3.9,10.9-6,.9-.5,1.8-.8,2.8-.8s.7,0,1,.1c.9.2,1.8.4,2.6.7,3.2,1.4,5.7,2.5,8,3.6,3.4,1.6,6.8,3.3,10.2,5l4.3,2.1c0,0,.1,0,.2,0s.2,0,.3,0l.3-.2c.2-.1.2-.4.1-.6-.5-1-.9-2-1.4-3-1-2.1-2-4.3-3-6.4-5.1-10.2-11.4-19.8-18.8-28.4-5.5-6.5-11-11.9-16.9-16.7-8.3-6.7-17-12.4-25.9-16.8-10-5-20.5-8.7-31.2-11.2-6.7-1.5-12.3-2.4-17.7-2.9-.8,0-1.5-.1-2.3-.2-3.1-.3-6.2-.6-9.4-.6,0,0-1.3,0-1.7,0-.7,0-1.5,0-2.2,0-.7,0-1.5,0-2.2,0-1.6,0-2.9,0-4.1.1-3.7.2-7.5.6-11.4,1.2-4,.6-8.6,1.3-13,2.3-9.7,2.2-19.5,5.7-29.2,10.3-13.1,6.3-25.4,15-36.6,25.9-3.5,3.4-6.9,7.2-11.1,12.3-7.9,9.7-14.6,20.7-19.8,32.8-.4,1-.8,2-1.2,3.1-.2.5-.4,1-.6,1.5,0,.2,0,.5.2.6ZM230.1,61c.6-.3,1.2-.7,1.9-.8,1.4-.2,2.5-.9,3.5-1.9,2.6-2.6,7.5-1.8,9.3,1.4,2.2-.1,3.9.6,5.4,2.1.6.6,1.2,1.3.7,2.5-7.6,0-15.3,0-23.1,0,.3-1.7,1.2-2.6,2.4-3.3ZM85.1,39.6c3.8-3.9,8.6-4,12.4.3,3,.5,5.8,1.2,7.4,4.8-9.5,0-18.6,0-27.8,0,.9-3.1,3.1-4.4,8-5.2ZM44.7,71.4c2.1-3.3,5.2-4.8,9-4.8,5.3-8.5,16.4-8,20.7-.3,5.9-1.9,8.5-.9,12.2,4.6,3.5.9,7.1,1.9,9,5.7-.7.7-1.5.4-2.2.4-8.1,0-16.2,0-24.3,0-9.2,0-18.4,0-27.6,0-.8,0-1.6.2-2.4-.2.5-2.6,2-4,5.5-5.3Z"/>
        <path class="cls-1" d="M288.2,136.7c0,0-.2,0-.2,0s-.1,0-.2,0c-1.7.8-2.5,2-2.5,3.8,0,3.5,0,6.9,0,10.2,0,1.4.6,2.4,1.8,3,.3.2.6.3,1,.4.1,0,.3,0,.4.1,0,0,.1,0,.2,0,.2,0,.3,0,.4-.3,0,0,0-.1,0-.1,0-.1.2-.3.2-.5,0-4,0-8,0-12.1v-2.4c0-.7-.1-1.5-1.1-2.1Z"/>
        <path class="cls-1" d="M202,83.7c0,0,.2.1.3.2,0,0,0,0,0,0,.1,0,.2,0,.3-.1l7.1-6.3c.2-.1.2-.4,0-.6-.2-.3-.4-.6-.6-.9-.4-.7-.9-1.4-1.4-2.1-6.1-8.7-11.2-16-16.5-23.5-.4-.5-.8-.9-1.3-1.3-.2-.2-.4-.4-.6-.6,0,0-.2-.1-.3-.1s-.1,0-.2,0c-.3.1-.6.3-.8.4-.6.2-1.1.5-1.6.8-1.2.7-2.1,1.7-3,3,.4-2,1.2-3.4,3.3-5.6.1-.1.1-.3.1-.4,0-.2-.2-.3-.3-.3-5.6-1.7-11.5-2.1-17.2-2.6,0,0-.5,0-.5,0-.2,0-.4.2-.4.4-.6,5-1.7,9.3-3.4,13.3-2.3,5.6-4.8,9.3-8.3,12.1-2.3,1.8-4.5,2.7-6.8,2.7s-2.9-.4-4.4-1.1c-.3-.1-.6-.3-.9-.4-.2,0-.3-.1-.5-.2,0,0-.1,0-.2,0-.1,0-.3,0-.4.2-.6.9-1.5,1-2.6,1.2-.8.1-1.6.3-2.4.7-.2.1-.3.3-.2.5,0,.3.2.6.3.9.2.6.4,1.2.6,1.8,1.8,4.6,4.2,8.8,6.6,13.1l.9,1.7c3.4,6.1,7,12.3,9.8,18.8.6,1.3,1.1,2.7,1.7,4.1.3.6.5,1.3.8,2,0,.1.2.2.3.3,0,0,0,0,0,0,.1,0,.3,0,.3-.2,1.5-1.8,2.3-3.8,3.1-5.9.4-1,.7-1.9,1.2-2.9v.3c-.5,2.2-.9,4.5-1.5,6.8-.5,2-1,4.1-1.5,6.1-.7,2.8-1.4,5.6-2,8.5v.4c-.5,1.7-.9,3.4-.6,5.5,0,.2.2.4.4.4.7,0,1.3,0,1.9.1,1.4,0,2.7.2,4.1.2,1,0,1.9,0,2.9,0h3.6c.8,0,1.7,0,2.5,0,.4,0,.8,0,1.2,0,3.7,0,6.9-.3,10-.8,1.9-.4,4-.8,6.1-2,.2,0,.3-.3.2-.5,0-.2-.2-.3-.4-.3s-1.1,0-1.1,0c-.8,0-1.5,0-2.3,0-2.3,0-4.7,0-7.1-.4.7-.5,1.3-.9,2-1.3,2.2-1.5,4.3-2.9,6.4-4.5,3.1-2.3,6.3-6.5,7.1-8.6,0-.2,0-.4-.1-.5,0,0-.2-.1-.3-.1s-.2,0-.2,0c-4.1,2.3-8.5,4.1-12.8,5.7-2.6,1-5.2,2.1-7.8,3.2.6-.7,1.1-1.5,1.7-2.2,1.4-1.8,2.8-3.6,4.1-5.5,5-6.8,8.4-13.3,10.6-20,0-.2.1-.5.2-.8,0-.2,0-.4.1-.7,0-.2,0-.4-.3-.5,0,0-.1,0-.2,0-.1,0-.3,0-.4.2-.9,1.2-1.7,2.4-2.5,3.5-1.8,2.5-3.5,4.9-5.3,7.2-2.1,2.8-4.6,6-7.7,8.7.2-.7.4-1.3.6-2,.4-1.3.9-2.7,1.3-4,2.5-8.7,4.1-15.5,5.2-22l.2-1.3c.5-2.6.9-5.2.7-7.9,0-.1,0-.3,0-.4l4.9,4.5c0,0,.2.1.3.1s.1,0,.2,0c.2,0,.3-.3.2-.5l-.4-2.5c-.3-1.7-.6-3.4-.9-5.1-.7-3.6-.8-5.2-.5-6.5l14.7,16.6Z"/>
        <path class="cls-1" d="M270.9,179.8c.1,0,.2,0,.3-.1,0,0,.1-.2.1-.3v-61.8c0-.2-.2-.5-.5-.5h-40.4c-.2,0-.4.2-.4.4l-.4,5.5c0,.2,0,.3.2.4l1.9,1.3c0,.9,0,1.9,0,2.8,0,1.8.2,3.5-.6,5,0,0,0,.2,0,.2,0,.8.1,1.6.2,2.4.2,1.7.3,3.3.4,4.9.1,1.6.2,3.3.2,5h0c0,1.4-.2,2.2-.7,2.9-.2.3-.5.7-.7,1l-.3.4c-.1.2,0,.4,0,.6,3.9,4,6.6,8.9,8.1,15,0,.2.2.3.4.3h17.4c.8,0,1.6,0,2.5,0,1.8,0,3,1.2,3.2,3,0,.3,0,.7,0,1v.4s0,3.8,0,3.8c0,2.7,0,5.5,0,8.2,0,.3,0,.6,0,1v.5c0,.2.3.4.5.4h2.5c.2,0,.4-.1.4-.3.7-2.3,2.3-3.4,5.1-3.4s.4,0,.4,0ZM263.3,145.8c0,2.5-1.2,3.9-3.6,4.5-.6.1-1.2.2-1.8.3-3.6,0-7.2,0-10.8,0-.7,0-1.3-.2-2-.4-1.7-.5-2.6-1.6-2.8-3.4,0-1-.2-2-.2-3,0-3.1,0-6.1,0-9.2,0-3.4,1.3-5.1,5-5.2,3.7-.1,7.4,0,11,0,.5,0,1.1.1,1.6.2,2.3.4,3.5,1.8,3.6,4.2,0,2,0,4.1,0,6.1h0c0,2,0,3.9,0,5.9Z"/>
        <path class="cls-1" d="M264.9,208.7h-15c-.2,0-.3,0-.4.2,0,.1,0,.3,0,.4,2.5,5.4,7.8,9.1,12.8,9.1s2-.2,2.9-.5c.2,0,.3-.2.3-.4.3-2.3.3-7.2-.1-8.6,0-.2-.2-.3-.4-.3Z"/>
        <path class="cls-1" d="M262.3,99.9c-.9-.3-1.9-.4-2.5-.4,0,0-.2,0-.3,0-1.5,0-2.8.7-4,1.4l-.3.2c-3,1.7-5.7,2.6-8.4,3-3.9.5-7.5.8-10.9.8h-2.2s-3.3,0-3.3,0c-.1,0-.2,0-.3.1,0,0-.1.2-.1.3l.3,6.8c0,.2.2.4.5.4h53.7c.1,0,.3,0,.4-.2,0-.1.1-.3,0-.4l-2.3-6.3c0-.2-.2-.3-.4-.3-5.1-.5-9.5-1.5-13.5-3.1-2-.8-4.1-1.5-6.4-2.3Z"/>
        <path class="cls-1" d="M244.3,168.1h-4.3c-.2,0-.4.2-.5.4,0,1.6.3,3.1.6,4.6.1.5.2.9.3,1.4,0,.2.2.4.4.4h3.4c.2,0,.4-.2.4-.4.1-2.1.2-4,0-6,0-.2-.2-.4-.4-.4Z"/>
        <path class="cls-1" d="M260.1,133.9c-.3-.9-.9-1.6-1.8-1.7-1.5,0-3-.3-4.4.6v14.4c1.6,0,3.1.2,4.5,0,1.5-.2,1.8-.6,1.8-2.2,0-3.3,0-6.7,0-10,0-.4,0-.8-.1-1.2Z"/>
        <path class="cls-1" d="M245.3,134.9c0,3.2,0,6.4,0,9.6,0,.4,0,.8,0,1.2,0,1.3.6,1.9,1.9,1.9,1.4,0,2.8-.1,4.4-.2v-14.8h-5.9c-.1.9-.3,1.6-.3,2.3Z"/>
        <path class="cls-1" d="M61,143.4h0c-.2,0-.4.2-.4.4l-1.8,14.5c-1.3-1.3-2.4-2.8-3.4-4.2-1-1.4-2.1-2.8-3.3-4,0,0-.2-.1-.3-.1s-.2,0-.3,0c-.2.1-.2.4-.1.6,1.4,2.7,2.8,5.4,4.1,7.7l4.4,8c0,.1.2.2.4.2s0,0,0,0c.2,0,.3-.1.4-.3.8-2.7,1.3-19.4.9-22.5,0-.2-.2-.4-.4-.4Z"/>
        <path class="cls-1" d="M299.8,143.4c0-1-.1-1.9-.2-2.9-.2-4.1-.5-8.4-1.2-12.7l-.4-2.1c-.6-3.5-1.2-7.1-2-10.7-1.9-8.6-4.8-17.2-8.9-26.2-6.6-14.7-15.6-28.4-26.9-40.6-5.5-5.9-11.3-11.3-17.1-15.9-14.5-11.3-30.7-19.8-48.3-25.3-6.2-1.9-12.5-3.5-18.7-4.5-3.8-.7-7.8-1.3-11.9-1.6-1.1,0-2.2-.2-3.3-.3-2-.2-4.1-.4-6.3-.4h-1.9c-1.5,0-3,0-4.5,0-3.4,0-6.1.1-8.6.3l-2.3.2c-3.2.3-6.6.6-9.9,1.1-5.5.8-11.3,2-17.1,3.6-16,4.4-30.8,11.2-44.1,20.2-6.7,4.6-13.3,9.9-19.6,15.8-4.8,4.5-9.4,9.6-15,16.5-9.7,12.1-17.2,25.7-23.1,41.7-4,10.9-6.5,21.1-7.6,31.2l-.2,1.8c-.4,3.5-.8,7.2-.9,10.9,0,3.7,0,7.5.2,11.1,0,1.5.1,3.1.1,4.6,0,.3,0,.6,0,.9.2,1.2.3,2.4.5,3.6.3,2.7.7,5.6,1.1,8.4.5,3.3,1.3,7.7,2.3,12.1,2.3,9.5,5.8,19.2,10.4,28.8,7,14.5,16.4,27.8,28,39.5,5,5.1,10.6,10,16.7,14.5,14.3,10.7,28.4,18.2,42.8,22.9,8.6,2.8,15.8,4.6,22.5,5.6,2.9.5,5.8.9,9,1.3,2.6.3,5.3.6,8,.8,1,0,2.1,0,3.4,0s1.5,0,2.3,0h.4c.7,0,1.5,0,2.2,0,1,0,2.1,0,3.1,0,6.7,0,12.2-.4,17.3-1.3,1.2-.2,2.3-.4,3.5-.6h.4c2.9-.5,6-1,9-1.7,14.5-3.4,27.8-8.5,39.8-15.3,12.6-7.1,23.2-15.1,32.7-24.6,6.1-6.1,10.5-11.1,14.3-16.2,10.6-14.2,18.7-30.2,24-47.5,3.1-10.1,5-20.2,5.5-29.8.3-5.2.7-11.1.3-17.1ZM294.6,160.2c-.6,9.2-2.3,18.8-5.3,28.6-5.1,16.8-12.9,32.2-23.2,46-3.7,4.9-7.9,9.7-13.9,15.7-9.1,9.2-19.4,16.9-31.6,23.8-11.5,6.5-24.5,11.5-38.5,14.8-2.8.7-5.8,1.1-8.6,1.6-1.3.2-2.6.4-3.9.6-4.8.8-10,1.2-16.4,1.2s-2,0-3,0h0c-.8,0-1.7,0-2.5,0s-1.7,0-2.5,0c-1.2,0-2.2,0-3.2,0-2.6-.1-5.2-.4-7.7-.7-3.1-.4-6-.8-8.8-1.2-6.5-1-13.4-2.8-21.8-5.5-13.9-4.5-27.4-11.7-41.3-22.1-5.8-4.4-11.2-9.1-16.1-14-11.1-11.3-20.2-24.2-27-38.2-4.5-9.3-7.9-18.6-10.1-27.8-1-4.2-1.7-8.5-2.3-11.7-.4-2.7-.8-5.6-1.1-8.3-.1-1.2-.3-2.4-.4-3.6,0-.1,0-.2,0-.4,0-1.6,0-3.1-.1-4.7-.1-3.5-.2-7.2-.2-10.8,0-3.5.5-7.1.8-10.5l.2-1.8c1-9.7,3.4-19.5,7.3-30,5.7-15.5,13-28.7,22.3-40.3,5.4-6.7,9.9-11.7,14.5-16,6.1-5.7,12.5-10.9,19-15.3,12.8-8.7,27.1-15.3,42.6-19.5,5.6-1.5,11.1-2.7,16.4-3.4,3.2-.4,6.5-.8,9.7-1l2.3-.2c2.4-.2,4.9-.3,8.1-.3s3,0,4.5,0h1.9c2,0,3.9.2,5.9.4,1.1.1,2.3.2,3.4.3,3.9.3,7.8.9,11.4,1.6,6,1,12.1,2.5,18.1,4.4,17,5.3,32.7,13.5,46.7,24.4,5.7,4.4,11.2,9.6,16.6,15.3,11,11.9,19.7,25.1,26.1,39.3,3.9,8.7,6.7,17,8.6,25.3.8,3.4,1.4,7,1.9,10.4l.4,2.1c.7,4,.9,8.2,1.2,12.2,0,1,.1,2,.2,3,.4,5.7,0,11.4-.3,16.5Z"/>
        <path class="cls-1" d="M54.1,183.3c.3,0,.8,0,1.2,0,2.1-.3,3.4-1.7,3.6-3.8,0-.5,0-.9.1-1.4,0-.7.2-1.5.2-2.3,0-1.5,0-3.2,0-5.1,0-.5-.2-1.1-.4-1.6-1-1.7-2-3.4-3-5.1l-1.1-1.7c0-.1-.2-.2-.3-.2,0,0,0,0,0,0-.1,0-.2,0-.3.1-2.5,2.8-5.6,4.2-9.1,4.2s-1.9,0-2.9-.3c-4.8-1-8.1-4-9.6-8.7,0-.1-.2-.3-.3-.3-.4-.1-.9-.2-1.3-.3-.8-.2-1.6-.4-2.4-.6-3.8-1.4-6.7-4.2-8.9-8.2-1.4-2.6-1.6-5.8-.5-8.6.9-2.2,2.4-3.9,4.3-4.6.2,0,.3-.3.4-.4.1-.1.2-.4,0-.6-1.5-2.8-1.3-6.2.4-9.3,1.7-3.2,4.7-5.5,7.6-5.8.2,0,.4-.2.4-.4,0-.3,0-.7,0-1,0-2,0-3.9.8-5.8,1-2.3,2.4-4,4.3-5.3.1,0,.2-.3.2-.4,0-.2-.1-.3-.3-.4-.3-.1-.5-.2-.8-.2-.6,0-1,.3-1.3.5h-.1c-2.8,2-4.7,4.5-5.8,7.6h-13.5c-.2,0-.4.1-.4.3-.2.7-.4,1.5-.6,2.2-.4,1.6-.8,3.2-1.2,4.8-1,4.5-1.7,8.9-2.1,13.3v1c-.4,3.3-.7,6.8-.8,10.2,0,5.4,0,11.2.8,17,.1,1,.2,2.1.3,3.1.2,1.6.3,3.3.6,5,.5,2.9,1.1,5.8,1.7,8.9.3,1.3.5,2.6.8,3.9,0,.2.2.4.4.4h38.4s.3,0,.3,0Z"/>
        <path class="cls-1" d="M285.7,182.8h-16.8c-.2,0-.4.2-.4.4,0,.4,0,.7,0,1,0,.7-.1,1.2-.1,1.8,0,7.4,0,14.8,0,22.1v8.1c0,.2,0,.3.2.4,0,0,.1,0,.2,0s.2,0,.2,0l3.5-2.3c.1,0,.2-.2.2-.4v-2.4c0-1.7,0-3.5,0-5.2,0-4.4,0-8.9,0-13.3,0-2.2,1-3.9,2-5.4.4-.5.9-.8,1.6-.9,1.2-.1,2.5-.2,3.9-.5,2-.3,4.2-.9,6.1-2.8.1-.1.2-.3,0-.5,0-.2-.2-.3-.4-.3Z"/>
        <path class="cls-1" d="M237.1,177.4h-17.1c-.2,0-.5.2-.5.5v12.2c0,.2.2.5.5.5h19.3c.1,0,.3,0,.3-.2,0-.1.1-.2,0-.4l-2.3-12.2c0-.2-.2-.4-.4-.4Z"/>
        <path class="cls-1" d="M227.2,151.4c0,0-.2-.1-.3-.1s-.2,0-.2,0c-.9.5-1.8.8-2.8.8-1.5,0-3-.6-4.5-1.1,0,0-.1,0-.2,0,0,0-.2,0-.2,0-.4.2-.8.4-1.3.4s-1-.1-1.6-.2c-.5-.1-.9-.2-1.4-.2,0,0,0,0,0,0-.2,0-.4.1-.4.4-.3,1.5-.7,2.9-1,4.4-.7,3.4-1.4,6.6-2.3,9.9-1,3.9-1.6,7.7-1.6,11.5,0,.5,0,.9-.1,1.4,0,.4-.1.8-.1,1.2,0,.7,0,1.4,0,2.1,0,.3,0,.7,0,1s0,.2.1.3c0,0,.2.1.3.1s0,0,0,0c.6,0,1.3,0,1.9,0s2.3,0,2.3,0c.9,0,1.9,0,2.9-.1.2,0,.4-.2.4-.4v-4.8c0-3.1,0-6.2,0-9.3,0-.7.1-1.3.4-1.7.6-1.2,1.6-1.7,3-1.7,2.2,0,4.4,0,6.6,0h5.9c.4,0,.7,0,1.1,0,.2,0,.3,0,.5,0,.1,0,.2,0,.3-.2,0-.1.1-.2,0-.4-.9-4.7-3.8-9.4-7.8-13.1Z"/>
        <path class="cls-1" d="M235.3,168h-5.6c-2.9,0-5.9,0-8.8,0-.3,0-.5.1-.8.2-.1,0-.2,0-.3.1-.2,0-.3.3-.3.5,0,.8,0,1.5,0,2.3,0,1.1,0,2.3.2,3.5,0,.2.2.3.4.3h16.3c.2,0,.4-.2.4-.4.2-2.3-.3-4.5-1.2-6.3,0-.1-.2-.2-.4-.2Z"/>
      </g>
    </g>
  </g>
</svg>