<?xml version="1.0" encoding="UTF-8"?>
<svg xmlns="http://www.w3.org/2000/svg" version="1.1" viewBox="0 0 320 320">
  <defs>
    <style>
      .cls-1 {
        fill: #053245;
      }
    </style>
  </defs>
  <!-- Generator: Adobe Illustrator 28.6.0, SVG Export Plug-In . SVG Version: 1.2.0 Build 709)  -->
  <g>
    <g id="rosenberg-maintenance-svg">
      <g id="logo-group">
        <path class="cls-1" d="M288,255.8c11.5-15.5,20-32.6,25.6-51.1,3.1-10.4,5.2-21,5.9-31.8.4-6.1.7-12.2.3-18.3-.4-5.6-.5-11.3-1.5-16.9-.8-4.7-1.5-9.3-2.5-13.9-2.2-9.7-5.4-19.1-9.5-28.1-7.2-16.2-16.9-30.7-28.8-43.7-5.6-6.2-11.7-11.9-18.3-17.1-15.5-12.2-32.7-21.3-51.5-27.2-6.6-2.1-13.2-3.7-20-4.9-4.2-.7-8.4-1.4-12.6-1.7-3.4-.2-6.8-.8-10.3-.8-5.3,0-10.6-.2-15.9.3-4.4.4-8.8.8-13.1,1.4-6.1.9-12.2,2.2-18.1,3.8-16.8,4.7-32.6,11.8-47,21.7-7.4,5.1-14.4,10.8-21,17-5.8,5.5-11,11.5-16,17.8-10.8,13.5-18.7,28.6-24.6,44.9-3.9,10.8-6.8,21.9-8,33.4-.5,4.6-1,9.1-1.1,13.7-.1,5.7.2,11.5.3,17.2,0,.1,0,.3,0,.4.6,4.4,1,8.8,1.7,13.2.7,4.4,1.5,8.7,2.5,13,2.5,10.7,6.3,21,11.1,30.9,7.6,15.8,17.6,29.9,29.8,42.5,5.5,5.7,11.5,10.8,17.8,15.6,14,10.5,28.9,19.2,45.6,24.6,7.9,2.6,15.8,4.8,24,6.1,3.2.5,6.5,1,9.7,1.4,2.8.4,5.6.7,8.5.8,3,.1,6,0,9,0,7.2.1,14.4,0,21.4-1.3,4.6-.8,9.3-1.4,13.9-2.5,14.9-3.5,29.1-8.8,42.4-16.4,12.8-7.3,24.5-16,34.8-26.5,5.4-5.5,10.7-11.2,15.3-17.5h0ZM286.3,227c.4,1.5.5,6.9.1,9.3-5.7,2-13.3-2.2-16.7-9.3h16.5,0ZM267.2,220.4c-1.1-3.2-2-6.6-2.8-10,3.1-.4,19.9-.3,21.7.2,0,1.6,0,3.2,0,4.8,0,1.6,0,3.2,0,4.7-1.8.4-13,.6-19,.2h0ZM286.5,198.1h-2.7c0-.6-.1-1.1-.1-1.5,0-4.5,0-8.9,0-13.4,0-.5,0-1.1,0-1.6-.2-2.3-1.7-3.7-4-3.8-2.2,0-4.4,0-6.5,0h-15.4c-1.6-6.4-4.4-12.1-9.1-16.9.3-.5.6-1.1,1-1.6.8-1,.9-2.2.9-3.4,0-1.9,0-3.8-.2-5.7-.2-2.6-.4-5.1-.7-8,1.4-2.6.5-5.8.7-9.1-.8-.5-1.5-1-2.3-1.6.1-1.9.3-3.9.5-6.1h44.4v68.6c-3.2-.1-5.6.9-6.5,4.1h0ZM201.1,76.8c.5,2.7.9,5.4,1.4,8.4-2.1-1.9-4-3.7-6.2-5.7,0,.7-.1,1.1-.1,1.6.2,3.4-.5,6.8-1.1,10.1-1.4,8.2-3.4,16.3-5.7,24.3-.7,2.3-1.4,4.6-2.1,6.9-.1.3-.1.7,0,1.1,3.7-3,6.6-6.7,9.4-10.5,2.8-3.8,5.5-7.7,8.6-11.9-.2.8-.2,1.2-.4,1.6-2.6,8-6.7,15.3-11.6,22.1-2.2,3-4.5,6-6.8,9-.2.3-.4.6-.5.9,8-3.8,16.5-6.2,24.1-10.6-.8,2.3-4.4,6.9-7.6,9.3-3.3,2.5-6.7,4.7-10.2,7.1,4.1.8,8.3.7,12.9.7-2.3,1.2-4.4,1.7-6.6,2.1-4.1.8-8.1,1-12.3.9-3.3,0-6.6,0-9.9,0-2.2,0-4.3-.2-6.6-.4-.4-2.4.2-4.4.6-6.3,1.2-5.4,2.6-10.8,3.9-16.2.6-2.6,1.1-5.3,1.6-7.9,0-.5,0-1,0-1.9-2.2,3.8-2.7,8.1-5.5,11.3-.9-2.3-1.8-4.5-2.8-6.7-3.4-7.9-7.7-15.3-11.9-22.8-2.6-4.7-5.3-9.4-7.3-14.5-.4-1-.7-2-1-3,1.9-1.1,4.3-.4,5.6-2.3.6.2,1.1.4,1.6.6,4.7,2.3,9,1.3,12.9-1.9,4.5-3.6,7.2-8.4,9.3-13.6,1.9-4.8,3.1-9.7,3.7-14.9,6.5.5,13,.9,19.3,2.8-2.9,3.2-3.8,4.8-4,8.6,1.3-2.1,2.5-3.8,4.3-5,.8-.5,1.6-.8,2.6-1.3.7.7,1.5,1.3,2.1,2,6.1,8.7,12.1,17.4,18.1,26.1.8,1.1,1.5,2.3,2.2,3.4-2.6,2.3-5.2,4.7-7.8,7-5.6-6.3-11.1-12.7-16.8-19-.7,1.8-.6,3.6.3,8.3h0ZM208.9,195.6c0,1.9-.5,3.4-1.8,4.7-.9,1-2,1.8-3,2.7-.6.5-1.2.8-1.9,1.3,1.7,1.9,4.4,2.8,5.4,5.3-2.4,1.6-5.1,1-7.6,2,2.7,3.1,5.4,6.1,8,9.1.2,5.9-.9,11.4-2.8,16.6-1.2,3.4-3.6,5.9-6.5,7.9-.9.6-1.9,1.2-2.8,1.8.9,3.1,4.7,6.1,10.9,8.6-3.9,1.2-7.5.7-11.3.3.3,1.1,1.1,1.6,1.7,2.1,2.6,1.8,5.3,3,8.4,3.5.9.1,1.7.3,2.5.6-5.6-.2-10.9-1-15.6-4.4-.7-3,0-5.8.4-8.6.6-4,1.2-8,1.6-12.1.5-4.3.8-8.7,1.2-13,0-.2,0-.4,0-.7.1-4.4.4-8.8.4-13.1,0-3.9-.5-7.8-1.1-11.7-.4-2.4-.8-4.8-.9-7.1,0-2.2.3-4.5.5-6.7.2-2.7.5-5.4.7-8.1.2-1.6.3-3.3.6-4.9.5-3.3,2.3-5.9,4.9-7.9,1.5-1.1,3-2.1,4.6-3.2-1.7-.5-5.5.3-12.5,2.7-1.3-1.6-1.4-3.5-1.5-5.2-.2-2.8,0-5.6,0-8.5,5.4-.1,10.8-.3,16.2,0,.9,3.6,1.8,6.9,2.1,10.5.4,4.5-.1,9-.4,13.5-.3,4.1-.4,8.3-.6,12.4,0,3.2-.1,6.5,0,9.8h0ZM179.4,267.1c-1.5.3-3,.5-4.7.8-.2-1.8,0-2.5,1.6-3.2,2-1,4.2-1,6.3-.3.8.3,1.6.7,2.8,1.3-2.2.5-4.1,1-5.9,1.4h0ZM181.8,272.1v1.2c-2.7,1.2-5.3.7-8.1-.5v-2.2c2.8.5,5.4,1,8.1,1.5h0ZM198.9,272.9c-.4,1-1.3,1.1-2.1,1.4-1.8.6-3.6,1.1-5.4,1.4-2.3.4-4.5,1-6.3,2.6-.7-.6-.9-1.2-.5-2,1-2.3,3.3-4.9,6.9-4.9,2.6,0,5,.6,7.4,1.5h0ZM192.1,266.4c.2-.5.4-1.1.7-1.8.6.1,1.1,0,1.6.3,1.8.9,3.5,1.9,5.3,2.9,0,0,0,0,0,0-2.7-.5-5.1-1-7.6-1.4h0ZM183.5,281.3c2,.6,4,1.4,6.1,1.8,2.1.5,4.3.8,6.4.9,2.1.1,4.3-.1,6.4-.2-2.1,1.5-4.6,1.9-7.2,2.4-.8-.3-1.5-.6-2.3-.9-.3.3-.6.5-1.1,1-2.8,0-5.5-.9-8.3-2-.7-.9-.8-1.8-.1-2.9h0ZM182.4,179.7c-1.3,2.6-2.6,5-3.6,7.4-1.4,3.5-2.7,7-3.9,10.6-1.2,3.4-.7,6.6,1.3,9.5.9,1.4,1.9,2.7,3.1,4.2-2.1-.6-3.6-2.1-5.6-2.7,0,2.1.6,4.2,3.7,10.8,1.6,3.4,3.5,6.6,5.2,9.9-.8-.9-1.6-1.9-2.3-2.8-4.1-5.2-7.6-10.8-9.6-17.2-1-3.2-1.6-6.5-1.8-9.9-.5-8.5-.2-16.9-.2-25.4s.5-6.9.8-10.4c.1-1.9.3-3.8.5-5.6.3-2.8.6-5.5.9-8.2,2-1.1,3.8-.9,5.6-.8,1.6,0,3.1.2,4.7.4.7,0,1.4.3,2.2.4v13.4c-2.4.3-5-.2-7.9.4,3.2,2,6.1,3.7,9.2,5.6-2.9,4.4-5.7,8.8-7.8,14.1,2-1.3,3.6-2.3,5.5-3.5h0ZM135.3,179.9c-.4.3-.9.6-1.4.9-1.3.9-2.6,1.8-3.8,2.8-4,3.5-4.6,9.6-1.6,13.7,0,.1.1.2.2.4h-32.9c1-1.9,1.9-3.7,2.8-5.5,3.2-.9,5-3.4,4.6-6.5,1.8.1,3.5.3,5.3.3,1.7,0,3.4,0,5.2,0,1.8,0,3.6.4,5.4-.4,0-.8,0-1.4.1-2-.2-.3-.4-.5-.6-.6-.6-.2-1.3-.3-1.9-.4-3.4-.2-6.9-.3-10.5-.5,1-1.4,1.8-2.7,2.7-4.1.5.7,1,1.3,1.5,2,.6,0,1.1,0,1.6-.1.5,0,1.1-.4,1.5-.2,3,.7,5.7-.6,8.6-1.1,2.9-.5,5-2.1,6.5-4.7.6-1,1.5-1.9,2.2-2.8.7-1,.6-1.3-.4-2.5-1.7,0-2.9,1-4.3,1.7.6-.9,1.3-1.7,2.2-2.2,1.1-.6,1.6-1.5,1.7-2.7,0-.8.2-1.6.4-2.4.2-1.2.8-2,2.1-2.4,2.7-.7,5.3-.6,7.9.5,2.8,1.1,5.1,2.8,7.3,4.7,4.3,3.8,7.7,8.4,11,13.1,1.6,2.4,3.1,4.8,4.7,7.1,1.2,1.7,1.7,3.5,1.3,5.6-3.4-5.8-7.2-11.2-11.2-16.4-3.3-4.2-6.9-8.2-11.5-11-.6-.4-1.3-.8-2.1-1.2-4.5,4.8-5,10.6-4.6,16.8h0ZM92.7,189.8c.4,1,.2,2-.2,3.1-.7,1.8-1.5,3.4-2.9,4.9h-2.8c-5.8,0-11.5,0-17.3,0-2.6,0-3.8-1.2-3.8-3.7,0-4.4.2-8.8.3-13.1,0-.3,0-.6.2-1.2.8-.6,1.8-1.4,3-2.4,3.5,1.5,7.4,1.6,11.3,0,3.8-1.6,6.5-4.5,8.3-8.1,9.6-4.4,11.4-12.2,8.4-19.1,3.9-2.6,5-6.5,4.7-10.9-.3-4.5-2.6-7.8-6.8-9.9.9-2.7,1.6-5.2.6-8h32c-2.8,6.8-5.5,13.5-8.3,20.4-.3,0-.6.1-1,.1-1.4,0-2.2.7-2.8,1.9-.6,1.2-1,2.5-1.6,3.8-1,2.1-2,4.2-3.2,6.2-1.1,1.8-2.1,3.6-2.3,5.8,0,.6-.3,1.1-.6,1.8-1.4-.8-2.7-1.5-3.8-2.1-1.2.2-1.7.9-2.1,1.7-2.3,4.6-4.1,9.3-5.5,14.3-.3.9,0,2.1.2,3.1.2,1.1.4,2.2.7,3.4-.7,0-1.1.1-1.5,0-1.5,0-2.4.7-2.9,2-.7,1.9-1.2,3.9-.4,5.9h0ZM68,167.2c.9-2.3,2.5-4.1,4.2-5.8-1.2,2.1-2.3,4.2-4.2,5.8ZM135.6,32.6c.7,1.4,1.5,2.8,2.3,4.1-.1,1-.7,1.7-1.5,2.1-1,.6-2.1,1.2-3.1,1.7-1.1.5-2.4.8-3.6,1.3-5.8-12.1,4.4-23,14.1-22.9-2.6.7-4.7,2.1-6.5,3.9-2.6,2.7-3.1,6.6-1.6,9.8ZM129.1,44c1.1-1,2.5-.9,3.8-1.1,1.8-.3,3.7-.3,5.6-.5.6,0,1.3-.3,1.9-.5.6-.2,1.2-.5,1.9-.5-1,.7-2,1.5-3.1,2-3,1.6-5.9,3.2-9,4.5-1.5.7-3.3.8-5.4,1.3,1.2-2.4,2.8-3.8,4.3-5.2h0ZM140.5,68.3c-2.3-1.9-3-4.5-3.3-7.3-.2-1.7-.5-3.5.8-5.1-.6,4.4.6,8.4,2.5,12.3ZM139.2,53.2c-.4-.1-.9-.2-1.4-.4,0-.2-.2-.4-.2-.7-.1-1.1.4-1.7,1.4-2.1.2.4.4.8.7,1.2.9.2,1.9.4,2.8-.6v-5c2.5-.8,3.2-3.3,5-4.7,1.4,1,1.3,2.4,1.1,3.7-.4,2.5-.9,5-1.4,7.5-.2,1.2-.4,2.5-.7,4.2-.3-.9-.5-1.3-.7-1.9-1.7.1-3.5.3-5.2.4-.5-.6-.9-1.1-1.4-1.7h0ZM166.9,38.2c.7,1.1.7,2.1.5,3.2-.9,5.3-3.5,9.8-6.6,14.1-.4.6-.8,1.3-1.4,1.8-.5.5-1.2,1.1-2.1,0,3.9-6,7.7-12,9.6-19.2h0ZM155.7,45.8c-.3-1.8-.4-3.7-.5-5.6-.1-1.2.3-2,1.4-2.8,2.6,0,3.5.5,4.1,2.6.7,2.8.1,5.4-1.7,7.6-.3.4-.9.7-1.4.9-1.4-.6-1.7-1.8-1.9-2.8h0ZM148.2,36.2c4.3-2.6,8.5-5.1,12.9-7.8.2.2.6.5,1.1.9-4.4,3-9.1,5.3-14,6.9h0ZM148.9,71.5c-2.4-2.6-2.6-6.5-.4-9.5,1.1-1.5,2.1-2,3.1-1.4-3.4,2.5-5.2,5.9-2.7,10.9h0ZM151.2,55.3v-6c1.1,2.2,2.2,4.3,2.5,7-1-.4-1.7-.7-2.5-1h0ZM150.9,89.6c-1.4-1.2-2.7-2.3-4.4-3.7,0,1,0,1.6.1,2.2.4,1.8.8,3.5,1.4,5.2.2.8.2,1.4,0,2.2-.6,2.3-1,4.7-1.5,7-.1.7,0,1.3,0,2,1.8,1.8,3.5,3.7,5.2,5.5-4.1-3.2-8.7-5.4-13.7-7.2,1.1-4.2,2.1-8.3,3.2-12.4,1.1-4,2.2-8.1,3.3-12.4,2.2,4,4.2,7.8,6.3,11.6h0ZM138.2,109.8c1.9,1.7,3.6,3.1,5.3,4.7-.8,2.5-1.7,5.2-2.6,8-.5-.6-.9-1.2-1.5-1.8-2.3,4.3-4.4,8.6-6.8,12.6-2.4,4-5.1,7.8-7.7,11.8-.9-.5-1.8-1-2.9-1.6,1.2-3.1,2.4-6.2,3.7-9.2,1.8-4.3,3.7-8.5,5.5-12.8.8-2,2.1-3.7,3.5-5.2,1.3-1.4,2.1-3.1,2.8-4.9.1-.4.3-.8.6-1.5h0ZM121.7,152.3c-.5,0-1,0-1.7-.1-.2,1-.4,2-.4,3.1,0,1.6-.6,3-1.7,4.1-1.2,1.2-1.7,2.6-2,4.2-.3,1.5-.7,3-1.1,4.7-1.2-.2-2-.9-2.8-1.5-.7-.5-1-1.3-.9-2.2.2-1.9.3-3.8.5-5.6,0-.6.3-1.2.7-1.6,2.1-2.8,3.3-6,4.8-9.1.4-.9,1-1.8,1.4-2.8,2.5.6,4.1,2.1,5.5,3.9-.9-.6-1.9-1.1-2.8-1.7-.7.7-.5,2.4.4,4.8h0ZM105.3,162.8c-1.8,5.1-3.5,10.1-5.2,15.1,0,.1-.2.1-.4.3-.2-.1-.4-.3-.7-.6.6-1.6,1.1-3.1,1.6-4.6.8-2.5,1.7-5,2.5-7.4.4-1.2.5-2.6,1.8-3.3.2.2.4.5.5.6h0ZM161.9,151.4c-1.8-1.4-3.8-2.3-6.1-2.7-3.4-.6-6,.7-8.1,3.3-1.2,1.4-2,3.1-3.1,4.8-1.4-.4-3-1.1-4.7-1.3-2.1-.2-4.3-.1-6.4-.1-.9,0-1.7.2-3.1.3,1.7-2.4,3.1-4.4,4.6-6.3,3.3-4.1,6.8-8,10.1-12.1,2.7-3.3,5.1-6.8,7.2-10.6,1-1.8,2-3.5,3-5.3h10.1c.4,1.7.9,3.3,1,5,.2,3.3.9,6.5.2,9.9-.5,2.7-.4,5.5-.6,8.3,0,1.7,0,3.3.9,4.6-.4,2.2-.7,4.2-1,6.1-1.3-1.2-2.6-2.6-4.1-3.8h0ZM157.3,116c1.3-1.7,2.5-3.3,3.8-5.1,1,1.9,1.9,3.7,2.9,5.6-2.3,0-4.4.4-6.7-.5h0ZM168.4,65.2c1.5-4,2.9-8,4.4-12,0-.1.2-.2.6-.4-.8,4.3-1.1,8.6-3.4,12.3-.4,0-.7.1-1,.1-.2,0-.4,0-.7,0h0ZM255.1,188.6h-17.9c-.5-2.1,0-4.2-.2-6.4.4-.1.8-.3,1.1-.3,5.3,0,10.6,0,15.8,0,1,1.9,1.4,4.2,1.2,6.7h0ZM255.8,192.4c.8,4.6,1.6,9,2.5,13.6h-21.3v-13.6h18.8ZM251.2,177.8c-4.6,0-9.1,0-13.7,0-1.7,0-3.1.6-3.9,2.2-.3.6-.4,1.4-.4,2.2,0,4.5,0,9.1,0,13.6v2c-2.6.2-5.1,0-7.8.1,0-1.2,0-2.3,0-3.4,0-1,.2-1.9.3-2.9,0-4.3.7-8.5,1.8-12.7,1.4-5.2,2.4-10.5,3.6-15.9,1.6.1,3.4,1.1,5,0,2.9,1.1,5.6,2.1,8.5.4,4.4,4,7.4,9.2,8.4,14.3-.6,0-1.1.1-1.7.1h0ZM233.6,138.9c-.8,1.1-1.6,2.3-2.8,4,.1-2.8.3-5,.2-7.3,0-2.4-.4-4.8-.7-7.2-.2-1.6-.4-3.3-.6-4.9-.4-2.8-.7-5.7-1.1-8.5-.4-2.5-.8-5-.9-7.6.8,2.7,1.6,5.3,2.4,7.9,1.4,5.3,2.8,10.6,4.2,15.9.3,1.1.3,2-.3,3.1-.3.6-.4,1.3-.4,1.9,0,.8,0,1.7,0,2.7h0ZM239.3,137.5c-.6,2.8.8,3.9,5,4.5-1.9.7-4,.6-6.1,1.1-.8.9-.5,2.1-.4,3.2.3,1.6,0,3.1-.6,4.6-1.1,2.8-2.2,5.7-3.3,8.6-.8-.2-.7-1-.6-1.6.2-1.5.5-3,.7-4.4.3-1.9,0-3.7-1.2-5.1-1,.2-1.3.7-1.4,1.4-.5,2.4-1.4,4.8-1.4,7.3,0,.3-.2.7-.3,1-.2,0-.2-.1-.3-.1-.8-2.4-.8-4.7,0-7.1.2-.6.5-1.2.7-1.9.4-1.5,1.1-2.8,2.4-3.7.6-.5,1.1-1.2,1.7-1.8,1.6-1.7,2.7-3.6,2.4-6.1,0-.3,0-.6.1-.9,3-.4,5.8,0,8.9,1.1h-6.2ZM238.2,131.4c-.4-1.3-.8-2.6-1.1-3.9-1.6-5.8-3.3-11.5-4.8-17.3-.8-3.2-1.3-6.5-1.6-9.8-.2-2.1.3-4.2.5-6.5-1.5,0-2.1,1.3-3.3,1.8-1.2-.7-1.6-2.2-2.5-3.3-.8-1.1-1.6-2.2-2.5-3.4,1.5-1.8,3.1-3.5,5.1-4.9,2.8,3.3,5.5,6.6,9.1,9.1,2.5,12.3,3.7,24.9,4.5,37.6-1,.9-2.1.7-3.4.5h0ZM223.7,210.5c1.9-.4,28.9-.5,35.9-.2,1.2,3.2,1.9,6.6,2.9,10.1h-39.7c.3-3.4.6-6.6,1-9.9h0ZM261.6,199.4c-.4-2.3-.8-4.5-1.2-6.9h3.1c.4,1.8.4,11.8,0,14-1.1-2.4-1.5-4.7-1.9-7h0ZM263.8,188.6h-3.7c-.4-2.1-1-4.2-1-6.5h4.7c.2,2.1.1,4.3,0,6.5ZM309.3,150.8c0-1.8.9-2.9,2.5-3.7.9.5,1,1.2,1,1.9,0,5.4,0,10.7,0,16.1,0,.1-.1.3-.2.5-.5-.2-1-.3-1.4-.5-1.2-.6-1.8-1.5-1.8-2.9,0-3.8,0-7.5,0-11.3h0ZM302.9,201.4c-1.4.2-2.8.4-4.2.5-.9,0-1.6.4-2.1,1.2-1.3,1.9-2.3,3.8-2.2,6.2,0,6.9,0,13.7,0,20.6v2.6c-1.2.8-2.4,1.6-3.9,2.6v-2.4c0-10.4,0-20.8,0-31.2,0-1,.1-1.9.2-3.1h18.5c-1.9,2-4.1,2.6-6.4,3h0ZM307.8,119.3h-59c0-2.4-.2-4.9-.3-7.5h5.8c4.1,0,8.2-.3,12.3-.8,3.4-.4,6.5-1.7,9.4-3.4,1.5-.8,3-1.8,4.8-1.7.9,0,1.8.2,2.6.4,2.3.8,4.7,1.6,7,2.5,4.7,1.9,9.7,3,14.9,3.5.8,2.2,1.6,4.5,2.5,7h0ZM19,101.7c5.6-13.1,12.7-25.2,21.7-36.3,3.8-4.7,7.8-9.3,12.2-13.6,11.9-11.6,25.2-21.3,40.1-28.6,10.2-5,20.9-8.9,32-11.4,4.7-1.1,9.5-1.8,14.3-2.5,4.1-.6,8.3-1,12.5-1.3,3.5-.2,7,0,10.6,0,4.5,0,8.9.4,13.4.8,6.6.6,13,1.7,19.4,3.2,11.9,2.7,23.3,6.9,34.2,12.4,10.1,5.1,19.6,11.4,28.3,18.6,6.8,5.5,12.9,11.8,18.5,18.4,8.1,9.7,15,20.1,20.6,31.5,1.7,3.4,3.2,6.9,4.8,10.4-.1,0-.2.2-.4.3-5.3-2.6-10.6-5.3-15.9-7.8-2.9-1.4-5.8-2.7-8.8-4-.9-.4-2-.6-3-.8-1.6-.3-3.1,0-4.5.8-4,2.2-8,4.4-12,6.6-3.1,1.7-6.3,3.4-9.7,5.2-2.2-9.4-5.1-18.3-9.6-26.9,1.8-2.4.7-4.6-.9-6.7-1.7-2.1-3.4-4.2-5.2-6.3-3.5-4.1-7.1-8.2-10.6-12.4-4.7-5.6-10.6-9.2-17.9-10.4-3.8-.6-7.6-.9-11.4-.9-6.4,0-12.9-.4-19.4-.6-1.8-1.2-3.7-2.5-6-4-1.1-1.3-2.1-3.2-2.2-5.5,0-1.3-.7-2.4-1.7-3.3-.6-.5-1-1.1-1.4-1.7-3.1-4.3-7.1-7.5-12.3-8.5-4.7-.9-9.4-.3-13.8,1.6-5.4,2.4-9.1,6.4-10.3,12.2-.9,4.1-.8,8.3,1.6,12.3-2.7,3.3-5.4,6.6-8.1,10,.4,1.2,1.2,1.8,2.6,1.9,2.2.2,4.2-.3,6.1-1.1,2.2-.9,4.4-1.8,6.7-2.8.6,1.2.7,2.5.7,3.8,0,2.3.3,4.7.4,7,0,1-.2,1.9-.5,2.8-.5,1.9-.6,3.7.1,5.5,1.1,2.5,2.8,4,5.6,4.2.4,0,.9,0,1.3,0,.4.8.1,1.5,0,2.2-2.2,8.7-4.4,17.5-6.6,26.2-.1.5-.3,1-.3,1.5-.1,1-.2,2,.9,2.4-.9,2.6-1.7,5-2.5,7.4-1.5.4-2.9.3-4.3.1-3.2-.5-6.5-1-9.7-1.8-2.7-.6-5.3-.5-7.9.4-3.3,1.1-6.7,1.7-10.1,1.5-1.9-.1-3.9-.4-5.8-.6-.9-.1-1.8-.3-2.9-.5-2.3-3.6-6.1-5.4-10.3-6.3-1.1-3.6-3.1-6.5-5.9-8.9-2.2-1.8-4.7-2.9-7.6-2.3-.7.1-1.4.5-2.1.8-1.4.6-2.8.7-4.4.3-2.2-.6-4.5-1-6.8-1.3-2.4-.3-4.7.3-6.9,1.4-3.3,1.6-5.7,4.2-7.6,7.2-1.1,1.8-2.1,3.6-3.1,5.4-1.7.4-3.4,1-5,1.2-1.1.1-2.2-.2-3.3-.4-3.8-.6-7.5-1.4-11.1-2.6-.3,0-.5-.2-.9-.4.7-1.8,1.3-3.4,2-5.1h0ZM61.2,179.3c-1.7-3.1-3.2-6-4.8-8.9-1.5-2.8-3.1-5.7-4.5-8.6,2.9,3.1,5,6.7,8.1,9.8.7-5.9,1.5-11.4,2.2-17.1.5,3.5-.2,22-1,24.7h0ZM13.7,197.9h-1.8c-1-4.9-2-9.5-2.8-14.1-.5-3-.7-6-1.1-8.9-.8-6.2-.9-12.5-.8-18.7,0-4.1.4-8.3.8-12.4.4-4.9,1.2-9.8,2.3-14.7.6-2.6,1.3-5.1,1.9-7.7h15.2c1.2-3.6,3.4-6.3,6.3-8.4.5-.4,1.1-.9,2-.5-2.2,1.6-3.7,3.7-4.8,6.1-1.1,2.5-.9,5.1-.9,7.7-6.6.7-12.9,10.1-9.1,17.4,0,.1-.1.3-.3.4-4.9,1.9-7.6,9.3-4.4,15.3,2.2,4.3,5.5,7.6,10,9.3,1.2.5,2.6.7,4,1.1,1.6,5.4,5.4,8.9,10.9,10,5.1,1,9.8-.3,13.6-4.4,1.5,2.6,3,5.1,4.5,7.6.2.4.4,1,.4,1.5,0,1.9,0,3.8,0,5.7,0,1.4-.3,2.7-.4,4.1-.2,2.1-1.5,3.5-3.5,3.7-.5,0-1,0-1.6,0H13.7ZM23.5,227.6c.6-.5,1.4-.3,2.1-.3,11.3,0,22.6,0,33.9,0,1.7,0,3-.4,4.2-1.7,1.3-1.5,2.8-2.9,4.5-4.6H20c-1.3-3.5-2.6-6.9-4-10.7,4.5,0,8.7,0,12.8,0h50.8c2.7-2.5,5.1-5.4,8.3-7.3,1.5.6,2.8,1.5,3.8,2.7,1.2,1.3.5,2.9.8,4.5,3.1.2,6.1,0,9.2,0,3.2,0,6.3,0,9.4,0h55.3c1.4,3.6,2.7,7,4.1,10.7h-78.9c-.4,2.2-.8,4.1-1.2,6.2h84.7c.9,1.4,2,3,3,4.6,2.8,4.1,5,8.6,7.2,13,.4.8.5,1.6.2,2.4-.1.3-.2.6-.2.9-.6,2.2-1,4.4.1,6.6-.8,1.3-1.9,2.3-3,3.1-2.1,1.5-4.4,2.9-6.9,3.7-1.3.4-2.5,1-3.5,1.9-1.8,1.5-2.1,3.6-2.5,5.7-1.5.9-3.2,1.1-4.8,1.5-2.7.6-5.4,1.2-8.1,1.8-.6.1-1.1.4-1.7.6v1.9c1.3,1.6,3.2,1.5,4.9,1.7,4.1.5,8.1,1,12.2,1.3,2.4.2,4.8,0,7.4,0-.1,1-.3,1.7-.4,2.4,0,.7,0,1.4,0,2,0,1.3,0,2.6.1,3.8.2,1.8,1.4,3,3,3.6,1.1.4,2.3.7,3.4,1,2.4.6,4.8.9,7.3.9,3.1,0,6.3.1,9.4,0,3.9-.2,7.8-.5,11.6-.9,2.9-.3,5.8-.7,8.6-1.2,3.4-.6,6.5-2,9.8-3.2,1.6-.6,3.3-.8,5-1.1,3-.5,6.1-.8,9.1-1.2.7,0,1.3-.2,2.5-.3-79.2,57.2-185.1,25.8-225.6-55.9h0ZM269.4,265.8h-1.9c-16.2,0-32.5,0-48.8,0-.9,0-1.8.3-2.6-.7.1-.2.2-.5.4-.7,2.3-2.9,3.1-6.3,3.3-9.9.1-1.8.3-3.6.4-5.4.1-1.9,0-3.8-.9-5.5,2.2-5.4,2.6-11,3.5-16.5h42.1c3.8,9.7,11,14.5,21.7,13.9,0,.9,0,1.7,0,2.5v2.4c-6.5,8.8-14.3,17.8-17.3,19.9h0Z"/>
        <path class="cls-1" d="M89.1,206.4s-.2-.2-.3-.3c-.3.4-.6.8-.9,1.1-.2-.1-.3-.3-.5-.4-5,4.1-8.8,9.2-12.9,14.1-4.1,4.9-7.9,10.1-11.4,15.5.9-.7,1.8-1.4,2.7-2.1,0,0,.2.2.2.2l-4,6.4.2.3c.2-.2.5-.3.7-.5,8.2-8.5,14.1-18.8,21.4-28.4-2.2,4.7-4.4,9-6.4,13.4-3.3,7.2-4.8,11.7-4.9,13.6.3-.4.5-.7.7-1,4.9-7.9,9-16.1,12.6-24.6,1-2.4,1.8-4.9,2.7-7.4h0Z"/>
        <path class="cls-1" d="M144.7,271.2c-.4-.2-.6-.3-.9-.3-5.7-.3-11.5-.7-17.2-.9-2.4-.1-4.8,0-7.2,0-1.6,0-3.3-.2-4.9-.2-3.9,0-7.8.2-11.7.3-1.4,0-2.8,0-4.3.1-4.8.2-9.7.5-14.5.8-2.6.1-5.2.4-7.8.5,1.6.5,3.2.8,4.8.9,4.3.2,8.7.4,13,.6.3,0,.6,0,.9,0,4.1.2,8.2.7,12.3.7,6.7,0,13.3-.2,20-.4.3,0,.6,0,.9,0,2.9-.2,5.8-.5,8.7-.8,2.6-.2,5.2-.4,7.9-1.2h0Z"/>
        <path class="cls-1" d="M121.2,241.4c3.5.2,7,.4,10.5.4,8.2.2,16.5.1,24.7-.8,3.9-.4,7.7-.6,11.6-1,.9,0,1.7-.4,2.6-.6,0-.2,0-.3-.1-.5-4.8-.3-9.7-.7-14.5-.8-6.3-.1-12.6,0-18.9,0-1.4,0-2.9,0-4.3.1-3.8.2-7.6.5-11.4.8-2.7.2-5.4.3-8.1.6-1.3.1-2.6.4-4.2.6.5.2.7.3.9.3,3.7.3,7.4.7,11.2.9h0Z"/>
        <path class="cls-1" d="M78.6,249.7c0,.3,0,.6.2,1.2,3.6-9.2,6.3-18.3,8.5-27.5,1.2-4.8,2.2-9.6,3.4-14.4.2-.9.4-1.8,0-2.8-1.8,2.6-2.9,5.3-3.8,8.1-3.7,11.6-6.7,23.3-8.3,35.4Z"/>
        <path class="cls-1" d="M132.6,290.2c9.4,1.4,23.3,1.9,28.3-.1-4.6-1.6-23.7-1.6-28.3.1Z"/>
        <path class="cls-1" d="M102.7,258.8c1-.4,2-.7,2.8-1.3,1.1-.7,1.2-1.8.5-3-.6-1-1.5-1.3-2.7-.7-.4.2-.8.4-1.1.7-1.7,1.3-1.6,2.7.5,4.2h0Z"/>
        <path class="cls-1" d="M50.5,240.4c-1,.4-1.1.7-1,2.2,1,1,2,1.9,2.9,2.8,2.1,0,2.4-.2,2.3-2.3-.6-.7-1.2-1.3-1.7-2-.8-.9-1.6-1.1-2.5-.7h0Z"/>
        <path class="cls-1" d="M89.7,250.4c-.6.8-.5,1.5.1,2.2,1.5.9,2.5-1,3.9-.7.3,0,.7-.3.9-.6s.4-.6.8-1.1c-.5-.6-.9-1.2-1.2-1.6-2-.4-3.4.2-4.6,1.6h0Z"/>
        <path class="cls-1" d="M51.2,252.2c-1.3,0-2.2.7-2.7,1.7-.5,1.1.3,1.8,1,2.5.2.2.5.3.9.6.8-.3,1.5-.6,2.2-.9.4-1.4.3-2.7-.3-3.8-.5,0-.8,0-1.2-.1h0Z"/>
        <path class="cls-1" d="M70,253.6c.6,1.1,0,2.6,1.2,3.6,1.8-1,2.1-2.2,1.4-4.7-1-.4-1.9,0-2.5,1.1Z"/>
        <path class="cls-1" d="M97.6,237.3c.2-.8,0-1.5-1.1-1.7-1.9,1.3-2.1,2.1-1.2,4.1,1.2-.4,2.1-1,2.3-2.3Z"/>
        <path class="cls-1" d="M62.4,250c-.9,0-1.8,1.1-1.8,2,0,.8.7,1.4,1.5,1.3,1,0,1.8-1,1.8-2,0-.8-.7-1.4-1.5-1.3h0Z"/>
        <path class="cls-1" d="M66.5,242.3c-1-.2-1.4.4-1.8,1.4.4.4.8.9,1.2,1.3,1.2-.3,1.7-.8,1.5-1.7,0-.4-.5-1-.9-1.1h0Z"/>
        <path class="cls-1" d="M40.8,80.4c10.1,0,20.2,0,30.3,0s17.8,0,26.7,0c.8,0,1.6.3,2.4-.5-2.1-4.2-6.1-5.3-9.9-6.3-4.1-6.1-6.9-7.2-13.4-5.1-4.8-8.5-17-9-22.8.3-4.2,0-7.6,1.7-9.9,5.4-3.8,1.5-5.4,3.1-6,5.9.8.4,1.7.2,2.6.2h0Z"/>
        <path class="cls-1" d="M110.4,44.7c-1.7-4-4.9-4.8-8.2-5.3-4.2-4.8-9.4-4.7-13.6-.3-5.5.8-7.9,2.3-8.8,5.7,10.1,0,20.1,0,30.6,0h0Z"/>
        <path class="cls-1" d="M270.1,63.6c-1.5-1.7-3.5-2.5-5.9-2.4-2-3.5-7.5-4.4-10.3-1.5-1.1,1.1-2.2,1.9-3.8,2.1-.7,0-1.4.5-2.1.9-1.3.8-2.4,1.8-2.7,3.7,8.6,0,17.1,0,25.5,0,.6-1.3-.1-2.1-.8-2.8h0Z"/>
        <path class="cls-1" d="M231.2,240.1c-.5,0-.9.3-1.4.4,6.9,1.4,17.5,1.1,19.5-.2-.4-.1-.6-.3-.9-.3-5.8,0-11.5,0-17.3,0h0Z"/>
        <path class="cls-1" d="M284.6,150.2c0-2.3,0-4.5,0-6.8,0-2.6-1.4-4.2-4-4.7-.6-.1-1.2-.2-1.8-.2-4,0-8.1-.1-12.1,0-4.1.2-5.5,2-5.5,5.8,0,3.4,0,6.8,0,10.2,0,1.1.1,2.2.3,3.4.2,1.9,1.2,3.2,3.1,3.7.7.2,1.5.4,2.2.4,4,0,7.9,0,11.9,0,.7,0,1.3-.1,2-.3,2.7-.6,3.9-2.2,4-5,0-2.2,0-4.4,0-6.6h0ZM271.7,158.5c-1.7,0-3.3.2-4.8.2s-2-.7-2.1-2.1c0-.4,0-.9,0-1.4,0-3.5,0-7.1,0-10.6,0-.8.2-1.6.4-2.5h6.5v16.4h0ZM279.3,158.4c-1.6.2-3.2,0-5,0v-16c1.5-.9,3.2-.7,4.8-.6,1.1,0,1.8.8,2,1.8.1.4.1.9.1,1.3,0,3.7,0,7.4,0,11.1,0,1.7-.3,2.2-2,2.4h0Z"/>
      </g>
    </g>
  </g>
</svg>